<svg xmlns="http://www.w3.org/2000/svg" xmlns:xlink="http://www.w3.org/1999/xlink" width="96" height="96" viewBox="0 0 96 96">
  <defs>
    <clipPath id="clip-path">
      <rect id="Rectángulo_456267" data-name="Rectángulo 456267" width="96" height="96" fill="none"/>
    </clipPath>
  </defs>
  <g id="Grupo_1189245" data-name="Grupo 1189245" transform="translate(479.746 8495) rotate(180)">
    <path id="Trazado_999622" data-name="Trazado 999622" d="M43.07,0A43.07,43.07,0,1,1,0,43.07,43.071,43.071,0,0,1,43.07,0" transform="translate(388.676 8403.93)" fill="#e3fbf9"/>
    <g id="Grupo_1179902" data-name="Grupo 1179902" transform="translate(383.746 8399)">
      <g id="Grupo_1179905" data-name="Grupo 1179905" clip-path="url(#clip-path)">
        <path id="Trazado_999618" data-name="Trazado 999618" d="M48,0A48,48,0,1,1,0,48,48,48,0,0,1,48,0" fill="none"/>
        <path id="Trazado_999619" data-name="Trazado 999619" d="M3.75,59A3.75,3.75,0,1,1,0,62.75,3.75,3.75,0,0,1,3.75,59" transform="translate(0 -14.75)" fill="#0f654d"/>
        <path id="Trazado_999620" data-name="Trazado 999620" d="M19.75,19A3.75,3.75,0,1,1,16,22.75,3.75,3.75,0,0,1,19.75,19" transform="translate(-4 -4.75)" fill="#0f654d"/>
        <path id="Trazado_999621" data-name="Trazado 999621" d="M49,94A45.051,45.051,0,0,1,4,49H6.25A42.75,42.75,0,1,0,17.806,19.768l-1.641-1.539A45,45,0,1,1,49,94" transform="translate(-1 -1)" fill="#0f654d"/>
        <rect id="Rectángulo_456268" data-name="Rectángulo 456268" width="96" height="96" fill="none"/>
        <rect id="Rectángulo_456269" data-name="Rectángulo 456269" width="96" height="96" fill="none"/>
      </g>
    </g>
    <g id="Grupo_1179903" data-name="Grupo 1179903" transform="translate(458.745 8474.508) rotate(180)">
      <g id="Grupo_1099618" data-name="Grupo 1099618" transform="translate(-0.036 -0.492)">
        <rect id="Rectángulo_401104" data-name="Rectángulo 401104" width="54.153" height="54.806" transform="translate(0)" fill="none"/>
      </g>
      <path id="generar" d="M39.136,1A11.135,11.135,0,0,0,28.013,12.123a10.016,10.016,0,0,0,2.194,6.356H25.995a4.736,4.736,0,0,0,.3-5.982l1.247-2L23.283,6.237l-1.83,1.132a12.594,12.594,0,0,0-2.647-1.1l-.493-2.093H12.288L11.8,6.271a12.636,12.636,0,0,0-2.647,1.1L7.319,6.237,3.058,10.5l1.133,1.829a12.629,12.629,0,0,0-1.1,2.647L1,15.466v6.025l2.093.493a12.629,12.629,0,0,0,1.1,2.647l-1.133,1.83,4.261,4.261,1.83-1.133a12.629,12.629,0,0,0,2.647,1.1l.493,2.094h.578L9.054,46.58a2.91,2.91,0,0,0,1.865,3.559,2.645,2.645,0,0,0,2.07-.21,2.831,2.831,0,0,0,1.371-1.753l3.157-11.424h4.141l0,10.725a2.782,2.782,0,0,0,5.563,0V35.163a3.977,3.977,0,0,0-3.972-3.972H22.6L22.86,29.6H33.574V40.15l5.561,9.269L44.7,40.15V21.334a10.424,10.424,0,0,0,5.561-9.211A11.135,11.135,0,0,0,39.136,1Zm-24.8,23.3-.378,2a7.943,7.943,0,1,1,5.415-14.643,4.761,4.761,0,0,0-1.6,2.747A4.761,4.761,0,1,0,14.645,23.2a7.118,7.118,0,0,0-.307,1.109Zm1.095-2.656c-.044,0-.087.009-.132.009a3.178,3.178,0,1,1,2.573-5.036,4.773,4.773,0,0,0,1.361,2.189A7.159,7.159,0,0,0,15.433,21.648ZM19.273,15.3a3.178,3.178,0,1,1,3.178,3.178A3.181,3.181,0,0,1,19.273,15.3ZM9.547,27.984l-.416-.253-1.578.976L5.073,26.227l.976-1.578L5.8,24.233a11.032,11.032,0,0,1-1.285-3.1L4.4,20.658l-1.807-.425V16.725L4.394,16.3l.116-.473a11.041,11.041,0,0,1,1.285-3.1l.253-.416-.976-1.578L7.552,8.25l1.578.976.416-.253a11.04,11.04,0,0,1,3.1-1.286l.473-.116.427-1.8h3.508l.425,1.805.473.116a11.016,11.016,0,0,1,3.1,1.286l.416.253,1.578-.976,2.48,2.48-.4.633a4.727,4.727,0,0,0-4.208-.574,9.53,9.53,0,1,0-7.259,17.082l-.4,2.123-.144-.609-.474-.116a11.032,11.032,0,0,1-3.1-1.285Zm3.28,19.769a1.253,1.253,0,0,1-.6.781,1.065,1.065,0,0,1-.837.086,1.309,1.309,0,0,1-.8-1.617l3.24-11.728a3.959,3.959,0,0,0,2.08,1.338ZM23.246,32.78a2.386,2.386,0,0,1,2.383,2.383V47.477a1.193,1.193,0,0,1-2.385,0l0-10.725a1.591,1.591,0,0,0-1.589-1.589H16.89a2.386,2.386,0,0,1-2.383-2.383v-.8L15.9,24.6a5.566,5.566,0,0,1,5.465-4.531H35.958a.791.791,0,0,1,.792.783v.017a.8.8,0,0,1-.793.788H24.592a2.375,2.375,0,0,0-2.351,1.992L20.719,32.78ZM35.44,40.171l1.313-.875,2.383,1.589L41.519,39.3l1.313.875L41.07,43.108H37.2ZM33.574,24.835h-9.92l.154-.926a.791.791,0,0,1,.783-.663h8.983Zm1.589,0h3.178V38.445l-1.589-1.059-1.589,1.059Zm6.356,12.551L39.93,38.445V24.835h3.178V38.445Zm1.589-14.14h-7.15A2.382,2.382,0,0,0,38.2,21.657h4.913Zm-3.13-3.178H38.294l-.4-6.356h2.48ZM23.124,28.013l.265-1.589H33.574v1.589ZM38.155,44.7h1.961l-.98,1.634Zm5.53-24.629H41.571l.4-6.356H43.9a3.178,3.178,0,0,0,0-6.356h-.145a3.183,3.183,0,0,0-3.172,2.979l-.111,1.788H37.8l-.112-1.788a3.183,3.183,0,0,0-3.172-2.979h-.145a3.178,3.178,0,1,0,0,6.356H36.3l.3,4.868a2.382,2.382,0,0,0-.651-.1H32.366A8.513,8.513,0,0,1,29.6,12.123a9.534,9.534,0,0,1,19.068,0,8.808,8.808,0,0,1-4.984,7.945Zm-1.619-7.945.106-1.688a1.592,1.592,0,0,1,1.586-1.49H43.9a1.589,1.589,0,1,1,0,3.178Zm-5.862,0H34.369a1.589,1.589,0,1,1,0-3.178h.145a1.591,1.591,0,0,1,1.586,1.49Z" transform="translate(0.964 1.506)" fill="#0f654d"/>
    </g>
  </g>
</svg>
