<svg xmlns="http://www.w3.org/2000/svg" xmlns:xlink="http://www.w3.org/1999/xlink" width="96" height="96" viewBox="0 0 96 96">
  <defs>
    <clipPath id="clip-path">
      <rect id="Rectángulo_456267" data-name="Rectángulo 456267" width="96" height="96" fill="none"/>
    </clipPath>
  </defs>
  <g id="Grupo_1189245" data-name="Grupo 1189245" transform="translate(479.746 8495) rotate(180)">
    <path id="Trazado_999622" data-name="Trazado 999622" d="M43.07,0A43.07,43.07,0,1,1,0,43.07,43.071,43.071,0,0,1,43.07,0" transform="translate(388.676 8403.93)" fill="#e3fbf9"/>
    <g id="Grupo_1179902" data-name="Grupo 1179902" transform="translate(383.746 8399)">
      <g id="Grupo_1179905" data-name="Grupo 1179905" clip-path="url(#clip-path)">
        <path id="Trazado_999618" data-name="Trazado 999618" d="M48,0A48,48,0,1,1,0,48,48,48,0,0,1,48,0" fill="none"/>
        <path id="Trazado_999619" data-name="Trazado 999619" d="M3.75,59A3.75,3.75,0,1,1,0,62.75,3.75,3.75,0,0,1,3.75,59" transform="translate(0 -14.75)" fill="#0f654d"/>
        <path id="Trazado_999620" data-name="Trazado 999620" d="M19.75,19A3.75,3.75,0,1,1,16,22.75,3.75,3.75,0,0,1,19.75,19" transform="translate(-4 -4.75)" fill="#0f654d"/>
        <path id="Trazado_999621" data-name="Trazado 999621" d="M49,94A45.051,45.051,0,0,1,4,49H6.25A42.75,42.75,0,1,0,17.806,19.768l-1.641-1.539A45,45,0,1,1,49,94" transform="translate(-1 -1)" fill="#0f654d"/>
        <rect id="Rectángulo_456268" data-name="Rectángulo 456268" width="96" height="96" fill="none"/>
        <rect id="Rectángulo_456269" data-name="Rectángulo 456269" width="96" height="96" fill="none"/>
      </g>
    </g>
    <g id="Grupo_1179903" data-name="Grupo 1179903" transform="translate(458.745 8474.508) rotate(180)">
      <g id="Grupo_1099618" data-name="Grupo 1099618" transform="translate(0 0)">
        <rect id="Rectángulo_401104" data-name="Rectángulo 401104" width="54.153" height="54.806" transform="translate(0)" fill="none"/>
      </g>
      <g id="borrar-archivo" transform="translate(-0.036 2.845)">
        <path id="Trazado_1033411" data-name="Trazado 1033411" d="M82.581,31.412H82.54a8.245,8.245,0,0,0-13.967-5.063,8.234,8.234,0,0,0-13.952,5.068,6.616,6.616,0,0,0-4.589,1.859,6.565,6.565,0,0,0,2.077,10.833V56.942h1.647V44.532a6.683,6.683,0,0,0,.824.057h6.588V39.648h5.765V33.883h11.53V48.707H61.169A2.474,2.474,0,0,0,58.7,51.177v1.691L59.521,68.5v2.442a1.649,1.649,0,0,0,1.647,1.647H75.993a1.649,1.649,0,0,0,1.647-1.647V68.5L78.508,52H61.992v1.647H76.771l-.738,14H73.575l.769-12.3-1.644-.1-.775,12.405H69.4V55.3H67.757V67.649H65.236l-.775-12.4-1.644.1.769,12.3h-2.46l-.782-14.824V51.177a.824.824,0,0,1,.824-.824H80.11V44.589h2.471a6.543,6.543,0,0,0,2.471-.485V56.942H86.7V43.135a6.583,6.583,0,0,0-4.118-11.723ZM61.169,70.943V69.3H75.993v1.647ZM62.333,38l2.953-2.953V38Zm20.248,4.941H80.11V32.236H65.769l-6.247,6.247v4.459H54.58a4.942,4.942,0,1,1,2.546-9.178l.849-1.411a6.526,6.526,0,0,0-1.718-.717,6.581,6.581,0,0,1,11.258-4.012,8.277,8.277,0,0,0-1.2,2.78l1.607.365a6.59,6.59,0,0,1,13.014,1.438l0,1.044.941-.136a4.9,4.9,0,0,1,.709-.058,4.941,4.941,0,0,1,0,9.883Zm0,0" transform="translate(-43.05 -21.529)" fill="#0f654d"/>
        <path id="Trazado_1033412" data-name="Trazado 1033412" d="M148,58.965l1.509.659a3.3,3.3,0,0,1,3.021-1.977V56A4.942,4.942,0,0,0,148,58.965Zm0,0" transform="translate(-132.764 -50.235)" fill="#0f654d"/>
        <path id="Trazado_1033413" data-name="Trazado 1033413" d="M248,136h8.236v1.647H248Zm0,0" transform="translate(-222.47 -122)" fill="#0f654d"/>
        <path id="Trazado_1033414" data-name="Trazado 1033414" d="M248,168h8.236v1.647H248Zm0,0" transform="translate(-222.47 -150.705)" fill="#0f654d"/>
        <path id="Trazado_1033415" data-name="Trazado 1033415" d="M192,200h14v1.647H192Zm0,0" transform="translate(-172.235 -179.411)" fill="#0f654d"/>
        <path id="Trazado_1033416" data-name="Trazado 1033416" d="M312,232h1.647v1.647H312Zm0,0" transform="translate(-279.881 -208.117)" fill="#0f654d"/>
        <path id="Trazado_1033417" data-name="Trazado 1033417" d="M192,232h10.706v1.647H192Zm0,0" transform="translate(-172.235 -208.117)" fill="#0f654d"/>
        <path id="Trazado_1033418" data-name="Trazado 1033418" d="M88,360h1.647v1.647H88Zm0,0" transform="translate(-78.941 -322.94)" fill="#0f654d"/>
        <path id="Trazado_1033419" data-name="Trazado 1033419" d="M120,416h1.647v1.647H120Zm0,0" transform="translate(-107.647 -373.175)" fill="#0f654d"/>
        <path id="Trazado_1033420" data-name="Trazado 1033420" d="M120,264h1.647v14H120Zm0,0" transform="translate(-107.647 -236.823)" fill="#0f654d"/>
        <path id="Trazado_1033421" data-name="Trazado 1033421" d="M408,360h1.647v1.647H408Zm0,0" transform="translate(-365.999 -322.94)" fill="#0f654d"/>
        <path id="Trazado_1033422" data-name="Trazado 1033422" d="M376,416h1.647v1.647H376Zm0,0" transform="translate(-337.293 -373.175)" fill="#0f654d"/>
        <path id="Trazado_1033423" data-name="Trazado 1033423" d="M376,264h1.647v14H376Zm0,0" transform="translate(-337.293 -236.823)" fill="#0f654d"/>
        <path id="Trazado_1033424" data-name="Trazado 1033424" d="M0,0H1.647V1.647H0ZM0,0" fill="#0f654d"/>
        <path id="Trazado_1033425" data-name="Trazado 1033425" d="M0,32H1.647V44.353H0Zm0,0" transform="translate(0 -28.706)" fill="#0f654d"/>
        <path id="Trazado_1033426" data-name="Trazado 1033426" d="M32,0h1.647V8.236H32Zm0,0" transform="translate(-28.706)" fill="#0f654d"/>
        <path id="Trazado_1033427" data-name="Trazado 1033427" d="M64,0h1.647V4.941H64Zm0,0" transform="translate(-57.412)" fill="#0f654d"/>
        <path id="Trazado_1033428" data-name="Trazado 1033428" d="M64,64h1.647v1.647H64Zm0,0" transform="translate(-57.412 -57.412)" fill="#0f654d"/>
        <path id="Trazado_1033429" data-name="Trazado 1033429" d="M480,0h1.647V1.647H480Zm0,0" transform="translate(-430.587)" fill="#0f654d"/>
        <path id="Trazado_1033430" data-name="Trazado 1033430" d="M480,32h1.647V44.353H480Zm0,0" transform="translate(-430.587 -28.706)" fill="#0f654d"/>
        <path id="Trazado_1033431" data-name="Trazado 1033431" d="M448,0h1.647V8.236H448Zm0,0" transform="translate(-401.881)" fill="#0f654d"/>
        <path id="Trazado_1033432" data-name="Trazado 1033432" d="M416,0h1.647V4.941H416Zm0,0" transform="translate(-373.175)" fill="#0f654d"/>
        <path id="Trazado_1033433" data-name="Trazado 1033433" d="M416,64h1.647v1.647H416Zm0,0" transform="translate(-373.175 -57.412)" fill="#0f654d"/>
      </g>
    </g>
  </g>
</svg>
