<svg xmlns="http://www.w3.org/2000/svg" xmlns:xlink="http://www.w3.org/1999/xlink" width="96" height="96" viewBox="0 0 96 96">
  <defs>
    <clipPath id="clip-path">
      <rect id="Rectángulo_456267" data-name="Rectángulo 456267" width="96" height="96" fill="none"/>
    </clipPath>
  </defs>
  <g id="Grupo_1189245" data-name="Grupo 1189245" transform="translate(479.746 8495) rotate(180)">
    <path id="Trazado_999622" data-name="Trazado 999622" d="M43.07,0A43.07,43.07,0,1,1,0,43.07,43.071,43.071,0,0,1,43.07,0" transform="translate(388.676 8403.93)" fill="#e3fbf9"/>
    <g id="Grupo_1179902" data-name="Grupo 1179902" transform="translate(383.746 8399)">
      <g id="Grupo_1179905" data-name="Grupo 1179905" clip-path="url(#clip-path)">
        <path id="Trazado_999618" data-name="Trazado 999618" d="M48,0A48,48,0,1,1,0,48,48,48,0,0,1,48,0" fill="none"/>
        <path id="Trazado_999619" data-name="Trazado 999619" d="M3.75,59A3.75,3.75,0,1,1,0,62.75,3.75,3.75,0,0,1,3.75,59" transform="translate(0 -14.75)" fill="#0f654d"/>
        <path id="Trazado_999620" data-name="Trazado 999620" d="M19.75,19A3.75,3.75,0,1,1,16,22.75,3.75,3.75,0,0,1,19.75,19" transform="translate(-4 -4.75)" fill="#0f654d"/>
        <path id="Trazado_999621" data-name="Trazado 999621" d="M49,94A45.051,45.051,0,0,1,4,49H6.25A42.75,42.75,0,1,0,17.806,19.768l-1.641-1.539A45,45,0,1,1,49,94" transform="translate(-1 -1)" fill="#0f654d"/>
        <rect id="Rectángulo_456268" data-name="Rectángulo 456268" width="96" height="96" fill="none"/>
        <rect id="Rectángulo_456269" data-name="Rectángulo 456269" width="96" height="96" fill="none"/>
      </g>
    </g>
    <g id="Grupo_1179903" data-name="Grupo 1179903" transform="translate(458.745 8474.508) rotate(180)">
      <g id="Grupo_1099618" data-name="Grupo 1099618" transform="translate(-0.036 0)">
        <rect id="Rectángulo_401104" data-name="Rectángulo 401104" width="54.153" height="54.806" transform="translate(0)" fill="none"/>
      </g>
      <g id="impulsando-el-potencial" transform="translate(0.963 0.509)">
        <path id="Trazado_1033434" data-name="Trazado 1033434" d="M46.764,38.529A5.764,5.764,0,1,0,41,32.764,5.771,5.771,0,0,0,46.764,38.529Zm0-9.882a4.117,4.117,0,1,1-4.117,4.117A4.122,4.122,0,0,1,46.764,28.647Z" transform="translate(-7.06 -4.589)" fill="#0f654d"/>
        <path id="Trazado_1033435" data-name="Trazado 1033435" d="M47.47,35.941A2.47,2.47,0,1,0,45,33.47,2.474,2.474,0,0,0,47.47,35.941Zm0-3.294a.823.823,0,1,1-.823.823A.825.825,0,0,1,47.47,32.647Z" transform="translate(-7.766 -5.295)" fill="#0f654d"/>
        <path id="Trazado_1033436" data-name="Trazado 1033436" d="M22.332,17.5a5.764,5.764,0,1,0-6.547,0A9.065,9.065,0,0,0,10,25.94v2.47H28.117V25.94A9.065,9.065,0,0,0,22.332,17.5Zm-7.391-4.739a4.117,4.117,0,1,1,4.117,4.117,4.122,4.122,0,0,1-4.117-4.117Zm11.529,14H24V21.823H22.352v4.941H15.764V21.823H14.117v4.941h-2.47V25.94a7.411,7.411,0,1,1,14.823,0Z" transform="translate(-1.588 -1.059)" fill="#0f654d"/>
        <path id="Trazado_1033437" data-name="Trazado 1033437" d="M45.806,37.214l3.67-3.67L48.42,31.786l1.99-.5V25.062l-1.99-.5,1.055-1.757-4.4-4.4-1.757,1.055-.5-1.99H36.591l-.5,1.99L34.337,18.4l-.462.462c.038-.464.065-.93.065-1.4A16.472,16.472,0,1,0,7.1,30.262a5.572,5.572,0,0,1,.532.521,2.447,2.447,0,0,0-1.048,3.98,2.46,2.46,0,0,0,1.828,4.117h.872a7.421,7.421,0,0,0,7.363,6.588h1.647a7.421,7.421,0,0,0,7.363-6.588h.872a2.46,2.46,0,0,0,1.828-4.117,2.447,2.447,0,0,0-1.063-3.984,5.011,5.011,0,0,1,.444-.434A16.639,16.639,0,0,0,29,29.21v2.079l1.99.5-1.055,1.757,3.67,3.67a12.315,12.315,0,0,0-6.251,10.726v4.117h24.7V47.939a12.313,12.313,0,0,0-6.251-10.725ZM18.294,43.822H16.647a5.768,5.768,0,0,1-5.7-4.941H23.992A5.768,5.768,0,0,1,18.294,43.822Zm8.235-6.588H8.412a.823.823,0,1,1,0-1.647H26.529a.823.823,0,1,1,0,1.647Zm0-3.294H8.412a.823.823,0,1,1,0-1.647H26.529a.823.823,0,0,1,0,1.647Zm.182-4.882a6.774,6.774,0,0,0-1.43,1.588H9.63a7.337,7.337,0,0,0-1.494-1.663A14.827,14.827,0,1,1,31.9,20.836l-1.971,1.971,1.055,1.757-1.989.5v1.7A14.923,14.923,0,0,1,26.711,29.058Zm5.952,1.449L30.646,30V26.348l2.014-.5.413-1.006-1.067-1.777,2.584-2.584,1.777,1.067,1.006-.413.5-2.014h3.655l.5,2.014,1.006.413,1.777-1.067L47.4,23.061l-1.067,1.777.413,1.006,2.014.5V30l-2.014.5-.414,1L47.4,33.289l-2.2,2.2-2.283-.63-.884.361-.5,2.013H37.877l-.5-2.014-.884-.361-2.283.63-2.2-2.2,1.067-1.779Zm7.822,13.841-.78.78-.78-.78.684-5.467H39.8ZM50.41,50.41H47.94V43.822H46.293V50.41H33.117V43.822H31.47V50.41H29v-2.47A10.675,10.675,0,0,1,36.32,37.8l.271,1.084h1.358l-.758,6.062L39.7,47.457l2.514-2.514-.758-6.062h1.358l.27-1.084A10.675,10.675,0,0,1,50.41,47.939Z" transform="translate(0)" fill="#0f654d"/>
        <path id="Trazado_1033438" data-name="Trazado 1033438" d="M57,19.941a2.471,2.471,0,1,0-2.319-3.294H43v1.647H54.68A2.467,2.467,0,0,0,57,19.941Zm0-3.294a.823.823,0,1,1-.823.823A.825.825,0,0,1,57,16.647Z" transform="translate(-7.413 -2.471)" fill="#0f654d"/>
        <path id="Trazado_1033439" data-name="Trazado 1033439" d="M44,9h1.647v1.647H44Z" transform="translate(-7.589 -1.412)" fill="#0f654d"/>
        <path id="Trazado_1033440" data-name="Trazado 1033440" d="M40,9h1.647v1.647H40Z" transform="translate(-6.883 -1.412)" fill="#0f654d"/>
        <path id="Trazado_1033441" data-name="Trazado 1033441" d="M54.588,11.941a2.471,2.471,0,1,0-2.319-3.294H48v1.647h4.269A2.467,2.467,0,0,0,54.588,11.941Zm0-3.294a.823.823,0,1,1-.823.823A.825.825,0,0,1,54.588,8.647Z" transform="translate(-8.295 -1.059)" fill="#0f654d"/>
        <path id="Trazado_1033442" data-name="Trazado 1033442" d="M6.7,22.2l-1.641.14a13.327,13.327,0,0,0,.264,1.735l1.608-.357A11.57,11.57,0,0,1,6.7,22.2Z" transform="translate(-0.716 -3.741)" fill="#0f654d"/>
        <path id="Trazado_1033443" data-name="Trazado 1033443" d="M5.978,26.4A13.068,13.068,0,0,0,6.693,28l1.457-.77a11.294,11.294,0,0,1-.624-1.4Z" transform="translate(-0.878 -4.383)" fill="#0f654d"/>
        <path id="Trazado_1033444" data-name="Trazado 1033444" d="M6.837,18.414l-1.621-.295a13.238,13.238,0,0,0-.2,1.744l1.645.077A11.489,11.489,0,0,1,6.837,18.414Z" transform="translate(-0.709 -3.022)" fill="#0f654d"/>
        <path id="Trazado_1033445" data-name="Trazado 1033445" d="M36.267,19.494a13.145,13.145,0,0,0-2.028-7.028l-1.393.879a11.547,11.547,0,0,1,.445,11.528l1.457.77a13.215,13.215,0,0,0,1.519-6.15Z" transform="translate(-5.621 -2.024)" fill="#0f654d"/>
        <path id="Trazado_1033446" data-name="Trazado 1033446" d="M30.39,8.2,29.4,9.518a11.62,11.62,0,0,1,1.676,1.537l1.227-1.1A13.289,13.289,0,0,0,30.39,8.2Z" transform="translate(-5.013 -1.271)" fill="#0f654d"/>
      </g>
    </g>
  </g>
</svg>
