<svg xmlns="http://www.w3.org/2000/svg" width="123" height="123" viewBox="0 0 123 123">
  <g id="Grupo_1189568" data-name="Grupo 1189568" transform="translate(-1156.711 -6521)">
    <rect id="Rectángulo_460086" data-name="Rectángulo 460086" width="123" height="123" transform="translate(1156.711 6521)" fill="#5af6ea"/>
    <g id="validar_1_" data-name="validar (1)" transform="translate(1172.392 6539.229)">
      <path id="Trazado_1033476" data-name="Trazado 1033476" d="M24,38.765h6.846a1.853,1.853,0,1,0,0-3.706H24a1.853,1.853,0,1,0,0,3.706Z" transform="translate(18.891 27.288)"/>
      <path id="Trazado_1033477" data-name="Trazado 1033477" d="M7.373,12.019H21.6a1.853,1.853,0,1,0,0-3.706H7.373a1.853,1.853,0,1,0,0,3.706Z" transform="translate(4.707 4.48)"/>
      <path id="Trazado_1033478" data-name="Trazado 1033478" d="M7.373,16.568H38.19a1.853,1.853,0,0,0,0-3.706H7.373a1.853,1.853,0,0,0,0,3.706Z" transform="translate(4.707 8.359)"/>
      <path id="Trazado_1033479" data-name="Trazado 1033479" d="M7.373,25.667H30.812a1.853,1.853,0,1,0,0-3.706H7.373a1.853,1.853,0,0,0,0,3.706Z" transform="translate(4.707 16.118)"/>
      <path id="Trazado_1033480" data-name="Trazado 1033480" d="M53.727,26.509H7.373a1.853,1.853,0,0,0,0,3.706H53.729a1.853,1.853,0,1,0,0-3.706Z" transform="translate(4.707 19.997)"/>
      <path id="Trazado_1033481" data-name="Trazado 1033481" d="M7.373,21.118H15.8a1.853,1.853,0,1,0,0-3.706H7.373a1.853,1.853,0,0,0,0,3.706Z" transform="translate(4.707 12.239)"/>
      <path id="Trazado_1033482" data-name="Trazado 1033482" d="M30.308,17.412h-13.7a1.853,1.853,0,0,0,0,3.706h13.7a1.853,1.853,0,1,0,0-3.706Z" transform="translate(12.587 12.239)"/>
      <path id="Trazado_1033483" data-name="Trazado 1033483" d="M90.786,3.06H1.853A1.853,1.853,0,0,0,0,4.913V70.3a1.852,1.852,0,0,0,1.853,1.853H44.467v8.5H21.905a1.853,1.853,0,0,0,0,3.706H70.731a1.853,1.853,0,0,0,0-3.706H48.172v-8.5H90.786A1.851,1.851,0,0,0,92.639,70.3V4.913A1.851,1.851,0,0,0,90.786,3.06ZM88.933,6.766V29.23H66.468V6.766Zm-85.228,0H62.763V31.083a1.852,1.852,0,0,0,1.853,1.853H88.933V56.244H3.706ZM88.933,68.45H3.706v-8.5H88.933Z"/>
      <path id="Trazado_1033484" data-name="Trazado 1033484" d="M38.633,16.79l4.813,2.629a1.6,1.6,0,0,0,.156.061c.05.022.1.041.152.059a1.8,1.8,0,0,0,.58.107h.006a1.817,1.817,0,0,0,.647-.133c.048-.019.1-.037.145-.059a1.87,1.87,0,0,0,.554-.395c.006-.006.013-.007.019-.013L53,11.074a1.852,1.852,0,1,0-2.733-2.5l-6.316,6.9L40.412,13.54a1.852,1.852,0,0,0-1.779,3.25Z" transform="translate(32.124 4.188)"/>
    </g>
  </g>
</svg>
