<svg xmlns="http://www.w3.org/2000/svg" xmlns:xlink="http://www.w3.org/1999/xlink" width="160" height="160" viewBox="0 0 160 160">
  <defs>
    <clipPath id="clip-path">
      <rect id="Rectángulo_456312" data-name="Rectángulo 456312" width="160" height="160" fill="none"/>
    </clipPath>
  </defs>
  <g id="Grupo_1189050" data-name="Grupo 1189050" transform="translate(-422.059 -9435)">
    <g id="Grupo_1179959" data-name="Grupo 1179959" transform="translate(422.059 9435)" clip-path="url(#clip-path)">
      <path id="Trazado_999654" data-name="Trazado 999654" d="M1.5,5.146H131.567a19.711,19.711,0,0,1,19.757,19.663V154.256H21.257A19.711,19.711,0,0,1,1.5,134.593Z" transform="translate(0.97 3.287)" fill="#fff"/>
    </g>
    <g id="Grupo_1179960" data-name="Grupo 1179960" transform="translate(422.059 9435)">
      <g id="Grupo_1179956" data-name="Grupo 1179956" clip-path="url(#clip-path)">
        <path id="Trazado_999651" data-name="Trazado 999651" d="M95.413,30a8.193,8.193,0,1,1-8.232,8.193A8.213,8.213,0,0,1,95.413,30" transform="translate(56.355 19.158)" fill="#19538d"/>
        <path id="Trazado_999652" data-name="Trazado 999652" d="M66.413,0a8.193,8.193,0,1,1-8.232,8.193A8.213,8.213,0,0,1,66.413,0" transform="translate(37.609 0)" fill="#19538d"/>
        <path id="Trazado_999653" data-name="Trazado 999653" d="M151.324,54.064V154.256H21.257A19.711,19.711,0,0,1,1.5,134.593V5.146H104.167" transform="translate(0.97 3.287)" fill="none" stroke="#19538d" stroke-miterlimit="10" stroke-width="4"/>
      </g>
    </g>
    <g id="Grupo_1179961" data-name="Grupo 1179961" transform="translate(-608)">
      <rect id="Rectángulo_456311" data-name="Rectángulo 456311" width="109.239" height="110.028" transform="translate(1049.688 9463)" fill="#fff"/>
      <g id="tipo-de-archivo" transform="translate(1052.688 9466)">
        <path id="Trazado_1032573" data-name="Trazado 1032573" d="M82.189,1H10.858V7.572H9.215A8.224,8.224,0,0,0,1,15.787V48.648a8.224,8.224,0,0,0,8.215,8.215h1.643v46h92.01V21.679Zm.963,5.609L97.259,20.716H83.152ZM20.716,20.716V4.286H24v16.43ZM17.43,4.286v16.43H14.144V4.286ZM9.215,10.858h1.643v9.858H9.215a4.929,4.929,0,0,1,0-9.858ZM4.286,48.648V22.356A8.182,8.182,0,0,0,9.215,24H58.506a4.935,4.935,0,0,1,4.929,4.929V48.648a4.935,4.935,0,0,1-4.929,4.929H9.215A4.935,4.935,0,0,1,4.286,48.648Zm60.75,4.929H91.367A1.646,1.646,0,0,1,93.01,55.22v3.286a1.646,1.646,0,0,1-1.643,1.643H58.506a1.646,1.646,0,0,1-1.643-1.643V56.863h1.643A8.177,8.177,0,0,0,65.036,53.577ZM91.367,86.438a1.646,1.646,0,0,1,1.643,1.643v3.286a1.646,1.646,0,0,1-1.643,1.643H58.506a1.646,1.646,0,0,1-1.643-1.643V88.081a1.646,1.646,0,0,1,1.643-1.643ZM61.792,83.152V79.866H88.081v3.286ZM58.506,76.58a1.646,1.646,0,0,1-1.643-1.643V71.651a1.646,1.646,0,0,1,1.643-1.643H91.367a1.646,1.646,0,0,1,1.643,1.643v3.286a1.646,1.646,0,0,1-1.643,1.643Zm3.286-9.858V63.435H88.081v3.286ZM24,56.863V99.582H20.716V56.863Zm-9.858,0H17.43V99.582H14.144ZM27.289,99.582V56.863H53.577v1.643a4.935,4.935,0,0,0,4.929,4.929v3.286a4.935,4.935,0,0,0-4.929,4.929v3.286a4.935,4.935,0,0,0,4.929,4.929v3.286a4.935,4.935,0,0,0-4.929,4.929v3.286A4.935,4.935,0,0,0,58.506,96.3H91.367A4.935,4.935,0,0,0,96.3,91.367V88.081a4.935,4.935,0,0,0-4.929-4.929V79.866A4.935,4.935,0,0,0,96.3,74.937V71.651a4.935,4.935,0,0,0-4.929-4.929V63.435A4.935,4.935,0,0,0,96.3,58.506V55.22a4.935,4.935,0,0,0-4.929-4.929H66.555a8.207,8.207,0,0,0,.166-1.643V28.932a8.225,8.225,0,0,0-8.215-8.215H27.289V4.286H79.866V24H99.582v75.58Z" fill="#19538d"/>
        <path id="Trazado_1032574" data-name="Trazado 1032574" d="M20.144,23.418A6.424,6.424,0,0,0,13.727,17h-.309a6.417,6.417,0,0,0-2.031,12.505l3.329,1.111a3.131,3.131,0,0,1-.989,6.1h-.309a3.135,3.135,0,0,1-3.132-3.132v-1.8H7v1.8A6.424,6.424,0,0,0,13.418,40h.309A6.417,6.417,0,0,0,15.757,27.5l-3.329-1.111a3.13,3.13,0,0,1,.989-6.1h.309a3.135,3.135,0,0,1,3.132,3.132v.154Z" transform="translate(3.858 10.289)" fill="#19538d"/>
        <path id="Trazado_1032575" data-name="Trazado 1032575" d="M33.43,31.787V25.215a8.215,8.215,0,1,0-16.43,0v6.572a8.2,8.2,0,0,0,12.738,6.847l2.53,2.53,2.323-2.323-2.53-2.53A8.164,8.164,0,0,0,33.43,31.787Zm-8.215,4.929a4.935,4.935,0,0,1-4.929-4.929V25.215a4.929,4.929,0,0,1,9.858,0v6.572A4.935,4.935,0,0,1,25.215,36.716Z" transform="translate(10.289 10.289)" fill="#19538d"/>
        <path id="Trazado_1032576" data-name="Trazado 1032576" d="M32.286,17H29V40h9.858V36.716H32.286Z" transform="translate(18.005 10.289)" fill="#19538d"/>
        <path id="Trazado_1032577" data-name="Trazado 1032577" d="M19,14.858h9.858V5H19Zm3.286-6.572h3.286v3.286H22.286Z" transform="translate(11.575 2.572)" fill="#19538d"/>
        <path id="Trazado_1032578" data-name="Trazado 1032578" d="M27,14.858h9.858V5H27Zm3.286-6.572h3.286v3.286H30.286Z" transform="translate(16.719 2.572)" fill="#19538d"/>
        <path id="Trazado_1032579" data-name="Trazado 1032579" d="M35,14.858h9.858V5H35Zm3.286-6.572h3.286v3.286H38.286Z" transform="translate(21.863 2.572)" fill="#19538d"/>
        <path id="Trazado_1032580" data-name="Trazado 1032580" d="M19,37h3.286v3.286H19Z" transform="translate(11.575 23.149)" fill="#19538d"/>
        <path id="Trazado_1032581" data-name="Trazado 1032581" d="M23,37H36.144v3.286H23Z" transform="translate(14.147 23.149)" fill="#19538d"/>
        <path id="Trazado_1032582" data-name="Trazado 1032582" d="M19,41H38.716v3.286H19Z" transform="translate(11.575 25.721)" fill="#19538d"/>
        <path id="Trazado_1032583" data-name="Trazado 1032583" d="M19,45H38.716v3.286H19Z" transform="translate(11.575 28.294)" fill="#19538d"/>
        <path id="Trazado_1032584" data-name="Trazado 1032584" d="M19,49H38.716v3.286H19Z" transform="translate(11.575 30.866)" fill="#19538d"/>
        <path id="Trazado_1032585" data-name="Trazado 1032585" d="M19,53h3.286v3.286H19Z" transform="translate(11.575 33.438)" fill="#19538d"/>
        <path id="Trazado_1032586" data-name="Trazado 1032586" d="M23,53H36.144v3.286H23Z" transform="translate(14.147 33.438)" fill="#19538d"/>
        <path id="Trazado_1032587" data-name="Trazado 1032587" d="M19,57H38.716v3.286H19Z" transform="translate(11.575 36.01)" fill="#19538d"/>
        <path id="Trazado_1032588" data-name="Trazado 1032588" d="M43,17H69.289v3.286H43Z" transform="translate(27.007 10.289)" fill="#19538d"/>
        <path id="Trazado_1032589" data-name="Trazado 1032589" d="M43,21H69.289v3.286H43Z" transform="translate(27.007 12.861)" fill="#19538d"/>
        <path id="Trazado_1032590" data-name="Trazado 1032590" d="M43,25H67.646v3.286H43Z" transform="translate(27.007 15.433)" fill="#19538d"/>
      </g>
    </g>
  </g>
</svg>
