<svg xmlns="http://www.w3.org/2000/svg" width="84" height="84" viewBox="0 0 84 84">
  <g id="Grupo_1189286" data-name="Grupo 1189286" transform="translate(-393.711 -3981)">
    <rect id="Rectángulo_459828" data-name="Rectángulo 459828" width="84" height="84" transform="translate(393.711 3981)" fill="#68eae0"/>
    <g id="Grupo_1189285" data-name="Grupo 1189285">
      <g id="Layer_44" transform="translate(403.711 3991)">
        <path id="Trazado_1033064" data-name="Trazado 1033064" d="M53,46H11a1,1,0,0,1-1-1V11a1,1,0,0,1,1-1H53a1,1,0,0,1,1,1V45A1,1,0,0,1,53,46ZM12,44H52V12H12Z"/>
        <path id="Trazado_1033065" data-name="Trazado 1033065" d="M61,49H58V9a3.009,3.009,0,0,0-3-3H9A3.009,3.009,0,0,0,6,9V49H3a1,1,0,0,0-1,1v3a5,5,0,0,0,5,5H57a5,5,0,0,0,5-5V50A1,1,0,0,0,61,49ZM8,9A1,1,0,0,1,9,8H55a1,1,0,0,1,1,1V49H41a1,1,0,0,0-.83.45L39.13,51l-.67,1H25.54l-.67-1-1.04-1.55A1,1,0,0,0,23,49H8ZM60,53a3.009,3.009,0,0,1-3,3H7a3.009,3.009,0,0,1-3-3V51H22.46l1.71,2.55A1,1,0,0,0,25,54H39a1,1,0,0,0,.83-.45L41.54,51H60Z"/>
      </g>
      <path id="Elipse_13723" data-name="Elipse 13723" d="M9.5,2A7.271,7.271,0,0,0,2,9a7.271,7.271,0,0,0,7.5,7A7.271,7.271,0,0,0,17,9,7.271,7.271,0,0,0,9.5,2m0-2A9.26,9.26,0,0,1,19,9a9.26,9.26,0,0,1-9.5,9A9.26,9.26,0,0,1,0,9,9.26,9.26,0,0,1,9.5,0Z" transform="translate(421.711 4009)"/>
      <path id="Elipse_13724" data-name="Elipse 13724" d="M9.5,2A7.271,7.271,0,0,0,2,9a7.271,7.271,0,0,0,7.5,7A7.271,7.271,0,0,0,17,9,7.271,7.271,0,0,0,9.5,2m0-2A9.26,9.26,0,0,1,19,9a9.26,9.26,0,0,1-9.5,9A9.26,9.26,0,0,1,0,9,9.26,9.26,0,0,1,9.5,0Z" transform="translate(430.711 4009)"/>
    </g>
  </g>
</svg>
