<svg xmlns="http://www.w3.org/2000/svg" width="84" height="84" viewBox="0 0 84 84">
  <g id="Grupo_1189288" data-name="Grupo 1189288" transform="translate(-393.711 -4193)">
    <rect id="Rectángulo_459829" data-name="Rectángulo 459829" width="84" height="84" transform="translate(393.711 4193)" fill="#68eae0"/>
    <g id="Layer_44" transform="translate(405.711 4209)">
      <path id="Trazado_1033063" data-name="Trazado 1033063" d="M18.5,27h5.551a11,11,0,1,1,0,2H18.5a.5.5,0,0,1-.5-.5v-1A.5.5,0,0,1,18.5,27ZM35,37a9,9,0,1,0-8.941-10H36.586l-3.939-3.939a.5.5,0,0,1,0-.707l.707-.707a.5.5,0,0,1,.707,0l5.646,5.646a1,1,0,0,1,0,1.414l-5.646,5.646a.5.5,0,0,1-.707,0l-.707-.707a.5.5,0,0,1,0-.707L36.586,29H26.059A9.011,9.011,0,0,0,35,37Z" transform="translate(-2 -6)"/>
      <path id="Trazado_1033064" data-name="Trazado 1033064" d="M11,46H53a1,1,0,0,0,1-1V11a1,1,0,0,0-1-1H11a1,1,0,0,0-1,1V45A1,1,0,0,0,11,46Zm41-2H12V12H52Z" transform="translate(-2 -6)"/>
      <path id="Trazado_1033065" data-name="Trazado 1033065" d="M3,49H6V9A3.009,3.009,0,0,1,9,6H55a3.009,3.009,0,0,1,3,3V49h3a1,1,0,0,1,1,1v3a5,5,0,0,1-5,5H7a5,5,0,0,1-5-5V50A1,1,0,0,1,3,49ZM56,9a1,1,0,0,0-1-1H9A1,1,0,0,0,8,9V49H23a1,1,0,0,1,.83.45L24.87,51l.67,1H38.46l.67-1,1.04-1.55A1,1,0,0,1,41,49H56ZM4,53a3.009,3.009,0,0,0,3,3H57a3.009,3.009,0,0,0,3-3V51H41.54l-1.71,2.55A1,1,0,0,1,39,54H25a1,1,0,0,1-.83-.45L22.46,51H4Z" transform="translate(-2 -6)"/>
    </g>
  </g>
</svg>
