<svg xmlns="http://www.w3.org/2000/svg" xmlns:xlink="http://www.w3.org/1999/xlink" width="188" height="363" viewBox="0 0 188 363">
  <defs>
    <clipPath id="clip-path">
      <rect id="Rectángulo_459787" data-name="Rectángulo 459787" width="186.141" height="346.139" fill="none"/>
    </clipPath>
  </defs>
  <g id="Grupo_1189167" data-name="Grupo 1189167" transform="translate(-289.711 -3191)">
    <rect id="Rectángulo_459309" data-name="Rectángulo 459309" width="188" height="363" transform="translate(289.711 3191)" fill="none"/>
    <ellipse id="Elipse_13721" data-name="Elipse 13721" cx="70" cy="15" rx="70" ry="15" transform="translate(289.711 3524)" fill="#b0c0d2"/>
    <g id="Grupo_1189164" data-name="Grupo 1189164" transform="translate(290 3191)">
      <path id="Trazado_1032816" data-name="Trazado 1032816" d="M73.555,54.06,60.614,67.793l5.212,8.574L79.5,61.478Z" transform="translate(54.437 48.551)" fill="#e0b79a"/>
      <g id="Grupo_1189163" data-name="Grupo 1189163">
        <g id="Grupo_1189162" data-name="Grupo 1189162" clip-path="url(#clip-path)">
          <path id="Trazado_1032817" data-name="Trazado 1032817" d="M36.874,42.6s-3.428,7.761,12.983,47.118c0,0,9,16.382,12.9,16.887,6.389.828,24.286-8.756,37.878-28.378L90.339,70.6,70.2,82.219,58.387,51.736S51.472,31.4,36.874,42.6" transform="translate(32.849 35.239)" fill="#68eae0"/>
          <path id="Trazado_1032818" data-name="Trazado 1032818" d="M52.333,71.01l-.749-.047a13.412,13.412,0,0,1,2.456-7.452,6.8,6.8,0,0,1,2.18-1.968l.327.675a6.259,6.259,0,0,0-1.941,1.788A12.721,12.721,0,0,0,52.333,71.01Z" transform="translate(46.664 55.576)" fill="#2bc2b7"/>
          <path id="Trazado_1032819" data-name="Trazado 1032819" d="M73.373,63.581s17.48-.121,18.655-11.863l-24.6,4.445Z" transform="translate(60.56 46.448)" fill="#e0b79a"/>
          <path id="Trazado_1032820" data-name="Trazado 1032820" d="M50.528,56.178H78.477V51.7H50.528a2.238,2.238,0,0,0,0,4.476" transform="translate(43.369 46.433)" fill="#cfcfcf"/>
          <path id="Trazado_1032821" data-name="Trazado 1032821" d="M61.442,76.89h52.577a6.745,6.745,0,0,0,6.5-4.935L130.768,35.12a5.109,5.109,0,0,0-4.922-6.48H77.557a4.45,4.45,0,0,0-4.3,3.318Z" transform="translate(55.181 25.721)" fill="#dad9db"/>
          <path id="Trazado_1032822" data-name="Trazado 1032822" d="M78.307,44.791a4.974,4.974,0,1,0,4.973-4.975,4.975,4.975,0,0,0-4.973,4.975" transform="translate(70.327 35.759)" fill="#fff"/>
          <path id="Trazado_1032823" data-name="Trazado 1032823" d="M41.965,34.09,15.074,46.01a4.736,4.736,0,0,0-2.781,4.924l3.978,78h57.1L75.4,51.943a6.86,6.86,0,0,0-2.023-5.7L56.8,34Z" transform="translate(11.007 30.533)" fill="#68eae0"/>
          <path id="Trazado_1032824" data-name="Trazado 1032824" d="M32.721,50.3l-9.2-13.943.626-.413,8.73,13.227L41.446,41.7l8.487,4.277V35.517h.75V47.2l-9.124-4.6Z" transform="translate(21.403 31.898)" fill="#2bc2b7"/>
          <path id="Trazado_1032825" data-name="Trazado 1032825" d="M33.376,104.319l-.722-.2a78.81,78.81,0,0,0,2-11.691,118.731,118.731,0,0,0-.68-29.612c-.844-5.648-1.091-23.615-1.094-23.8l.75-.01c0,.18.249,18.1,1.085,23.695a120.172,120.172,0,0,1,1.308,16.653,116.006,116.006,0,0,1-.627,13.17A79.473,79.473,0,0,1,33.376,104.319Z" transform="translate(29.651 35.037)" fill="#2bc2b7"/>
          <path id="Trazado_1032826" data-name="Trazado 1032826" d="M44.281,82.063l-.745-.084a124.458,124.458,0,0,0-.047-28.256A82.851,82.851,0,0,0,41.5,42.571l.723-.2a83.512,83.512,0,0,1,2.006,11.245,122.005,122.005,0,0,1,.827,12.561A125.374,125.374,0,0,1,44.281,82.063Z" transform="translate(37.598 38.142)" fill="#2bc2b7"/>
          <path id="Trazado_1032827" data-name="Trazado 1032827" d="M38.189,70.313l-17.954-.4L17.829,79.65l20.2-.8Z" transform="translate(16.012 62.786)" fill="#e0b79a"/>
          <path id="Trazado_1032828" data-name="Trazado 1032828" d="M28.633,75.606l11.25-11.1a1.7,1.7,0,0,1,2.676,2.059l-2.221,3.882,9.773-.556a1.839,1.839,0,0,1,1.828,2.373l-2.078,6.841a1.825,1.825,0,0,1-1.148,1.2c-3.83,1.329-13.959,6.353-20.243,3.838Z" transform="translate(25.569 57.494)" fill="#e0b79a"/>
          <path id="Trazado_1032829" data-name="Trazado 1032829" d="M25.047,40.659S17.324,44.032,3.394,82.708c0,0-5.26,14.881-2.684,17.734,4.218,4.673,25.036,11.831,48.236,6.45l.281-12.679L23.573,90.317,35.033,60.936S43.4,41.953,25.047,40.659" transform="translate(0 36.516)" fill="#68eae0"/>
          <path id="Trazado_1032830" data-name="Trazado 1032830" d="M6.551,92.489l-.542-.519a10.353,10.353,0,0,1,4-2.615,11.569,11.569,0,0,1,3.905-.656,13.617,13.617,0,0,1,3.795.533L29.052,60.159l.011-.02a23.174,23.174,0,0,0,1.657-4.273,14.615,14.615,0,0,0,.125-8.51A9.617,9.617,0,0,0,25.112,41.7l.29-.692a10.335,10.335,0,0,1,6.152,6.1,15.361,15.361,0,0,1-.116,8.977,23.651,23.651,0,0,1-1.7,4.388l-11.586,29.7-.345-.127a12.554,12.554,0,0,0-3.911-.6A9.824,9.824,0,0,0,6.551,92.489Z" transform="translate(5.64 37.137)" fill="#2bc2b7"/>
          <path id="Trazado_1032831" data-name="Trazado 1032831" d="M31.572,86.739c-5.284,0-11.461-.369-11.851-.393l.045-.749c.141.009,13.779.825,17.932.068V71.037L12.363,67.193l.113-.742,25.973,3.941V86.271l-.292.066A36.5,36.5,0,0,1,31.572,86.739Z" transform="translate(11.153 60.013)" fill="#2bc2b7"/>
          <path id="Trazado_1032832" data-name="Trazado 1032832" d="M48.4,10.631s6.013,6.423-1.462,16.493L40.791,12.93Z" transform="translate(36.634 9.548)" fill="#1f2326"/>
          <path id="Trazado_1032833" data-name="Trazado 1032833" d="M28.381,19.964,47.206,32.976l.254,14.987L40.6,55.63,25.262,49.723,24.906,27.4Z" transform="translate(22.368 17.93)" fill="#e0b79a"/>
          <path id="Trazado_1032834" data-name="Trazado 1032834" d="M44.738,44.2S26.55,45.937,27.947,21.228l6.186,3.563,10.747,12Z" transform="translate(25.031 19.065)" fill="#c98f80"/>
          <path id="Trazado_1032835" data-name="Trazado 1032835" d="M47.43,50.089l-.611.072a16.494,16.494,0,0,1-18.3-14.467l-2.16-18.5a4.269,4.269,0,0,1,3.745-4.736L51.666,9.945a7.624,7.624,0,0,1,8.458,6.689L61.9,31.8A16.494,16.494,0,0,1,47.43,50.089" transform="translate(23.65 8.884)" fill="#e0b79a"/>
          <path id="Trazado_1032836" data-name="Trazado 1032836" d="M27.444,17.7C29.124,6.478,38.052,5.777,40.451,5.6s8.974,2.021,12.038-.224c2.9-2.124,6.474-6.78,14.579-4.962,5.567,1.251,9.57,9.517,4,17.871C65.89,26.062,42.6,25.424,37.726,25.2c.892,3.551,2.557,12.385-1.763,16.033a15.56,15.56,0,0,1-5.1,9.179C5.092,21.662,27.444,17.7,27.444,17.7" transform="translate(16.569 0.001)" fill="#1f2326"/>
          <path id="Trazado_1032837" data-name="Trazado 1032837" d="M34.749,22.49a5.939,5.939,0,1,1-6.588-5.21,5.937,5.937,0,0,1,6.588,5.21" transform="translate(20.575 15.483)" fill="#e0b79a"/>
          <path id="Trazado_1032838" data-name="Trazado 1032838" d="M38.277,19.255a1.346,1.346,0,1,1-1.4-1.293,1.347,1.347,0,0,1,1.4,1.293" transform="translate(31.96 16.131)" fill="#1f2326"/>
          <path id="Trazado_1032839" data-name="Trazado 1032839" d="M44.294,18.534a1.346,1.346,0,1,1-1.4-1.293,1.345,1.345,0,0,1,1.4,1.293" transform="translate(37.364 15.484)" fill="#1f2326"/>
          <path id="Trazado_1032840" data-name="Trazado 1032840" d="M41.206,19.419l.976,3.54s0,2.048-2.967,1.591" transform="translate(35.219 17.44)" fill="none" stroke="#c98f80" stroke-linecap="round" stroke-linejoin="round" stroke-width="0.565"/>
          <path id="Trazado_1032841" data-name="Trazado 1032841" d="M34.724,18.427a1.248,1.248,0,0,0,.251-.013L41,17.486a1.232,1.232,0,0,0-.378-2.435l-6.021.928a1.232,1.232,0,0,0,.125,2.449" transform="translate(30.134 13.504)" fill="#1f2326"/>
          <path id="Trazado_1032842" data-name="Trazado 1032842" d="M41.962,17.278a1.222,1.222,0,0,0,.249-.013l3.682-.568a1.232,1.232,0,0,0-.374-2.435l-3.682.568a1.232,1.232,0,0,0,.125,2.449" transform="translate(36.635 12.796)" fill="#1f2326"/>
          <path id="Trazado_1032843" data-name="Trazado 1032843" d="M36.3,23.779s3.28,2.566,10.075.275" transform="translate(32.597 21.356)" fill="none" stroke="#c98f80" stroke-linecap="round" stroke-linejoin="round" stroke-width="0.565"/>
          <path id="Trazado_1032844" data-name="Trazado 1032844" d="M58.15,84.013,56.459,173.63l-6.165,77.323-21.084.021,3.868-77.327,1.6-89.634Z" transform="translate(26.233 75.452)" fill="#20202a"/>
          <path id="Trazado_1032845" data-name="Trazado 1032845" d="M50.933,171.964l9.686,7.528,8.714,1.758a9.2,9.2,0,0,1,7.351,8.228l.165,1.9L28.5,191.307l1.353-19.323Z" transform="translate(25.592 154.44)"/>
          <path id="Trazado_1032846" data-name="Trazado 1032846" d="M28.4,184.3l48.736.076,0-3.084a1.1,1.1,0,0,0-1.1-1.1L28.4,180.116Z" transform="translate(25.502 161.761)" fill="#20202a"/>
          <path id="Trazado_1032847" data-name="Trazado 1032847" d="M38.828,86.73v16.225a15.85,15.85,0,0,1-6.689,12.934l-.051.036" transform="translate(28.818 77.892)" fill="none" stroke="#141416" stroke-miterlimit="10" stroke-width="0.75"/>
          <line id="Línea_3295" data-name="Línea 3295" x2="21.428" transform="translate(55.828 318.286)" fill="none" stroke="#141416" stroke-miterlimit="10" stroke-width="0.75"/>
          <path id="Trazado_1032848" data-name="Trazado 1032848" d="M16.937,84.013l.78,90.558-5.1,76.4,21.063-.017,8.6-76.886,12.3-90.057Z" transform="translate(11.328 75.452)" fill="#20202a"/>
          <path id="Trazado_1032849" data-name="Trazado 1032849" d="M34.318,171.966l9.7,7.524,8.714,1.758a9.205,9.205,0,0,1,7.351,8.23l.165,1.9L11.9,191.306l1.353-19.323Z" transform="translate(10.687 154.442)"/>
          <path id="Trazado_1032850" data-name="Trazado 1032850" d="M11.8,184.3l48.736.076,0-3.084a1.1,1.1,0,0,0-1.1-1.1l-47.633-.072Z" transform="translate(10.597 161.761)" fill="#20202a"/>
          <line id="Línea_3296" data-name="Línea 3296" x2="55.889" transform="translate(28.501 164.622)" fill="none" stroke="#141416" stroke-miterlimit="10" stroke-width="0.75"/>
          <path id="Trazado_1032851" data-name="Trazado 1032851" d="M32.088,124.893c.142-1.228,0-38.163,0-38.163" transform="translate(28.818 77.892)" fill="none" stroke="#141416" stroke-miterlimit="10" stroke-width="0.75"/>
          <line id="Línea_3297" data-name="Línea 3297" x2="21.428" transform="translate(24.687 318.286)" fill="none" stroke="#141416" stroke-miterlimit="10" stroke-width="0.75"/>
        </g>
      </g>
    </g>
    <g id="Grupo_1189165" data-name="Grupo 1189165" transform="translate(-436.327 2833)">
      <rect id="Rectángulo_456212" data-name="Rectángulo 456212" width="59" height="20" rx="5" transform="translate(826.038 384)" fill="#19538d"/>
      <path id="Sustracción_117" data-name="Sustracción 117" d="M7,14A7,7,0,0,1,2.05,2.05a7,7,0,0,1,9.9,9.9A6.958,6.958,0,0,1,7,14ZM7,1.6A5.4,5.4,0,1,0,12.444,7,5.429,5.429,0,0,0,7,1.6Z" transform="translate(828.038 386)" fill="#fff"/>
      <rect id="Rectángulo_456214" data-name="Rectángulo 456214" width="23" height="2" transform="translate(846.038 395)" fill="#fff"/>
      <rect id="Rectángulo_456217" data-name="Rectángulo 456217" width="8" height="2" transform="translate(876.038 386)" fill="#fff"/>
      <rect id="Rectángulo_456216" data-name="Rectángulo 456216" width="30" height="2" transform="translate(846.038 391)" fill="#fff"/>
    </g>
    <g id="Grupo_1189166" data-name="Grupo 1189166" transform="translate(-407.327 2929)">
      <rect id="Rectángulo_456212-2" data-name="Rectángulo 456212" width="59" height="20" rx="5" transform="translate(826.038 384)" fill="#ffb758"/>
      <path id="Sustracción_117-2" data-name="Sustracción 117" d="M7,14A7,7,0,0,1,2.05,2.05a7,7,0,0,1,9.9,9.9A6.958,6.958,0,0,1,7,14ZM7,1.6A5.4,5.4,0,1,0,12.444,7,5.429,5.429,0,0,0,7,1.6Z" transform="translate(828.038 386)" fill="#fff"/>
      <rect id="Rectángulo_456214-2" data-name="Rectángulo 456214" width="23" height="2" transform="translate(846.038 398)" fill="#fff"/>
    </g>
    <path id="Trazado_1032852" data-name="Trazado 1032852" d="M6.348,3.563v6.86H5.438V3.563Zm6.95,0v6.86h-.914L8.93,5.132v5.291H8.021V3.563H8.93L12.4,8.868V3.563Zm5.287,5.126a1.161,1.161,0,0,0-.073-.426.839.839,0,0,0-.254-.337,2.056,2.056,0,0,0-.5-.287,7.133,7.133,0,0,0-.8-.278,7.117,7.117,0,0,1-.919-.337,3.146,3.146,0,0,1-.7-.426,1.692,1.692,0,0,1-.448-.551,1.57,1.57,0,0,1-.155-.711,1.669,1.669,0,0,1,.165-.74A1.742,1.742,0,0,1,15.369,4a2.281,2.281,0,0,1,.737-.393,3.044,3.044,0,0,1,.956-.141,2.7,2.7,0,0,1,1.312.294,2.1,2.1,0,0,1,.822.768,1.939,1.939,0,0,1,.283,1.011h-.9a1.4,1.4,0,0,0-.165-.686,1.154,1.154,0,0,0-.5-.471,1.848,1.848,0,0,0-.848-.172,1.911,1.911,0,0,0-.8.146,1.043,1.043,0,0,0-.469.4,1.068,1.068,0,0,0-.153.57.84.84,0,0,0,.092.393,1.008,1.008,0,0,0,.287.327,2.226,2.226,0,0,0,.5.278,6.215,6.215,0,0,0,.728.245,6.364,6.364,0,0,1,1.008.367,2.851,2.851,0,0,1,.7.455,1.627,1.627,0,0,1,.41.57,1.831,1.831,0,0,1,.134.718,1.672,1.672,0,0,1-.17.759,1.649,1.649,0,0,1-.485.58,2.312,2.312,0,0,1-.756.37,3.476,3.476,0,0,1-.982.13,3.372,3.372,0,0,1-.935-.132,2.758,2.758,0,0,1-.834-.4,2.029,2.029,0,0,1-.6-.653,1.776,1.776,0,0,1-.224-.9h.9a1.254,1.254,0,0,0,.137.605,1.192,1.192,0,0,0,.375.417,1.667,1.667,0,0,0,.542.243,2.547,2.547,0,0,0,.634.078,2.174,2.174,0,0,0,.806-.132,1.084,1.084,0,0,0,.5-.377A.983.983,0,0,0,18.584,8.689Zm6.455.994v.74H21.407v-.74Zm-3.449-6.12v6.86h-.909V3.563Zm2.968,2.949v.74H21.407v-.74Zm.433-2.949v.744H21.407V3.563Zm1.2,0h2.271a3.238,3.238,0,0,1,1.307.236,1.752,1.752,0,0,1,.815.695,2.129,2.129,0,0,1,.28,1.128,1.925,1.925,0,0,1-.191.86,1.84,1.84,0,0,1-.547.66,2.412,2.412,0,0,1-.85.4l-.254.1H26.887l-.009-.74h1.611a1.731,1.731,0,0,0,.815-.172,1.178,1.178,0,0,0,.49-.464,1.29,1.29,0,0,0,.165-.645,1.472,1.472,0,0,0-.155-.693,1.052,1.052,0,0,0-.488-.459,1.949,1.949,0,0,0-.855-.163H27.1v6.115H26.19Zm4.009,6.86-1.668-3.11.947,0,1.691,3.058v.057Zm4.118-6.86v6.86h-.9V3.563Zm2.2,0v.744h-5.3V3.563Z" transform="translate(433.632 3314.484)" fill="#fff"/>
  </g>
</svg>
