<svg xmlns="http://www.w3.org/2000/svg" xmlns:xlink="http://www.w3.org/1999/xlink" width="1020.355" height="623.185" viewBox="0 0 1020.355 623.185">
  <defs>
    <clipPath id="clip-path">
      <rect width="1020.355" height="623.185" fill="none"/>
    </clipPath>
    <clipPath id="clip-path-2">
      <path id="Trazado_608976" data-name="Trazado 608976" d="M15.845,0h988.311C1012.906,0,1020,9.663,1020,21.582V601.6c0,11.92-7.094,21.582-15.845,21.582H15.845C7.094,623.185,0,613.522,0,601.6V21.582C0,9.663,7.094,0,15.845,0Z" transform="translate(0 0)" fill="#c0f6f2"/>
    </clipPath>
    <clipPath id="clip-path-3">
      <rect id="Rectángulo_459340" data-name="Rectángulo 459340" width="123" height="159" transform="translate(289.711 1648)" fill="#ccf7f4"/>
    </clipPath>
  </defs>
  <g id="Cuadrícula_de_repetición_1" data-name="Cuadrícula de repetición 1" clip-path="url(#clip-path)">
    <g id="Grupo_1190973" data-name="Grupo 1190973" transform="translate(8005.066 1236.221)">
      <g id="Grupo_1189064" data-name="Grupo 1189064" transform="translate(-8289.777 -2582.221)">
        <g id="Enmascarar_grupo_1098656" data-name="Enmascarar grupo 1098656" transform="translate(284.711 1346)" clip-path="url(#clip-path-2)">
          <path id="Trazado_874294" data-name="Trazado 874294" d="M0,0H1039.806V652.86H0Z" transform="translate(-8.913 -16.187)" fill="#c0f6f2"/>
        </g>
      </g>
      <text id="Orden_de_procesamiento_lógico_del_SELECT." data-name="Orden de procesamiento lógico del SELECT." transform="translate(-7660.711 -1212.851)" fill="#12263f" font-size="17" font-family="Roboto-Medium, Roboto" letter-spacing="0.003em" font-weight="500"><tspan x="0" y="16">Orden de procesamiento lógico del SELECT.</tspan></text>
      <g id="Grupo_1189088" data-name="Grupo 1189088" transform="translate(-8308.422 -11695.851)">
        <rect id="Rectángulo_459339" data-name="Rectángulo 459339" width="812" height="3" transform="translate(407.711 10509.038)" fill="#82c0ff"/>
      </g>
      <g id="Grupo_1189095" data-name="Grupo 1189095" transform="translate(2860.327 -1566.932) rotate(90)">
        <rect id="Rectángulo_459339-2" data-name="Rectángulo 459339" width="279.414" height="3" transform="translate(407.711 10509.038)" fill="#19538d"/>
      </g>
      <g id="Enmascarar_grupo_1178511" data-name="Enmascarar grupo 1178511" transform="translate(-8294.422 -2884.221)" clip-path="url(#clip-path-3)">
        <g id="Grupo_1189090" data-name="Grupo 1189090">
          <path id="Línea_3303" data-name="Línea 3303" d="M-1.467,62.061a1.867,1.867,0,0,1-1.325-.549,1.873,1.873,0,0,1,0-2.649L58.863-2.791a1.873,1.873,0,0,1,2.649,0,1.873,1.873,0,0,1,0,2.649L-.142,61.512A1.868,1.868,0,0,1-1.467,62.061Z" transform="translate(331.939 1626.34)" fill="#19538d"/>
          <path id="Línea_3304" data-name="Línea 3304" d="M-2.933,62.468a3.735,3.735,0,0,1-2.649-1.1,3.747,3.747,0,0,1,0-5.3L56.071-5.583a3.747,3.747,0,0,1,5.3,0,3.747,3.747,0,0,1,0,5.3L-.284,61.37A3.735,3.735,0,0,1-2.933,62.468Z" transform="translate(279.151 1664.131)" fill="#19538d"/>
          <g id="Grupo_1189089" data-name="Grupo 1189089" transform="translate(255.464 1704.104)">
            <path id="Trazado_998899" data-name="Trazado 998899" d="M26.807,537.842l-1.322-1.322,22.293-22.293a14.842,14.842,0,0,1,10.495-4.347,12.888,12.888,0,0,0,9.173-3.8l14.1-14.1,1.322,1.322-14.1,14.1a14.842,14.842,0,0,1-10.495,4.347,12.888,12.888,0,0,0-9.173,3.8Z" transform="translate(-25.486 -453.647)" fill="#fff"/>
            <path id="Trazado_1032527" data-name="Trazado 1032527" d="M193.042,478.576a3.182,3.182,0,1,0,0,4.5,3.182,3.182,0,0,0,0-4.5" transform="translate(-131.949 -443.953)" fill="#fff" fill-rule="evenodd"/>
            <path id="Trazado_998907" data-name="Trazado 998907" d="M17.776,367.738l-1.322-1.322L68.421,314.45a12.888,12.888,0,0,0,3.8-9.173v-8.912a14.842,14.842,0,0,1,4.347-10.495l8.333-8.334,1.322,1.322-8.333,8.334a12.888,12.888,0,0,0-3.8,9.173v8.912a14.842,14.842,0,0,1-4.347,10.495Z" transform="translate(7.382 -274.908)" fill="#fff"/>
            <path id="Trazado_1032528" data-name="Trazado 1032528" d="M213.54,270.839a3.182,3.182,0,1,1-4.5,0,3.182,3.182,0,0,1,4.5,0" transform="translate(-118.518 -269.627)" fill="#fff" fill-rule="evenodd"/>
            <path id="Trazado_998908_-_Contorno" data-name="Trazado 998908 - Contorno" d="M211.072,276.332a3.462,3.462,0,1,1,2.448-1.014A3.44,3.44,0,0,1,211.072,276.332Zm0-6.364a2.9,2.9,0,1,0,2.052.85A2.883,2.883,0,0,0,211.072,269.968Z" transform="translate(-118.3 -269.407)" fill="#fff"/>
          </g>
        </g>
      </g>
      <g id="Enmascarar_grupo_1178513" data-name="Enmascarar grupo 1178513" transform="translate(-6695 1034.779) rotate(180)" clip-path="url(#clip-path-3)">
        <g id="Grupo_1189109" data-name="Grupo 1189109">
          <path id="Línea_3303-2" data-name="Línea 3303" d="M-1.467,62.061a1.867,1.867,0,0,1-1.325-.549,1.873,1.873,0,0,1,0-2.649L58.863-2.791a1.873,1.873,0,0,1,2.649,0,1.873,1.873,0,0,1,0,2.649L-.142,61.512A1.868,1.868,0,0,1-1.467,62.061Z" transform="translate(331.939 1626.34)" fill="#19538d"/>
          <path id="Línea_3304-2" data-name="Línea 3304" d="M-2.933,62.468a3.735,3.735,0,0,1-2.649-1.1,3.747,3.747,0,0,1,0-5.3L56.071-5.583a3.747,3.747,0,0,1,5.3,0,3.747,3.747,0,0,1,0,5.3L-.284,61.37A3.735,3.735,0,0,1-2.933,62.468Z" transform="translate(279.151 1664.131)" fill="#19538d"/>
          <g id="Grupo_1189108" data-name="Grupo 1189108" transform="translate(255.464 1704.104)">
            <path id="Trazado_998899-2" data-name="Trazado 998899" d="M26.807,537.842l-1.322-1.322,22.293-22.293a14.842,14.842,0,0,1,10.495-4.347,12.888,12.888,0,0,0,9.173-3.8l14.1-14.1,1.322,1.322-14.1,14.1a14.842,14.842,0,0,1-10.495,4.347,12.888,12.888,0,0,0-9.173,3.8Z" transform="translate(-25.486 -453.647)" fill="#fff"/>
            <path id="Trazado_1032533" data-name="Trazado 1032533" d="M193.042,478.576a3.182,3.182,0,1,0,0,4.5,3.182,3.182,0,0,0,0-4.5" transform="translate(-131.949 -443.953)" fill="#fff" fill-rule="evenodd"/>
            <path id="Trazado_998907-2" data-name="Trazado 998907" d="M17.776,367.738l-1.322-1.322L68.421,314.45a12.888,12.888,0,0,0,3.8-9.173v-8.912a14.842,14.842,0,0,1,4.347-10.495l8.333-8.334,1.322,1.322-8.333,8.334a12.888,12.888,0,0,0-3.8,9.173v8.912a14.842,14.842,0,0,1-4.347,10.495Z" transform="translate(7.382 -274.908)" fill="#fff"/>
            <path id="Trazado_1032534" data-name="Trazado 1032534" d="M213.54,270.839a3.182,3.182,0,1,1-4.5,0,3.182,3.182,0,0,1,4.5,0" transform="translate(-118.518 -269.627)" fill="#fff" fill-rule="evenodd"/>
            <path id="Trazado_998908_-_Contorno-2" data-name="Trazado 998908 - Contorno" d="M211.072,276.332a3.462,3.462,0,1,1,2.448-1.014A3.44,3.44,0,0,1,211.072,276.332Zm0-6.364a2.9,2.9,0,1,0,2.052.85A2.883,2.883,0,0,0,211.072,269.968Z" transform="translate(-118.3 -269.407)" fill="#fff"/>
          </g>
        </g>
      </g>
      <g id="Rectángulo_459337" data-name="Rectángulo 459337" transform="translate(-7900.133 -1120.684)" fill="#e1ffe9" stroke="#1e75cc" stroke-width="2" stroke-dasharray="4">
        <rect width="223.952" height="240.877" stroke="none"/>
        <rect x="1" y="1" width="221.952" height="238.877" fill="none"/>
      </g>
      <g id="Rectángulo_459342" data-name="Rectángulo 459342" transform="translate(-7626.887 -1120.719)" fill="#e1ffe9" stroke="#1e75cc" stroke-width="2" stroke-dasharray="4">
        <rect width="538.465" height="240.877" stroke="none"/>
        <rect x="1" y="1" width="536.465" height="238.877" fill="none"/>
      </g>
      <text id="_1._SELECT._2._FROM._3._JOIN._4._WHERE._5._GROUP_BY._6._HAVING._7._ORDER_BY._8._LIMIT_TOP._" data-name="1. SELECT.
2. FROM.
3. JOIN.
4. WHERE.
5. GROUP BY.
6. HAVING.
7. ORDER BY.
8. LIMIT/TOP. " transform="translate(-7884.133 -1094.684)" fill="#12263f" font-size="17" font-family="Roboto-Medium, Roboto" font-weight="500" letter-spacing="0.003em"><tspan x="0" y="16">1. SELECT.</tspan><tspan x="0" y="40">2. FROM.</tspan><tspan x="0" y="64">3. JOIN.</tspan><tspan x="0" y="88">4. WHERE.</tspan><tspan x="0" y="112">5. GROUP BY.</tspan><tspan x="0" y="136">6. HAVING.</tspan><tspan x="0" y="160">7. ORDER BY.</tspan><tspan x="0" y="184">8. LIMIT/TOP. </tspan></text>
      <text id="_1._FROM_JOIN._2._WHERE._3._GROUP_BY._4._HAVING._5._SELECT._6._DISTINCT._7._ORDER_BY._8._LIMIT_TOP._" data-name="1. FROM / JOIN.
2. WHERE.       
3. GROUP BY.     
4. HAVING.       
5. SELECT.     
6. DISTINCT.     
7. ORDER BY.     
8. LIMIT/TOP.  " transform="translate(-7588.422 -1094.684)" fill="#12263f" font-size="17" font-family="Roboto-Medium, Roboto" letter-spacing="0.003em" font-weight="500"><tspan x="0" y="16">1. FROM / JOIN.</tspan><tspan x="0" y="40" xml:space="preserve">2. WHERE.       </tspan><tspan x="0" y="64" xml:space="preserve">3. GROUP BY.     </tspan><tspan x="0" y="88" xml:space="preserve">4. HAVING.       </tspan><tspan x="0" y="112" xml:space="preserve">5. SELECT.     </tspan><tspan x="0" y="136" xml:space="preserve">6. DISTINCT.     </tspan><tspan x="0" y="160" xml:space="preserve">7. ORDER BY.     </tspan><tspan x="0" y="184" xml:space="preserve">8. LIMIT/TOP.  </tspan></text>
      <path id="Trazado_1034648" data-name="Trazado 1034648" d="M9,0H215.241a9,9,0,0,1,9,9V43.307H0V9A9,9,0,0,1,9,0Z" transform="translate(-7900.422 -1158.719)" fill="#19538d"/>
      <path id="Trazado_1034646" data-name="Trazado 1034646" d="M9,0H529.465a9,9,0,0,1,9,9V43.307H0V9A9,9,0,0,1,9,0Z" transform="translate(-7626.887 -1158.221)" fill="#19538d"/>
      <path id="Trazado_1034649" data-name="Trazado 1034649" d="M52.186,9.625v.664a7.86,7.86,0,0,1-.357,2.457A5.339,5.339,0,0,1,50.812,14.6a4.386,4.386,0,0,1-1.581,1.166,5.046,5.046,0,0,1-2.042.4,5,5,0,0,1-2.03-.4,4.512,4.512,0,0,1-1.59-1.166,5.383,5.383,0,0,1-1.042-1.851,7.615,7.615,0,0,1-.369-2.457V9.625a7.657,7.657,0,0,1,.365-2.453,5.42,5.42,0,0,1,1.033-1.851,4.451,4.451,0,0,1,1.585-1.17,5,5,0,0,1,2.03-.4,5.046,5.046,0,0,1,2.042.4A4.4,4.4,0,0,1,50.8,5.321a5.4,5.4,0,0,1,1.025,1.851A7.738,7.738,0,0,1,52.186,9.625Zm-2.083.664V9.608a7.375,7.375,0,0,0-.2-1.789,3.812,3.812,0,0,0-.573-1.3,2.475,2.475,0,0,0-.926-.8,2.763,2.763,0,0,0-1.237-.27,2.71,2.71,0,0,0-1.229.27,2.494,2.494,0,0,0-.917.8,3.869,3.869,0,0,0-.577,1.3,7.228,7.228,0,0,0-.2,1.789v.681a7.279,7.279,0,0,0,.2,1.793,3.861,3.861,0,0,0,.585,1.316,2.535,2.535,0,0,0,.926.805,2.951,2.951,0,0,0,2.465,0,2.435,2.435,0,0,0,.913-.805,3.957,3.957,0,0,0,.569-1.316A7.427,7.427,0,0,0,50.1,10.289Zm6.011-1.561V16h-2V7.019h1.909ZM58.86,6.96,58.844,8.82a3.925,3.925,0,0,0-.394-.05q-.212-.017-.419-.017a2.586,2.586,0,0,0-.9.145,1.734,1.734,0,0,0-.652.415,1.838,1.838,0,0,0-.4.652,2.9,2.9,0,0,0-.166.855l-.457.033a7,7,0,0,1,.166-1.569,4.217,4.217,0,0,1,.5-1.27,2.5,2.5,0,0,1,.847-.855,2.25,2.25,0,0,1,1.183-.307,2.554,2.554,0,0,1,.394.033A1.664,1.664,0,0,1,58.86,6.96Zm6.617,7.18V3.25h2.009V16H65.668Zm-5.844-2.532v-.174a6.771,6.771,0,0,1,.241-1.864,4.43,4.43,0,0,1,.7-1.453,3.118,3.118,0,0,1,1.112-.938,3.258,3.258,0,0,1,1.478-.328,3.084,3.084,0,0,1,1.428.315,2.983,2.983,0,0,1,1.046.9,4.758,4.758,0,0,1,.689,1.395,9.249,9.249,0,0,1,.365,1.8v.556a8.981,8.981,0,0,1-.365,1.76,4.726,4.726,0,0,1-.689,1.378,2.988,2.988,0,0,1-1.05.9,3.383,3.383,0,0,1-2.905-.025,3.236,3.236,0,0,1-1.108-.955,4.489,4.489,0,0,1-.7-1.448A6.52,6.52,0,0,1,59.633,11.609Zm2-.174v.174a5.547,5.547,0,0,0,.112,1.146,3.021,3.021,0,0,0,.353.934,1.706,1.706,0,0,0,1.552.859,1.953,1.953,0,0,0,1.121-.3,2.065,2.065,0,0,0,.693-.809,3.766,3.766,0,0,0,.344-1.141V10.8a3.794,3.794,0,0,0-.2-.913,2.572,2.572,0,0,0-.411-.743,1.78,1.78,0,0,0-.635-.5,2.07,2.07,0,0,0-.892-.178,1.756,1.756,0,0,0-.93.232,1.849,1.849,0,0,0-.627.639,3.078,3.078,0,0,0-.361.946A5.473,5.473,0,0,0,61.634,11.435ZM73.58,16.166a4.705,4.705,0,0,1-1.8-.328,3.877,3.877,0,0,1-1.361-.917,4.052,4.052,0,0,1-.859-1.386,4.854,4.854,0,0,1-.3-1.718v-.332a5.617,5.617,0,0,1,.307-1.909,4.381,4.381,0,0,1,.855-1.465,3.7,3.7,0,0,1,1.295-.934,4.027,4.027,0,0,1,1.619-.324,4.087,4.087,0,0,1,1.685.324,3.222,3.222,0,0,1,1.2.909,3.919,3.919,0,0,1,.714,1.39,6.286,6.286,0,0,1,.237,1.776v.855H70.235V10.671H75.2v-.158A2.866,2.866,0,0,0,74.987,9.5a1.637,1.637,0,0,0-1.656-1.054,1.808,1.808,0,0,0-.884.212,1.782,1.782,0,0,0-.643.61,3.122,3.122,0,0,0-.394.959,5.306,5.306,0,0,0-.137,1.258v.332a3.54,3.54,0,0,0,.162,1.092,2.556,2.556,0,0,0,.477.876,2.238,2.238,0,0,0,.764.585,2.364,2.364,0,0,0,1.021.212,2.771,2.771,0,0,0,1.287-.291,2.949,2.949,0,0,0,.979-.822l1.054,1.021a4.02,4.02,0,0,1-.755.809,3.739,3.739,0,0,1-1.133.627A4.559,4.559,0,0,1,73.58,16.166Zm7.173-7.23V16h-2V7.019h1.884ZM80.4,11.177l-.647-.008a5.754,5.754,0,0,1,.27-1.751,4.207,4.207,0,0,1,.73-1.37,3.228,3.228,0,0,1,1.125-.884,3.364,3.364,0,0,1,1.461-.311,3.647,3.647,0,0,1,1.175.178,2.2,2.2,0,0,1,.9.577,2.611,2.611,0,0,1,.577,1.033,5.255,5.255,0,0,1,.2,1.556V16H84.181V10.189a2.34,2.34,0,0,0-.187-1.025,1.111,1.111,0,0,0-.54-.54,2.1,2.1,0,0,0-.876-.162,1.935,1.935,0,0,0-.921.216,2.031,2.031,0,0,0-.685.589,2.8,2.8,0,0,0-.427.863A3.566,3.566,0,0,0,80.4,11.177ZM96.5,16.166a4.705,4.705,0,0,1-1.8-.328,3.877,3.877,0,0,1-1.361-.917,4.052,4.052,0,0,1-.859-1.386,4.854,4.854,0,0,1-.3-1.718v-.332a5.617,5.617,0,0,1,.307-1.909,4.381,4.381,0,0,1,.855-1.465,3.7,3.7,0,0,1,1.295-.934,4.027,4.027,0,0,1,1.619-.324,4.087,4.087,0,0,1,1.685.324,3.222,3.222,0,0,1,1.2.909,3.919,3.919,0,0,1,.714,1.39,6.286,6.286,0,0,1,.237,1.776v.855H93.156V10.671H98.12v-.158A2.866,2.866,0,0,0,97.908,9.5a1.637,1.637,0,0,0-1.656-1.054,1.808,1.808,0,0,0-.884.212,1.782,1.782,0,0,0-.643.61,3.122,3.122,0,0,0-.394.959,5.306,5.306,0,0,0-.137,1.258v.332a3.54,3.54,0,0,0,.162,1.092,2.556,2.556,0,0,0,.477.876,2.238,2.238,0,0,0,.764.585,2.364,2.364,0,0,0,1.021.212A2.771,2.771,0,0,0,97.9,14.29a2.949,2.949,0,0,0,.979-.822l1.054,1.021a4.02,4.02,0,0,1-.755.809,3.739,3.739,0,0,1-1.133.627A4.559,4.559,0,0,1,96.5,16.166Zm10.228-2.6a1.023,1.023,0,0,0-.149-.544,1.293,1.293,0,0,0-.569-.444,5.646,5.646,0,0,0-1.233-.365,9.932,9.932,0,0,1-1.307-.378,4.045,4.045,0,0,1-1.017-.535,2.271,2.271,0,0,1-.656-.747,2.069,2.069,0,0,1-.232-1,2.322,2.322,0,0,1,.241-1.038,2.628,2.628,0,0,1,.689-.863,3.348,3.348,0,0,1,1.092-.589,5.054,5.054,0,0,1,3.378.162,2.953,2.953,0,0,1,1.241,1.021,2.541,2.541,0,0,1,.432,1.448h-2a1.321,1.321,0,0,0-.178-.668,1.336,1.336,0,0,0-.535-.506,1.853,1.853,0,0,0-.9-.2,1.96,1.96,0,0,0-.851.162,1.163,1.163,0,0,0-.5.419,1.039,1.039,0,0,0-.162.564.905.905,0,0,0,.087.4.871.871,0,0,0,.295.324,2.327,2.327,0,0,0,.569.27,7.852,7.852,0,0,0,.909.241,8.6,8.6,0,0,1,1.772.552,2.88,2.88,0,0,1,1.141.863,2.147,2.147,0,0,1,.4,1.332,2.357,2.357,0,0,1-.253,1.092,2.478,2.478,0,0,1-.735.855,3.621,3.621,0,0,1-1.15.56,5.237,5.237,0,0,1-1.5.2,4.476,4.476,0,0,1-2.067-.436A3.219,3.219,0,0,1,101.7,14.61a2.615,2.615,0,0,1-.436-1.424H103.2a1.463,1.463,0,0,0,.311.884,1.57,1.57,0,0,0,.7.473,2.631,2.631,0,0,0,.867.145,2.46,2.46,0,0,0,.9-.145,1.256,1.256,0,0,0,.556-.4A.933.933,0,0,0,106.729,13.568Zm7.422,1a1.966,1.966,0,0,0,.884-.2,1.673,1.673,0,0,0,.639-.544,1.514,1.514,0,0,0,.27-.805h1.884a2.806,2.806,0,0,1-.515,1.585,3.536,3.536,0,0,1-1.32,1.133,3.942,3.942,0,0,1-1.818.419,4.239,4.239,0,0,1-1.793-.353,3.5,3.5,0,0,1-1.27-.975,4.253,4.253,0,0,1-.76-1.436,5.835,5.835,0,0,1-.253-1.743v-.291a5.876,5.876,0,0,1,.253-1.747,4.247,4.247,0,0,1,.76-1.44,3.5,3.5,0,0,1,1.27-.975,4.218,4.218,0,0,1,1.785-.353,4.011,4.011,0,0,1,1.893.427,3.256,3.256,0,0,1,1.282,1.187,3.4,3.4,0,0,1,.486,1.764h-1.884a2.068,2.068,0,0,0-.245-.9,1.693,1.693,0,0,0-.614-.643,1.773,1.773,0,0,0-.942-.241,1.889,1.889,0,0,0-1,.245,1.712,1.712,0,0,0-.623.664,3.207,3.207,0,0,0-.32.938,5.93,5.93,0,0,0-.1,1.075v.291a6.263,6.263,0,0,0,.091,1.079,2.955,2.955,0,0,0,.32.934,1.76,1.76,0,0,0,.627.656A1.906,1.906,0,0,0,114.151,14.572Zm7.256-5.844V16h-2V7.019h1.909Zm2.748-1.768-.017,1.859a3.924,3.924,0,0,0-.394-.05q-.212-.017-.419-.017a2.586,2.586,0,0,0-.9.145,1.734,1.734,0,0,0-.652.415,1.838,1.838,0,0,0-.4.652,2.9,2.9,0,0,0-.166.855l-.457.033a7,7,0,0,1,.166-1.569,4.217,4.217,0,0,1,.5-1.27,2.5,2.5,0,0,1,.847-.855,2.25,2.25,0,0,1,1.183-.307,2.554,2.554,0,0,1,.394.033A1.664,1.664,0,0,1,124.154,6.96Zm3.438.058V16h-2.009V7.019ZM125.45,4.661a1.03,1.03,0,0,1,.3-.76,1.317,1.317,0,0,1,1.681,0,1.023,1.023,0,0,1,.307.76,1,1,0,0,1-.307.747,1.331,1.331,0,0,1-1.681,0A1.006,1.006,0,0,1,125.45,4.661Zm8.493,2.357V8.479h-5.063V7.019Zm-3.6-2.2h2v8.7a1.348,1.348,0,0,0,.12.635.6.6,0,0,0,.336.295,1.549,1.549,0,0,0,.506.075,3.08,3.08,0,0,0,.4-.025q.191-.025.307-.05l.008,1.527a5.158,5.158,0,0,1-.577.133,4.34,4.34,0,0,1-.751.058,2.885,2.885,0,0,1-1.22-.245,1.774,1.774,0,0,1-.83-.8,3.126,3.126,0,0,1-.3-1.478Zm10.593,9.064V7.019h2.009V16h-1.893Zm.282-1.868.672-.017a6.55,6.55,0,0,1-.2,1.664,3.82,3.82,0,0,1-.614,1.32,2.82,2.82,0,0,1-1.062.872,3.554,3.554,0,0,1-1.552.311,3.636,3.636,0,0,1-1.2-.191,2.431,2.431,0,0,1-.942-.589,2.654,2.654,0,0,1-.61-1.038,4.8,4.8,0,0,1-.216-1.527v-5.8h2v5.819a2.473,2.473,0,0,0,.116.818,1.387,1.387,0,0,0,.315.527,1.122,1.122,0,0,0,.465.282,1.882,1.882,0,0,0,.564.083,2.367,2.367,0,0,0,1.349-.336A1.845,1.845,0,0,0,141,13.3,3.691,3.691,0,0,0,141.215,12.016Zm5.82-3.287V16h-2V7.019h1.909Zm2.748-1.768-.017,1.859a3.925,3.925,0,0,0-.394-.05q-.212-.017-.419-.017a2.586,2.586,0,0,0-.9.145,1.734,1.734,0,0,0-.652.415,1.838,1.838,0,0,0-.4.652,2.9,2.9,0,0,0-.166.855l-.457.033a7,7,0,0,1,.166-1.569,4.216,4.216,0,0,1,.5-1.27,2.5,2.5,0,0,1,.847-.855,2.25,2.25,0,0,1,1.183-.307,2.554,2.554,0,0,1,.394.033A1.664,1.664,0,0,1,149.783,6.96Zm6.061,7.238V9.916a1.837,1.837,0,0,0-.174-.83,1.226,1.226,0,0,0-.527-.54,1.842,1.842,0,0,0-.884-.191,1.992,1.992,0,0,0-.847.166,1.369,1.369,0,0,0-.556.448,1.081,1.081,0,0,0-.2.639h-1.992a2.216,2.216,0,0,1,.257-1.029,2.752,2.752,0,0,1,.747-.888,3.731,3.731,0,0,1,1.17-.614,4.869,4.869,0,0,1,1.527-.224,4.477,4.477,0,0,1,1.8.34A2.764,2.764,0,0,1,157.4,8.218a3.046,3.046,0,0,1,.452,1.714v3.993a6.265,6.265,0,0,0,.087,1.1,3.441,3.441,0,0,0,.253.843V16h-2.05a3.428,3.428,0,0,1-.22-.826A6.286,6.286,0,0,1,155.843,14.2Zm.291-3.661.017,1.237h-1.436a4.139,4.139,0,0,0-.979.1,2.067,2.067,0,0,0-.706.3,1.3,1.3,0,0,0-.423.481,1.41,1.41,0,0,0-.141.639,1.3,1.3,0,0,0,.166.652,1.15,1.15,0,0,0,.486.461,1.667,1.667,0,0,0,.776.166,2.2,2.2,0,0,0,1.075-.253,2.15,2.15,0,0,0,.726-.623,1.335,1.335,0,0,0,.282-.7l.647.888a3.039,3.039,0,0,1-.34.73,3.509,3.509,0,0,1-.627.743,3.1,3.1,0,0,1-2.154.8,3.393,3.393,0,0,1-1.569-.353,2.746,2.746,0,0,1-1.079-.955,2.455,2.455,0,0,1-.39-1.365,2.847,2.847,0,0,1,.27-1.266,2.433,2.433,0,0,1,.8-.926,3.868,3.868,0,0,1,1.291-.569,7.067,7.067,0,0,1,1.743-.2ZM160.069,15a1.074,1.074,0,0,1,.315-.784,1.309,1.309,0,0,1,1.714,0,1.081,1.081,0,0,1,.311.784,1.067,1.067,0,0,1-.311.78,1.322,1.322,0,0,1-1.714,0A1.06,1.06,0,0,1,160.069,15Z" transform="translate(-7892.422 -1147.221)" fill="#fff"/>
      <path id="Trazado_1034647" data-name="Trazado 1034647" d="M157.657,9.625v.664a7.86,7.86,0,0,1-.357,2.457,5.339,5.339,0,0,1-1.017,1.851,4.386,4.386,0,0,1-1.581,1.166,5.046,5.046,0,0,1-2.042.4,5,5,0,0,1-2.03-.4,4.512,4.512,0,0,1-1.59-1.166A5.383,5.383,0,0,1,148,12.746a7.615,7.615,0,0,1-.369-2.457V9.625a7.657,7.657,0,0,1,.365-2.453,5.42,5.42,0,0,1,1.033-1.851,4.451,4.451,0,0,1,1.585-1.17,5,5,0,0,1,2.03-.4,5.046,5.046,0,0,1,2.042.4,4.4,4.4,0,0,1,1.585,1.17A5.4,5.4,0,0,1,157.3,7.172,7.738,7.738,0,0,1,157.657,9.625Zm-2.083.664V9.608a7.375,7.375,0,0,0-.2-1.789,3.812,3.812,0,0,0-.573-1.3,2.475,2.475,0,0,0-.926-.8,2.763,2.763,0,0,0-1.237-.27,2.71,2.71,0,0,0-1.229.27,2.494,2.494,0,0,0-.917.8,3.869,3.869,0,0,0-.577,1.3,7.228,7.228,0,0,0-.2,1.789v.681a7.279,7.279,0,0,0,.2,1.793,3.861,3.861,0,0,0,.585,1.316,2.535,2.535,0,0,0,.926.805,2.951,2.951,0,0,0,2.465,0,2.436,2.436,0,0,0,.913-.805,3.958,3.958,0,0,0,.569-1.316A7.427,7.427,0,0,0,155.573,10.289Zm6.011-1.561V16h-2V7.019h1.909Zm2.748-1.768-.017,1.859a3.925,3.925,0,0,0-.394-.05q-.212-.017-.419-.017a2.586,2.586,0,0,0-.9.145,1.734,1.734,0,0,0-.652.415,1.838,1.838,0,0,0-.4.652,2.9,2.9,0,0,0-.166.855l-.457.033a7,7,0,0,1,.166-1.569,4.216,4.216,0,0,1,.5-1.27,2.5,2.5,0,0,1,.847-.855,2.25,2.25,0,0,1,1.183-.307,2.554,2.554,0,0,1,.394.033A1.664,1.664,0,0,1,164.331,6.96Zm6.617,7.18V3.25h2.009V16h-1.818ZM165.1,11.609v-.174a6.771,6.771,0,0,1,.241-1.864,4.429,4.429,0,0,1,.7-1.453,3.118,3.118,0,0,1,1.112-.938,3.258,3.258,0,0,1,1.478-.328,3.084,3.084,0,0,1,1.428.315,2.984,2.984,0,0,1,1.046.9,4.758,4.758,0,0,1,.689,1.395,9.249,9.249,0,0,1,.365,1.8v.556a8.981,8.981,0,0,1-.365,1.76,4.726,4.726,0,0,1-.689,1.378,2.988,2.988,0,0,1-1.05.9,3.383,3.383,0,0,1-2.905-.025,3.236,3.236,0,0,1-1.108-.955,4.489,4.489,0,0,1-.7-1.448A6.52,6.52,0,0,1,165.1,11.609Zm2-.174v.174a5.547,5.547,0,0,0,.112,1.146,3.021,3.021,0,0,0,.353.934,1.706,1.706,0,0,0,1.552.859,1.953,1.953,0,0,0,1.121-.3,2.065,2.065,0,0,0,.693-.809,3.766,3.766,0,0,0,.344-1.141V10.8a3.794,3.794,0,0,0-.2-.913,2.572,2.572,0,0,0-.411-.743,1.78,1.78,0,0,0-.635-.5,2.07,2.07,0,0,0-.892-.178,1.756,1.756,0,0,0-.93.232,1.849,1.849,0,0,0-.627.639,3.077,3.077,0,0,0-.361.946A5.473,5.473,0,0,0,167.1,11.435Zm11.946,4.731a4.705,4.705,0,0,1-1.8-.328,3.877,3.877,0,0,1-1.361-.917,4.052,4.052,0,0,1-.859-1.386,4.854,4.854,0,0,1-.3-1.718v-.332a5.617,5.617,0,0,1,.307-1.909A4.381,4.381,0,0,1,175.9,8.11a3.7,3.7,0,0,1,1.295-.934,4.027,4.027,0,0,1,1.619-.324,4.087,4.087,0,0,1,1.685.324,3.222,3.222,0,0,1,1.2.909,3.919,3.919,0,0,1,.714,1.39,6.286,6.286,0,0,1,.237,1.776v.855h-6.939V10.671h4.964v-.158a2.865,2.865,0,0,0-.212-1.013A1.637,1.637,0,0,0,178.8,8.446a1.808,1.808,0,0,0-.884.212,1.782,1.782,0,0,0-.643.61,3.122,3.122,0,0,0-.394.959,5.306,5.306,0,0,0-.137,1.258v.332a3.54,3.54,0,0,0,.162,1.092,2.556,2.556,0,0,0,.477.876,2.238,2.238,0,0,0,.764.585,2.364,2.364,0,0,0,1.021.212,2.771,2.771,0,0,0,1.287-.291,2.949,2.949,0,0,0,.979-.822l1.054,1.021a4.02,4.02,0,0,1-.755.809,3.738,3.738,0,0,1-1.133.627A4.559,4.559,0,0,1,179.051,16.166Zm7.173-7.23V16h-2V7.019h1.884Zm-.357,2.241-.647-.008a5.754,5.754,0,0,1,.27-1.751,4.206,4.206,0,0,1,.73-1.37,3.228,3.228,0,0,1,1.125-.884,3.364,3.364,0,0,1,1.461-.311,3.647,3.647,0,0,1,1.175.178,2.2,2.2,0,0,1,.9.577,2.611,2.611,0,0,1,.577,1.033,5.255,5.255,0,0,1,.2,1.556V16h-2.009V10.189a2.34,2.34,0,0,0-.187-1.025,1.111,1.111,0,0,0-.54-.54,2.1,2.1,0,0,0-.876-.162,1.935,1.935,0,0,0-.921.216,2.031,2.031,0,0,0-.685.589,2.8,2.8,0,0,0-.427.863A3.566,3.566,0,0,0,185.867,11.177Zm14.155-2.432V19.453h-2V7.019h1.843Zm5.852,2.681V11.6a6.854,6.854,0,0,1-.228,1.814,4.5,4.5,0,0,1-.672,1.453,3.118,3.118,0,0,1-1.092.959,3.165,3.165,0,0,1-1.494.34,3.255,3.255,0,0,1-1.465-.311,2.96,2.96,0,0,1-1.058-.884,4.732,4.732,0,0,1-.693-1.349,8.356,8.356,0,0,1-.369-1.706v-.672a8.957,8.957,0,0,1,.369-1.793,4.782,4.782,0,0,1,.693-1.386,2.977,2.977,0,0,1,1.054-.9,3.174,3.174,0,0,1,1.453-.315,3.316,3.316,0,0,1,1.5.328,3.078,3.078,0,0,1,1.1.93,4.2,4.2,0,0,1,.672,1.444A7.279,7.279,0,0,1,205.873,11.426Zm-2,.174v-.174a5.457,5.457,0,0,0-.116-1.158,3.014,3.014,0,0,0-.365-.942,1.835,1.835,0,0,0-.635-.635,1.787,1.787,0,0,0-.926-.228,2.141,2.141,0,0,0-.913.178,1.791,1.791,0,0,0-.639.494,2.321,2.321,0,0,0-.4.735,4.51,4.51,0,0,0-.2.909v1.61a4.024,4.024,0,0,0,.34,1.1,1.948,1.948,0,0,0,.685.793,2.026,2.026,0,0,0,1.141.295,1.739,1.739,0,0,0,.921-.232,1.839,1.839,0,0,0,.627-.643,3.131,3.131,0,0,0,.361-.95A5.432,5.432,0,0,0,203.873,11.6Zm5.745-2.872V16h-2V7.019h1.909Zm2.748-1.768-.017,1.859a3.925,3.925,0,0,0-.394-.05q-.212-.017-.419-.017a2.586,2.586,0,0,0-.9.145,1.734,1.734,0,0,0-.652.415,1.838,1.838,0,0,0-.4.652,2.9,2.9,0,0,0-.166.855l-.457.033a7,7,0,0,1,.166-1.569,4.216,4.216,0,0,1,.5-1.27,2.5,2.5,0,0,1,.847-.855,2.25,2.25,0,0,1,1.183-.307,2.554,2.554,0,0,1,.394.033A1.664,1.664,0,0,1,212.366,6.96Zm.7,4.648v-.191a5.6,5.6,0,0,1,.282-1.805,4.3,4.3,0,0,1,.818-1.453,3.689,3.689,0,0,1,1.312-.963,4.667,4.667,0,0,1,3.52,0,3.729,3.729,0,0,1,1.316.963,4.257,4.257,0,0,1,.822,1.453,5.6,5.6,0,0,1,.282,1.805v.191a5.562,5.562,0,0,1-.282,1.8,4.264,4.264,0,0,1-.822,1.448,3.738,3.738,0,0,1-1.312.963,4.255,4.255,0,0,1-1.751.344,4.306,4.306,0,0,1-1.764-.344,3.729,3.729,0,0,1-1.316-.963,4.264,4.264,0,0,1-.822-1.448A5.562,5.562,0,0,1,213.064,11.609Zm2-.191v.191a5.083,5.083,0,0,0,.125,1.146,2.912,2.912,0,0,0,.39.946,1.929,1.929,0,0,0,.681.639,1.991,1.991,0,0,0,.988.232,1.868,1.868,0,0,0,1.644-.872,2.979,2.979,0,0,0,.394-.946,4.926,4.926,0,0,0,.129-1.146v-.191a4.836,4.836,0,0,0-.129-1.133,3.025,3.025,0,0,0-.4-.95,1.988,1.988,0,0,0-.681-.652,2.129,2.129,0,0,0-1.951,0,1.952,1.952,0,0,0-.677.652,3.014,3.014,0,0,0-.39.95A4.99,4.99,0,0,0,215.064,11.418ZM226.8,14.572a1.966,1.966,0,0,0,.884-.2,1.673,1.673,0,0,0,.639-.544,1.514,1.514,0,0,0,.27-.805h1.884a2.806,2.806,0,0,1-.515,1.585,3.536,3.536,0,0,1-1.32,1.133,3.942,3.942,0,0,1-1.818.419,4.239,4.239,0,0,1-1.793-.353,3.5,3.5,0,0,1-1.27-.975,4.253,4.253,0,0,1-.76-1.436,5.836,5.836,0,0,1-.253-1.743v-.291a5.877,5.877,0,0,1,.253-1.747,4.247,4.247,0,0,1,.76-1.44,3.5,3.5,0,0,1,1.27-.975,4.218,4.218,0,0,1,1.785-.353,4.011,4.011,0,0,1,1.893.427,3.256,3.256,0,0,1,1.282,1.187,3.4,3.4,0,0,1,.486,1.764H228.6a2.068,2.068,0,0,0-.245-.9,1.693,1.693,0,0,0-.614-.643,1.773,1.773,0,0,0-.942-.241,1.889,1.889,0,0,0-1,.245,1.712,1.712,0,0,0-.623.664,3.207,3.207,0,0,0-.32.938,5.929,5.929,0,0,0-.1,1.075v.291a6.264,6.264,0,0,0,.091,1.079,2.955,2.955,0,0,0,.32.934,1.76,1.76,0,0,0,.627.656A1.906,1.906,0,0,0,226.8,14.572Zm9.207,1.594a4.705,4.705,0,0,1-1.8-.328,3.877,3.877,0,0,1-1.361-.917,4.052,4.052,0,0,1-.859-1.386,4.854,4.854,0,0,1-.3-1.718v-.332A5.617,5.617,0,0,1,232,9.575a4.381,4.381,0,0,1,.855-1.465,3.7,3.7,0,0,1,1.295-.934,4.027,4.027,0,0,1,1.619-.324,4.087,4.087,0,0,1,1.685.324,3.222,3.222,0,0,1,1.2.909,3.919,3.919,0,0,1,.714,1.39,6.286,6.286,0,0,1,.237,1.776v.855h-6.939V10.671h4.964v-.158a2.865,2.865,0,0,0-.212-1.013,1.637,1.637,0,0,0-1.656-1.054,1.808,1.808,0,0,0-.884.212,1.782,1.782,0,0,0-.643.61,3.122,3.122,0,0,0-.394.959,5.306,5.306,0,0,0-.137,1.258v.332a3.54,3.54,0,0,0,.162,1.092,2.556,2.556,0,0,0,.477.876,2.238,2.238,0,0,0,.764.585,2.364,2.364,0,0,0,1.021.212,2.771,2.771,0,0,0,1.287-.291,2.949,2.949,0,0,0,.979-.822l1.054,1.021a4.02,4.02,0,0,1-.755.809,3.738,3.738,0,0,1-1.133.627A4.559,4.559,0,0,1,236.009,16.166Zm10.228-2.6a1.023,1.023,0,0,0-.149-.544,1.293,1.293,0,0,0-.569-.444,5.646,5.646,0,0,0-1.233-.365,9.932,9.932,0,0,1-1.307-.378,4.044,4.044,0,0,1-1.017-.535,2.271,2.271,0,0,1-.656-.747,2.068,2.068,0,0,1-.232-1,2.322,2.322,0,0,1,.241-1.038A2.628,2.628,0,0,1,242,7.658a3.348,3.348,0,0,1,1.092-.589,5.054,5.054,0,0,1,3.378.162,2.953,2.953,0,0,1,1.241,1.021,2.541,2.541,0,0,1,.432,1.448h-2a1.322,1.322,0,0,0-.178-.668,1.336,1.336,0,0,0-.535-.506,1.853,1.853,0,0,0-.9-.2,1.96,1.96,0,0,0-.851.162,1.163,1.163,0,0,0-.5.419,1.039,1.039,0,0,0-.162.564.905.905,0,0,0,.087.4.871.871,0,0,0,.295.324,2.328,2.328,0,0,0,.569.27,7.852,7.852,0,0,0,.909.241,8.6,8.6,0,0,1,1.772.552,2.88,2.88,0,0,1,1.141.863,2.147,2.147,0,0,1,.4,1.332,2.358,2.358,0,0,1-.253,1.092,2.478,2.478,0,0,1-.735.855,3.621,3.621,0,0,1-1.15.56,5.237,5.237,0,0,1-1.5.2,4.476,4.476,0,0,1-2.067-.436,3.219,3.219,0,0,1-1.282-1.121,2.615,2.615,0,0,1-.436-1.424h1.934a1.463,1.463,0,0,0,.311.884,1.57,1.57,0,0,0,.7.473,2.631,2.631,0,0,0,.867.145,2.46,2.46,0,0,0,.9-.145,1.256,1.256,0,0,0,.556-.4A.933.933,0,0,0,246.237,13.568Zm8.816.631V9.916a1.837,1.837,0,0,0-.174-.83,1.226,1.226,0,0,0-.527-.54,1.842,1.842,0,0,0-.884-.191,1.992,1.992,0,0,0-.847.166,1.369,1.369,0,0,0-.556.448,1.081,1.081,0,0,0-.2.639h-1.992a2.216,2.216,0,0,1,.257-1.029,2.752,2.752,0,0,1,.747-.888,3.731,3.731,0,0,1,1.17-.614,4.869,4.869,0,0,1,1.527-.224,4.477,4.477,0,0,1,1.8.34,2.764,2.764,0,0,1,1.237,1.025,3.046,3.046,0,0,1,.452,1.714v3.993a6.265,6.265,0,0,0,.087,1.1,3.441,3.441,0,0,0,.253.843V16h-2.05a3.428,3.428,0,0,1-.22-.826A6.286,6.286,0,0,1,255.053,14.2Zm.291-3.661.017,1.237h-1.436a4.139,4.139,0,0,0-.979.1,2.067,2.067,0,0,0-.706.3,1.3,1.3,0,0,0-.423.481,1.41,1.41,0,0,0-.141.639,1.3,1.3,0,0,0,.166.652,1.15,1.15,0,0,0,.486.461,1.667,1.667,0,0,0,.776.166,2.2,2.2,0,0,0,1.075-.253,2.15,2.15,0,0,0,.726-.623,1.335,1.335,0,0,0,.282-.7l.647.888a3.039,3.039,0,0,1-.34.73,3.509,3.509,0,0,1-.627.743,3.1,3.1,0,0,1-2.154.8,3.393,3.393,0,0,1-1.569-.353,2.746,2.746,0,0,1-1.079-.955,2.455,2.455,0,0,1-.39-1.365,2.847,2.847,0,0,1,.27-1.266,2.433,2.433,0,0,1,.8-.926,3.868,3.868,0,0,1,1.291-.569,7.067,7.067,0,0,1,1.743-.2ZM261.2,8.845V16h-2V7.019h1.884Zm-.324,2.333-.681-.008a6.057,6.057,0,0,1,.232-1.718,4.175,4.175,0,0,1,.681-1.374,3.037,3.037,0,0,1,1.116-.9,3.549,3.549,0,0,1,1.548-.32,3.389,3.389,0,0,1,1.125.178,2.3,2.3,0,0,1,.888.56,2.522,2.522,0,0,1,.581.979,4.51,4.51,0,0,1,.2,1.444V16h-2V10.189a2.249,2.249,0,0,0-.2-1.029,1.146,1.146,0,0,0-.556-.535,2.088,2.088,0,0,0-.859-.162,1.972,1.972,0,0,0-.959.216,1.8,1.8,0,0,0-.643.589,2.64,2.64,0,0,0-.365.863A4.52,4.52,0,0,0,260.873,11.177Zm5.57-.531-.938.208a5.106,5.106,0,0,1,.228-1.54,3.866,3.866,0,0,1,.672-1.278,3.136,3.136,0,0,1,1.1-.867,3.425,3.425,0,0,1,1.5-.315,3.783,3.783,0,0,1,1.233.187,2.292,2.292,0,0,1,.926.585,2.583,2.583,0,0,1,.581,1.033,5.156,5.156,0,0,1,.2,1.531V16h-2.009V10.181a2.316,2.316,0,0,0-.2-1.054,1.069,1.069,0,0,0-.552-.519,2.265,2.265,0,0,0-.855-.145,1.861,1.861,0,0,0-.818.17,1.68,1.68,0,0,0-.594.473,2.1,2.1,0,0,0-.361.693A2.86,2.86,0,0,0,266.443,10.646Zm9.746-3.627V16H274.18V7.019Zm-2.142-2.357a1.03,1.03,0,0,1,.3-.76,1.317,1.317,0,0,1,1.681,0,1.023,1.023,0,0,1,.307.76,1,1,0,0,1-.307.747,1.331,1.331,0,0,1-1.681,0A1.006,1.006,0,0,1,274.047,4.661Zm8.335,11.5a4.705,4.705,0,0,1-1.8-.328,3.877,3.877,0,0,1-1.361-.917,4.052,4.052,0,0,1-.859-1.386,4.854,4.854,0,0,1-.3-1.718v-.332a5.617,5.617,0,0,1,.307-1.909,4.381,4.381,0,0,1,.855-1.465,3.7,3.7,0,0,1,1.295-.934,4.027,4.027,0,0,1,1.619-.324,4.087,4.087,0,0,1,1.685.324,3.223,3.223,0,0,1,1.2.909,3.918,3.918,0,0,1,.714,1.39,6.286,6.286,0,0,1,.237,1.776v.855h-6.939V10.671H284v-.158a2.866,2.866,0,0,0-.212-1.013,1.637,1.637,0,0,0-1.656-1.054,1.808,1.808,0,0,0-.884.212,1.781,1.781,0,0,0-.643.61,3.122,3.122,0,0,0-.394.959,5.306,5.306,0,0,0-.137,1.258v.332a3.54,3.54,0,0,0,.162,1.092,2.556,2.556,0,0,0,.477.876,2.238,2.238,0,0,0,.764.585,2.364,2.364,0,0,0,1.021.212,2.771,2.771,0,0,0,1.287-.291,2.949,2.949,0,0,0,.979-.822l1.054,1.021a4.02,4.02,0,0,1-.755.809,3.739,3.739,0,0,1-1.133.627A4.559,4.559,0,0,1,282.382,16.166Zm7.173-7.23V16h-2V7.019h1.884Zm-.357,2.241-.647-.008a5.754,5.754,0,0,1,.27-1.751,4.207,4.207,0,0,1,.73-1.37,3.228,3.228,0,0,1,1.125-.884,3.364,3.364,0,0,1,1.461-.311,3.647,3.647,0,0,1,1.175.178,2.2,2.2,0,0,1,.9.577,2.611,2.611,0,0,1,.577,1.033,5.255,5.255,0,0,1,.2,1.556V16h-2.009V10.189a2.34,2.34,0,0,0-.187-1.025,1.111,1.111,0,0,0-.54-.54,2.1,2.1,0,0,0-.876-.162,1.935,1.935,0,0,0-.921.216,2.032,2.032,0,0,0-.685.589,2.8,2.8,0,0,0-.427.863A3.566,3.566,0,0,0,289.2,11.177Zm12-4.159V8.479H296.13V7.019Zm-3.6-2.2h2v8.7a1.348,1.348,0,0,0,.12.635.6.6,0,0,0,.336.295,1.549,1.549,0,0,0,.506.075,3.08,3.08,0,0,0,.4-.025q.191-.025.307-.05l.008,1.527a5.157,5.157,0,0,1-.577.133,4.34,4.34,0,0,1-.751.058,2.885,2.885,0,0,1-1.22-.245,1.774,1.774,0,0,1-.83-.8,3.126,3.126,0,0,1-.3-1.478Zm4.608,6.79v-.191a5.6,5.6,0,0,1,.282-1.805A4.3,4.3,0,0,1,303.3,8.16a3.689,3.689,0,0,1,1.312-.963,4.667,4.667,0,0,1,3.52,0,3.729,3.729,0,0,1,1.316.963,4.257,4.257,0,0,1,.822,1.453,5.6,5.6,0,0,1,.282,1.805v.191a5.562,5.562,0,0,1-.282,1.8,4.264,4.264,0,0,1-.822,1.448,3.738,3.738,0,0,1-1.312.963,4.255,4.255,0,0,1-1.751.344,4.306,4.306,0,0,1-1.764-.344,3.729,3.729,0,0,1-1.316-.963,4.264,4.264,0,0,1-.822-1.448A5.562,5.562,0,0,1,302.2,11.609Zm2-.191v.191a5.083,5.083,0,0,0,.125,1.146,2.912,2.912,0,0,0,.39.946,1.929,1.929,0,0,0,.681.639,1.991,1.991,0,0,0,.988.232,1.868,1.868,0,0,0,1.644-.872,2.979,2.979,0,0,0,.394-.946,4.925,4.925,0,0,0,.129-1.146v-.191a4.835,4.835,0,0,0-.129-1.133,3.026,3.026,0,0,0-.4-.95,1.988,1.988,0,0,0-.681-.652,2.129,2.129,0,0,0-1.951,0,1.952,1.952,0,0,0-.677.652,3.014,3.014,0,0,0-.39.95A4.99,4.99,0,0,0,304.2,11.418Zm14.479-4.4V16H316.67V7.019Zm-2.142-2.357a1.03,1.03,0,0,1,.3-.76,1.317,1.317,0,0,1,1.681,0,1.023,1.023,0,0,1,.307.76,1,1,0,0,1-.307.747,1.331,1.331,0,0,1-1.681,0A1.006,1.006,0,0,1,316.537,4.661ZM322.9,8.936V16h-2V7.019h1.884Zm-.357,2.241-.647-.008a5.754,5.754,0,0,1,.27-1.751,4.207,4.207,0,0,1,.73-1.37,3.228,3.228,0,0,1,1.125-.884,3.364,3.364,0,0,1,1.461-.311,3.647,3.647,0,0,1,1.175.178,2.2,2.2,0,0,1,.9.577,2.611,2.611,0,0,1,.577,1.033,5.255,5.255,0,0,1,.2,1.556V16h-2.009V10.189a2.34,2.34,0,0,0-.187-1.025,1.111,1.111,0,0,0-.54-.54,2.1,2.1,0,0,0-.876-.162,1.935,1.935,0,0,0-.921.216,2.032,2.032,0,0,0-.685.589,2.8,2.8,0,0,0-.427.863A3.566,3.566,0,0,0,322.539,11.177Zm12-4.159V8.479h-5.063V7.019Zm-3.6-2.2h2v8.7a1.348,1.348,0,0,0,.12.635.6.6,0,0,0,.336.295,1.549,1.549,0,0,0,.506.075,3.08,3.08,0,0,0,.4-.025q.191-.025.307-.05l.008,1.527a5.157,5.157,0,0,1-.577.133,4.34,4.34,0,0,1-.751.058,2.885,2.885,0,0,1-1.22-.245,1.774,1.774,0,0,1-.83-.8,3.126,3.126,0,0,1-.3-1.478Zm9.148,11.347a4.705,4.705,0,0,1-1.8-.328,3.877,3.877,0,0,1-1.361-.917,4.052,4.052,0,0,1-.859-1.386,4.854,4.854,0,0,1-.3-1.718v-.332a5.617,5.617,0,0,1,.307-1.909,4.381,4.381,0,0,1,.855-1.465,3.7,3.7,0,0,1,1.295-.934,4.027,4.027,0,0,1,1.619-.324,4.087,4.087,0,0,1,1.685.324,3.223,3.223,0,0,1,1.2.909,3.918,3.918,0,0,1,.714,1.39,6.286,6.286,0,0,1,.237,1.776v.855h-6.939V10.671H341.7v-.158a2.866,2.866,0,0,0-.212-1.013,1.637,1.637,0,0,0-1.656-1.054,1.808,1.808,0,0,0-.884.212,1.781,1.781,0,0,0-.643.61,3.122,3.122,0,0,0-.394.959,5.306,5.306,0,0,0-.137,1.258v.332a3.54,3.54,0,0,0,.162,1.092,2.556,2.556,0,0,0,.477.876,2.238,2.238,0,0,0,.764.585,2.364,2.364,0,0,0,1.021.212,2.771,2.771,0,0,0,1.287-.291,2.949,2.949,0,0,0,.979-.822l1.054,1.021a4.02,4.02,0,0,1-.755.809,3.739,3.739,0,0,1-1.133.627A4.559,4.559,0,0,1,340.081,16.166Zm7.2-7.437V16h-2V7.019h1.909Zm2.748-1.768-.017,1.859a3.924,3.924,0,0,0-.394-.05q-.212-.017-.419-.017a2.586,2.586,0,0,0-.9.145,1.734,1.734,0,0,0-.652.415,1.838,1.838,0,0,0-.4.652,2.9,2.9,0,0,0-.166.855l-.457.033a7,7,0,0,1,.166-1.569,4.217,4.217,0,0,1,.5-1.27,2.5,2.5,0,0,1,.847-.855,2.25,2.25,0,0,1,1.183-.307,2.554,2.554,0,0,1,.394.033A1.664,1.664,0,0,1,350.026,6.96Zm3.28,1.976V16h-2V7.019h1.884Zm-.357,2.241-.647-.008a5.754,5.754,0,0,1,.27-1.751,4.207,4.207,0,0,1,.73-1.37,3.228,3.228,0,0,1,1.125-.884,3.364,3.364,0,0,1,1.461-.311,3.647,3.647,0,0,1,1.175.178,2.2,2.2,0,0,1,.9.577,2.611,2.611,0,0,1,.577,1.033,5.255,5.255,0,0,1,.2,1.556V16h-2.009V10.189a2.34,2.34,0,0,0-.187-1.025,1.111,1.111,0,0,0-.54-.54,2.1,2.1,0,0,0-.876-.162,1.935,1.935,0,0,0-.921.216,2.032,2.032,0,0,0-.685.589,2.8,2.8,0,0,0-.427.863A3.566,3.566,0,0,0,352.949,11.177Zm7.5.432v-.191a5.6,5.6,0,0,1,.282-1.805,4.3,4.3,0,0,1,.818-1.453,3.689,3.689,0,0,1,1.312-.963,4.667,4.667,0,0,1,3.52,0,3.729,3.729,0,0,1,1.316.963,4.257,4.257,0,0,1,.822,1.453,5.6,5.6,0,0,1,.282,1.805v.191a5.562,5.562,0,0,1-.282,1.8,4.264,4.264,0,0,1-.822,1.448,3.738,3.738,0,0,1-1.312.963,4.255,4.255,0,0,1-1.751.344,4.306,4.306,0,0,1-1.764-.344,3.729,3.729,0,0,1-1.316-.963,4.264,4.264,0,0,1-.822-1.448A5.562,5.562,0,0,1,360.446,11.609Zm2-.191v.191a5.083,5.083,0,0,0,.125,1.146,2.912,2.912,0,0,0,.39.946,1.929,1.929,0,0,0,.681.639,1.991,1.991,0,0,0,.988.232,1.868,1.868,0,0,0,1.644-.872,2.979,2.979,0,0,0,.394-.946,4.925,4.925,0,0,0,.129-1.146v-.191a4.835,4.835,0,0,0-.129-1.133,3.026,3.026,0,0,0-.4-.95,1.988,1.988,0,0,0-.681-.652,2.129,2.129,0,0,0-1.951,0,1.952,1.952,0,0,0-.677.652,3.014,3.014,0,0,0-.39.95A4.99,4.99,0,0,0,362.446,11.418ZM370.6,15a1.074,1.074,0,0,1,.315-.784,1.309,1.309,0,0,1,1.714,0,1.081,1.081,0,0,1,.311.784,1.067,1.067,0,0,1-.311.78,1.322,1.322,0,0,1-1.714,0A1.06,1.06,0,0,1,370.6,15Z" transform="translate(-7616.422 -1147.221)" fill="#fff"/>
      <path id="Trazado_1034643" data-name="Trazado 1034643" d="M15,0H797a15,15,0,0,1,15,15V185a15,15,0,0,1-15,15H15A15,15,0,0,1,0,185V15A15,15,0,0,1,15,0Z" transform="translate(-7900.711 -845.221)" fill="#d8faf7"/>
      <path id="Trazado_1034644" data-name="Trazado 1034644" d="M7,0H201a7,7,0,0,1,7,7V31a7,7,0,0,1-7,7H7a7,7,0,0,1-7-7V7A7,7,0,0,1,7,0Z" transform="translate(-7598.711 -864.221)" fill="#0f654d"/>
      <path id="Trazado_1034645" data-name="Trazado 1034645" d="M18.142,12.065h2.075a4.761,4.761,0,0,1-.664,2.113,3.942,3.942,0,0,1-1.585,1.457,5.323,5.323,0,0,1-2.482.531,4.872,4.872,0,0,1-2.017-.4,4.355,4.355,0,0,1-1.536-1.146,5.087,5.087,0,0,1-.975-1.8,7.738,7.738,0,0,1-.336-2.357v-1A7.565,7.565,0,0,1,10.966,7.1,5.2,5.2,0,0,1,11.958,5.3a4.318,4.318,0,0,1,1.556-1.15,5.046,5.046,0,0,1,2.046-.4A5.132,5.132,0,0,1,18,4.279a3.866,3.866,0,0,1,1.548,1.469,5.24,5.24,0,0,1,.677,2.15H18.151a3.9,3.9,0,0,0-.361-1.336,1.929,1.929,0,0,0-.818-.851,2.937,2.937,0,0,0-1.411-.295,2.752,2.752,0,0,0-1.245.266,2.35,2.35,0,0,0-.888.78,3.7,3.7,0,0,0-.535,1.266,7.448,7.448,0,0,0-.178,1.714v1.021a7.8,7.8,0,0,0,.162,1.656,3.929,3.929,0,0,0,.5,1.274,2.369,2.369,0,0,0,.859.822,2.544,2.544,0,0,0,1.253.291,3.168,3.168,0,0,0,1.44-.282,1.9,1.9,0,0,0,.838-.826A3.784,3.784,0,0,0,18.142,12.065Zm3.421-.457v-.191a5.6,5.6,0,0,1,.282-1.805,4.3,4.3,0,0,1,.818-1.453A3.689,3.689,0,0,1,23.975,7.2a4.667,4.667,0,0,1,3.52,0,3.729,3.729,0,0,1,1.316.963,4.257,4.257,0,0,1,.822,1.453,5.6,5.6,0,0,1,.282,1.805v.191a5.562,5.562,0,0,1-.282,1.8,4.264,4.264,0,0,1-.822,1.448,3.738,3.738,0,0,1-1.312.963,4.255,4.255,0,0,1-1.751.344,4.306,4.306,0,0,1-1.764-.344,3.729,3.729,0,0,1-1.316-.963,4.264,4.264,0,0,1-.822-1.448A5.562,5.562,0,0,1,21.563,11.609Zm2-.191v.191a5.083,5.083,0,0,0,.125,1.146,2.912,2.912,0,0,0,.39.946,1.929,1.929,0,0,0,.681.639,1.991,1.991,0,0,0,.988.232A1.868,1.868,0,0,0,27.39,13.7a2.979,2.979,0,0,0,.394-.946,4.926,4.926,0,0,0,.129-1.146v-.191a4.836,4.836,0,0,0-.129-1.133,3.026,3.026,0,0,0-.4-.95,1.988,1.988,0,0,0-.681-.652,2.129,2.129,0,0,0-1.951,0,1.952,1.952,0,0,0-.677.652,3.014,3.014,0,0,0-.39.95A4.99,4.99,0,0,0,23.564,11.418ZM33.617,8.936V16h-2V7.019H33.5Zm-.357,2.241-.647-.008a5.754,5.754,0,0,1,.27-1.751,4.207,4.207,0,0,1,.73-1.37,3.228,3.228,0,0,1,1.125-.884A3.364,3.364,0,0,1,36.2,6.853a3.647,3.647,0,0,1,1.175.178,2.2,2.2,0,0,1,.9.577,2.611,2.611,0,0,1,.577,1.033,5.255,5.255,0,0,1,.2,1.556V16H37.045V10.189a2.34,2.34,0,0,0-.187-1.025,1.111,1.111,0,0,0-.54-.54,2.1,2.1,0,0,0-.876-.162,1.935,1.935,0,0,0-.921.216,2.031,2.031,0,0,0-.685.589,2.8,2.8,0,0,0-.427.863A3.566,3.566,0,0,0,33.26,11.177Zm12.917,2.391a1.023,1.023,0,0,0-.149-.544,1.293,1.293,0,0,0-.569-.444,5.646,5.646,0,0,0-1.233-.365,9.932,9.932,0,0,1-1.307-.378A4.045,4.045,0,0,1,41.9,11.3a2.271,2.271,0,0,1-.656-.747,2.069,2.069,0,0,1-.232-1,2.322,2.322,0,0,1,.241-1.038,2.628,2.628,0,0,1,.689-.863,3.348,3.348,0,0,1,1.092-.589,5.054,5.054,0,0,1,3.378.162,2.953,2.953,0,0,1,1.241,1.021A2.541,2.541,0,0,1,48.086,9.7h-2a1.321,1.321,0,0,0-.178-.668,1.336,1.336,0,0,0-.535-.506,1.853,1.853,0,0,0-.9-.2,1.96,1.96,0,0,0-.851.162,1.163,1.163,0,0,0-.5.419,1.039,1.039,0,0,0-.162.564.905.905,0,0,0,.087.4.871.871,0,0,0,.295.324,2.328,2.328,0,0,0,.569.27,7.852,7.852,0,0,0,.909.241,8.6,8.6,0,0,1,1.772.552,2.88,2.88,0,0,1,1.141.863,2.147,2.147,0,0,1,.4,1.332,2.357,2.357,0,0,1-.253,1.092,2.478,2.478,0,0,1-.735.855,3.621,3.621,0,0,1-1.15.56,5.237,5.237,0,0,1-1.5.2,4.476,4.476,0,0,1-2.067-.436,3.219,3.219,0,0,1-1.282-1.121,2.615,2.615,0,0,1-.436-1.424h1.934a1.463,1.463,0,0,0,.311.884,1.57,1.57,0,0,0,.7.473,2.631,2.631,0,0,0,.867.145,2.46,2.46,0,0,0,.9-.145,1.256,1.256,0,0,0,.556-.4A.933.933,0,0,0,46.177,13.568Zm7.712,2.6a4.705,4.705,0,0,1-1.8-.328,3.877,3.877,0,0,1-1.361-.917,4.052,4.052,0,0,1-.859-1.386,4.854,4.854,0,0,1-.3-1.718v-.332a5.617,5.617,0,0,1,.307-1.909,4.381,4.381,0,0,1,.855-1.465,3.7,3.7,0,0,1,1.295-.934,4.027,4.027,0,0,1,1.619-.324,4.087,4.087,0,0,1,1.685.324,3.222,3.222,0,0,1,1.2.909,3.919,3.919,0,0,1,.714,1.39,6.286,6.286,0,0,1,.237,1.776v.855H50.544V10.671h4.964v-.158A2.865,2.865,0,0,0,55.3,9.5a1.637,1.637,0,0,0-1.656-1.054,1.808,1.808,0,0,0-.884.212,1.782,1.782,0,0,0-.643.61,3.122,3.122,0,0,0-.394.959,5.306,5.306,0,0,0-.137,1.258v.332a3.54,3.54,0,0,0,.162,1.092,2.556,2.556,0,0,0,.477.876,2.238,2.238,0,0,0,.764.585,2.364,2.364,0,0,0,1.021.212,2.771,2.771,0,0,0,1.287-.291,2.949,2.949,0,0,0,.979-.822l1.054,1.021a4.02,4.02,0,0,1-.755.809,3.739,3.739,0,0,1-1.133.627A4.559,4.559,0,0,1,53.89,16.166Zm8.858-1.594a1.966,1.966,0,0,0,.884-.2,1.674,1.674,0,0,0,.639-.544,1.515,1.515,0,0,0,.27-.805h1.884a2.806,2.806,0,0,1-.515,1.585,3.536,3.536,0,0,1-1.32,1.133,3.942,3.942,0,0,1-1.818.419,4.239,4.239,0,0,1-1.793-.353,3.5,3.5,0,0,1-1.27-.975,4.253,4.253,0,0,1-.76-1.436,5.836,5.836,0,0,1-.253-1.743v-.291a5.876,5.876,0,0,1,.253-1.747,4.247,4.247,0,0,1,.76-1.44,3.5,3.5,0,0,1,1.27-.975,4.218,4.218,0,0,1,1.785-.353,4.011,4.011,0,0,1,1.893.427,3.256,3.256,0,0,1,1.282,1.187,3.4,3.4,0,0,1,.486,1.764H64.54a2.068,2.068,0,0,0-.245-.9,1.693,1.693,0,0,0-.614-.643,1.773,1.773,0,0,0-.942-.241,1.889,1.889,0,0,0-1,.245,1.712,1.712,0,0,0-.623.664,3.207,3.207,0,0,0-.32.938,5.93,5.93,0,0,0-.1,1.075v.291a6.264,6.264,0,0,0,.091,1.079,2.955,2.955,0,0,0,.32.934,1.76,1.76,0,0,0,.627.656A1.906,1.906,0,0,0,62.747,14.572ZM73.4,13.883V7.019h2.009V16H73.515Zm.282-1.868L74.353,12a6.55,6.55,0,0,1-.2,1.664,3.819,3.819,0,0,1-.614,1.32,2.82,2.82,0,0,1-1.062.872,3.554,3.554,0,0,1-1.552.311,3.636,3.636,0,0,1-1.2-.191,2.431,2.431,0,0,1-.942-.589,2.655,2.655,0,0,1-.61-1.038,4.794,4.794,0,0,1-.216-1.527v-5.8h2v5.819a2.473,2.473,0,0,0,.116.818,1.387,1.387,0,0,0,.315.527,1.122,1.122,0,0,0,.465.282,1.882,1.882,0,0,0,.564.083,2.367,2.367,0,0,0,1.349-.336,1.845,1.845,0,0,0,.706-.909A3.691,3.691,0,0,0,73.681,12.016Zm7.771,4.15a4.705,4.705,0,0,1-1.8-.328,3.877,3.877,0,0,1-1.361-.917,4.052,4.052,0,0,1-.859-1.386,4.854,4.854,0,0,1-.3-1.718v-.332a5.617,5.617,0,0,1,.307-1.909A4.381,4.381,0,0,1,78.3,8.11a3.7,3.7,0,0,1,1.295-.934,4.027,4.027,0,0,1,1.619-.324,4.087,4.087,0,0,1,1.685.324,3.222,3.222,0,0,1,1.2.909,3.919,3.919,0,0,1,.714,1.39,6.286,6.286,0,0,1,.237,1.776v.855H78.106V10.671H83.07v-.158A2.866,2.866,0,0,0,82.858,9.5,1.637,1.637,0,0,0,81.2,8.446a1.808,1.808,0,0,0-.884.212,1.782,1.782,0,0,0-.643.61,3.122,3.122,0,0,0-.394.959,5.306,5.306,0,0,0-.137,1.258v.332a3.54,3.54,0,0,0,.162,1.092,2.556,2.556,0,0,0,.477.876,2.238,2.238,0,0,0,.764.585,2.364,2.364,0,0,0,1.021.212,2.771,2.771,0,0,0,1.287-.291,2.949,2.949,0,0,0,.979-.822l1.054,1.021a4.02,4.02,0,0,1-.755.809A3.739,3.739,0,0,1,83,15.925,4.559,4.559,0,0,1,81.451,16.166Zm7.173-7.23V16h-2V7.019h1.884Zm-.357,2.241-.647-.008a5.754,5.754,0,0,1,.27-1.751,4.207,4.207,0,0,1,.73-1.37,3.228,3.228,0,0,1,1.125-.884,3.364,3.364,0,0,1,1.461-.311,3.647,3.647,0,0,1,1.175.178,2.2,2.2,0,0,1,.9.577,2.611,2.611,0,0,1,.577,1.033,5.255,5.255,0,0,1,.2,1.556V16H92.052V10.189a2.34,2.34,0,0,0-.187-1.025,1.111,1.111,0,0,0-.54-.54,2.1,2.1,0,0,0-.876-.162,1.935,1.935,0,0,0-.921.216,2.031,2.031,0,0,0-.685.589,2.8,2.8,0,0,0-.427.863A3.566,3.566,0,0,0,88.267,11.177Zm11.547,3.4a1.966,1.966,0,0,0,.884-.2,1.673,1.673,0,0,0,.639-.544,1.514,1.514,0,0,0,.27-.805h1.884a2.806,2.806,0,0,1-.515,1.585,3.536,3.536,0,0,1-1.32,1.133,3.942,3.942,0,0,1-1.818.419,4.239,4.239,0,0,1-1.793-.353,3.5,3.5,0,0,1-1.27-.975,4.253,4.253,0,0,1-.76-1.436,5.835,5.835,0,0,1-.253-1.743v-.291a5.876,5.876,0,0,1,.253-1.747,4.247,4.247,0,0,1,.76-1.44,3.5,3.5,0,0,1,1.27-.975,4.218,4.218,0,0,1,1.785-.353,4.011,4.011,0,0,1,1.893.427,3.256,3.256,0,0,1,1.282,1.187,3.4,3.4,0,0,1,.486,1.764h-1.884a2.068,2.068,0,0,0-.245-.9,1.693,1.693,0,0,0-.614-.643,1.773,1.773,0,0,0-.942-.241,1.889,1.889,0,0,0-1,.245,1.712,1.712,0,0,0-.623.664,3.207,3.207,0,0,0-.32.938,5.93,5.93,0,0,0-.1,1.075v.291a6.263,6.263,0,0,0,.091,1.079,2.955,2.955,0,0,0,.32.934,1.76,1.76,0,0,0,.627.656A1.906,1.906,0,0,0,99.814,14.572ZM107.2,7.019V16h-2.009V7.019Zm-2.142-2.357a1.03,1.03,0,0,1,.3-.76,1.317,1.317,0,0,1,1.681,0,1.023,1.023,0,0,1,.307.76,1,1,0,0,1-.307.747,1.331,1.331,0,0,1-1.681,0A1.006,1.006,0,0,1,105.062,4.661ZM114.5,14.2V9.916a1.837,1.837,0,0,0-.174-.83,1.226,1.226,0,0,0-.527-.54,1.842,1.842,0,0,0-.884-.191,1.992,1.992,0,0,0-.847.166,1.369,1.369,0,0,0-.556.448,1.081,1.081,0,0,0-.2.639h-1.992a2.216,2.216,0,0,1,.257-1.029,2.752,2.752,0,0,1,.747-.888,3.731,3.731,0,0,1,1.17-.614,4.868,4.868,0,0,1,1.527-.224,4.477,4.477,0,0,1,1.8.34,2.764,2.764,0,0,1,1.237,1.025,3.046,3.046,0,0,1,.452,1.714v3.993a6.265,6.265,0,0,0,.087,1.1,3.441,3.441,0,0,0,.253.843V16H114.8a3.428,3.428,0,0,1-.22-.826A6.285,6.285,0,0,1,114.5,14.2Zm.291-3.661.017,1.237h-1.436a4.139,4.139,0,0,0-.979.1,2.067,2.067,0,0,0-.706.3,1.3,1.3,0,0,0-.423.481,1.41,1.41,0,0,0-.141.639,1.3,1.3,0,0,0,.166.652,1.15,1.15,0,0,0,.486.461,1.667,1.667,0,0,0,.776.166,2.2,2.2,0,0,0,1.075-.253,2.15,2.15,0,0,0,.726-.623,1.335,1.335,0,0,0,.282-.7l.647.888a3.039,3.039,0,0,1-.34.73,3.509,3.509,0,0,1-.627.743,3.1,3.1,0,0,1-2.154.8,3.393,3.393,0,0,1-1.569-.353,2.746,2.746,0,0,1-1.079-.955,2.455,2.455,0,0,1-.39-1.365,2.848,2.848,0,0,1,.27-1.266,2.433,2.433,0,0,1,.8-.926,3.868,3.868,0,0,1,1.291-.569,7.067,7.067,0,0,1,1.743-.2ZM124.92,8.745V19.453h-2V7.019h1.843Zm5.852,2.681V11.6a6.854,6.854,0,0,1-.228,1.814,4.5,4.5,0,0,1-.672,1.453,3.118,3.118,0,0,1-1.092.959,3.165,3.165,0,0,1-1.494.34,3.255,3.255,0,0,1-1.465-.311,2.96,2.96,0,0,1-1.058-.884,4.732,4.732,0,0,1-.693-1.349,8.355,8.355,0,0,1-.369-1.706v-.672a8.957,8.957,0,0,1,.369-1.793,4.782,4.782,0,0,1,.693-1.386,2.977,2.977,0,0,1,1.054-.9,3.174,3.174,0,0,1,1.453-.315,3.316,3.316,0,0,1,1.5.328,3.078,3.078,0,0,1,1.1.93,4.2,4.2,0,0,1,.672,1.444A7.279,7.279,0,0,1,130.772,11.426Zm-2,.174v-.174a5.457,5.457,0,0,0-.116-1.158,3.014,3.014,0,0,0-.365-.942,1.835,1.835,0,0,0-.635-.635,1.786,1.786,0,0,0-.926-.228,2.141,2.141,0,0,0-.913.178,1.791,1.791,0,0,0-.639.494,2.321,2.321,0,0,0-.4.735,4.509,4.509,0,0,0-.2.909v1.61a4.024,4.024,0,0,0,.34,1.1,1.949,1.949,0,0,0,.685.793,2.026,2.026,0,0,0,1.141.295,1.739,1.739,0,0,0,.921-.232,1.839,1.839,0,0,0,.627-.643,3.131,3.131,0,0,0,.361-.95A5.432,5.432,0,0,0,128.772,11.6Zm5.745-2.872V16h-2V7.019h1.909Zm2.748-1.768-.017,1.859a3.925,3.925,0,0,0-.394-.05q-.212-.017-.419-.017a2.586,2.586,0,0,0-.9.145,1.734,1.734,0,0,0-.652.415,1.838,1.838,0,0,0-.4.652,2.9,2.9,0,0,0-.166.855l-.457.033a7,7,0,0,1,.166-1.569,4.216,4.216,0,0,1,.5-1.27,2.5,2.5,0,0,1,.847-.855,2.25,2.25,0,0,1,1.183-.307,2.554,2.554,0,0,1,.394.033A1.664,1.664,0,0,1,137.264,6.96Zm6.061,7.238V9.916a1.837,1.837,0,0,0-.174-.83,1.226,1.226,0,0,0-.527-.54,1.842,1.842,0,0,0-.884-.191,1.992,1.992,0,0,0-.847.166,1.369,1.369,0,0,0-.556.448,1.081,1.081,0,0,0-.2.639h-1.992a2.216,2.216,0,0,1,.257-1.029,2.752,2.752,0,0,1,.747-.888,3.731,3.731,0,0,1,1.17-.614,4.869,4.869,0,0,1,1.527-.224,4.477,4.477,0,0,1,1.8.34,2.764,2.764,0,0,1,1.237,1.025,3.046,3.046,0,0,1,.452,1.714v3.993a6.265,6.265,0,0,0,.087,1.1,3.441,3.441,0,0,0,.253.843V16h-2.05a3.428,3.428,0,0,1-.22-.826A6.286,6.286,0,0,1,143.325,14.2Zm.291-3.661.017,1.237H142.2a4.139,4.139,0,0,0-.979.1,2.067,2.067,0,0,0-.706.3,1.3,1.3,0,0,0-.423.481,1.41,1.41,0,0,0-.141.639,1.3,1.3,0,0,0,.166.652,1.15,1.15,0,0,0,.486.461,1.667,1.667,0,0,0,.776.166,2.2,2.2,0,0,0,1.075-.253,2.15,2.15,0,0,0,.726-.623,1.335,1.335,0,0,0,.282-.7l.647.888a3.039,3.039,0,0,1-.34.73,3.509,3.509,0,0,1-.627.743,3.1,3.1,0,0,1-2.154.8,3.393,3.393,0,0,1-1.569-.353,2.746,2.746,0,0,1-1.079-.955,2.455,2.455,0,0,1-.39-1.365,2.847,2.847,0,0,1,.27-1.266,2.433,2.433,0,0,1,.8-.926,3.868,3.868,0,0,1,1.291-.569,7.067,7.067,0,0,1,1.743-.2Zm-2.7-4.79,1.619-2.5h2.258l-2.258,2.5Zm10.219,8.824a1.966,1.966,0,0,0,.884-.2,1.673,1.673,0,0,0,.639-.544,1.514,1.514,0,0,0,.27-.805h1.884a2.806,2.806,0,0,1-.515,1.585,3.536,3.536,0,0,1-1.32,1.133,3.942,3.942,0,0,1-1.818.419,4.239,4.239,0,0,1-1.793-.353,3.5,3.5,0,0,1-1.27-.975,4.253,4.253,0,0,1-.76-1.436,5.836,5.836,0,0,1-.253-1.743v-.291a5.877,5.877,0,0,1,.253-1.747,4.247,4.247,0,0,1,.76-1.44,3.5,3.5,0,0,1,1.27-.975,4.218,4.218,0,0,1,1.785-.353,4.011,4.011,0,0,1,1.893.427,3.256,3.256,0,0,1,1.282,1.187,3.4,3.4,0,0,1,.486,1.764H152.93a2.068,2.068,0,0,0-.245-.9,1.693,1.693,0,0,0-.614-.643,1.773,1.773,0,0,0-.942-.241,1.889,1.889,0,0,0-1,.245,1.712,1.712,0,0,0-.623.664,3.207,3.207,0,0,0-.32.938,5.929,5.929,0,0,0-.1,1.075v.291a6.264,6.264,0,0,0,.091,1.079,2.955,2.955,0,0,0,.32.934,1.76,1.76,0,0,0,.627.656A1.906,1.906,0,0,0,151.137,14.572ZM160.5,7.019V8.479h-5.063V7.019Zm-3.6-2.2h2v8.7a1.348,1.348,0,0,0,.12.635.6.6,0,0,0,.336.295,1.549,1.549,0,0,0,.506.075,3.08,3.08,0,0,0,.4-.025q.191-.025.307-.05l.008,1.527a5.158,5.158,0,0,1-.577.133,4.34,4.34,0,0,1-.751.058,2.885,2.885,0,0,1-1.22-.245,1.774,1.774,0,0,1-.83-.8,3.126,3.126,0,0,1-.3-1.478Zm7.331,2.2V16H162.22V7.019Zm-2.142-2.357a1.03,1.03,0,0,1,.3-.76,1.317,1.317,0,0,1,1.681,0,1.023,1.023,0,0,1,.307.76,1,1,0,0,1-.307.747,1.331,1.331,0,0,1-1.681,0A1.006,1.006,0,0,1,162.088,4.661Zm8.044,9.911a1.966,1.966,0,0,0,.884-.2,1.673,1.673,0,0,0,.639-.544,1.514,1.514,0,0,0,.27-.805h1.884a2.806,2.806,0,0,1-.515,1.585,3.536,3.536,0,0,1-1.32,1.133,3.942,3.942,0,0,1-1.818.419,4.239,4.239,0,0,1-1.793-.353,3.5,3.5,0,0,1-1.27-.975,4.253,4.253,0,0,1-.76-1.436,5.836,5.836,0,0,1-.253-1.743v-.291a5.877,5.877,0,0,1,.253-1.747,4.247,4.247,0,0,1,.76-1.44,3.5,3.5,0,0,1,1.27-.975,4.218,4.218,0,0,1,1.785-.353,4.011,4.011,0,0,1,1.893.427,3.256,3.256,0,0,1,1.282,1.187,3.4,3.4,0,0,1,.486,1.764h-1.884a2.068,2.068,0,0,0-.245-.9,1.693,1.693,0,0,0-.614-.643,1.773,1.773,0,0,0-.942-.241,1.889,1.889,0,0,0-1,.245,1.712,1.712,0,0,0-.623.664,3.207,3.207,0,0,0-.32.938,5.929,5.929,0,0,0-.1,1.075v.291a6.264,6.264,0,0,0,.091,1.079,2.955,2.955,0,0,0,.32.934,1.76,1.76,0,0,0,.627.656A1.906,1.906,0,0,0,170.132,14.572Zm10.311-.374V9.916a1.837,1.837,0,0,0-.174-.83,1.226,1.226,0,0,0-.527-.54,1.842,1.842,0,0,0-.884-.191,1.992,1.992,0,0,0-.847.166,1.369,1.369,0,0,0-.556.448,1.081,1.081,0,0,0-.2.639h-1.992a2.216,2.216,0,0,1,.257-1.029,2.752,2.752,0,0,1,.747-.888,3.731,3.731,0,0,1,1.17-.614,4.869,4.869,0,0,1,1.527-.224,4.477,4.477,0,0,1,1.8.34A2.764,2.764,0,0,1,182,8.218a3.046,3.046,0,0,1,.452,1.714v3.993a6.265,6.265,0,0,0,.087,1.1,3.441,3.441,0,0,0,.253.843V16h-2.05a3.428,3.428,0,0,1-.22-.826A6.286,6.286,0,0,1,180.443,14.2Zm.291-3.661.017,1.237h-1.436a4.139,4.139,0,0,0-.979.1,2.067,2.067,0,0,0-.706.3,1.3,1.3,0,0,0-.423.481,1.41,1.41,0,0,0-.141.639,1.3,1.3,0,0,0,.166.652,1.15,1.15,0,0,0,.486.461,1.667,1.667,0,0,0,.776.166,2.2,2.2,0,0,0,1.075-.253,2.15,2.15,0,0,0,.726-.623,1.335,1.335,0,0,0,.282-.7l.647.888a3.039,3.039,0,0,1-.34.73,3.509,3.509,0,0,1-.627.743,3.1,3.1,0,0,1-2.154.8,3.393,3.393,0,0,1-1.569-.353,2.746,2.746,0,0,1-1.079-.955,2.455,2.455,0,0,1-.39-1.365,2.847,2.847,0,0,1,.27-1.266,2.433,2.433,0,0,1,.8-.926,3.868,3.868,0,0,1,1.291-.569,7.067,7.067,0,0,1,1.743-.2Z" transform="translate(-7590.711 -855.221)" fill="#fff"/>
      <g id="Grupo_1189096" data-name="Grupo 1189096" transform="translate(-8296.422 -11580.221)">
        <text id="WHERE_col_alias_valor" data-name="WHERE col_alias = valor" transform="translate(532 10773)" fill="#12263f" font-size="17" font-family="Roboto-Medium, Roboto" letter-spacing="0.003em" font-weight="500"><tspan x="0" y="16">WHERE col_alias = valor</tspan></text>
        <text id="WHERE_COUNT_5_" data-name="WHERE COUNT(*) &gt; 5 " transform="translate(532 10851.187)" fill="#12263f" font-size="17" font-family="Roboto-Medium, Roboto" letter-spacing="0.003em" font-weight="500"><tspan x="0" y="16">WHERE COUNT(*) &gt; 5 </tspan></text>
        <text id="HAVING_col_alias_valor" data-name="HAVING col_alias = valor" transform="translate(532 10812.187)" fill="#12263f" font-size="17" font-family="Roboto-Medium, Roboto" letter-spacing="0.003em" font-weight="500"><tspan x="0" y="16">HAVING col_alias = valor</tspan></text>
        <text id="HAVING_COUNT_5" data-name="HAVING COUNT(*) &gt; 5" transform="translate(532 10890.373)" fill="#12263f" font-size="17" font-family="Roboto-Medium, Roboto" letter-spacing="0.003em" font-weight="500"><tspan x="0" y="16">HAVING COUNT(*) &gt; 5</tspan></text>
        <text id="ERROR:_alias_no_existe_aún_en_WHERE." data-name="ERROR: alias no existe aún en WHERE." transform="translate(767 10773)" fill="#12263f" font-size="17" font-family="Roboto-Medium, Roboto" letter-spacing="0.003em" font-weight="500"><tspan x="0" y="16">ERROR: alias no existe aún en WHERE.</tspan></text>
        <text id="ERROR:_agregación_no_disponible_en_WHERE._" data-name="ERROR: agregación no disponible en WHERE.
" transform="translate(767 10851.187)" fill="#12263f" font-size="17" font-family="Roboto-Medium, Roboto" letter-spacing="0.003em" font-weight="500"><tspan x="0" y="16">ERROR: agregación no disponible en WHERE.</tspan><tspan font-family="Roboto-Regular, Roboto" font-weight="400"><tspan x="0" y="40"></tspan></tspan></text>
        <text id="OK:_alias_ya_existe_en_HAVING." data-name="OK: alias ya existe en HAVING." transform="translate(767 10812.187)" fill="#12263f" font-size="17" font-family="Roboto-Medium, Roboto" letter-spacing="0.003em" font-weight="500"><tspan x="0" y="16">OK: alias ya existe en HAVING.</tspan></text>
        <text id="OK:_agregación_disponible_en_HAVING." data-name="OK: agregación disponible en HAVING." transform="translate(767 10890.373)" fill="#12263f" font-size="17" font-family="Roboto-Medium, Roboto" letter-spacing="0.003em" font-weight="500"><tspan x="0" y="16">OK: agregación disponible en HAVING.</tspan></text>
        <circle id="Elipse_13714" data-name="Elipse 13714" cx="14" cy="14" r="14" transform="translate(492.711 10768)" fill="#8d1919"/>
        <circle id="Elipse_13716" data-name="Elipse 13716" cx="14" cy="14" r="14" transform="translate(492.711 10846.187)" fill="#8d1919"/>
        <circle id="Elipse_13715" data-name="Elipse 13715" cx="14" cy="14" r="14" transform="translate(492.711 10807)" fill="#2c7d1c"/>
        <circle id="Elipse_13717" data-name="Elipse 13717" cx="14" cy="14" r="14" transform="translate(492.711 10885.187)" fill="#2c7d1c"/>
        <path id="Trazado_1032529_-_Contorno" data-name="Trazado 1032529 - Contorno" d="M19.466,4.916a.807.807,0,0,1,.146.013.807.807,0,0,1,.6.124.807.807,0,0,1,.527.39.808.808,0,0,1,.237.374.807.807,0,0,1,.039.743c-.036.079-.071.148-.106.211a1.559,1.559,0,0,1-.181.256C20,7.875,19.3,8.757,18.632,9.649c-.575.767-1.145,1.576-1.7,2.41.334.587.686,1.189,1.05,1.8.454.758.951,1.572,1.475,2.417a2.6,2.6,0,0,1,.147.265l.113.238a.807.807,0,0,1-.144.9.806.806,0,0,1-.3.371l-.006,0a.807.807,0,0,1-.61.332.807.807,0,0,1-.676.011,1.5,1.5,0,0,1-.743-.467c-.528-.781-1.017-1.532-1.453-2.233q-.283-.454-.554-.907c-.316.537-.625,1.085-.925,1.639-.519.96-1.033,1.972-1.528,3.01q-.01.021-.022.042l-.126.228a.806.806,0,0,1-.56.4.807.807,0,0,1-.6.126.807.807,0,0,1-.578-.112.807.807,0,0,1-.562-.425.807.807,0,0,1-.239-.409.806.806,0,0,1-.072-.6l.038-.141a1.342,1.342,0,0,1,.115-.287c.523-1.1,1.1-2.22,1.725-3.324.549-.974,1.141-1.956,1.764-2.927-.11-.205-.225-.424-.345-.654-.207-.4-.419-.818-.63-1.248s-.421-.867-.624-1.3-.392-.853-.557-1.242l-.147-.333a.807.807,0,0,1,.108-.83.806.806,0,0,1,.252-.363.807.807,0,0,1,.4-.31.806.806,0,0,1,.514-.147.806.806,0,0,1,.4.018.806.806,0,0,1,.4.154.806.806,0,0,1,.483.434l.108.24c.335.722.674,1.425,1.007,2.087q.208.415.423.831c.351-.488.708-.97,1.068-1.442.625-.821,1.283-1.638,1.956-2.427l.024-.027a2.21,2.21,0,0,1,.312-.283,1.514,1.514,0,0,1,.372-.2A.806.806,0,0,1,19.466,4.916Z" transform="translate(490.801 10769.418)" fill="#fff"/>
        <path id="Trazado_1032529_-_Contorno-2" data-name="Trazado 1032529 - Contorno" d="M19.466,4.916a.807.807,0,0,1,.146.013.807.807,0,0,1,.6.124.807.807,0,0,1,.527.39.808.808,0,0,1,.237.374.807.807,0,0,1,.039.743c-.036.079-.071.148-.106.211a1.559,1.559,0,0,1-.181.256C20,7.875,19.3,8.757,18.632,9.649c-.575.767-1.145,1.576-1.7,2.41.334.587.686,1.189,1.05,1.8.454.758.951,1.572,1.475,2.417a2.6,2.6,0,0,1,.147.265l.113.238a.807.807,0,0,1-.144.9.806.806,0,0,1-.3.371l-.006,0a.807.807,0,0,1-.61.332.807.807,0,0,1-.676.011,1.5,1.5,0,0,1-.743-.467c-.528-.781-1.017-1.532-1.453-2.233q-.283-.454-.554-.907c-.316.537-.625,1.085-.925,1.639-.519.96-1.033,1.972-1.528,3.01q-.01.021-.022.042l-.126.228a.806.806,0,0,1-.56.4.807.807,0,0,1-.6.126.807.807,0,0,1-.578-.112.807.807,0,0,1-.562-.425.807.807,0,0,1-.239-.409.806.806,0,0,1-.072-.6l.038-.141a1.342,1.342,0,0,1,.115-.287c.523-1.1,1.1-2.22,1.725-3.324.549-.974,1.141-1.956,1.764-2.927-.11-.205-.225-.424-.345-.654-.207-.4-.419-.818-.63-1.248s-.421-.867-.624-1.3-.392-.853-.557-1.242l-.147-.333a.807.807,0,0,1,.108-.83.806.806,0,0,1,.252-.363.807.807,0,0,1,.4-.31.806.806,0,0,1,.514-.147.806.806,0,0,1,.4.018.806.806,0,0,1,.4.154.806.806,0,0,1,.483.434l.108.24c.335.722.674,1.425,1.007,2.087q.208.415.423.831c.351-.488.708-.97,1.068-1.442.625-.821,1.283-1.638,1.956-2.427l.024-.027a2.21,2.21,0,0,1,.312-.283,1.514,1.514,0,0,1,.372-.2A.806.806,0,0,1,19.466,4.916Z" transform="translate(490.801 10847.604)" fill="#fff"/>
        <g id="Grupo_1189091" data-name="Grupo 1189091" transform="translate(-1043 11194.897) rotate(-90)">
          <path id="Trazado_999401" data-name="Trazado 999401" d="M6.093,0,0,6.093l6.093,6.093H11.21L6.093,7.1V5.117l2.3-2.3L11.21,0Z" transform="translate(406.711 1795.7) rotate(-90)" fill="#1e75cc"/>
          <rect id="Rectángulo_458934" data-name="Rectángulo 458934" width="2.967" height="18.396" transform="translate(411.459 1773)" fill="#1e75cc"/>
        </g>
        <g id="Grupo_1189094" data-name="Grupo 1189094" transform="translate(-1043 11273.084) rotate(-90)">
          <path id="Trazado_999401-2" data-name="Trazado 999401" d="M6.093,0,0,6.093l6.093,6.093H11.21L6.093,7.1V5.117l2.3-2.3L11.21,0Z" transform="translate(406.711 1795.7) rotate(-90)" fill="#1e75cc"/>
          <rect id="Rectángulo_458934-2" data-name="Rectángulo 458934" width="2.967" height="18.396" transform="translate(411.459 1773)" fill="#1e75cc"/>
        </g>
        <g id="Grupo_1189092" data-name="Grupo 1189092" transform="translate(-1043 11234.084) rotate(-90)">
          <path id="Trazado_999401-3" data-name="Trazado 999401" d="M6.093,0,0,6.093l6.093,6.093H11.21L6.093,7.1V5.117l2.3-2.3L11.21,0Z" transform="translate(406.711 1795.7) rotate(-90)" fill="#1e75cc"/>
          <rect id="Rectángulo_458934-3" data-name="Rectángulo 458934" width="2.967" height="18.396" transform="translate(411.459 1773)" fill="#1e75cc"/>
        </g>
        <g id="Grupo_1189093" data-name="Grupo 1189093" transform="translate(-1043 11312.271) rotate(-90)">
          <path id="Trazado_999401-4" data-name="Trazado 999401" d="M6.093,0,0,6.093l6.093,6.093H11.21L6.093,7.1V5.117l2.3-2.3L11.21,0Z" transform="translate(406.711 1795.7) rotate(-90)" fill="#1e75cc"/>
          <rect id="Rectángulo_458934-4" data-name="Rectángulo 458934" width="2.967" height="18.396" transform="translate(411.459 1773)" fill="#1e75cc"/>
        </g>
        <path id="Trazado_1032529" data-name="Trazado 1032529" d="M9.739,13.941a4.568,4.568,0,0,1-.315-.344.456.456,0,0,1-.125-.27.283.283,0,0,1,.112-.22.95.95,0,0,1,.27-.158,1.623,1.623,0,0,1,.336-.091,1.935,1.935,0,0,1,.3-.029.369.369,0,0,1,.22.062,1.7,1.7,0,0,1,.2.178,12.968,12.968,0,0,1,1.415,1.677q.635.9,1.175,1.776a48.342,48.342,0,0,1,2.416-5.57,37.087,37.087,0,0,1,3.1-5.055,1.037,1.037,0,0,1,.519-.357,2.371,2.371,0,0,1,.793-.125.407.407,0,0,1,.224.054.173.173,0,0,1,.083.154.514.514,0,0,1-.025.17.733.733,0,0,1-.116.187q-.921,1.22-1.789,2.557t-1.656,2.818q-.789,1.482-1.494,3.109T14.1,17.884a.166.166,0,0,1-.091.087.826.826,0,0,1-.183.062,1.838,1.838,0,0,1-.241.037q-.133.012-.266.012a1.514,1.514,0,0,1-.349-.037.352.352,0,0,1-.232-.162q-.4-.681-.739-1.2t-.689-.967q-.349-.448-.726-.872T9.739,13.941Z" transform="translate(491.412 10809.584)" fill="#fff" stroke="#fff" stroke-width="1"/>
        <path id="Trazado_1032530" data-name="Trazado 1032530" d="M9.739,13.941a4.568,4.568,0,0,1-.315-.344.456.456,0,0,1-.125-.27.283.283,0,0,1,.112-.22.95.95,0,0,1,.27-.158,1.623,1.623,0,0,1,.336-.091,1.935,1.935,0,0,1,.3-.029.369.369,0,0,1,.22.062,1.7,1.7,0,0,1,.2.178,12.968,12.968,0,0,1,1.415,1.677q.635.9,1.175,1.776a48.342,48.342,0,0,1,2.416-5.57,37.087,37.087,0,0,1,3.1-5.055,1.037,1.037,0,0,1,.519-.357,2.371,2.371,0,0,1,.793-.125.407.407,0,0,1,.224.054.173.173,0,0,1,.083.154.514.514,0,0,1-.025.17.733.733,0,0,1-.116.187q-.921,1.22-1.789,2.557t-1.656,2.818q-.789,1.482-1.494,3.109T14.1,17.884a.166.166,0,0,1-.091.087.826.826,0,0,1-.183.062,1.838,1.838,0,0,1-.241.037q-.133.012-.266.012a1.514,1.514,0,0,1-.349-.037.352.352,0,0,1-.232-.162q-.4-.681-.739-1.2t-.689-.967q-.349-.448-.726-.872T9.739,13.941Z" transform="translate(491.412 10887.771)" fill="#fff" stroke="#fff" stroke-width="1"/>
      </g>
      <text id="_identifica_las_tablas._filtra_filas._agrupa_filas_filtradas._filtra_grupos._calcula_expresiones_alias._elimina_duplicados._ordena_el_resultado._limita_filas_devueltas." data-name="→ identifica las tablas.
→ filtra filas.
→ agrupa filas filtradas.
→ filtra grupos.
→ calcula expresiones/alias.
→ elimina duplicados.
→ ordena el resultado.
→ limita filas devueltas." transform="translate(-7420.422 -1094.684)" fill="#19538d" font-size="17" font-family="SegoeUI-Semibold, Segoe UI" letter-spacing="0.003em" font-weight="600"><tspan x="0" y="18">→</tspan><tspan y="18" xml:space="preserve" fill="#12263f" font-family="Roboto-Medium, Roboto" font-weight="500"> identifica las tablas.</tspan><tspan x="0" y="42">→</tspan><tspan y="42" xml:space="preserve" fill="#12263f" font-family="Roboto-Medium, Roboto" font-weight="500"> filtra filas.</tspan><tspan x="0" y="66">→</tspan><tspan y="66" xml:space="preserve" fill="#12263f" font-family="Roboto-Medium, Roboto" font-weight="500"> agrupa filas filtradas.</tspan><tspan x="0" y="90">→</tspan><tspan y="90" xml:space="preserve" fill="#12263f" font-family="Roboto-Medium, Roboto" font-weight="500"> filtra grupos.</tspan><tspan x="0" y="114">→</tspan><tspan y="114" xml:space="preserve" fill="#12263f" font-family="Roboto-Medium, Roboto" font-weight="500"> calcula expresiones/alias.</tspan><tspan x="0" y="138">→</tspan><tspan y="138" xml:space="preserve" fill="#12263f" font-family="Roboto-Medium, Roboto" font-weight="500"> elimina duplicados.</tspan><tspan x="0" y="162">→</tspan><tspan y="162" xml:space="preserve" fill="#12263f" font-family="Roboto-Medium, Roboto" font-weight="500"> ordena el resultado.</tspan><tspan x="0" y="186">→</tspan><tspan y="186" xml:space="preserve" fill="#12263f" font-family="Roboto-Medium, Roboto" font-weight="500"> limita filas devueltas.</tspan></text>
      <g id="configuracion" transform="translate(-7213.172 -864.221)">
        <g id="Grupo_1189133" data-name="Grupo 1189133" transform="translate(52.032)">
          <path id="Trazado_1032555" data-name="Trazado 1032555" d="M72.846,233.106H156.1v7.569H72.846Z" transform="translate(-68.115 -180.124)" fill="#688ed5"/>
          <path id="Trazado_1032556" data-name="Trazado 1032556" d="M142.385,289.113H54.4a2.365,2.365,0,0,1-2.365-2.365V268.772a2.365,2.365,0,0,1,2.365-2.365h87.987a2.365,2.365,0,0,1,2.365,2.365v17.976A2.365,2.365,0,0,1,142.385,289.113Z" transform="translate(-52.032 -205.856)" fill="#4172ca"/>
          <path id="Trazado_1032557" data-name="Trazado 1032557" d="M435.087,289.113h-4.258V266.407h4.258a2.365,2.365,0,0,1,2.365,2.365v17.976A2.365,2.365,0,0,1,435.087,289.113Z" transform="translate(-344.734 -205.856)" fill="#3a67c1"/>
          <path id="Trazado_1032558" data-name="Trazado 1032558" d="M142.385,22.706H54.4a2.365,2.365,0,0,1-2.365-2.365V2.365A2.366,2.366,0,0,1,54.4,0h87.987a2.365,2.365,0,0,1,2.365,2.365V20.341A2.365,2.365,0,0,1,142.385,22.706Z" transform="translate(-52.032 0)" fill="#4172ca"/>
          <path id="Trazado_1032559" data-name="Trazado 1032559" d="M435.087,22.706h-4.258V0h4.258a2.365,2.365,0,0,1,2.365,2.365V20.341a2.365,2.365,0,0,1-2.365,2.365Z" transform="translate(-344.734)" fill="#3a67c1"/>
          <path id="Trazado_1032560" data-name="Trazado 1032560" d="M72.846,99.9H156.1v7.569H72.846Z" transform="translate(-68.115 -77.196)" fill="#688ed5"/>
          <path id="Trazado_1032561" data-name="Trazado 1032561" d="M157.612,40.871h-3.784a1.892,1.892,0,0,1-1.892-1.892V35.194a1.892,1.892,0,0,1,1.892-1.892h3.784a1.892,1.892,0,0,1,1.892,1.892v3.784A1.892,1.892,0,0,1,157.612,40.871Z" transform="translate(-129.229 -25.733)" fill="#a2f5c3"/>
          <path id="Trazado_1032562" data-name="Trazado 1032562" d="M224.213,40.871h-3.784a1.892,1.892,0,0,1-1.892-1.892V35.194a1.892,1.892,0,0,1,1.892-1.892h3.784a1.892,1.892,0,0,1,1.892,1.892v3.784A1.892,1.892,0,0,1,224.213,40.871Z" transform="translate(-180.693 -25.733)" fill="#e279b3"/>
          <path id="Trazado_1032563" data-name="Trazado 1032563" d="M315.413,40.871H287.03a1.892,1.892,0,0,1-1.892-1.892V35.194A1.892,1.892,0,0,1,287.03,33.3h28.383a1.892,1.892,0,0,1,1.892,1.892v3.784A1.892,1.892,0,0,1,315.413,40.871Z" transform="translate(-232.156 -25.733)" fill="#26447e"/>
          <path id="Trazado_1032564" data-name="Trazado 1032564" d="M91.01,40.871H87.226a1.892,1.892,0,0,1-1.892-1.892V35.194A1.892,1.892,0,0,1,87.226,33.3H91.01A1.892,1.892,0,0,1,92.9,35.194v3.784A1.892,1.892,0,0,1,91.01,40.871Z" transform="translate(-77.765 -25.733)" fill="#a2f5c3"/>
          <path id="Trazado_1032565" data-name="Trazado 1032565" d="M142.385,155.91H54.4a2.365,2.365,0,0,1-2.365-2.365V135.568A2.365,2.365,0,0,1,54.4,133.2h87.987a2.365,2.365,0,0,1,2.365,2.365v17.976A2.365,2.365,0,0,1,142.385,155.91Z" transform="translate(-52.032 -102.928)" fill="#4172ca"/>
          <path id="Trazado_1032566" data-name="Trazado 1032566" d="M435.087,155.91h-4.258V133.2h4.258a2.365,2.365,0,0,1,2.365,2.365v17.976A2.365,2.365,0,0,1,435.087,155.91Z" transform="translate(-344.734 -102.929)" fill="#3a67c1"/>
          <path id="Trazado_1032567" data-name="Trazado 1032567" d="M157.612,174.074h-3.784a1.892,1.892,0,0,1-1.892-1.892V168.4a1.892,1.892,0,0,1,1.892-1.892h3.784A1.892,1.892,0,0,1,159.5,168.4v3.784A1.892,1.892,0,0,1,157.612,174.074Z" transform="translate(-129.229 -128.661)" fill="#a2f5c3"/>
          <path id="Trazado_1032568" data-name="Trazado 1032568" d="M224.213,174.074h-3.784a1.892,1.892,0,0,1-1.892-1.892V168.4a1.892,1.892,0,0,1,1.892-1.892h3.784a1.892,1.892,0,0,1,1.892,1.892v3.784A1.892,1.892,0,0,1,224.213,174.074Z" transform="translate(-180.693 -128.661)" fill="#e279b3"/>
          <path id="Trazado_1032569" data-name="Trazado 1032569" d="M315.413,174.074H287.03a1.892,1.892,0,0,1-1.892-1.892V168.4a1.892,1.892,0,0,1,1.892-1.892h28.383a1.892,1.892,0,0,1,1.892,1.892v3.784A1.892,1.892,0,0,1,315.413,174.074Z" transform="translate(-232.156 -128.661)" fill="#26447e"/>
          <path id="Trazado_1032570" data-name="Trazado 1032570" d="M91.01,174.074H87.226a1.892,1.892,0,0,1-1.892-1.892V168.4a1.892,1.892,0,0,1,1.892-1.892H91.01A1.892,1.892,0,0,1,92.9,168.4v3.784A1.892,1.892,0,0,1,91.01,174.074Z" transform="translate(-77.765 -128.661)" fill="#a2f5c3"/>
          <circle id="Elipse_13720" data-name="Elipse 13720" cx="27.91" cy="27.91" r="27.91" transform="translate(18.449 60.55)" fill="#ffcc74"/>
          <path id="Trazado_1032571" data-name="Trazado 1032571" d="M195.33,289.572a27.911,27.911,0,0,1-38.961,38.961,27.91,27.91,0,1,0,38.961-38.961Z" transform="translate(-132.655 -223.756)" fill="#f6be5c"/>
        </g>
        <path id="Trazado_1032572" data-name="Trazado 1032572" d="M212.29,329.7c0-.29-.011-.578-.03-.864a1.427,1.427,0,0,1,.433-1.133l2.832-2.707a1.419,1.419,0,0,0,.248-1.736l-2.67-4.624a1.419,1.419,0,0,0-1.627-.653l-3.758,1.1a1.417,1.417,0,0,1-1.188-.185,13.022,13.022,0,0,0-1.519-.878,1.417,1.417,0,0,1-.754-.936l-.928-3.8a1.419,1.419,0,0,0-1.379-1.083h-5.34a1.419,1.419,0,0,0-1.379,1.083l-.928,3.8a1.417,1.417,0,0,1-.754.936,12.993,12.993,0,0,0-1.519.878,1.417,1.417,0,0,1-1.188.185l-3.758-1.1a1.419,1.419,0,0,0-1.627.653l-2.67,4.624a1.419,1.419,0,0,0,.248,1.736l2.832,2.707a1.427,1.427,0,0,1,.433,1.133q-.03.428-.03.864c0,.29.011.578.03.864a1.428,1.428,0,0,1-.433,1.133l-2.832,2.707a1.419,1.419,0,0,0-.248,1.736l2.67,4.624a1.419,1.419,0,0,0,1.627.653l3.758-1.1a1.417,1.417,0,0,1,1.188.185,13.028,13.028,0,0,0,1.519.878,1.417,1.417,0,0,1,.754.936l.928,3.8a1.419,1.419,0,0,0,1.379,1.083h5.34a1.419,1.419,0,0,0,1.379-1.083l.928-3.8a1.417,1.417,0,0,1,.754-.936,13,13,0,0,0,1.519-.878,1.417,1.417,0,0,1,1.188-.185l3.758,1.1a1.419,1.419,0,0,0,1.627-.653l2.67-4.624a1.419,1.419,0,0,0-.248-1.736l-2.832-2.707a1.427,1.427,0,0,1-.433-1.133C212.28,330.276,212.29,329.988,212.29,329.7Zm-9.225,0a3.784,3.784,0,1,1-3.784-3.784A3.784,3.784,0,0,1,203.066,329.7Z" transform="translate(-100.89 -241.237)" fill="#e6f7fe"/>
      </g>
    </g>
  </g>
</svg>
