<svg xmlns="http://www.w3.org/2000/svg" xmlns:xlink="http://www.w3.org/1999/xlink" width="396" height="1262" viewBox="0 0 396 1262">
  <defs>
    <clipPath id="clip-path">
      <rect id="Rectángulo_459353" data-name="Rectángulo 459353" width="73" height="94" transform="translate(289.711 1648)" fill="#ccf7f4"/>
    </clipPath>
  </defs>
  <g id="Grupo_1190975" data-name="Grupo 1190975" transform="translate(7712.246 1493.733)">
    <g id="Grupo_1190974" data-name="Grupo 1190974" transform="translate(844 -158.306)">
      <rect id="Rectángulo_459336" data-name="Rectángulo 459336" width="396" height="1262" transform="translate(-8556.246 -1335.428)" fill="#c0f6f2"/>
    </g>
    <g id="Enmascarar_grupo_1178512" data-name="Enmascarar grupo 1178512" transform="translate(-8001.711 -3141.306)" clip-path="url(#clip-path)">
      <g id="Grupo_1189104" data-name="Grupo 1189104" transform="translate(269.39 1633.166)">
        <path id="Línea_3303" data-name="Línea 3303" d="M-2.228,35.465a1.108,1.108,0,0,1-.786-.326,1.112,1.112,0,0,1,0-1.572L33.568-3.014a1.112,1.112,0,0,1,1.572,0,1.112,1.112,0,0,1,0,1.572L-1.442,35.14A1.108,1.108,0,0,1-2.228,35.465Z" transform="translate(46.735 3.34)" fill="#19538d"/>
        <path id="Línea_3304" data-name="Línea 3304" d="M-4.457,34.348A2.216,2.216,0,0,1-6.029,33.7a2.223,2.223,0,0,1,0-3.144L30.553-6.029a2.223,2.223,0,0,1,3.144,0,2.223,2.223,0,0,1,0,3.144L-2.885,33.7A2.216,2.216,0,0,1-4.457,34.348Z" transform="translate(16.771 27.121)" fill="#19538d"/>
        <g id="Grupo_1189103" data-name="Grupo 1189103" transform="translate(0 48.122)">
          <path id="Trazado_998899" data-name="Trazado 998899" d="M26.27,519.191l-.784-.784L38.713,505.18A8.806,8.806,0,0,1,44.94,502.6a7.647,7.647,0,0,0,5.443-2.255l8.368-8.368.784.784-8.368,8.368a8.806,8.806,0,0,1-6.227,2.579,7.647,7.647,0,0,0-5.443,2.254Z" transform="translate(-25.486 -469.234)" fill="#fff"/>
          <path id="Trazado_1032531" data-name="Trazado 1032531" d="M190.833,478.2a1.888,1.888,0,1,0,0,2.67,1.888,1.888,0,0,0,0-2.67" transform="translate(-154.583 -457.654)" fill="#fff" fill-rule="evenodd"/>
          <path id="Trazado_998907" data-name="Trazado 998907" d="M17.239,331.057l-.784-.784,30.834-30.834A7.647,7.647,0,0,0,49.543,294v-5.288a8.806,8.806,0,0,1,2.579-6.227l4.944-4.945.784.784-4.944,4.945a7.647,7.647,0,0,0-2.255,5.443V294a8.807,8.807,0,0,1-2.579,6.227Z" transform="translate(-2.312 -275.977)" fill="#fff"/>
          <path id="Trazado_1032532" data-name="Trazado 1032532" d="M211.331,270.46a1.888,1.888,0,1,1-2.67,0,1.888,1.888,0,0,1,2.67,0" transform="translate(-154.95 -269.741)" fill="#fff" fill-rule="evenodd"/>
          <path id="Trazado_998908_-_Contorno" data-name="Trazado 998908 - Contorno" d="M209.664,273.516a2.054,2.054,0,1,1,1.453-.6A2.041,2.041,0,0,1,209.664,273.516Zm0-3.776a1.722,1.722,0,1,0,1.217.5A1.71,1.71,0,0,0,209.664,269.74Z" transform="translate(-154.618 -269.407)" fill="#fff"/>
        </g>
      </g>
    </g>
    <text id="Orden_de_procesamiento_lógico_del_SELECT." data-name="Orden de procesamiento lógico del SELECT." transform="translate(-7678 -1467.306)" fill="#12263f" font-size="17" font-family="Roboto-Medium, Roboto" letter-spacing="0.003em" font-weight="500"><tspan x="0" y="16">Orden de procesamiento lógico del </tspan><tspan x="0" y="40">SELECT.</tspan></text>
    <g id="Grupo_1189099" data-name="Grupo 1189099" transform="translate(-8105.711 -11929.936)">
      <rect id="Rectángulo_459339" data-name="Rectángulo 459339" width="372.244" height="3" transform="translate(407.711 10509.038)" fill="#82c0ff"/>
    </g>
    <g id="Rectángulo_459349" data-name="Rectángulo 459349" transform="translate(-7698 -1354.733)" fill="#e1ffe9" stroke="#1e75cc" stroke-width="2" stroke-dasharray="4">
      <rect width="130.132" height="582.955" stroke="none"/>
      <rect x="1" y="1" width="128.132" height="580.955" fill="none"/>
    </g>
    <g id="Rectángulo_459347" data-name="Rectángulo 459347" transform="translate(-7557.86 -1372.769)" fill="#e1ffe9" stroke="#1e75cc" stroke-width="2" stroke-dasharray="4">
      <rect width="232.244" height="600.99" stroke="none"/>
      <rect x="1" y="1" width="230.244" height="598.99" fill="none"/>
    </g>
    <text id="_1._SELECT._2._FROM._3._JOIN._4._WHERE._5._GROUP_BY._6._HAVING._7._ORDER_BY._8._LIMIT_TOP._" data-name="1. SELECT.

2. FROM.

3. JOIN.

4. WHERE.

5. GROUP BY.

6. HAVING. 
 
7. ORDER BY.

8. LIMIT/TOP. " transform="translate(-7687 -1328.733)" fill="#12263f" font-size="17" font-family="Roboto-Medium, Roboto" font-weight="500" letter-spacing="0.003em"><tspan x="0" y="16">1. SELECT.</tspan><tspan x="0" y="50"></tspan><tspan x="0" y="84">2. FROM.</tspan><tspan x="0" y="118"></tspan><tspan x="0" y="152">3. JOIN.</tspan><tspan x="0" y="186"></tspan><tspan x="0" y="220">4. WHERE.</tspan><tspan x="0" y="254"></tspan><tspan x="0" y="288">5. GROUP BY.</tspan><tspan x="0" y="322"></tspan><tspan x="0" y="356">6. HAVING. </tspan><tspan x="0" y="390"> </tspan><tspan x="0" y="424">7. ORDER BY.</tspan><tspan x="0" y="458"></tspan><tspan x="0" y="492">8. LIMIT/TOP. </tspan></text>
    <text id="_1._FROM_JOIN._2._WHERE._3._GROUP_BY._4._HAVING._5._SELECT._6._DISTINCT._7._ORDER_BY._8._LIMIT_TOP._" data-name="1. FROM / JOIN. 

2. WHERE.
       
3. GROUP BY.  
   
4. HAVING.
    
5. SELECT. 
     
6. DISTINCT.   
  
7. ORDER BY.  
   
8. LIMIT/TOP.  " transform="translate(-7530.246 -1328.733)" fill="#12263f" font-size="17" font-family="Roboto-Medium, Roboto" letter-spacing="0.003em" font-weight="500"><tspan x="0" y="16">1. FROM / JOIN. </tspan><tspan x="0" y="50"></tspan><tspan x="0" y="84">2. WHERE.</tspan><tspan x="0" y="118" xml:space="preserve">       </tspan><tspan x="0" y="152" xml:space="preserve">3. GROUP BY.  </tspan><tspan x="0" y="186" xml:space="preserve">   </tspan><tspan x="0" y="220">4. HAVING.</tspan><tspan x="0" y="254" xml:space="preserve">    </tspan><tspan x="0" y="288">5. SELECT. </tspan><tspan x="0" y="322" xml:space="preserve">     </tspan><tspan x="0" y="356" xml:space="preserve">6. DISTINCT.   </tspan><tspan x="0" y="390" xml:space="preserve">  </tspan><tspan x="0" y="424" xml:space="preserve">7. ORDER BY.  </tspan><tspan x="0" y="458" xml:space="preserve">   </tspan><tspan x="0" y="492" xml:space="preserve">8. LIMIT/TOP.  </tspan></text>
    <path id="Trazado_1034643" data-name="Trazado 1034643" d="M0,0H130.132V61.307H0Z" transform="translate(-7698 -1410.769)" fill="#19538d"/>
    <path id="Trazado_1034645" data-name="Trazado 1034645" d="M0,0H232.244V61.307H0Z" transform="translate(-7558 -1410.769)" fill="#19538d"/>
    <path id="Trazado_1034644" data-name="Trazado 1034644" d="M39.925,9.625v.664a7.86,7.86,0,0,1-.357,2.457A5.339,5.339,0,0,1,38.551,14.6a4.386,4.386,0,0,1-1.581,1.166,5.046,5.046,0,0,1-2.042.4,5,5,0,0,1-2.03-.4,4.512,4.512,0,0,1-1.59-1.166,5.383,5.383,0,0,1-1.042-1.851,7.615,7.615,0,0,1-.369-2.457V9.625a7.657,7.657,0,0,1,.365-2.453A5.42,5.42,0,0,1,31.3,5.321a4.451,4.451,0,0,1,1.585-1.17,5,5,0,0,1,2.03-.4,5.046,5.046,0,0,1,2.042.4,4.4,4.4,0,0,1,1.585,1.17,5.4,5.4,0,0,1,1.025,1.851A7.738,7.738,0,0,1,39.925,9.625Zm-2.083.664V9.608a7.375,7.375,0,0,0-.2-1.789,3.812,3.812,0,0,0-.573-1.3,2.475,2.475,0,0,0-.926-.8,2.763,2.763,0,0,0-1.237-.27,2.71,2.71,0,0,0-1.229.27,2.494,2.494,0,0,0-.917.8,3.869,3.869,0,0,0-.577,1.3,7.228,7.228,0,0,0-.2,1.789v.681a7.279,7.279,0,0,0,.2,1.793,3.861,3.861,0,0,0,.585,1.316,2.535,2.535,0,0,0,.926.805,2.951,2.951,0,0,0,2.465,0,2.435,2.435,0,0,0,.913-.805,3.957,3.957,0,0,0,.569-1.316A7.427,7.427,0,0,0,37.841,10.289Zm6.011-1.561V16h-2V7.019H43.76ZM46.6,6.96,46.583,8.82a3.925,3.925,0,0,0-.394-.05q-.212-.017-.419-.017a2.586,2.586,0,0,0-.9.145,1.734,1.734,0,0,0-.652.415,1.838,1.838,0,0,0-.4.652,2.9,2.9,0,0,0-.166.855l-.457.033a7,7,0,0,1,.166-1.569,4.217,4.217,0,0,1,.5-1.27A2.5,2.5,0,0,1,44.7,7.16a2.25,2.25,0,0,1,1.183-.307,2.554,2.554,0,0,1,.394.033A1.664,1.664,0,0,1,46.6,6.96Zm6.617,7.18V3.25h2.009V16H53.407Zm-5.844-2.532v-.174a6.771,6.771,0,0,1,.241-1.864,4.43,4.43,0,0,1,.7-1.453,3.118,3.118,0,0,1,1.112-.938A3.258,3.258,0,0,1,50.9,6.853a3.084,3.084,0,0,1,1.428.315,2.984,2.984,0,0,1,1.046.9,4.758,4.758,0,0,1,.689,1.395,9.249,9.249,0,0,1,.365,1.8v.556a8.981,8.981,0,0,1-.365,1.76,4.726,4.726,0,0,1-.689,1.378,2.988,2.988,0,0,1-1.05.9,3.383,3.383,0,0,1-2.905-.025,3.236,3.236,0,0,1-1.108-.955,4.489,4.489,0,0,1-.7-1.448A6.52,6.52,0,0,1,47.372,11.609Zm2-.174v.174a5.547,5.547,0,0,0,.112,1.146,3.021,3.021,0,0,0,.353.934,1.706,1.706,0,0,0,1.552.859,1.953,1.953,0,0,0,1.121-.3,2.065,2.065,0,0,0,.693-.809,3.766,3.766,0,0,0,.344-1.141V10.8a3.794,3.794,0,0,0-.2-.913,2.572,2.572,0,0,0-.411-.743,1.78,1.78,0,0,0-.635-.5,2.07,2.07,0,0,0-.892-.178,1.756,1.756,0,0,0-.93.232,1.849,1.849,0,0,0-.627.639,3.078,3.078,0,0,0-.361.946A5.473,5.473,0,0,0,49.373,11.435Zm11.946,4.731a4.705,4.705,0,0,1-1.8-.328,3.877,3.877,0,0,1-1.361-.917,4.052,4.052,0,0,1-.859-1.386,4.854,4.854,0,0,1-.3-1.718v-.332a5.617,5.617,0,0,1,.307-1.909,4.381,4.381,0,0,1,.855-1.465,3.7,3.7,0,0,1,1.295-.934,4.027,4.027,0,0,1,1.619-.324,4.087,4.087,0,0,1,1.685.324,3.222,3.222,0,0,1,1.2.909,3.919,3.919,0,0,1,.714,1.39,6.286,6.286,0,0,1,.237,1.776v.855H57.973V10.671h4.964v-.158A2.865,2.865,0,0,0,62.726,9.5,1.637,1.637,0,0,0,61.07,8.446a1.808,1.808,0,0,0-.884.212,1.782,1.782,0,0,0-.643.61,3.122,3.122,0,0,0-.394.959,5.306,5.306,0,0,0-.137,1.258v.332a3.54,3.54,0,0,0,.162,1.092,2.556,2.556,0,0,0,.477.876,2.238,2.238,0,0,0,.764.585,2.364,2.364,0,0,0,1.021.212,2.771,2.771,0,0,0,1.287-.291,2.949,2.949,0,0,0,.979-.822l1.054,1.021A4.02,4.02,0,0,1,64,15.3a3.739,3.739,0,0,1-1.133.627A4.559,4.559,0,0,1,61.319,16.166Zm7.173-7.23V16h-2V7.019h1.884Zm-.357,2.241-.647-.008a5.754,5.754,0,0,1,.27-1.751,4.207,4.207,0,0,1,.73-1.37,3.228,3.228,0,0,1,1.125-.884,3.364,3.364,0,0,1,1.461-.311,3.647,3.647,0,0,1,1.175.178,2.2,2.2,0,0,1,.9.577,2.611,2.611,0,0,1,.577,1.033,5.255,5.255,0,0,1,.2,1.556V16H71.92V10.189a2.34,2.34,0,0,0-.187-1.025,1.111,1.111,0,0,0-.54-.54,2.1,2.1,0,0,0-.876-.162,1.935,1.935,0,0,0-.921.216,2.031,2.031,0,0,0-.685.589,2.8,2.8,0,0,0-.427.863A3.566,3.566,0,0,0,68.135,11.177ZM20.9,40.166a4.705,4.705,0,0,1-1.8-.328,3.877,3.877,0,0,1-1.361-.917,4.052,4.052,0,0,1-.859-1.386,4.854,4.854,0,0,1-.3-1.718v-.332a5.617,5.617,0,0,1,.307-1.909,4.381,4.381,0,0,1,.855-1.465,3.7,3.7,0,0,1,1.295-.934,4.027,4.027,0,0,1,1.619-.324,4.087,4.087,0,0,1,1.685.324,3.222,3.222,0,0,1,1.2.909,3.919,3.919,0,0,1,.714,1.39,6.286,6.286,0,0,1,.237,1.776v.855H17.56V34.671h4.964v-.158a2.866,2.866,0,0,0-.212-1.013,1.637,1.637,0,0,0-1.656-1.054,1.808,1.808,0,0,0-.884.212,1.782,1.782,0,0,0-.643.61,3.122,3.122,0,0,0-.394.959,5.306,5.306,0,0,0-.137,1.258v.332a3.54,3.54,0,0,0,.162,1.092,2.556,2.556,0,0,0,.477.876,2.238,2.238,0,0,0,.764.585,2.364,2.364,0,0,0,1.021.212,2.771,2.771,0,0,0,1.287-.291,2.949,2.949,0,0,0,.979-.822l1.054,1.021a4.02,4.02,0,0,1-.755.809,3.739,3.739,0,0,1-1.133.627A4.559,4.559,0,0,1,20.9,40.166Zm10.228-2.6a1.023,1.023,0,0,0-.149-.544,1.293,1.293,0,0,0-.569-.444,5.646,5.646,0,0,0-1.233-.365,9.932,9.932,0,0,1-1.307-.378,4.045,4.045,0,0,1-1.017-.535,2.271,2.271,0,0,1-.656-.747,2.069,2.069,0,0,1-.232-1,2.322,2.322,0,0,1,.241-1.038,2.628,2.628,0,0,1,.689-.863,3.348,3.348,0,0,1,1.092-.589,5.054,5.054,0,0,1,3.378.162,2.953,2.953,0,0,1,1.241,1.021,2.541,2.541,0,0,1,.432,1.448h-2a1.321,1.321,0,0,0-.178-.668,1.336,1.336,0,0,0-.535-.506,1.853,1.853,0,0,0-.9-.2,1.96,1.96,0,0,0-.851.162,1.163,1.163,0,0,0-.5.419,1.039,1.039,0,0,0-.162.564.905.905,0,0,0,.087.4.871.871,0,0,0,.295.324,2.327,2.327,0,0,0,.569.27,7.852,7.852,0,0,0,.909.241,8.6,8.6,0,0,1,1.772.552,2.88,2.88,0,0,1,1.141.863,2.147,2.147,0,0,1,.4,1.332,2.357,2.357,0,0,1-.253,1.092,2.478,2.478,0,0,1-.735.855,3.621,3.621,0,0,1-1.15.56,5.237,5.237,0,0,1-1.5.2,4.476,4.476,0,0,1-2.067-.436,3.219,3.219,0,0,1-1.282-1.121,2.615,2.615,0,0,1-.436-1.424H27.6a1.463,1.463,0,0,0,.311.884,1.57,1.57,0,0,0,.7.473,2.631,2.631,0,0,0,.867.145,2.46,2.46,0,0,0,.9-.145,1.256,1.256,0,0,0,.556-.4A.933.933,0,0,0,31.133,37.568Zm7.422,1a1.966,1.966,0,0,0,.884-.2,1.673,1.673,0,0,0,.639-.544,1.514,1.514,0,0,0,.27-.805h1.884a2.806,2.806,0,0,1-.515,1.585,3.536,3.536,0,0,1-1.32,1.133,3.942,3.942,0,0,1-1.818.419,4.239,4.239,0,0,1-1.793-.353,3.5,3.5,0,0,1-1.27-.975,4.253,4.253,0,0,1-.76-1.436,5.836,5.836,0,0,1-.253-1.743v-.291a5.876,5.876,0,0,1,.253-1.747,4.247,4.247,0,0,1,.76-1.44,3.5,3.5,0,0,1,1.27-.975,4.218,4.218,0,0,1,1.785-.353,4.011,4.011,0,0,1,1.893.427,3.256,3.256,0,0,1,1.282,1.187,3.4,3.4,0,0,1,.486,1.764H40.347a2.068,2.068,0,0,0-.245-.9,1.693,1.693,0,0,0-.614-.643,1.773,1.773,0,0,0-.942-.241,1.889,1.889,0,0,0-1,.245,1.712,1.712,0,0,0-.623.664,3.207,3.207,0,0,0-.32.938,5.93,5.93,0,0,0-.1,1.075v.291a6.264,6.264,0,0,0,.091,1.079,2.955,2.955,0,0,0,.32.934,1.76,1.76,0,0,0,.627.656A1.906,1.906,0,0,0,38.554,38.572Zm7.256-5.844V40h-2V31.019h1.909Zm2.748-1.768-.017,1.859a3.924,3.924,0,0,0-.394-.05q-.212-.017-.419-.017a2.586,2.586,0,0,0-.9.145,1.734,1.734,0,0,0-.652.415,1.838,1.838,0,0,0-.4.652,2.9,2.9,0,0,0-.166.855l-.457.033a7,7,0,0,1,.166-1.569,4.217,4.217,0,0,1,.5-1.27,2.5,2.5,0,0,1,.847-.855,2.25,2.25,0,0,1,1.183-.307,2.554,2.554,0,0,1,.394.033A1.664,1.664,0,0,1,48.558,30.96ZM52,31.019V40H49.987V31.019Zm-2.142-2.357a1.03,1.03,0,0,1,.3-.76,1.317,1.317,0,0,1,1.681,0,1.023,1.023,0,0,1,.307.76,1,1,0,0,1-.307.747,1.331,1.331,0,0,1-1.681,0A1.006,1.006,0,0,1,49.854,28.661Zm8.493,2.357v1.461H53.283V31.019Zm-3.6-2.2h2v8.7a1.348,1.348,0,0,0,.12.635.6.6,0,0,0,.336.295,1.549,1.549,0,0,0,.506.075,3.08,3.08,0,0,0,.4-.025q.191-.025.307-.05l.008,1.527a5.158,5.158,0,0,1-.577.133,4.34,4.34,0,0,1-.751.058,2.885,2.885,0,0,1-1.22-.245,1.774,1.774,0,0,1-.83-.8,3.126,3.126,0,0,1-.3-1.478Zm10.593,9.064V31.019h2.009V40H65.453Zm.282-1.868L66.291,36a6.55,6.55,0,0,1-.2,1.664,3.819,3.819,0,0,1-.614,1.32,2.82,2.82,0,0,1-1.062.872,3.554,3.554,0,0,1-1.552.311,3.636,3.636,0,0,1-1.2-.191,2.431,2.431,0,0,1-.942-.589,2.654,2.654,0,0,1-.61-1.038,4.8,4.8,0,0,1-.216-1.527v-5.8h2v5.819a2.473,2.473,0,0,0,.116.818,1.387,1.387,0,0,0,.315.527,1.122,1.122,0,0,0,.465.282,1.882,1.882,0,0,0,.564.083,2.367,2.367,0,0,0,1.349-.336,1.845,1.845,0,0,0,.706-.909A3.691,3.691,0,0,0,65.619,36.016Zm5.82-3.287V40h-2V31.019h1.909Zm2.748-1.768L74.17,32.82a3.924,3.924,0,0,0-.394-.05q-.212-.017-.419-.017a2.586,2.586,0,0,0-.9.145,1.734,1.734,0,0,0-.652.415,1.838,1.838,0,0,0-.4.652,2.9,2.9,0,0,0-.166.855l-.457.033a7,7,0,0,1,.166-1.569,4.217,4.217,0,0,1,.5-1.27,2.5,2.5,0,0,1,.847-.855,2.25,2.25,0,0,1,1.183-.307,2.554,2.554,0,0,1,.394.033A1.664,1.664,0,0,1,74.186,30.96ZM80.247,38.2V33.916a1.837,1.837,0,0,0-.174-.83,1.226,1.226,0,0,0-.527-.54,1.842,1.842,0,0,0-.884-.191,1.992,1.992,0,0,0-.847.166,1.369,1.369,0,0,0-.556.448,1.081,1.081,0,0,0-.2.639H75.067a2.216,2.216,0,0,1,.257-1.029,2.752,2.752,0,0,1,.747-.888,3.731,3.731,0,0,1,1.17-.614,4.868,4.868,0,0,1,1.527-.224,4.477,4.477,0,0,1,1.8.34A2.764,2.764,0,0,1,81.8,32.218a3.046,3.046,0,0,1,.452,1.714v3.993a6.265,6.265,0,0,0,.087,1.1,3.441,3.441,0,0,0,.253.843V40h-2.05a3.428,3.428,0,0,1-.22-.826A6.285,6.285,0,0,1,80.247,38.2Zm.291-3.661.017,1.237H79.118a4.139,4.139,0,0,0-.979.1,2.067,2.067,0,0,0-.706.3,1.3,1.3,0,0,0-.423.481,1.41,1.41,0,0,0-.141.639,1.3,1.3,0,0,0,.166.652,1.15,1.15,0,0,0,.486.461,1.667,1.667,0,0,0,.776.166,2.2,2.2,0,0,0,1.075-.253A2.15,2.15,0,0,0,80.1,37.7a1.335,1.335,0,0,0,.282-.7l.647.888a3.039,3.039,0,0,1-.34.73,3.509,3.509,0,0,1-.627.743,3.1,3.1,0,0,1-2.154.8,3.393,3.393,0,0,1-1.569-.353,2.746,2.746,0,0,1-1.079-.955,2.455,2.455,0,0,1-.39-1.365,2.848,2.848,0,0,1,.27-1.266,2.433,2.433,0,0,1,.8-.926,3.868,3.868,0,0,1,1.291-.569,7.067,7.067,0,0,1,1.743-.2ZM84.473,39a1.074,1.074,0,0,1,.315-.784,1.309,1.309,0,0,1,1.714,0,1.081,1.081,0,0,1,.311.784,1.067,1.067,0,0,1-.311.78,1.322,1.322,0,0,1-1.714,0A1.06,1.06,0,0,1,84.473,39Z" transform="translate(-7690 -1403.115)" fill="#fff"/>
    <path id="Trazado_1034646" data-name="Trazado 1034646" d="M18.662,9.625v.664a7.86,7.86,0,0,1-.357,2.457A5.339,5.339,0,0,1,17.289,14.6a4.386,4.386,0,0,1-1.581,1.166,5.046,5.046,0,0,1-2.042.4,5,5,0,0,1-2.03-.4,4.512,4.512,0,0,1-1.59-1.166A5.383,5.383,0,0,1,9,12.746a7.615,7.615,0,0,1-.369-2.457V9.625A7.657,7.657,0,0,1,9,7.172a5.42,5.42,0,0,1,1.033-1.851,4.451,4.451,0,0,1,1.585-1.17,5,5,0,0,1,2.03-.4,5.046,5.046,0,0,1,2.042.4,4.4,4.4,0,0,1,1.585,1.17A5.4,5.4,0,0,1,18.3,7.172,7.738,7.738,0,0,1,18.662,9.625Zm-2.083.664V9.608a7.375,7.375,0,0,0-.2-1.789,3.812,3.812,0,0,0-.573-1.3,2.475,2.475,0,0,0-.926-.8,2.763,2.763,0,0,0-1.237-.27,2.71,2.71,0,0,0-1.229.27,2.494,2.494,0,0,0-.917.8,3.869,3.869,0,0,0-.577,1.3,7.228,7.228,0,0,0-.2,1.789v.681a7.279,7.279,0,0,0,.2,1.793,3.861,3.861,0,0,0,.585,1.316,2.535,2.535,0,0,0,.926.805,2.951,2.951,0,0,0,2.465,0,2.435,2.435,0,0,0,.913-.805,3.957,3.957,0,0,0,.569-1.316A7.427,7.427,0,0,0,16.579,10.289ZM22.59,8.729V16h-2V7.019H22.5ZM25.337,6.96,25.321,8.82a3.925,3.925,0,0,0-.394-.05q-.212-.017-.419-.017a2.586,2.586,0,0,0-.9.145,1.734,1.734,0,0,0-.652.415,1.838,1.838,0,0,0-.4.652,2.9,2.9,0,0,0-.166.855l-.457.033a7,7,0,0,1,.166-1.569,4.217,4.217,0,0,1,.5-1.27,2.5,2.5,0,0,1,.847-.855,2.25,2.25,0,0,1,1.183-.307,2.554,2.554,0,0,1,.394.033A1.664,1.664,0,0,1,25.337,6.96Zm6.617,7.18V3.25h2.009V16H32.145ZM26.11,11.609v-.174a6.771,6.771,0,0,1,.241-1.864,4.43,4.43,0,0,1,.7-1.453,3.118,3.118,0,0,1,1.112-.938,3.258,3.258,0,0,1,1.478-.328,3.084,3.084,0,0,1,1.428.315,2.984,2.984,0,0,1,1.046.9A4.758,4.758,0,0,1,32.8,9.463a9.249,9.249,0,0,1,.365,1.8v.556a8.981,8.981,0,0,1-.365,1.76,4.726,4.726,0,0,1-.689,1.378,2.988,2.988,0,0,1-1.05.9,3.383,3.383,0,0,1-2.905-.025,3.236,3.236,0,0,1-1.108-.955,4.489,4.489,0,0,1-.7-1.448A6.52,6.52,0,0,1,26.11,11.609Zm2-.174v.174a5.547,5.547,0,0,0,.112,1.146,3.021,3.021,0,0,0,.353.934,1.706,1.706,0,0,0,1.552.859,1.953,1.953,0,0,0,1.121-.3,2.065,2.065,0,0,0,.693-.809,3.766,3.766,0,0,0,.344-1.141V10.8a3.794,3.794,0,0,0-.2-.913,2.572,2.572,0,0,0-.411-.743,1.78,1.78,0,0,0-.635-.5,2.07,2.07,0,0,0-.892-.178,1.756,1.756,0,0,0-.93.232,1.849,1.849,0,0,0-.627.639,3.078,3.078,0,0,0-.361.946A5.473,5.473,0,0,0,28.111,11.435Zm11.946,4.731a4.705,4.705,0,0,1-1.8-.328,3.877,3.877,0,0,1-1.361-.917,4.052,4.052,0,0,1-.859-1.386,4.854,4.854,0,0,1-.3-1.718v-.332a5.617,5.617,0,0,1,.307-1.909A4.381,4.381,0,0,1,36.9,8.11,3.7,3.7,0,0,1,38.2,7.176a4.027,4.027,0,0,1,1.619-.324,4.087,4.087,0,0,1,1.685.324,3.222,3.222,0,0,1,1.2.909,3.919,3.919,0,0,1,.714,1.39,6.286,6.286,0,0,1,.237,1.776v.855H36.711V10.671h4.964v-.158A2.865,2.865,0,0,0,41.464,9.5a1.637,1.637,0,0,0-1.656-1.054,1.808,1.808,0,0,0-.884.212,1.782,1.782,0,0,0-.643.61,3.122,3.122,0,0,0-.394.959,5.306,5.306,0,0,0-.137,1.258v.332a3.54,3.54,0,0,0,.162,1.092,2.556,2.556,0,0,0,.477.876,2.238,2.238,0,0,0,.764.585,2.364,2.364,0,0,0,1.021.212,2.771,2.771,0,0,0,1.287-.291,2.949,2.949,0,0,0,.979-.822l1.054,1.021a4.02,4.02,0,0,1-.755.809,3.739,3.739,0,0,1-1.133.627A4.559,4.559,0,0,1,40.057,16.166Zm7.173-7.23V16h-2V7.019h1.884Zm-.357,2.241-.647-.008a5.754,5.754,0,0,1,.27-1.751,4.207,4.207,0,0,1,.73-1.37,3.228,3.228,0,0,1,1.125-.884,3.364,3.364,0,0,1,1.461-.311,3.647,3.647,0,0,1,1.175.178,2.2,2.2,0,0,1,.9.577,2.611,2.611,0,0,1,.577,1.033,5.255,5.255,0,0,1,.2,1.556V16H50.658V10.189a2.34,2.34,0,0,0-.187-1.025,1.111,1.111,0,0,0-.54-.54,2.1,2.1,0,0,0-.876-.162,1.935,1.935,0,0,0-.921.216,2.031,2.031,0,0,0-.685.589,2.8,2.8,0,0,0-.427.863A3.566,3.566,0,0,0,46.872,11.177ZM61.027,8.745V19.453h-2V7.019H60.87Zm5.852,2.681V11.6a6.854,6.854,0,0,1-.228,1.814,4.5,4.5,0,0,1-.672,1.453,3.118,3.118,0,0,1-1.092.959,3.165,3.165,0,0,1-1.494.34,3.255,3.255,0,0,1-1.465-.311,2.96,2.96,0,0,1-1.058-.884,4.732,4.732,0,0,1-.693-1.349,8.355,8.355,0,0,1-.369-1.706v-.672a8.957,8.957,0,0,1,.369-1.793,4.782,4.782,0,0,1,.693-1.386,2.977,2.977,0,0,1,1.054-.9,3.174,3.174,0,0,1,1.453-.315,3.316,3.316,0,0,1,1.5.328,3.078,3.078,0,0,1,1.1.93,4.2,4.2,0,0,1,.672,1.444A7.279,7.279,0,0,1,66.879,11.426Zm-2,.174v-.174a5.456,5.456,0,0,0-.116-1.158,3.015,3.015,0,0,0-.365-.942,1.835,1.835,0,0,0-.635-.635,1.787,1.787,0,0,0-.926-.228,2.141,2.141,0,0,0-.913.178,1.791,1.791,0,0,0-.639.494,2.321,2.321,0,0,0-.4.735,4.51,4.51,0,0,0-.2.909v1.61a4.024,4.024,0,0,0,.34,1.1,1.949,1.949,0,0,0,.685.793,2.026,2.026,0,0,0,1.141.295,1.739,1.739,0,0,0,.921-.232A1.839,1.839,0,0,0,64.4,13.7a3.131,3.131,0,0,0,.361-.95A5.431,5.431,0,0,0,64.879,11.6Zm5.745-2.872V16h-2V7.019h1.909ZM73.372,6.96,73.355,8.82a3.924,3.924,0,0,0-.394-.05q-.212-.017-.419-.017a2.586,2.586,0,0,0-.9.145,1.734,1.734,0,0,0-.652.415,1.838,1.838,0,0,0-.4.652,2.9,2.9,0,0,0-.166.855l-.457.033a7,7,0,0,1,.166-1.569,4.217,4.217,0,0,1,.5-1.27,2.5,2.5,0,0,1,.847-.855,2.25,2.25,0,0,1,1.183-.307,2.554,2.554,0,0,1,.394.033A1.664,1.664,0,0,1,73.372,6.96Zm.7,4.648v-.191a5.6,5.6,0,0,1,.282-1.805A4.3,4.3,0,0,1,75.17,8.16,3.689,3.689,0,0,1,76.481,7.2,4.667,4.667,0,0,1,80,7.2a3.729,3.729,0,0,1,1.316.963,4.257,4.257,0,0,1,.822,1.453,5.6,5.6,0,0,1,.282,1.805v.191a5.562,5.562,0,0,1-.282,1.8,4.264,4.264,0,0,1-.822,1.448A3.738,3.738,0,0,1,80,15.822a4.255,4.255,0,0,1-1.751.344,4.306,4.306,0,0,1-1.764-.344,3.729,3.729,0,0,1-1.316-.963,4.264,4.264,0,0,1-.822-1.448A5.562,5.562,0,0,1,74.07,11.609Zm2-.191v.191a5.083,5.083,0,0,0,.125,1.146,2.912,2.912,0,0,0,.39.946,1.929,1.929,0,0,0,.681.639,1.991,1.991,0,0,0,.988.232A1.868,1.868,0,0,0,79.9,13.7a2.979,2.979,0,0,0,.394-.946,4.926,4.926,0,0,0,.129-1.146v-.191a4.836,4.836,0,0,0-.129-1.133,3.026,3.026,0,0,0-.4-.95,1.988,1.988,0,0,0-.681-.652,2.129,2.129,0,0,0-1.951,0,1.952,1.952,0,0,0-.677.652,3.014,3.014,0,0,0-.39.95A4.99,4.99,0,0,0,76.07,11.418Zm11.738,3.154a1.966,1.966,0,0,0,.884-.2,1.673,1.673,0,0,0,.639-.544,1.514,1.514,0,0,0,.27-.805h1.884a2.806,2.806,0,0,1-.515,1.585,3.536,3.536,0,0,1-1.32,1.133,3.942,3.942,0,0,1-1.818.419,4.239,4.239,0,0,1-1.793-.353,3.5,3.5,0,0,1-1.27-.975,4.253,4.253,0,0,1-.76-1.436,5.835,5.835,0,0,1-.253-1.743v-.291a5.876,5.876,0,0,1,.253-1.747,4.247,4.247,0,0,1,.76-1.44,3.5,3.5,0,0,1,1.27-.975,4.218,4.218,0,0,1,1.785-.353,4.011,4.011,0,0,1,1.893.427A3.256,3.256,0,0,1,91,8.467a3.4,3.4,0,0,1,.486,1.764H89.6a2.068,2.068,0,0,0-.245-.9,1.693,1.693,0,0,0-.614-.643,1.773,1.773,0,0,0-.942-.241,1.889,1.889,0,0,0-1,.245,1.712,1.712,0,0,0-.623.664,3.207,3.207,0,0,0-.32.938,5.93,5.93,0,0,0-.1,1.075v.291a6.263,6.263,0,0,0,.091,1.079,2.955,2.955,0,0,0,.32.934,1.76,1.76,0,0,0,.627.656A1.906,1.906,0,0,0,87.809,14.572Zm9.207,1.594a4.705,4.705,0,0,1-1.8-.328,3.877,3.877,0,0,1-1.361-.917A4.052,4.052,0,0,1,93,13.535a4.854,4.854,0,0,1-.3-1.718v-.332a5.617,5.617,0,0,1,.307-1.909,4.381,4.381,0,0,1,.855-1.465,3.7,3.7,0,0,1,1.295-.934,4.027,4.027,0,0,1,1.619-.324,4.087,4.087,0,0,1,1.685.324,3.222,3.222,0,0,1,1.2.909,3.919,3.919,0,0,1,.714,1.39,6.286,6.286,0,0,1,.237,1.776v.855H93.67V10.671h4.964v-.158A2.866,2.866,0,0,0,98.422,9.5a1.637,1.637,0,0,0-1.656-1.054,1.808,1.808,0,0,0-.884.212,1.782,1.782,0,0,0-.643.61,3.122,3.122,0,0,0-.394.959,5.306,5.306,0,0,0-.137,1.258v.332a3.54,3.54,0,0,0,.162,1.092,2.556,2.556,0,0,0,.477.876,2.238,2.238,0,0,0,.764.585,2.364,2.364,0,0,0,1.021.212,2.771,2.771,0,0,0,1.287-.291,2.949,2.949,0,0,0,.979-.822l1.054,1.021a4.02,4.02,0,0,1-.755.809,3.739,3.739,0,0,1-1.133.627A4.559,4.559,0,0,1,97.015,16.166Zm10.228-2.6a1.023,1.023,0,0,0-.149-.544,1.293,1.293,0,0,0-.569-.444,5.646,5.646,0,0,0-1.233-.365,9.932,9.932,0,0,1-1.307-.378,4.045,4.045,0,0,1-1.017-.535,2.271,2.271,0,0,1-.656-.747,2.069,2.069,0,0,1-.232-1,2.322,2.322,0,0,1,.241-1.038,2.628,2.628,0,0,1,.689-.863,3.348,3.348,0,0,1,1.092-.589,5.054,5.054,0,0,1,3.378.162,2.953,2.953,0,0,1,1.241,1.021,2.541,2.541,0,0,1,.432,1.448h-2a1.321,1.321,0,0,0-.178-.668,1.336,1.336,0,0,0-.535-.506,1.853,1.853,0,0,0-.9-.2,1.96,1.96,0,0,0-.851.162,1.163,1.163,0,0,0-.5.419,1.039,1.039,0,0,0-.162.564.905.905,0,0,0,.087.4.871.871,0,0,0,.295.324,2.327,2.327,0,0,0,.569.27,7.852,7.852,0,0,0,.909.241,8.6,8.6,0,0,1,1.772.552,2.88,2.88,0,0,1,1.141.863,2.147,2.147,0,0,1,.4,1.332,2.357,2.357,0,0,1-.253,1.092,2.478,2.478,0,0,1-.735.855,3.621,3.621,0,0,1-1.15.56,5.237,5.237,0,0,1-1.5.2,4.476,4.476,0,0,1-2.067-.436,3.219,3.219,0,0,1-1.282-1.121,2.615,2.615,0,0,1-.436-1.424h1.934a1.463,1.463,0,0,0,.311.884,1.57,1.57,0,0,0,.7.473,2.631,2.631,0,0,0,.867.145,2.46,2.46,0,0,0,.9-.145,1.256,1.256,0,0,0,.556-.4A.933.933,0,0,0,107.243,13.568Zm8.816.631V9.916a1.837,1.837,0,0,0-.174-.83,1.226,1.226,0,0,0-.527-.54,1.842,1.842,0,0,0-.884-.191,1.992,1.992,0,0,0-.847.166,1.369,1.369,0,0,0-.556.448,1.081,1.081,0,0,0-.2.639h-1.992a2.216,2.216,0,0,1,.257-1.029,2.752,2.752,0,0,1,.747-.888,3.731,3.731,0,0,1,1.17-.614,4.868,4.868,0,0,1,1.527-.224,4.477,4.477,0,0,1,1.8.34,2.764,2.764,0,0,1,1.237,1.025,3.046,3.046,0,0,1,.452,1.714v3.993a6.265,6.265,0,0,0,.087,1.1,3.441,3.441,0,0,0,.253.843V16h-2.05a3.428,3.428,0,0,1-.22-.826A6.285,6.285,0,0,1,116.059,14.2Zm.291-3.661.017,1.237H114.93a4.139,4.139,0,0,0-.979.1,2.067,2.067,0,0,0-.706.3,1.3,1.3,0,0,0-.423.481,1.41,1.41,0,0,0-.141.639,1.3,1.3,0,0,0,.166.652,1.15,1.15,0,0,0,.486.461,1.667,1.667,0,0,0,.776.166,2.2,2.2,0,0,0,1.075-.253,2.15,2.15,0,0,0,.726-.623,1.335,1.335,0,0,0,.282-.7l.647.888a3.039,3.039,0,0,1-.34.73,3.509,3.509,0,0,1-.627.743,3.1,3.1,0,0,1-2.154.8,3.393,3.393,0,0,1-1.569-.353,2.746,2.746,0,0,1-1.079-.955,2.455,2.455,0,0,1-.39-1.365,2.848,2.848,0,0,1,.27-1.266,2.433,2.433,0,0,1,.8-.926,3.868,3.868,0,0,1,1.291-.569,7.067,7.067,0,0,1,1.743-.2ZM122.2,8.845V16h-2V7.019h1.884Zm-.324,2.333-.681-.008a6.057,6.057,0,0,1,.232-1.718,4.175,4.175,0,0,1,.681-1.374,3.037,3.037,0,0,1,1.116-.9,3.549,3.549,0,0,1,1.548-.32,3.389,3.389,0,0,1,1.125.178,2.3,2.3,0,0,1,.888.56,2.522,2.522,0,0,1,.581.979,4.51,4.51,0,0,1,.2,1.444V16h-2V10.189a2.249,2.249,0,0,0-.2-1.029,1.147,1.147,0,0,0-.556-.535,2.088,2.088,0,0,0-.859-.162,1.972,1.972,0,0,0-.959.216,1.8,1.8,0,0,0-.643.589,2.64,2.64,0,0,0-.365.863A4.52,4.52,0,0,0,121.879,11.177Zm5.57-.531-.938.208a5.106,5.106,0,0,1,.228-1.54,3.865,3.865,0,0,1,.672-1.278,3.136,3.136,0,0,1,1.1-.867,3.425,3.425,0,0,1,1.5-.315,3.783,3.783,0,0,1,1.233.187,2.292,2.292,0,0,1,.926.585,2.583,2.583,0,0,1,.581,1.033,5.156,5.156,0,0,1,.2,1.531V16h-2.009V10.181a2.316,2.316,0,0,0-.2-1.054,1.069,1.069,0,0,0-.552-.519,2.265,2.265,0,0,0-.855-.145,1.861,1.861,0,0,0-.818.17,1.68,1.68,0,0,0-.594.473,2.1,2.1,0,0,0-.361.693A2.859,2.859,0,0,0,127.449,10.646Zm9.746-3.627V16h-2.009V7.019Zm-2.142-2.357a1.03,1.03,0,0,1,.3-.76,1.317,1.317,0,0,1,1.681,0,1.023,1.023,0,0,1,.307.76,1,1,0,0,1-.307.747,1.331,1.331,0,0,1-1.681,0A1.006,1.006,0,0,1,135.053,4.661Zm8.335,11.5a4.705,4.705,0,0,1-1.8-.328,3.877,3.877,0,0,1-1.361-.917,4.052,4.052,0,0,1-.859-1.386,4.854,4.854,0,0,1-.3-1.718v-.332a5.617,5.617,0,0,1,.307-1.909,4.381,4.381,0,0,1,.855-1.465,3.7,3.7,0,0,1,1.295-.934,4.027,4.027,0,0,1,1.619-.324,4.087,4.087,0,0,1,1.685.324,3.222,3.222,0,0,1,1.2.909,3.919,3.919,0,0,1,.714,1.39,6.286,6.286,0,0,1,.237,1.776v.855h-6.939V10.671h4.964v-.158A2.865,2.865,0,0,0,144.8,9.5a1.637,1.637,0,0,0-1.656-1.054,1.808,1.808,0,0,0-.884.212,1.782,1.782,0,0,0-.643.61,3.122,3.122,0,0,0-.394.959,5.306,5.306,0,0,0-.137,1.258v.332a3.54,3.54,0,0,0,.162,1.092,2.556,2.556,0,0,0,.477.876,2.238,2.238,0,0,0,.764.585,2.364,2.364,0,0,0,1.021.212,2.771,2.771,0,0,0,1.287-.291,2.949,2.949,0,0,0,.979-.822l1.054,1.021a4.02,4.02,0,0,1-.755.809,3.738,3.738,0,0,1-1.133.627A4.559,4.559,0,0,1,143.388,16.166Zm7.173-7.23V16h-2V7.019h1.884Zm-.357,2.241-.647-.008a5.754,5.754,0,0,1,.27-1.751,4.206,4.206,0,0,1,.73-1.37,3.228,3.228,0,0,1,1.125-.884,3.364,3.364,0,0,1,1.461-.311,3.647,3.647,0,0,1,1.175.178,2.2,2.2,0,0,1,.9.577,2.611,2.611,0,0,1,.577,1.033A5.255,5.255,0,0,1,156,10.2V16h-2.009V10.189a2.34,2.34,0,0,0-.187-1.025,1.111,1.111,0,0,0-.54-.54,2.1,2.1,0,0,0-.876-.162,1.935,1.935,0,0,0-.921.216,2.031,2.031,0,0,0-.685.589,2.8,2.8,0,0,0-.427.863A3.566,3.566,0,0,0,150.2,11.177Zm12-4.159V8.479h-5.063V7.019Zm-3.6-2.2h2v8.7a1.348,1.348,0,0,0,.12.635.6.6,0,0,0,.336.295,1.549,1.549,0,0,0,.506.075,3.08,3.08,0,0,0,.4-.025q.191-.025.307-.05l.008,1.527a5.158,5.158,0,0,1-.577.133,4.34,4.34,0,0,1-.751.058,2.885,2.885,0,0,1-1.22-.245,1.774,1.774,0,0,1-.83-.8,3.126,3.126,0,0,1-.3-1.478Zm4.608,6.79v-.191a5.6,5.6,0,0,1,.282-1.805,4.3,4.3,0,0,1,.818-1.453,3.689,3.689,0,0,1,1.312-.963,4.667,4.667,0,0,1,3.52,0,3.729,3.729,0,0,1,1.316.963,4.257,4.257,0,0,1,.822,1.453,5.6,5.6,0,0,1,.282,1.805v.191a5.562,5.562,0,0,1-.282,1.8,4.264,4.264,0,0,1-.822,1.448,3.738,3.738,0,0,1-1.312.963,4.255,4.255,0,0,1-1.751.344,4.306,4.306,0,0,1-1.764-.344,3.729,3.729,0,0,1-1.316-.963,4.264,4.264,0,0,1-.822-1.448A5.562,5.562,0,0,1,163.205,11.609Zm2-.191v.191a5.083,5.083,0,0,0,.125,1.146,2.912,2.912,0,0,0,.39.946,1.929,1.929,0,0,0,.681.639,1.991,1.991,0,0,0,.988.232,1.868,1.868,0,0,0,1.644-.872,2.979,2.979,0,0,0,.394-.946,4.926,4.926,0,0,0,.129-1.146v-.191a4.836,4.836,0,0,0-.129-1.133,3.025,3.025,0,0,0-.4-.95,1.988,1.988,0,0,0-.681-.652,2.129,2.129,0,0,0-1.951,0,1.952,1.952,0,0,0-.677.652,3.014,3.014,0,0,0-.39.95A4.99,4.99,0,0,0,165.206,11.418ZM63.82,31.019V40H61.811V31.019Zm-2.142-2.357a1.03,1.03,0,0,1,.3-.76,1.317,1.317,0,0,1,1.681,0,1.023,1.023,0,0,1,.307.76,1,1,0,0,1-.307.747,1.331,1.331,0,0,1-1.681,0A1.006,1.006,0,0,1,61.678,28.661Zm6.359,4.275V40h-2V31.019h1.884Zm-.357,2.241-.647-.008a5.754,5.754,0,0,1,.27-1.751,4.207,4.207,0,0,1,.73-1.37,3.228,3.228,0,0,1,1.125-.884,3.364,3.364,0,0,1,1.461-.311,3.647,3.647,0,0,1,1.175.178,2.2,2.2,0,0,1,.9.577,2.611,2.611,0,0,1,.577,1.033,5.255,5.255,0,0,1,.2,1.556V40H71.466V34.189a2.34,2.34,0,0,0-.187-1.025,1.111,1.111,0,0,0-.54-.54,2.1,2.1,0,0,0-.876-.162,1.935,1.935,0,0,0-.921.216,2.031,2.031,0,0,0-.685.589,2.8,2.8,0,0,0-.427.863A3.566,3.566,0,0,0,67.681,35.177Zm12-4.159v1.461H74.613V31.019Zm-3.6-2.2h2v8.7a1.348,1.348,0,0,0,.12.635.6.6,0,0,0,.336.295,1.549,1.549,0,0,0,.506.075,3.08,3.08,0,0,0,.4-.025q.191-.025.307-.05l.008,1.527a5.158,5.158,0,0,1-.577.133,4.34,4.34,0,0,1-.751.058,2.885,2.885,0,0,1-1.22-.245,1.774,1.774,0,0,1-.83-.8,3.126,3.126,0,0,1-.3-1.478Zm9.148,11.347a4.705,4.705,0,0,1-1.8-.328,3.877,3.877,0,0,1-1.361-.917,4.052,4.052,0,0,1-.859-1.386,4.854,4.854,0,0,1-.3-1.718v-.332a5.617,5.617,0,0,1,.307-1.909,4.381,4.381,0,0,1,.855-1.465,3.7,3.7,0,0,1,1.295-.934,4.027,4.027,0,0,1,1.619-.324,4.087,4.087,0,0,1,1.685.324,3.222,3.222,0,0,1,1.2.909,3.919,3.919,0,0,1,.714,1.39,6.286,6.286,0,0,1,.237,1.776v.855H81.877V34.671h4.964v-.158a2.866,2.866,0,0,0-.212-1.013,1.637,1.637,0,0,0-1.656-1.054,1.808,1.808,0,0,0-.884.212,1.782,1.782,0,0,0-.643.61,3.122,3.122,0,0,0-.394.959,5.306,5.306,0,0,0-.137,1.258v.332a3.54,3.54,0,0,0,.162,1.092,2.556,2.556,0,0,0,.477.876,2.238,2.238,0,0,0,.764.585,2.364,2.364,0,0,0,1.021.212,2.771,2.771,0,0,0,1.287-.291,2.949,2.949,0,0,0,.979-.822l1.054,1.021a4.02,4.02,0,0,1-.755.809,3.739,3.739,0,0,1-1.133.627A4.559,4.559,0,0,1,85.222,40.166Zm7.2-7.437V40h-2V31.019h1.909Zm2.748-1.768-.017,1.859a3.924,3.924,0,0,0-.394-.05q-.212-.017-.419-.017a2.586,2.586,0,0,0-.9.145,1.734,1.734,0,0,0-.652.415,1.838,1.838,0,0,0-.4.652,2.9,2.9,0,0,0-.166.855l-.457.033a7,7,0,0,1,.166-1.569,4.217,4.217,0,0,1,.5-1.27,2.5,2.5,0,0,1,.847-.855,2.25,2.25,0,0,1,1.183-.307,2.554,2.554,0,0,1,.394.033A1.664,1.664,0,0,1,95.168,30.96Zm3.28,1.976V40h-2V31.019h1.884Zm-.357,2.241-.647-.008a5.754,5.754,0,0,1,.27-1.751,4.207,4.207,0,0,1,.73-1.37,3.228,3.228,0,0,1,1.125-.884,3.364,3.364,0,0,1,1.461-.311,3.647,3.647,0,0,1,1.175.178,2.2,2.2,0,0,1,.9.577,2.611,2.611,0,0,1,.577,1.033,5.255,5.255,0,0,1,.2,1.556V40h-2.009V34.189a2.34,2.34,0,0,0-.187-1.025,1.111,1.111,0,0,0-.54-.54,2.1,2.1,0,0,0-.876-.162,1.935,1.935,0,0,0-.921.216,2.031,2.031,0,0,0-.685.589,2.8,2.8,0,0,0-.427.863A3.566,3.566,0,0,0,98.091,35.177Zm7.5.432v-.191a5.6,5.6,0,0,1,.282-1.805,4.3,4.3,0,0,1,.818-1.453A3.689,3.689,0,0,1,108,31.2a4.667,4.667,0,0,1,3.52,0,3.729,3.729,0,0,1,1.316.963,4.257,4.257,0,0,1,.822,1.453,5.6,5.6,0,0,1,.282,1.805v.191a5.562,5.562,0,0,1-.282,1.8,4.264,4.264,0,0,1-.822,1.448,3.738,3.738,0,0,1-1.312.963,4.255,4.255,0,0,1-1.751.344,4.306,4.306,0,0,1-1.764-.344,3.729,3.729,0,0,1-1.316-.963,4.264,4.264,0,0,1-.822-1.448A5.562,5.562,0,0,1,105.587,35.609Zm2-.191v.191a5.083,5.083,0,0,0,.125,1.146,2.912,2.912,0,0,0,.39.946,1.929,1.929,0,0,0,.681.639,1.991,1.991,0,0,0,.988.232,1.868,1.868,0,0,0,1.644-.872,2.979,2.979,0,0,0,.394-.946,4.926,4.926,0,0,0,.129-1.146v-.191a4.836,4.836,0,0,0-.129-1.133,3.026,3.026,0,0,0-.4-.95,1.988,1.988,0,0,0-.681-.652,2.129,2.129,0,0,0-1.951,0,1.952,1.952,0,0,0-.677.652,3.014,3.014,0,0,0-.39.95A4.99,4.99,0,0,0,107.588,35.418ZM115.74,39a1.074,1.074,0,0,1,.315-.784,1.309,1.309,0,0,1,1.714,0,1.081,1.081,0,0,1,.311.784,1.067,1.067,0,0,1-.311.78,1.322,1.322,0,0,1-1.714,0A1.06,1.06,0,0,1,115.74,39Z" transform="translate(-7532 -1399.115)" fill="#fff"/>
    <path id="Trazado_1034649" data-name="Trazado 1034649" d="M15,0H356a15,15,0,0,1,15,15V115a15,15,0,0,1-15,15H15A15,15,0,0,1,0,115V15A15,15,0,0,1,15,0Z" transform="translate(-7698 -729.306)" fill="#d8faf7"/>
    <rect id="Rectángulo_459352" data-name="Rectángulo 459352" width="371" height="123" rx="15" transform="translate(-7698 -483.306)" fill="#d8faf7"/>
    <path id="Trazado_1034647" data-name="Trazado 1034647" d="M7,0H201a7,7,0,0,1,7,7V31a7,7,0,0,1-7,7H7a7,7,0,0,1-7-7V7A7,7,0,0,1,7,0Z" transform="translate(-7617 -748.306)" fill="#0f654d"/>
    <path id="Trazado_1034648" data-name="Trazado 1034648" d="M18.142,12.065h2.075a4.761,4.761,0,0,1-.664,2.113,3.942,3.942,0,0,1-1.585,1.457,5.323,5.323,0,0,1-2.482.531,4.872,4.872,0,0,1-2.017-.4,4.355,4.355,0,0,1-1.536-1.146,5.087,5.087,0,0,1-.975-1.8,7.738,7.738,0,0,1-.336-2.357v-1A7.565,7.565,0,0,1,10.966,7.1,5.2,5.2,0,0,1,11.958,5.3a4.318,4.318,0,0,1,1.556-1.15,5.046,5.046,0,0,1,2.046-.4A5.132,5.132,0,0,1,18,4.279a3.866,3.866,0,0,1,1.548,1.469,5.24,5.24,0,0,1,.677,2.15H18.151a3.9,3.9,0,0,0-.361-1.336,1.929,1.929,0,0,0-.818-.851,2.937,2.937,0,0,0-1.411-.295,2.752,2.752,0,0,0-1.245.266,2.35,2.35,0,0,0-.888.78,3.7,3.7,0,0,0-.535,1.266,7.448,7.448,0,0,0-.178,1.714v1.021a7.8,7.8,0,0,0,.162,1.656,3.929,3.929,0,0,0,.5,1.274,2.369,2.369,0,0,0,.859.822,2.544,2.544,0,0,0,1.253.291,3.168,3.168,0,0,0,1.44-.282,1.9,1.9,0,0,0,.838-.826A3.784,3.784,0,0,0,18.142,12.065Zm3.421-.457v-.191a5.6,5.6,0,0,1,.282-1.805,4.3,4.3,0,0,1,.818-1.453A3.689,3.689,0,0,1,23.975,7.2a4.667,4.667,0,0,1,3.52,0,3.729,3.729,0,0,1,1.316.963,4.257,4.257,0,0,1,.822,1.453,5.6,5.6,0,0,1,.282,1.805v.191a5.562,5.562,0,0,1-.282,1.8,4.264,4.264,0,0,1-.822,1.448,3.738,3.738,0,0,1-1.312.963,4.255,4.255,0,0,1-1.751.344,4.306,4.306,0,0,1-1.764-.344,3.729,3.729,0,0,1-1.316-.963,4.264,4.264,0,0,1-.822-1.448A5.562,5.562,0,0,1,21.563,11.609Zm2-.191v.191a5.083,5.083,0,0,0,.125,1.146,2.912,2.912,0,0,0,.39.946,1.929,1.929,0,0,0,.681.639,1.991,1.991,0,0,0,.988.232A1.868,1.868,0,0,0,27.39,13.7a2.979,2.979,0,0,0,.394-.946,4.926,4.926,0,0,0,.129-1.146v-.191a4.836,4.836,0,0,0-.129-1.133,3.026,3.026,0,0,0-.4-.95,1.988,1.988,0,0,0-.681-.652,2.129,2.129,0,0,0-1.951,0,1.952,1.952,0,0,0-.677.652,3.014,3.014,0,0,0-.39.95A4.99,4.99,0,0,0,23.564,11.418ZM33.617,8.936V16h-2V7.019H33.5Zm-.357,2.241-.647-.008a5.754,5.754,0,0,1,.27-1.751,4.207,4.207,0,0,1,.73-1.37,3.228,3.228,0,0,1,1.125-.884A3.364,3.364,0,0,1,36.2,6.853a3.647,3.647,0,0,1,1.175.178,2.2,2.2,0,0,1,.9.577,2.611,2.611,0,0,1,.577,1.033,5.255,5.255,0,0,1,.2,1.556V16H37.045V10.189a2.34,2.34,0,0,0-.187-1.025,1.111,1.111,0,0,0-.54-.54,2.1,2.1,0,0,0-.876-.162,1.935,1.935,0,0,0-.921.216,2.031,2.031,0,0,0-.685.589,2.8,2.8,0,0,0-.427.863A3.566,3.566,0,0,0,33.26,11.177Zm12.917,2.391a1.023,1.023,0,0,0-.149-.544,1.293,1.293,0,0,0-.569-.444,5.646,5.646,0,0,0-1.233-.365,9.932,9.932,0,0,1-1.307-.378A4.045,4.045,0,0,1,41.9,11.3a2.271,2.271,0,0,1-.656-.747,2.069,2.069,0,0,1-.232-1,2.322,2.322,0,0,1,.241-1.038,2.628,2.628,0,0,1,.689-.863,3.348,3.348,0,0,1,1.092-.589,5.054,5.054,0,0,1,3.378.162,2.953,2.953,0,0,1,1.241,1.021A2.541,2.541,0,0,1,48.086,9.7h-2a1.321,1.321,0,0,0-.178-.668,1.336,1.336,0,0,0-.535-.506,1.853,1.853,0,0,0-.9-.2,1.96,1.96,0,0,0-.851.162,1.163,1.163,0,0,0-.5.419,1.039,1.039,0,0,0-.162.564.905.905,0,0,0,.087.4.871.871,0,0,0,.295.324,2.328,2.328,0,0,0,.569.27,7.852,7.852,0,0,0,.909.241,8.6,8.6,0,0,1,1.772.552,2.88,2.88,0,0,1,1.141.863,2.147,2.147,0,0,1,.4,1.332,2.357,2.357,0,0,1-.253,1.092,2.478,2.478,0,0,1-.735.855,3.621,3.621,0,0,1-1.15.56,5.237,5.237,0,0,1-1.5.2,4.476,4.476,0,0,1-2.067-.436,3.219,3.219,0,0,1-1.282-1.121,2.615,2.615,0,0,1-.436-1.424h1.934a1.463,1.463,0,0,0,.311.884,1.57,1.57,0,0,0,.7.473,2.631,2.631,0,0,0,.867.145,2.46,2.46,0,0,0,.9-.145,1.256,1.256,0,0,0,.556-.4A.933.933,0,0,0,46.177,13.568Zm7.712,2.6a4.705,4.705,0,0,1-1.8-.328,3.877,3.877,0,0,1-1.361-.917,4.052,4.052,0,0,1-.859-1.386,4.854,4.854,0,0,1-.3-1.718v-.332a5.617,5.617,0,0,1,.307-1.909,4.381,4.381,0,0,1,.855-1.465,3.7,3.7,0,0,1,1.295-.934,4.027,4.027,0,0,1,1.619-.324,4.087,4.087,0,0,1,1.685.324,3.222,3.222,0,0,1,1.2.909,3.919,3.919,0,0,1,.714,1.39,6.286,6.286,0,0,1,.237,1.776v.855H50.544V10.671h4.964v-.158A2.865,2.865,0,0,0,55.3,9.5a1.637,1.637,0,0,0-1.656-1.054,1.808,1.808,0,0,0-.884.212,1.782,1.782,0,0,0-.643.61,3.122,3.122,0,0,0-.394.959,5.306,5.306,0,0,0-.137,1.258v.332a3.54,3.54,0,0,0,.162,1.092,2.556,2.556,0,0,0,.477.876,2.238,2.238,0,0,0,.764.585,2.364,2.364,0,0,0,1.021.212,2.771,2.771,0,0,0,1.287-.291,2.949,2.949,0,0,0,.979-.822l1.054,1.021a4.02,4.02,0,0,1-.755.809,3.739,3.739,0,0,1-1.133.627A4.559,4.559,0,0,1,53.89,16.166Zm8.858-1.594a1.966,1.966,0,0,0,.884-.2,1.674,1.674,0,0,0,.639-.544,1.515,1.515,0,0,0,.27-.805h1.884a2.806,2.806,0,0,1-.515,1.585,3.536,3.536,0,0,1-1.32,1.133,3.942,3.942,0,0,1-1.818.419,4.239,4.239,0,0,1-1.793-.353,3.5,3.5,0,0,1-1.27-.975,4.253,4.253,0,0,1-.76-1.436,5.836,5.836,0,0,1-.253-1.743v-.291a5.876,5.876,0,0,1,.253-1.747,4.247,4.247,0,0,1,.76-1.44,3.5,3.5,0,0,1,1.27-.975,4.218,4.218,0,0,1,1.785-.353,4.011,4.011,0,0,1,1.893.427,3.256,3.256,0,0,1,1.282,1.187,3.4,3.4,0,0,1,.486,1.764H64.54a2.068,2.068,0,0,0-.245-.9,1.693,1.693,0,0,0-.614-.643,1.773,1.773,0,0,0-.942-.241,1.889,1.889,0,0,0-1,.245,1.712,1.712,0,0,0-.623.664,3.207,3.207,0,0,0-.32.938,5.93,5.93,0,0,0-.1,1.075v.291a6.264,6.264,0,0,0,.091,1.079,2.955,2.955,0,0,0,.32.934,1.76,1.76,0,0,0,.627.656A1.906,1.906,0,0,0,62.747,14.572ZM73.4,13.883V7.019h2.009V16H73.515Zm.282-1.868L74.353,12a6.55,6.55,0,0,1-.2,1.664,3.819,3.819,0,0,1-.614,1.32,2.82,2.82,0,0,1-1.062.872,3.554,3.554,0,0,1-1.552.311,3.636,3.636,0,0,1-1.2-.191,2.431,2.431,0,0,1-.942-.589,2.655,2.655,0,0,1-.61-1.038,4.794,4.794,0,0,1-.216-1.527v-5.8h2v5.819a2.473,2.473,0,0,0,.116.818,1.387,1.387,0,0,0,.315.527,1.122,1.122,0,0,0,.465.282,1.882,1.882,0,0,0,.564.083,2.367,2.367,0,0,0,1.349-.336,1.845,1.845,0,0,0,.706-.909A3.691,3.691,0,0,0,73.681,12.016Zm7.771,4.15a4.705,4.705,0,0,1-1.8-.328,3.877,3.877,0,0,1-1.361-.917,4.052,4.052,0,0,1-.859-1.386,4.854,4.854,0,0,1-.3-1.718v-.332a5.617,5.617,0,0,1,.307-1.909A4.381,4.381,0,0,1,78.3,8.11a3.7,3.7,0,0,1,1.295-.934,4.027,4.027,0,0,1,1.619-.324,4.087,4.087,0,0,1,1.685.324,3.222,3.222,0,0,1,1.2.909,3.919,3.919,0,0,1,.714,1.39,6.286,6.286,0,0,1,.237,1.776v.855H78.106V10.671H83.07v-.158A2.866,2.866,0,0,0,82.858,9.5,1.637,1.637,0,0,0,81.2,8.446a1.808,1.808,0,0,0-.884.212,1.782,1.782,0,0,0-.643.61,3.122,3.122,0,0,0-.394.959,5.306,5.306,0,0,0-.137,1.258v.332a3.54,3.54,0,0,0,.162,1.092,2.556,2.556,0,0,0,.477.876,2.238,2.238,0,0,0,.764.585,2.364,2.364,0,0,0,1.021.212,2.771,2.771,0,0,0,1.287-.291,2.949,2.949,0,0,0,.979-.822l1.054,1.021a4.02,4.02,0,0,1-.755.809A3.739,3.739,0,0,1,83,15.925,4.559,4.559,0,0,1,81.451,16.166Zm7.173-7.23V16h-2V7.019h1.884Zm-.357,2.241-.647-.008a5.754,5.754,0,0,1,.27-1.751,4.207,4.207,0,0,1,.73-1.37,3.228,3.228,0,0,1,1.125-.884,3.364,3.364,0,0,1,1.461-.311,3.647,3.647,0,0,1,1.175.178,2.2,2.2,0,0,1,.9.577,2.611,2.611,0,0,1,.577,1.033,5.255,5.255,0,0,1,.2,1.556V16H92.052V10.189a2.34,2.34,0,0,0-.187-1.025,1.111,1.111,0,0,0-.54-.54,2.1,2.1,0,0,0-.876-.162,1.935,1.935,0,0,0-.921.216,2.031,2.031,0,0,0-.685.589,2.8,2.8,0,0,0-.427.863A3.566,3.566,0,0,0,88.267,11.177Zm11.547,3.4a1.966,1.966,0,0,0,.884-.2,1.673,1.673,0,0,0,.639-.544,1.514,1.514,0,0,0,.27-.805h1.884a2.806,2.806,0,0,1-.515,1.585,3.536,3.536,0,0,1-1.32,1.133,3.942,3.942,0,0,1-1.818.419,4.239,4.239,0,0,1-1.793-.353,3.5,3.5,0,0,1-1.27-.975,4.253,4.253,0,0,1-.76-1.436,5.835,5.835,0,0,1-.253-1.743v-.291a5.876,5.876,0,0,1,.253-1.747,4.247,4.247,0,0,1,.76-1.44,3.5,3.5,0,0,1,1.27-.975,4.218,4.218,0,0,1,1.785-.353,4.011,4.011,0,0,1,1.893.427,3.256,3.256,0,0,1,1.282,1.187,3.4,3.4,0,0,1,.486,1.764h-1.884a2.068,2.068,0,0,0-.245-.9,1.693,1.693,0,0,0-.614-.643,1.773,1.773,0,0,0-.942-.241,1.889,1.889,0,0,0-1,.245,1.712,1.712,0,0,0-.623.664,3.207,3.207,0,0,0-.32.938,5.93,5.93,0,0,0-.1,1.075v.291a6.263,6.263,0,0,0,.091,1.079,2.955,2.955,0,0,0,.32.934,1.76,1.76,0,0,0,.627.656A1.906,1.906,0,0,0,99.814,14.572ZM107.2,7.019V16h-2.009V7.019Zm-2.142-2.357a1.03,1.03,0,0,1,.3-.76,1.317,1.317,0,0,1,1.681,0,1.023,1.023,0,0,1,.307.76,1,1,0,0,1-.307.747,1.331,1.331,0,0,1-1.681,0A1.006,1.006,0,0,1,105.062,4.661ZM114.5,14.2V9.916a1.837,1.837,0,0,0-.174-.83,1.226,1.226,0,0,0-.527-.54,1.842,1.842,0,0,0-.884-.191,1.992,1.992,0,0,0-.847.166,1.369,1.369,0,0,0-.556.448,1.081,1.081,0,0,0-.2.639h-1.992a2.216,2.216,0,0,1,.257-1.029,2.752,2.752,0,0,1,.747-.888,3.731,3.731,0,0,1,1.17-.614,4.868,4.868,0,0,1,1.527-.224,4.477,4.477,0,0,1,1.8.34,2.764,2.764,0,0,1,1.237,1.025,3.046,3.046,0,0,1,.452,1.714v3.993a6.265,6.265,0,0,0,.087,1.1,3.441,3.441,0,0,0,.253.843V16H114.8a3.428,3.428,0,0,1-.22-.826A6.285,6.285,0,0,1,114.5,14.2Zm.291-3.661.017,1.237h-1.436a4.139,4.139,0,0,0-.979.1,2.067,2.067,0,0,0-.706.3,1.3,1.3,0,0,0-.423.481,1.41,1.41,0,0,0-.141.639,1.3,1.3,0,0,0,.166.652,1.15,1.15,0,0,0,.486.461,1.667,1.667,0,0,0,.776.166,2.2,2.2,0,0,0,1.075-.253,2.15,2.15,0,0,0,.726-.623,1.335,1.335,0,0,0,.282-.7l.647.888a3.039,3.039,0,0,1-.34.73,3.509,3.509,0,0,1-.627.743,3.1,3.1,0,0,1-2.154.8,3.393,3.393,0,0,1-1.569-.353,2.746,2.746,0,0,1-1.079-.955,2.455,2.455,0,0,1-.39-1.365,2.848,2.848,0,0,1,.27-1.266,2.433,2.433,0,0,1,.8-.926,3.868,3.868,0,0,1,1.291-.569,7.067,7.067,0,0,1,1.743-.2ZM124.92,8.745V19.453h-2V7.019h1.843Zm5.852,2.681V11.6a6.854,6.854,0,0,1-.228,1.814,4.5,4.5,0,0,1-.672,1.453,3.118,3.118,0,0,1-1.092.959,3.165,3.165,0,0,1-1.494.34,3.255,3.255,0,0,1-1.465-.311,2.96,2.96,0,0,1-1.058-.884,4.732,4.732,0,0,1-.693-1.349,8.355,8.355,0,0,1-.369-1.706v-.672a8.957,8.957,0,0,1,.369-1.793,4.782,4.782,0,0,1,.693-1.386,2.977,2.977,0,0,1,1.054-.9,3.174,3.174,0,0,1,1.453-.315,3.316,3.316,0,0,1,1.5.328,3.078,3.078,0,0,1,1.1.93,4.2,4.2,0,0,1,.672,1.444A7.279,7.279,0,0,1,130.772,11.426Zm-2,.174v-.174a5.457,5.457,0,0,0-.116-1.158,3.014,3.014,0,0,0-.365-.942,1.835,1.835,0,0,0-.635-.635,1.786,1.786,0,0,0-.926-.228,2.141,2.141,0,0,0-.913.178,1.791,1.791,0,0,0-.639.494,2.321,2.321,0,0,0-.4.735,4.509,4.509,0,0,0-.2.909v1.61a4.024,4.024,0,0,0,.34,1.1,1.949,1.949,0,0,0,.685.793,2.026,2.026,0,0,0,1.141.295,1.739,1.739,0,0,0,.921-.232,1.839,1.839,0,0,0,.627-.643,3.131,3.131,0,0,0,.361-.95A5.432,5.432,0,0,0,128.772,11.6Zm5.745-2.872V16h-2V7.019h1.909Zm2.748-1.768-.017,1.859a3.925,3.925,0,0,0-.394-.05q-.212-.017-.419-.017a2.586,2.586,0,0,0-.9.145,1.734,1.734,0,0,0-.652.415,1.838,1.838,0,0,0-.4.652,2.9,2.9,0,0,0-.166.855l-.457.033a7,7,0,0,1,.166-1.569,4.216,4.216,0,0,1,.5-1.27,2.5,2.5,0,0,1,.847-.855,2.25,2.25,0,0,1,1.183-.307,2.554,2.554,0,0,1,.394.033A1.664,1.664,0,0,1,137.264,6.96Zm6.061,7.238V9.916a1.837,1.837,0,0,0-.174-.83,1.226,1.226,0,0,0-.527-.54,1.842,1.842,0,0,0-.884-.191,1.992,1.992,0,0,0-.847.166,1.369,1.369,0,0,0-.556.448,1.081,1.081,0,0,0-.2.639h-1.992a2.216,2.216,0,0,1,.257-1.029,2.752,2.752,0,0,1,.747-.888,3.731,3.731,0,0,1,1.17-.614,4.869,4.869,0,0,1,1.527-.224,4.477,4.477,0,0,1,1.8.34,2.764,2.764,0,0,1,1.237,1.025,3.046,3.046,0,0,1,.452,1.714v3.993a6.265,6.265,0,0,0,.087,1.1,3.441,3.441,0,0,0,.253.843V16h-2.05a3.428,3.428,0,0,1-.22-.826A6.286,6.286,0,0,1,143.325,14.2Zm.291-3.661.017,1.237H142.2a4.139,4.139,0,0,0-.979.1,2.067,2.067,0,0,0-.706.3,1.3,1.3,0,0,0-.423.481,1.41,1.41,0,0,0-.141.639,1.3,1.3,0,0,0,.166.652,1.15,1.15,0,0,0,.486.461,1.667,1.667,0,0,0,.776.166,2.2,2.2,0,0,0,1.075-.253,2.15,2.15,0,0,0,.726-.623,1.335,1.335,0,0,0,.282-.7l.647.888a3.039,3.039,0,0,1-.34.73,3.509,3.509,0,0,1-.627.743,3.1,3.1,0,0,1-2.154.8,3.393,3.393,0,0,1-1.569-.353,2.746,2.746,0,0,1-1.079-.955,2.455,2.455,0,0,1-.39-1.365,2.847,2.847,0,0,1,.27-1.266,2.433,2.433,0,0,1,.8-.926,3.868,3.868,0,0,1,1.291-.569,7.067,7.067,0,0,1,1.743-.2Zm-2.7-4.79,1.619-2.5h2.258l-2.258,2.5Zm10.219,8.824a1.966,1.966,0,0,0,.884-.2,1.673,1.673,0,0,0,.639-.544,1.514,1.514,0,0,0,.27-.805h1.884a2.806,2.806,0,0,1-.515,1.585,3.536,3.536,0,0,1-1.32,1.133,3.942,3.942,0,0,1-1.818.419,4.239,4.239,0,0,1-1.793-.353,3.5,3.5,0,0,1-1.27-.975,4.253,4.253,0,0,1-.76-1.436,5.836,5.836,0,0,1-.253-1.743v-.291a5.877,5.877,0,0,1,.253-1.747,4.247,4.247,0,0,1,.76-1.44,3.5,3.5,0,0,1,1.27-.975,4.218,4.218,0,0,1,1.785-.353,4.011,4.011,0,0,1,1.893.427,3.256,3.256,0,0,1,1.282,1.187,3.4,3.4,0,0,1,.486,1.764H152.93a2.068,2.068,0,0,0-.245-.9,1.693,1.693,0,0,0-.614-.643,1.773,1.773,0,0,0-.942-.241,1.889,1.889,0,0,0-1,.245,1.712,1.712,0,0,0-.623.664,3.207,3.207,0,0,0-.32.938,5.929,5.929,0,0,0-.1,1.075v.291a6.264,6.264,0,0,0,.091,1.079,2.955,2.955,0,0,0,.32.934,1.76,1.76,0,0,0,.627.656A1.906,1.906,0,0,0,151.137,14.572ZM160.5,7.019V8.479h-5.063V7.019Zm-3.6-2.2h2v8.7a1.348,1.348,0,0,0,.12.635.6.6,0,0,0,.336.295,1.549,1.549,0,0,0,.506.075,3.08,3.08,0,0,0,.4-.025q.191-.025.307-.05l.008,1.527a5.158,5.158,0,0,1-.577.133,4.34,4.34,0,0,1-.751.058,2.885,2.885,0,0,1-1.22-.245,1.774,1.774,0,0,1-.83-.8,3.126,3.126,0,0,1-.3-1.478Zm7.331,2.2V16H162.22V7.019Zm-2.142-2.357a1.03,1.03,0,0,1,.3-.76,1.317,1.317,0,0,1,1.681,0,1.023,1.023,0,0,1,.307.76,1,1,0,0,1-.307.747,1.331,1.331,0,0,1-1.681,0A1.006,1.006,0,0,1,162.088,4.661Zm8.044,9.911a1.966,1.966,0,0,0,.884-.2,1.673,1.673,0,0,0,.639-.544,1.514,1.514,0,0,0,.27-.805h1.884a2.806,2.806,0,0,1-.515,1.585,3.536,3.536,0,0,1-1.32,1.133,3.942,3.942,0,0,1-1.818.419,4.239,4.239,0,0,1-1.793-.353,3.5,3.5,0,0,1-1.27-.975,4.253,4.253,0,0,1-.76-1.436,5.836,5.836,0,0,1-.253-1.743v-.291a5.877,5.877,0,0,1,.253-1.747,4.247,4.247,0,0,1,.76-1.44,3.5,3.5,0,0,1,1.27-.975,4.218,4.218,0,0,1,1.785-.353,4.011,4.011,0,0,1,1.893.427,3.256,3.256,0,0,1,1.282,1.187,3.4,3.4,0,0,1,.486,1.764h-1.884a2.068,2.068,0,0,0-.245-.9,1.693,1.693,0,0,0-.614-.643,1.773,1.773,0,0,0-.942-.241,1.889,1.889,0,0,0-1,.245,1.712,1.712,0,0,0-.623.664,3.207,3.207,0,0,0-.32.938,5.929,5.929,0,0,0-.1,1.075v.291a6.264,6.264,0,0,0,.091,1.079,2.955,2.955,0,0,0,.32.934,1.76,1.76,0,0,0,.627.656A1.906,1.906,0,0,0,170.132,14.572Zm10.311-.374V9.916a1.837,1.837,0,0,0-.174-.83,1.226,1.226,0,0,0-.527-.54,1.842,1.842,0,0,0-.884-.191,1.992,1.992,0,0,0-.847.166,1.369,1.369,0,0,0-.556.448,1.081,1.081,0,0,0-.2.639h-1.992a2.216,2.216,0,0,1,.257-1.029,2.752,2.752,0,0,1,.747-.888,3.731,3.731,0,0,1,1.17-.614,4.869,4.869,0,0,1,1.527-.224,4.477,4.477,0,0,1,1.8.34A2.764,2.764,0,0,1,182,8.218a3.046,3.046,0,0,1,.452,1.714v3.993a6.265,6.265,0,0,0,.087,1.1,3.441,3.441,0,0,0,.253.843V16h-2.05a3.428,3.428,0,0,1-.22-.826A6.286,6.286,0,0,1,180.443,14.2Zm.291-3.661.017,1.237h-1.436a4.139,4.139,0,0,0-.979.1,2.067,2.067,0,0,0-.706.3,1.3,1.3,0,0,0-.423.481,1.41,1.41,0,0,0-.141.639,1.3,1.3,0,0,0,.166.652,1.15,1.15,0,0,0,.486.461,1.667,1.667,0,0,0,.776.166,2.2,2.2,0,0,0,1.075-.253,2.15,2.15,0,0,0,.726-.623,1.335,1.335,0,0,0,.282-.7l.647.888a3.039,3.039,0,0,1-.34.73,3.509,3.509,0,0,1-.627.743,3.1,3.1,0,0,1-2.154.8,3.393,3.393,0,0,1-1.569-.353,2.746,2.746,0,0,1-1.079-.955,2.455,2.455,0,0,1-.39-1.365,2.847,2.847,0,0,1,.27-1.266,2.433,2.433,0,0,1,.8-.926,3.868,3.868,0,0,1,1.291-.569,7.067,7.067,0,0,1,1.743-.2Z" transform="translate(-7609 -739.306)" fill="#fff"/>
    <text id="WHERE_col_alias_valor" data-name="WHERE col_alias = valor" transform="translate(-7608 -690.306)" fill="#12263f" font-size="17" font-family="Roboto-Medium, Roboto" letter-spacing="0.003em" font-weight="500"><tspan x="0" y="16">WHERE col_alias = valor</tspan></text>
    <text id="WHERE_COUNT_5_" data-name="WHERE COUNT(*) &gt; 5 " transform="translate(-7597 -463.806)" fill="#12263f" font-size="17" font-family="Roboto-Medium, Roboto" letter-spacing="0.003em" font-weight="500"><tspan x="0" y="16">WHERE COUNT(*) &gt; 5 </tspan></text>
    <text id="HAVING_col_alias_valor" data-name="HAVING col_alias = valor" transform="translate(-7610 -577.119)" fill="#12263f" font-size="17" font-family="Roboto-Medium, Roboto" letter-spacing="0.003em" font-weight="500"><tspan x="0" y="16">HAVING col_alias = valor</tspan></text>
    <text id="HAVING_COUNT_5" data-name="HAVING COUNT(*) &gt; 5" transform="translate(-7601 -342.478)" fill="#12263f" font-size="17" font-family="Roboto-Medium, Roboto" letter-spacing="0.003em" font-weight="500"><tspan x="0" y="16">HAVING COUNT(*) &gt; 5</tspan></text>
    <text id="ERROR:_alias_no_existe_aún_en_WHERE" data-name="ERROR: alias no existe aún en WHERE" transform="translate(-7660 -636.12)" fill="#12263f" font-size="17" font-family="Roboto-Medium, Roboto" letter-spacing="0.003em" font-weight="500"><tspan x="0" y="16">ERROR: alias no existe aún en WHERE</tspan></text>
    <text id="ERROR:_agregación_no_disponible_en_WHERE" data-name="ERROR: agregación no disponible en WHERE" transform="translate(-7684 -413.479)" fill="#12263f" font-size="17" font-family="Roboto-Medium, Roboto" letter-spacing="0.003em" font-weight="500"><tspan x="0" y="16">ERROR: agregación no disponible en WHERE</tspan></text>
    <text id="OK:_alias_ya_existe_en_HAVING" data-name="OK: alias ya existe en HAVING" transform="translate(-7629 -528.792)" fill="#12263f" font-size="17" font-family="Roboto-Medium, Roboto" letter-spacing="0.003em" font-weight="500"><tspan x="0" y="16">OK: alias ya existe en HAVING</tspan></text>
    <text id="OK:_agregación_disponible_en_HAVING" data-name="OK: agregación disponible en HAVING" transform="translate(-7660 -294.151)" fill="#12263f" font-size="17" font-family="Roboto-Medium, Roboto" letter-spacing="0.003em" font-weight="500"><tspan x="0" y="16">OK: agregación disponible en HAVING</tspan></text>
    <circle id="Elipse_13714" data-name="Elipse 13714" cx="14" cy="14" r="14" transform="translate(-7655 -695.306)" fill="#8d1919"/>
    <circle id="Elipse_13716" data-name="Elipse 13716" cx="14" cy="14" r="14" transform="translate(-7655 -468.806)" fill="#8d1919"/>
    <circle id="Elipse_13715" data-name="Elipse 13715" cx="14" cy="14" r="14" transform="translate(-7655 -582.306)" fill="#2c7d1c"/>
    <circle id="Elipse_13717" data-name="Elipse 13717" cx="14" cy="14" r="14" transform="translate(-7654.586 -347.665)" fill="#2c7d1c"/>
    <path id="Trazado_1032529_-_Contorno" data-name="Trazado 1032529 - Contorno" d="M19.466,4.916a.807.807,0,0,1,.146.013.807.807,0,0,1,.6.124.807.807,0,0,1,.527.39.808.808,0,0,1,.237.374.807.807,0,0,1,.039.743c-.036.079-.071.148-.106.211a1.559,1.559,0,0,1-.181.256C20,7.875,19.3,8.757,18.632,9.649c-.575.767-1.145,1.576-1.7,2.41.334.587.686,1.189,1.05,1.8.454.758.951,1.572,1.475,2.417a2.6,2.6,0,0,1,.147.265l.113.238a.807.807,0,0,1-.144.9.806.806,0,0,1-.3.371l-.006,0a.807.807,0,0,1-.61.332.807.807,0,0,1-.676.011,1.5,1.5,0,0,1-.743-.467c-.528-.781-1.017-1.532-1.453-2.233q-.283-.454-.554-.907c-.316.537-.625,1.085-.925,1.639-.519.96-1.033,1.972-1.528,3.01q-.01.021-.022.042l-.126.228a.806.806,0,0,1-.56.4.807.807,0,0,1-.6.126.807.807,0,0,1-.578-.112.807.807,0,0,1-.562-.425.807.807,0,0,1-.239-.409.806.806,0,0,1-.072-.6l.038-.141a1.342,1.342,0,0,1,.115-.287c.523-1.1,1.1-2.22,1.725-3.324.549-.974,1.141-1.956,1.764-2.927-.11-.205-.225-.424-.345-.654-.207-.4-.419-.818-.63-1.248s-.421-.867-.624-1.3-.392-.853-.557-1.242l-.147-.333a.807.807,0,0,1,.108-.83.806.806,0,0,1,.252-.363.807.807,0,0,1,.4-.31.806.806,0,0,1,.514-.147.806.806,0,0,1,.4.018.806.806,0,0,1,.4.154.806.806,0,0,1,.483.434l.108.24c.335.722.674,1.425,1.007,2.087q.208.415.423.831c.351-.488.708-.97,1.068-1.442.625-.821,1.283-1.638,1.956-2.427l.024-.027a2.21,2.21,0,0,1,.312-.283,1.514,1.514,0,0,1,.372-.2A.806.806,0,0,1,19.466,4.916Z" transform="translate(-7656.91 -693.888)" fill="#fff"/>
    <path id="Trazado_1032529_-_Contorno-2" data-name="Trazado 1032529 - Contorno" d="M19.466,4.916a.807.807,0,0,1,.146.013.807.807,0,0,1,.6.124.807.807,0,0,1,.527.39.808.808,0,0,1,.237.374.807.807,0,0,1,.039.743c-.036.079-.071.148-.106.211a1.559,1.559,0,0,1-.181.256C20,7.875,19.3,8.757,18.632,9.649c-.575.767-1.145,1.576-1.7,2.41.334.587.686,1.189,1.05,1.8.454.758.951,1.572,1.475,2.417a2.6,2.6,0,0,1,.147.265l.113.238a.807.807,0,0,1-.144.9.806.806,0,0,1-.3.371l-.006,0a.807.807,0,0,1-.61.332.807.807,0,0,1-.676.011,1.5,1.5,0,0,1-.743-.467c-.528-.781-1.017-1.532-1.453-2.233q-.283-.454-.554-.907c-.316.537-.625,1.085-.925,1.639-.519.96-1.033,1.972-1.528,3.01q-.01.021-.022.042l-.126.228a.806.806,0,0,1-.56.4.807.807,0,0,1-.6.126.807.807,0,0,1-.578-.112.807.807,0,0,1-.562-.425.807.807,0,0,1-.239-.409.806.806,0,0,1-.072-.6l.038-.141a1.342,1.342,0,0,1,.115-.287c.523-1.1,1.1-2.22,1.725-3.324.549-.974,1.141-1.956,1.764-2.927-.11-.205-.225-.424-.345-.654-.207-.4-.419-.818-.63-1.248s-.421-.867-.624-1.3-.392-.853-.557-1.242l-.147-.333a.807.807,0,0,1,.108-.83.806.806,0,0,1,.252-.363.807.807,0,0,1,.4-.31.806.806,0,0,1,.514-.147.806.806,0,0,1,.4.018.806.806,0,0,1,.4.154.806.806,0,0,1,.483.434l.108.24c.335.722.674,1.425,1.007,2.087q.208.415.423.831c.351-.488.708-.97,1.068-1.442.625-.821,1.283-1.638,1.956-2.427l.024-.027a2.21,2.21,0,0,1,.312-.283,1.514,1.514,0,0,1,.372-.2A.806.806,0,0,1,19.466,4.916Z" transform="translate(-7656.91 -467.388)" fill="#fff"/>
    <g id="Grupo_1189091" data-name="Grupo 1189091" transform="translate(-7926.711 -2435.563)">
      <path id="Trazado_999401" data-name="Trazado 999401" d="M6.093,0,0,6.093l6.093,6.093H11.21L6.093,7.1V5.117l2.3-2.3L11.21,0Z" transform="translate(406.711 1795.7) rotate(-90)" fill="#1e75cc"/>
      <rect id="Rectángulo_458934" data-name="Rectángulo 458934" width="2.967" height="18.396" transform="translate(411.459 1773)" fill="#1e75cc"/>
    </g>
    <g id="Grupo_1189100" data-name="Grupo 1189100" transform="translate(-7926.711 -2327.306)">
      <path id="Trazado_999401-2" data-name="Trazado 999401" d="M6.093,0,0,6.093l6.093,6.093H11.21L6.093,7.1V5.117l2.3-2.3L11.21,0Z" transform="translate(406.711 1795.7) rotate(-90)" fill="#1e75cc"/>
      <rect id="Rectángulo_458934-2" data-name="Rectángulo 458934" width="2.967" height="18.396" transform="translate(411.459 1773)" fill="#1e75cc"/>
    </g>
    <g id="Grupo_1189101" data-name="Grupo 1189101" transform="translate(-7926.711 -2213.992)">
      <path id="Trazado_999401-3" data-name="Trazado 999401" d="M6.093,0,0,6.093l6.093,6.093H11.21L6.093,7.1V5.117l2.3-2.3L11.21,0Z" transform="translate(406.711 1795.7) rotate(-90)" fill="#1e75cc"/>
      <rect id="Rectángulo_458934-3" data-name="Rectángulo 458934" width="2.967" height="18.396" transform="translate(411.459 1773)" fill="#1e75cc"/>
    </g>
    <g id="Grupo_1189102" data-name="Grupo 1189102" transform="translate(-7926.711 -2092.665)">
      <path id="Trazado_999401-4" data-name="Trazado 999401" d="M6.093,0,0,6.093l6.093,6.093H11.21L6.093,7.1V5.117l2.3-2.3L11.21,0Z" transform="translate(406.711 1795.7) rotate(-90)" fill="#1e75cc"/>
      <rect id="Rectángulo_458934-4" data-name="Rectángulo 458934" width="2.967" height="18.396" transform="translate(411.459 1773)" fill="#1e75cc"/>
    </g>
    <path id="Trazado_1032529" data-name="Trazado 1032529" d="M9.739,13.941a4.568,4.568,0,0,1-.315-.344.456.456,0,0,1-.125-.27.283.283,0,0,1,.112-.22.95.95,0,0,1,.27-.158,1.623,1.623,0,0,1,.336-.091,1.935,1.935,0,0,1,.3-.029.369.369,0,0,1,.22.062,1.7,1.7,0,0,1,.2.178,12.968,12.968,0,0,1,1.415,1.677q.635.9,1.175,1.776a48.342,48.342,0,0,1,2.416-5.57,37.087,37.087,0,0,1,3.1-5.055,1.037,1.037,0,0,1,.519-.357,2.371,2.371,0,0,1,.793-.125.407.407,0,0,1,.224.054.173.173,0,0,1,.083.154.514.514,0,0,1-.025.17.733.733,0,0,1-.116.187q-.921,1.22-1.789,2.557t-1.656,2.818q-.789,1.482-1.494,3.109T14.1,17.884a.166.166,0,0,1-.091.087.826.826,0,0,1-.183.062,1.838,1.838,0,0,1-.241.037q-.133.012-.266.012a1.514,1.514,0,0,1-.349-.037.352.352,0,0,1-.232-.162q-.4-.681-.739-1.2t-.689-.967q-.349-.448-.726-.872T9.739,13.941Z" transform="translate(-7656.299 -579.722)" fill="#fff" stroke="#fff" stroke-width="1"/>
    <path id="Trazado_1032530" data-name="Trazado 1032530" d="M9.739,13.941a4.568,4.568,0,0,1-.315-.344.456.456,0,0,1-.125-.27.283.283,0,0,1,.112-.22.95.95,0,0,1,.27-.158,1.623,1.623,0,0,1,.336-.091,1.935,1.935,0,0,1,.3-.029.369.369,0,0,1,.22.062,1.7,1.7,0,0,1,.2.178,12.968,12.968,0,0,1,1.415,1.677q.635.9,1.175,1.776a48.342,48.342,0,0,1,2.416-5.57,37.087,37.087,0,0,1,3.1-5.055,1.037,1.037,0,0,1,.519-.357,2.371,2.371,0,0,1,.793-.125.407.407,0,0,1,.224.054.173.173,0,0,1,.083.154.514.514,0,0,1-.025.17.733.733,0,0,1-.116.187q-.921,1.22-1.789,2.557t-1.656,2.818q-.789,1.482-1.494,3.109T14.1,17.884a.166.166,0,0,1-.091.087.826.826,0,0,1-.183.062,1.838,1.838,0,0,1-.241.037q-.133.012-.266.012a1.514,1.514,0,0,1-.349-.037.352.352,0,0,1-.232-.162q-.4-.681-.739-1.2t-.689-.967q-.349-.448-.726-.872T9.739,13.941Z" transform="translate(-7655.885 -345.081)" fill="#fff" stroke="#fff" stroke-width="1"/>
    <text id="_identifica_las_tablas._filtra_filas._agrupa_filas_filtradas._filtra_grupos._calcula_expresiones_alias._elimina_duplicados._ordena_el_resultado._limita_filas_devueltas." data-name="→ identifica las tablas.

→ filtra filas.

→ agrupa filas filtradas.

→ filtra grupos.

→ calcula expresiones/alias.

→ elimina duplicados.

→ ordena el resultado.

→ limita filas devueltas." transform="translate(-7552.711 -1303.856)" fill="#19538d" font-size="17" font-family="SegoeUI-Semibold, Segoe UI" letter-spacing="0.003em" font-weight="600"><tspan x="0" y="18">→</tspan><tspan y="18" xml:space="preserve" fill="#12263f" font-family="Roboto-Medium, Roboto" font-weight="500"> identifica las tablas.</tspan><tspan fill="#12263f" font-family="Roboto-Medium, Roboto" font-weight="500"><tspan x="0" y="52"></tspan></tspan><tspan x="0" y="86">→</tspan><tspan y="86" xml:space="preserve" fill="#12263f" font-family="Roboto-Medium, Roboto" font-weight="500"> filtra filas.</tspan><tspan fill="#12263f" font-family="Roboto-Medium, Roboto" font-weight="500"><tspan x="0" y="120"></tspan></tspan><tspan x="0" y="154">→</tspan><tspan y="154" xml:space="preserve" fill="#12263f" font-family="Roboto-Medium, Roboto" font-weight="500"> agrupa filas filtradas.</tspan><tspan fill="#12263f" font-family="Roboto-Medium, Roboto" font-weight="500"><tspan x="0" y="188"></tspan></tspan><tspan x="0" y="222">→</tspan><tspan y="222" xml:space="preserve" fill="#12263f" font-family="Roboto-Medium, Roboto" font-weight="500"> filtra grupos.</tspan><tspan fill="#12263f" font-family="Roboto-Medium, Roboto" font-weight="500"><tspan x="0" y="256"></tspan></tspan><tspan x="0" y="290">→</tspan><tspan y="290" xml:space="preserve" fill="#12263f" font-family="Roboto-Medium, Roboto" font-weight="500"> calcula expresiones/alias.</tspan><tspan fill="#12263f" font-family="Roboto-Medium, Roboto" font-weight="500"><tspan x="0" y="324"></tspan></tspan><tspan x="0" y="358">→</tspan><tspan y="358" xml:space="preserve" fill="#12263f" font-family="Roboto-Medium, Roboto" font-weight="500"> elimina duplicados.</tspan><tspan fill="#12263f" font-family="Roboto-Medium, Roboto" font-weight="500"><tspan x="0" y="392"></tspan></tspan><tspan x="0" y="426">→</tspan><tspan y="426" xml:space="preserve" fill="#12263f" font-family="Roboto-Medium, Roboto" font-weight="500"> ordena el resultado.</tspan><tspan fill="#12263f" font-family="Roboto-Medium, Roboto" font-weight="500"><tspan x="0" y="460"></tspan></tspan><tspan x="0" y="494">→</tspan><tspan y="494" xml:space="preserve" fill="#12263f" font-family="Roboto-Medium, Roboto" font-weight="500"> limita filas devueltas.</tspan></text>
    <g id="configuracion" transform="translate(-7439.75 -755.306)">
      <g id="Grupo_1189133" data-name="Grupo 1189133" transform="translate(52.032)">
        <path id="Trazado_1032555" data-name="Trazado 1032555" d="M72.846,233.106h43.5v3.954h-43.5Z" transform="translate(-70.374 -205.426)" fill="#688ed5"/>
        <path id="Trazado_1032556" data-name="Trazado 1032556" d="M99.236,278.27H53.268a1.236,1.236,0,0,1-1.236-1.236v-9.391a1.236,1.236,0,0,1,1.236-1.236H99.236a1.236,1.236,0,0,1,1.236,1.236v9.391A1.236,1.236,0,0,1,99.236,278.27Z" transform="translate(-52.032 -234.773)" fill="#4172ca"/>
        <path id="Trazado_1032557" data-name="Trazado 1032557" d="M433.053,278.27h-2.224V266.407h2.224a1.236,1.236,0,0,1,1.236,1.236v9.391A1.236,1.236,0,0,1,433.053,278.27Z" transform="translate(-385.849 -234.773)" fill="#3a67c1"/>
        <path id="Trazado_1032558" data-name="Trazado 1032558" d="M99.236,11.863H53.268a1.236,1.236,0,0,1-1.236-1.236V1.236A1.236,1.236,0,0,1,53.268,0H99.236a1.236,1.236,0,0,1,1.236,1.236v9.391A1.236,1.236,0,0,1,99.236,11.863Z" transform="translate(-52.032 0)" fill="#4172ca"/>
        <path id="Trazado_1032559" data-name="Trazado 1032559" d="M433.053,11.863h-2.224V0h2.224a1.236,1.236,0,0,1,1.236,1.236v9.391a1.236,1.236,0,0,1-1.236,1.236Z" transform="translate(-385.849)" fill="#3a67c1"/>
        <path id="Trazado_1032560" data-name="Trazado 1032560" d="M72.846,99.9h43.5v3.954h-43.5Z" transform="translate(-70.374 -88.039)" fill="#688ed5"/>
        <path id="Trazado_1032561" data-name="Trazado 1032561" d="M154.9,37.256h-1.977a.989.989,0,0,1-.989-.989V34.291a.989.989,0,0,1,.989-.989H154.9a.989.989,0,0,1,.989.989v1.977A.989.989,0,0,1,154.9,37.256Z" transform="translate(-140.073 -29.348)" fill="#a2f5c3"/>
        <path id="Trazado_1032562" data-name="Trazado 1032562" d="M221.5,37.256h-1.977a.988.988,0,0,1-.989-.989V34.291a.989.989,0,0,1,.989-.989H221.5a.989.989,0,0,1,.989.989v1.977A.989.989,0,0,1,221.5,37.256Z" transform="translate(-198.766 -29.348)" fill="#e279b3"/>
        <path id="Trazado_1032563" data-name="Trazado 1032563" d="M300.955,37.256H286.127a.989.989,0,0,1-.989-.989V34.291a.989.989,0,0,1,.989-.989h14.828a.989.989,0,0,1,.989.989v1.977A.988.988,0,0,1,300.955,37.256Z" transform="translate(-257.458 -29.348)" fill="#26447e"/>
        <path id="Trazado_1032564" data-name="Trazado 1032564" d="M88.3,37.256H86.323a.989.989,0,0,1-.989-.989V34.291a.989.989,0,0,1,.989-.989H88.3a.989.989,0,0,1,.989.989v1.977A.989.989,0,0,1,88.3,37.256Z" transform="translate(-81.38 -29.348)" fill="#a2f5c3"/>
        <path id="Trazado_1032565" data-name="Trazado 1032565" d="M99.236,145.066H53.268a1.236,1.236,0,0,1-1.236-1.236v-9.391a1.236,1.236,0,0,1,1.236-1.236H99.236a1.236,1.236,0,0,1,1.236,1.236v9.391A1.236,1.236,0,0,1,99.236,145.066Z" transform="translate(-52.032 -117.386)" fill="#4172ca"/>
        <path id="Trazado_1032566" data-name="Trazado 1032566" d="M433.053,145.067h-2.224V133.2h2.224a1.236,1.236,0,0,1,1.236,1.236v9.391A1.236,1.236,0,0,1,433.053,145.067Z" transform="translate(-385.849 -117.387)" fill="#3a67c1"/>
        <path id="Trazado_1032567" data-name="Trazado 1032567" d="M154.9,170.459h-1.977a.989.989,0,0,1-.989-.989v-1.977a.989.989,0,0,1,.989-.989H154.9a.989.989,0,0,1,.989.989v1.977A.989.989,0,0,1,154.9,170.459Z" transform="translate(-140.073 -146.734)" fill="#a2f5c3"/>
        <path id="Trazado_1032568" data-name="Trazado 1032568" d="M221.5,170.459h-1.977a.989.989,0,0,1-.989-.989v-1.977a.988.988,0,0,1,.989-.989H221.5a.988.988,0,0,1,.989.989v1.977A.989.989,0,0,1,221.5,170.459Z" transform="translate(-198.766 -146.734)" fill="#e279b3"/>
        <path id="Trazado_1032569" data-name="Trazado 1032569" d="M300.955,170.459H286.127a.989.989,0,0,1-.989-.989v-1.977a.989.989,0,0,1,.989-.989h14.828a.989.989,0,0,1,.989.989v1.977A.988.988,0,0,1,300.955,170.459Z" transform="translate(-257.458 -146.734)" fill="#26447e"/>
        <path id="Trazado_1032570" data-name="Trazado 1032570" d="M88.3,170.459H86.323a.989.989,0,0,1-.989-.989v-1.977a.988.988,0,0,1,.989-.989H88.3a.988.988,0,0,1,.989.989v1.977A.989.989,0,0,1,88.3,170.459Z" transform="translate(-81.38 -146.734)" fill="#a2f5c3"/>
        <circle id="Elipse_13720" data-name="Elipse 13720" cx="14.581" cy="14.581" r="14.581" transform="translate(9.639 31.634)" fill="#ffcc74"/>
        <path id="Trazado_1032571" data-name="Trazado 1032571" d="M176.724,289.572a14.582,14.582,0,0,1-20.355,20.355,14.582,14.582,0,1,0,20.355-20.355Z" transform="translate(-143.98 -255.187)" fill="#f6be5c"/>
      </g>
      <path id="Trazado_1032572" data-name="Trazado 1032572" d="M198.111,321.339c0-.152-.006-.3-.016-.451a.746.746,0,0,1,.226-.592l1.48-1.414a.741.741,0,0,0,.13-.907l-1.395-2.416a.741.741,0,0,0-.85-.341l-1.964.574a.74.74,0,0,1-.621-.1,6.808,6.808,0,0,0-.794-.458.74.74,0,0,1-.394-.489l-.485-1.987a.741.741,0,0,0-.72-.566h-2.79a.741.741,0,0,0-.72.566l-.485,1.987a.74.74,0,0,1-.394.489,6.79,6.79,0,0,0-.794.458.74.74,0,0,1-.621.1l-1.964-.574a.741.741,0,0,0-.85.341l-1.395,2.416a.741.741,0,0,0,.13.907l1.48,1.414a.745.745,0,0,1,.226.592q-.016.224-.016.451c0,.152.006.3.016.451a.746.746,0,0,1-.226.592l-1.48,1.414a.742.742,0,0,0-.13.907l1.395,2.416a.741.741,0,0,0,.85.341l1.964-.574a.74.74,0,0,1,.621.1,6.807,6.807,0,0,0,.794.458.74.74,0,0,1,.394.489l.485,1.987a.741.741,0,0,0,.72.566h2.79a.741.741,0,0,0,.72-.566l.485-1.987a.74.74,0,0,1,.394-.489,6.79,6.79,0,0,0,.794-.458.74.74,0,0,1,.621-.1l1.964.574a.741.741,0,0,0,.85-.341l1.395-2.416a.742.742,0,0,0-.13-.907l-1.48-1.414a.745.745,0,0,1-.226-.592C198.105,321.641,198.111,321.491,198.111,321.339Zm-4.819,0a1.977,1.977,0,1,1-1.977-1.977A1.977,1.977,0,0,1,193.291,321.339Z" transform="translate(-115.062 -275.124)" fill="#e6f7fe"/>
    </g>
  </g>
</svg>
