<svg xmlns="http://www.w3.org/2000/svg" xmlns:xlink="http://www.w3.org/1999/xlink" width="128" height="128" viewBox="0 0 128 128">
  <defs>
    <clipPath id="clip-path">
      <rect id="Rectángulo_456267" data-name="Rectángulo 456267" width="128" height="128" fill="none"/>
    </clipPath>
  </defs>
  <g id="Grupo_1190857" data-name="Grupo 1190857" transform="translate(-268.029 -1055.943)">
    <g id="Grupo_1189054" data-name="Grupo 1189054" transform="translate(779.775 9582.943) rotate(180)">
      <path id="Trazado_999622" data-name="Trazado 999622" d="M59.07,0A59.07,59.07,0,1,1,0,59.07,59.071,59.071,0,0,1,59.07,0" transform="translate(388.676 8403.93)" fill="#fff"/>
      <g id="Grupo_1179902" data-name="Grupo 1179902" transform="translate(383.746 8399)">
        <g id="Grupo_1179905" data-name="Grupo 1179905" clip-path="url(#clip-path)">
          <path id="Trazado_999618" data-name="Trazado 999618" d="M64,0A64,64,0,1,1,0,64,64,64,0,0,1,64,0" fill="none"/>
          <path id="Trazado_999619" data-name="Trazado 999619" d="M5,59a5,5,0,1,1-5,5,5,5,0,0,1,5-5" transform="translate(0 0)" fill="#ae0000"/>
          <path id="Trazado_999620" data-name="Trazado 999620" d="M21,19a5,5,0,1,1-5,5,5,5,0,0,1,5-5" fill="#ae0000"/>
          <path id="Trazado_999621" data-name="Trazado 999621" d="M64,124A60.068,60.068,0,0,1,4,64H7A57,57,0,1,0,22.408,25.024L20.22,22.972A60,60,0,1,1,64,124" fill="#ae0000"/>
          <rect id="Rectángulo_456268" data-name="Rectángulo 456268" width="128" height="128" fill="none"/>
          <rect id="Rectángulo_456269" data-name="Rectángulo 456269" width="128" height="128" fill="none"/>
        </g>
      </g>
      <g id="Grupo_1179903" data-name="Grupo 1179903" transform="translate(481.536 8497.566) rotate(180)">
        <g id="Grupo_1099618" data-name="Grupo 1099618" transform="translate(0.472 -0.377)">
          <rect id="Rectángulo_401104" data-name="Rectángulo 401104" width="67.89" height="68.708" transform="translate(0)" fill="none"/>
        </g>
      </g>
    </g>
    <g id="nota_2_" data-name="nota (2)" transform="translate(268.896 1085.414)">
      <path id="Trazado_1034065" data-name="Trazado 1034065" d="M297.3,496.752h-14.36a1,1,0,0,0,0,2H297.3a1,1,0,0,0,0-2Z" transform="translate(-214.742 -430.663)"/>
      <path id="Trazado_1034066" data-name="Trazado 1034066" d="M63.944,66.089H44.979a4.637,4.637,0,0,1-4.632-4.632V56.63h.965a3.143,3.143,0,0,0,0-6.286h-.965V46.988h.965a3.143,3.143,0,0,0,0-6.286h-.965V37.347h.965a3.143,3.143,0,0,0,0-6.286h-.965V27.705h.965a3.143,3.143,0,0,0,0-6.286h-.965V18.064h.965a3.143,3.143,0,1,0,0-6.286h-.965V6.628A4.637,4.637,0,0,1,44.979,2H82.555a4.637,4.637,0,0,1,4.632,4.632v4.9a1,1,0,1,0,2,0v-4.9A6.635,6.635,0,0,0,82.555,0H44.979a6.635,6.635,0,0,0-6.628,6.628v5.15h-.965a3.143,3.143,0,1,0,0,6.286h.965v3.355h-.965a3.143,3.143,0,1,0,0,6.286h.965V31.06h-.965a3.143,3.143,0,1,0,0,6.286h.965V40.7h-.965a3.143,3.143,0,0,0,0,6.286h.965v3.355h-.965a3.143,3.143,0,1,0,0,6.286h.965v4.827a6.635,6.635,0,0,0,6.628,6.628H63.943a1,1,0,0,0,0-2ZM36.24,14.921a1.149,1.149,0,0,1,1.147-1.147h3.925a1.147,1.147,0,1,1,0,2.295H37.387A1.149,1.149,0,0,1,36.24,14.921Zm0,9.642a1.149,1.149,0,0,1,1.147-1.147h3.925a1.147,1.147,0,1,1,0,2.295H37.387A1.149,1.149,0,0,1,36.24,24.562Zm0,9.642a1.149,1.149,0,0,1,1.147-1.147h3.925a1.147,1.147,0,0,1,0,2.295H37.387A1.149,1.149,0,0,1,36.24,34.2Zm0,9.642A1.149,1.149,0,0,1,37.387,42.7h3.925a1.147,1.147,0,1,1,0,2.295H37.387A1.149,1.149,0,0,1,36.24,43.845Zm0,9.641a1.149,1.149,0,0,1,1.147-1.147h3.925a1.147,1.147,0,1,1,0,2.295H37.387A1.149,1.149,0,0,1,36.24,53.486Z" transform="translate(0)"/>
      <path id="Trazado_1034067" data-name="Trazado 1034067" d="M407.749,109.142h-2.986a3.642,3.642,0,0,0-3.638,3.638v31.057a1,1,0,0,0,2,0v-20.5h6.271v29.486h-6.271v-4.733a1,1,0,0,0-2,0v5.731a1.27,1.27,0,0,0,.134.565l3.87,7.725a1.254,1.254,0,0,0,1.127.7h0a1.255,1.255,0,0,0,1.127-.7l3.87-7.726a1.268,1.268,0,0,0,.133-.564V112.78a3.642,3.642,0,0,0-3.638-3.638Zm-2.986,2h2.986a1.644,1.644,0,0,1,1.643,1.642v4.42h-6.271v-4.42A1.644,1.644,0,0,1,404.763,111.138Zm-1.642,10.2V119.2h6.271v2.145Zm3.135,38.564-2.548-5.087h5.1Z" transform="translate(-318.071 -94.622)"/>
      <path id="Trazado_1034068" data-name="Trazado 1034068" d="M146.091,75.583a1,1,0,0,0-1.411.008l-3.86,3.905a1,1,0,0,0,0,1.4l3.86,3.905a1,1,0,1,0,1.419-1.4l-3.167-3.2,3.167-3.2A1,1,0,0,0,146.091,75.583Z" transform="translate(-92.146 -65.277)"/>
      <path id="Trazado_1034069" data-name="Trazado 1034069" d="M237.241,84.813a1,1,0,0,0,1.411-.008l3.86-3.905a1,1,0,0,0,0-1.4l-3.86-3.905a1,1,0,1,0-1.419,1.4l3.167,3.2-3.167,3.2A1,1,0,0,0,237.241,84.813Z" transform="translate(-175.733 -65.277)"/>
      <path id="Trazado_1034070" data-name="Trazado 1034070" d="M198.351,83.457a1,1,0,0,0,.971-.771l1.995-8.55a1,1,0,0,0-1.943-.453l-1.995,8.55a1,1,0,0,0,.973,1.225Z" transform="translate(-141.408 -63.211)"/>
      <path id="Trazado_1034071" data-name="Trazado 1034071" d="M171.982,169.708H144.291a1,1,0,1,0,0,2h27.691a1,1,0,0,0,0-2Z" transform="translate(-94.541 -147.13)"/>
      <path id="Trazado_1034072" data-name="Trazado 1034072" d="M144.291,226.719h6.064a1,1,0,1,0,0-2h-6.064a1,1,0,1,0,0,2Z" transform="translate(-94.541 -194.826)"/>
      <path id="Trazado_1034073" data-name="Trazado 1034073" d="M239.206,224.723H221.831a1,1,0,0,0,0,2h17.375a1,1,0,0,0,0-2Z" transform="translate(-161.765 -194.826)"/>
      <path id="Trazado_1034074" data-name="Trazado 1034074" d="M171.982,279.737H144.291a1,1,0,1,0,0,2h27.691a1,1,0,0,0,0-2Z" transform="translate(-94.541 -242.52)"/>
      <path id="Trazado_1034075" data-name="Trazado 1034075" d="M171.982,334.751H144.291a1,1,0,1,0,0,2h27.691a1,1,0,0,0,0-2Z" transform="translate(-94.541 -290.215)"/>
      <path id="Trazado_1034076" data-name="Trazado 1034076" d="M171.982,389.765H144.291a1,1,0,1,0,0,2h27.691a1,1,0,1,0,0-2Z" transform="translate(-94.541 -337.91)"/>
      <path id="Trazado_1034077" data-name="Trazado 1034077" d="M171.982,444.779H144.291a1,1,0,1,0,0,2h27.691a1,1,0,1,0,0-2Z" transform="translate(-94.541 -385.605)"/>
    </g>
  </g>
</svg>
