<svg xmlns="http://www.w3.org/2000/svg" xmlns:xlink="http://www.w3.org/1999/xlink" width="292" height="340" viewBox="0 0 292 340">
  <defs>
    <clipPath id="clip-path">
      <rect id="Rectángulo_459785" data-name="Rectángulo 459785" width="256.06" height="234.574" fill="none"/>
    </clipPath>
  </defs>
  <g id="Grupo_1189159" data-name="Grupo 1189159" transform="translate(-1017.711 -1480)">
    <rect id="Rectángulo_459284" data-name="Rectángulo 459284" width="292" height="340" transform="translate(1017.711 1480)" fill="#7dd3ff"/>
    <g id="Grupo_1189158" data-name="Grupo 1189158" transform="translate(1035.711 1533)">
      <path id="Trazado_1032726" data-name="Trazado 1032726" d="M445.357,107.029H502.6l9.605,9.605v84.931H445.358Z" transform="translate(-260.925 -62.706)" fill="#fff" fill-rule="evenodd"/>
      <line id="Línea_3293" data-name="Línea 3293" y2="5.908" transform="translate(225.031 111.373)" fill="none" stroke="#ccc" stroke-miterlimit="22.926" stroke-width="0.96"/>
      <line id="Línea_3294" data-name="Línea 3294" y2="11.817" transform="translate(239.386 111.373)" fill="none" stroke="#ccc" stroke-miterlimit="22.926" stroke-width="0.96"/>
      <rect id="Rectángulo_459615" data-name="Rectángulo 459615" width="32.451" height="2.308" transform="translate(201.629 54.449)" fill="#ccc"/>
      <rect id="Rectángulo_459616" data-name="Rectángulo 459616" width="54.575" height="2.309" transform="translate(190.567 60.219)" fill="#ccc"/>
      <rect id="Rectángulo_459617" data-name="Rectángulo 459617" width="54.575" height="2.308" transform="translate(190.567 64.259)" fill="#ccc"/>
      <rect id="Rectángulo_459618" data-name="Rectángulo 459618" width="54.575" height="2.308" transform="translate(190.567 68.299)" fill="#ccc"/>
      <rect id="Rectángulo_459619" data-name="Rectángulo 459619" width="25.577" height="2.308" transform="translate(190.567 72.338)" fill="#ccc"/>
      <g id="Grupo_1189157" data-name="Grupo 1189157">
        <g id="Grupo_1189156" data-name="Grupo 1189156" clip-path="url(#clip-path)">
          <path id="Trazado_1032727" data-name="Trazado 1032727" d="M564.852,205.415a7.077,7.077,0,1,1-7.077,7.077,7.077,7.077,0,0,1,7.077-7.077" transform="translate(-326.789 -120.348)" fill="#ffb758" fill-rule="evenodd"/>
          <path id="Trazado_1032728" data-name="Trazado 1032728" d="M562.055,228.414a7.112,7.112,0,0,1-2.408-2.686l6.3-3.224Z" transform="translate(-327.885 -130.361)" fill="#fcd8d6" fill-rule="evenodd"/>
          <path id="Trazado_1032729" data-name="Trazado 1032729" d="M558.551,217.844a7.081,7.081,0,0,1,1.94-8.8l4.362,5.573Z" transform="translate(-326.789 -122.476)" fill="#ffeebc" fill-rule="evenodd"/>
          <path id="Trazado_1032730" data-name="Trazado 1032730" d="M564.332,206.919a7.047,7.047,0,0,1,4.362-1.5v7.077Z" transform="translate(-330.63 -120.348)" fill="#ffe2bc" fill-rule="evenodd"/>
          <path id="Trazado_1032731" data-name="Trazado 1032731" d="M574.865,205.415v7.077l5.044-4.964a7.057,7.057,0,0,0-5.044-2.113" transform="translate(-336.801 -120.348)" fill="#ffcc74" fill-rule="evenodd"/>
          <rect id="Rectángulo_459620" data-name="Rectángulo 459620" width="32.474" height="0.831" transform="translate(190.567 100.424)" fill="#ccc"/>
          <rect id="Rectángulo_459621" data-name="Rectángulo 459621" width="5.773" height="17.391" transform="translate(190.567 83.033)" fill="#4c8eb4"/>
          <rect id="Rectángulo_459622" data-name="Rectángulo 459622" width="5.773" height="10.833" transform="translate(197.242 89.591)" fill="#609dc1"/>
          <rect id="Rectángulo_459623" data-name="Rectángulo 459623" width="5.773" height="7.165" transform="translate(203.917 93.259)" fill="#73accd"/>
          <rect id="Rectángulo_459624" data-name="Rectángulo 459624" width="5.773" height="10.524" transform="translate(210.592 89.9)" fill="#87bbda"/>
          <rect id="Rectángulo_459625" data-name="Rectángulo 459625" width="5.773" height="7.525" transform="translate(217.267 92.899)" fill="#9acae6"/>
          <rect id="Rectángulo_459626" data-name="Rectángulo 459626" width="2.913" height="0.831" transform="translate(231.437 100.424)" fill="#ccc"/>
          <rect id="Rectángulo_459627" data-name="Rectángulo 459627" width="8.654" height="0.831" transform="translate(235.7 100.424)" fill="#ccc"/>
          <path id="Trazado_1032732" data-name="Trazado 1032732" d="M583.575,116.634h9.605l-9.605-9.605Z" transform="translate(-341.904 -62.706)" fill="#ccc" fill-rule="evenodd"/>
          <rect id="Rectángulo_459628" data-name="Rectángulo 459628" width="11.511" height="3.513" transform="translate(190.567 109.616)" fill="#ffb758"/>
          <rect id="Rectángulo_459629" data-name="Rectángulo 459629" width="11.511" height="3.513" transform="translate(204.961 109.616)" fill="#9acae6"/>
          <rect id="Rectángulo_459630" data-name="Rectángulo 459630" width="11.511" height="3.513" transform="translate(219.276 109.616)" fill="#609dc1"/>
          <rect id="Rectángulo_459631" data-name="Rectángulo 459631" width="11.511" height="3.513" transform="translate(233.63 109.616)" fill="#9acae6"/>
          <rect id="Rectángulo_459632" data-name="Rectángulo 459632" width="11.511" height="3.513" transform="translate(190.567 115.524)" fill="#ffcc74"/>
          <rect id="Rectángulo_459633" data-name="Rectángulo 459633" width="11.511" height="3.513" transform="translate(190.567 121.432)" fill="#ffe2bc"/>
          <rect id="Rectángulo_459634" data-name="Rectángulo 459634" width="11.511" height="3.513" transform="translate(190.567 127.341)" fill="#fcd8d6"/>
          <rect id="Rectángulo_459635" data-name="Rectángulo 459635" width="11.511" height="3.513" transform="translate(219.276 115.524)" fill="#609dc1"/>
          <rect id="Rectángulo_459636" data-name="Rectángulo 459636" width="11.511" height="3.513" transform="translate(233.63 115.524)" fill="#9acae6"/>
          <rect id="Rectángulo_459637" data-name="Rectángulo 459637" width="11.511" height="3.513" transform="translate(233.63 121.432)" fill="#9acae6"/>
          <path id="Trazado_1032733" data-name="Trazado 1032733" d="M106.752,255.184h143.71a5.356,5.356,0,0,1,5.341,5.34v90.79a5.356,5.356,0,0,1-5.341,5.34H106.752a5.356,5.356,0,0,1-5.341-5.34v-90.79a5.356,5.356,0,0,1,5.341-5.34" transform="translate(-59.415 -149.507)" fill="gray" fill-rule="evenodd"/>
          <rect id="Rectángulo_459638" data-name="Rectángulo 459638" width="138.37" height="74.282" transform="translate(50.007 116.272)" fill="#fff"/>
          <rect id="Rectángulo_459639" data-name="Rectángulo 459639" width="6.565" height="6.565" transform="translate(115.909 195.179)" fill="#ccc"/>
          <path id="Trazado_1032734" data-name="Trazado 1032734" d="M63.474,500.211H217.865l26.815,17.576H36.658Z" transform="translate(-21.477 -293.063)" fill="gray" fill-rule="evenodd"/>
          <path id="Trazado_1032735" data-name="Trazado 1032735" d="M36.658,542.655H244.68v5.989a3.871,3.871,0,0,1-3.86,3.859H40.518a3.871,3.871,0,0,1-3.86-3.859Z" transform="translate(-21.477 -317.93)" fill="#4d4d4d" fill-rule="evenodd"/>
          <rect id="Rectángulo_459640" data-name="Rectángulo 459640" width="42.019" height="2.679" transform="translate(98.182 229.828)" fill="gray"/>
          <rect id="Rectángulo_459641" data-name="Rectángulo 459641" width="208.022" height="2.994" transform="translate(15.181 224.725)" fill="#666"/>
          <path id="Trazado_1032736" data-name="Trazado 1032736" d="M212.312,517.359v-3.72l26.763-.056c.933.615,1.848,1.228,2.781,1.84s1.847,1.227,2.782,1.839l-32.326.1m0-5.258V508.39H214.2c.72.618,1.449,1.227,2.179,1.852.71.609,1.439,1.233,2.139,1.85Zm0-5.15v-.171l.2.171Zm0-3.544q1.07.851,2.139,1.7c.778.615,1.537,1.231,2.3,1.846h12.331c-.914-.614-1.831-1.223-2.762-1.841s-1.848-1.226-2.781-1.842l-11.223-.013Zm6.243,4.979q6.331,0,12.681-.007c.914.614,1.851,1.225,2.781,1.842s1.848,1.225,2.762,1.839l-13.576.024c-.778-.618-1.552-1.236-2.314-1.846s-1.576-1.235-2.334-1.851M85,513.905l15.91-.033,44.462-.094c-.1.632-.185,1.263-.272,1.893s-.195,1.261-.272,1.891l-47.36.142L85,517.741Zm127.317-10.652v.154l-.195-.154Zm0,3.527c-.639-.56-1.292-1.12-1.945-1.68-.719-.615-1.459-1.234-2.178-1.852l-11.4-.015c.583.621,1.142,1.247,1.712,1.862s1.148,1.238,1.711,1.858c4.02,0,8.059,0,12.1,0Zm0,1.61V512.1l-7.352.012c-.564-.618-1.122-1.242-1.692-1.857s-1.167-1.24-1.712-1.86l10.756-.006m0,5.249v3.72l-5.057.015-37.362.112c-.175-.626-.33-1.252-.506-1.878s-.331-1.251-.486-1.879l35.067-.074ZM85,512.314v-3.85l10.095-.005c-.72.642-1.42,1.284-2.12,1.924s-1.381,1.28-2.1,1.922Zm0-5.349v-.445c.651-.493,1.31-.986,1.964-1.483.841-.639,1.693-1.288,2.548-1.934l11.4.015-2.1,1.923c-.7.641-1.42,1.281-2.1,1.922l-11.709,0m0-3.451.584-.415H85Zm65.156,10.255,13.945-.029c.1.629.214,1.256.331,1.882s.233,1.254.35,1.881l-14.84.044c.039-.628.068-1.258.1-1.888s.078-1.258.117-1.889m-50.705-5.313,12.661-.006c-.506.638-1,1.272-1.5,1.913s-.991,1.275-1.5,1.912l-13.576.023c.661-.641,1.308-1.276,1.964-1.92s1.284-1.28,1.945-1.922m17-.011q6.33,0,12.681-.005c-.311.634-.6,1.269-.895,1.9s-.583,1.266-.875,1.9q-6.8.014-13.576.024c.448-.638.9-1.27,1.343-1.908s.875-1.275,1.322-1.913m17.038-.009,12.642-.007c-.1.632-.185,1.261-.272,1.894s-.175,1.261-.272,1.89l-13.557.022c.253-.633.5-1.263.739-1.9s.467-1.266.72-1.9m17.018-.01,12.642-.007c.1.629.214,1.256.33,1.883s.234,1.253.33,1.88l-13.556.022c.058-.629.107-1.259.136-1.888s.058-1.259.117-1.891m17-.01,12.681-.006c.292.624.623,1.249.934,1.871s.642,1.247.953,1.87l-13.576.023c-.156-.627-.322-1.254-.487-1.877s-.35-1.254-.506-1.882m17.018-.009,12.662-.007c.506.622,1.03,1.242,1.556,1.863s1.051,1.238,1.556,1.859l-13.576.022c-.35-.622-.732-1.249-1.089-1.867s-.758-1.247-1.109-1.87m-79.685-5.284,11.417.013c-.506.639-1.011,1.277-1.5,1.914s-1.011,1.274-1.5,1.911l-12.311,0c.642-.641,1.3-1.28,1.945-1.919s1.283-1.283,1.945-1.923m15.327.018,11.4.014-.875,1.9c-.292.634-.6,1.266-.875,1.9H117.5c.427-.636.874-1.273,1.323-1.909s.875-1.272,1.342-1.911m15.326.019,11.4.013c-.1.633-.185,1.263-.272,1.894s-.195,1.26-.272,1.891l-12.292,0c.233-.634.487-1.266.72-1.9s.486-1.268.72-1.9m15.326.019,11.4.013c.117.629.224,1.259.331,1.883s.234,1.254.33,1.88c-4.1,0-8.188,0-12.292,0q.058-.946.117-1.89c.039-.628.078-1.26.116-1.89m15.327.017,11.4.015c.33.626.634,1.253.953,1.873s.622,1.247.953,1.87H167.111c-.155-.626-.321-1.25-.486-1.877s-.331-1.254-.486-1.882m15.326.02,11.4.013c.526.623,1.045,1.247,1.556,1.862s1.051,1.24,1.556,1.862H183.663l-1.109-1.867c-.366-.616-.72-1.247-1.089-1.871M77.692,513.92l7.3-.015v3.836l-7.3.022ZM85,503.1v.415c-.712.508-1.413,1.017-2.12,1.521-.91.648-1.828,1.288-2.7,1.932h-2.48v-3.877l7.3.009m0,3.421q-.293.222-.583.445H85Zm0,1.944v3.85l-7.3.012v-.285c.731-.547,1.463-1.093,2.188-1.644.841-.639,1.692-1.289,2.548-1.932Zm-7.3.273.379-.268h-.379Zm-21.21,5.227,21.21-.043v3.842l-27.55.081c1.07-.646,2.12-1.292,3.17-1.939s2.1-1.293,3.17-1.941m21.21-10.874v3.877q-4.915,0-9.812,0c1.03-.646,2.1-1.293,3.15-1.939s2.1-1.295,3.171-1.943Zm0,5.379v.268c-.784.555-1.56,1.107-2.344,1.665-.9.64-1.789,1.289-2.7,1.932q-6.8.013-13.556.022c1.07-.647,2.12-1.293,3.171-1.94s2.1-1.294,3.171-1.942l12.263-.006m0,3.573-.379.285h.379Z" transform="translate(-29.377 -294.746)" fill="#ccc" fill-rule="evenodd"/>
          <rect id="Rectángulo_459642" data-name="Rectángulo 459642" width="138.37" height="12.909" transform="translate(50.007 14.352)" fill="#fff"/>
          <rect id="Rectángulo_459643" data-name="Rectángulo 459643" width="136.498" height="2.787" transform="translate(50.007 24.473)" fill="#ffcd61"/>
          <rect id="Rectángulo_459644" data-name="Rectángulo 459644" width="1.46" height="8.922" transform="translate(50.007 18.339)" fill="#ffcd61"/>
          <rect id="Rectángulo_459645" data-name="Rectángulo 459645" width="0.526" height="6.434" transform="translate(53.328 20.827)" fill="#ffcd61"/>
          <rect id="Rectángulo_459646" data-name="Rectángulo 459646" width="0.527" height="6.434" transform="translate(55.873 20.827)" fill="#ffcd61"/>
          <rect id="Rectángulo_459647" data-name="Rectángulo 459647" width="0.526" height="6.434" transform="translate(58.419 20.827)" fill="#ffcd61"/>
          <rect id="Rectángulo_459648" data-name="Rectángulo 459648" width="0.527" height="6.434" transform="translate(60.964 20.827)" fill="#ffcd61"/>
          <rect id="Rectángulo_459649" data-name="Rectángulo 459649" width="1.459" height="8.922" transform="translate(63.511 18.339)" fill="#ffcd61"/>
          <rect id="Rectángulo_459650" data-name="Rectángulo 459650" width="0.527" height="6.434" transform="translate(66.831 20.827)" fill="#ffcd61"/>
          <rect id="Rectángulo_459651" data-name="Rectángulo 459651" width="0.526" height="6.434" transform="translate(69.377 20.827)" fill="#ffcd61"/>
          <rect id="Rectángulo_459652" data-name="Rectángulo 459652" width="0.526" height="6.434" transform="translate(71.923 20.827)" fill="#ffcd61"/>
          <rect id="Rectángulo_459653" data-name="Rectángulo 459653" width="0.527" height="6.434" transform="translate(74.469 20.827)" fill="#ffcd61"/>
          <rect id="Rectángulo_459654" data-name="Rectángulo 459654" width="1.46" height="8.922" transform="translate(77.015 18.339)" fill="#ffcd61"/>
          <rect id="Rectángulo_459655" data-name="Rectángulo 459655" width="0.526" height="6.434" transform="translate(80.335 20.827)" fill="#ffcd61"/>
          <rect id="Rectángulo_459656" data-name="Rectángulo 459656" width="0.526" height="6.434" transform="translate(82.881 20.827)" fill="#ffcd61"/>
          <rect id="Rectángulo_459657" data-name="Rectángulo 459657" width="0.526" height="6.434" transform="translate(85.427 20.827)" fill="#ffcd61"/>
          <rect id="Rectángulo_459658" data-name="Rectángulo 459658" width="0.526" height="6.434" transform="translate(87.973 20.827)" fill="#ffcd61"/>
          <rect id="Rectángulo_459659" data-name="Rectángulo 459659" width="1.459" height="8.922" transform="translate(90.519 18.339)" fill="#ffcd61"/>
          <rect id="Rectángulo_459660" data-name="Rectángulo 459660" width="0.527" height="6.434" transform="translate(93.839 20.827)" fill="#ffcd61"/>
          <rect id="Rectángulo_459661" data-name="Rectángulo 459661" width="0.527" height="6.434" transform="translate(96.385 20.827)" fill="#ffcd61"/>
          <rect id="Rectángulo_459662" data-name="Rectángulo 459662" width="0.526" height="6.434" transform="translate(98.931 20.827)" fill="#ffcd61"/>
          <rect id="Rectángulo_459663" data-name="Rectángulo 459663" width="0.526" height="6.434" transform="translate(101.477 20.827)" fill="#ffcd61"/>
          <rect id="Rectángulo_459664" data-name="Rectángulo 459664" width="1.46" height="8.922" transform="translate(104.022 18.339)" fill="#ffcd61"/>
          <rect id="Rectángulo_459665" data-name="Rectángulo 459665" width="0.527" height="6.434" transform="translate(107.343 20.827)" fill="#ffcd61"/>
          <rect id="Rectángulo_459666" data-name="Rectángulo 459666" width="0.527" height="6.434" transform="translate(109.888 20.827)" fill="#ffcd61"/>
          <rect id="Rectángulo_459667" data-name="Rectángulo 459667" width="0.526" height="6.434" transform="translate(112.434 20.827)" fill="#ffcd61"/>
          <rect id="Rectángulo_459668" data-name="Rectángulo 459668" width="0.526" height="6.434" transform="translate(114.98 20.827)" fill="#ffcd61"/>
          <rect id="Rectángulo_459669" data-name="Rectángulo 459669" width="1.459" height="8.922" transform="translate(117.526 18.339)" fill="#ffcd61"/>
          <rect id="Rectángulo_459670" data-name="Rectángulo 459670" width="0.527" height="6.434" transform="translate(120.846 20.827)" fill="#ffcd61"/>
          <rect id="Rectángulo_459671" data-name="Rectángulo 459671" width="0.526" height="6.434" transform="translate(123.392 20.827)" fill="#ffcd61"/>
          <rect id="Rectángulo_459672" data-name="Rectángulo 459672" width="0.526" height="6.434" transform="translate(125.938 20.827)" fill="#ffcd61"/>
          <rect id="Rectángulo_459673" data-name="Rectángulo 459673" width="0.526" height="6.434" transform="translate(128.484 20.827)" fill="#ffcd61"/>
          <rect id="Rectángulo_459674" data-name="Rectángulo 459674" width="1.46" height="8.922" transform="translate(131.03 18.339)" fill="#ffcd61"/>
          <rect id="Rectángulo_459675" data-name="Rectángulo 459675" width="0.526" height="6.434" transform="translate(134.35 20.827)" fill="#ffcd61"/>
          <rect id="Rectángulo_459676" data-name="Rectángulo 459676" width="0.527" height="6.434" transform="translate(136.896 20.827)" fill="#ffcd61"/>
          <rect id="Rectángulo_459677" data-name="Rectángulo 459677" width="0.526" height="6.434" transform="translate(139.442 20.827)" fill="#ffcd61"/>
          <rect id="Rectángulo_459678" data-name="Rectángulo 459678" width="0.526" height="6.434" transform="translate(141.988 20.827)" fill="#ffcd61"/>
          <rect id="Rectángulo_459679" data-name="Rectángulo 459679" width="1.459" height="8.922" transform="translate(144.534 18.339)" fill="#ffcd61"/>
          <rect id="Rectángulo_459680" data-name="Rectángulo 459680" width="0.527" height="6.434" transform="translate(147.854 20.827)" fill="#ffcd61"/>
          <rect id="Rectángulo_459681" data-name="Rectángulo 459681" width="0.526" height="6.434" transform="translate(150.4 20.827)" fill="#ffcd61"/>
          <rect id="Rectángulo_459682" data-name="Rectángulo 459682" width="0.526" height="6.434" transform="translate(152.946 20.827)" fill="#ffcd61"/>
          <rect id="Rectángulo_459683" data-name="Rectángulo 459683" width="0.526" height="6.434" transform="translate(155.491 20.827)" fill="#ffcd61"/>
          <rect id="Rectángulo_459684" data-name="Rectángulo 459684" width="1.459" height="8.922" transform="translate(158.037 18.339)" fill="#ffcd61"/>
          <rect id="Rectángulo_459685" data-name="Rectángulo 459685" width="0.526" height="6.434" transform="translate(161.358 20.827)" fill="#ffcd61"/>
          <rect id="Rectángulo_459686" data-name="Rectángulo 459686" width="0.527" height="6.434" transform="translate(163.904 20.827)" fill="#ffcd61"/>
          <rect id="Rectángulo_459687" data-name="Rectángulo 459687" width="0.526" height="6.434" transform="translate(166.449 20.827)" fill="#ffcd61"/>
          <rect id="Rectángulo_459688" data-name="Rectángulo 459688" width="0.526" height="6.434" transform="translate(168.995 20.827)" fill="#ffcd61"/>
          <rect id="Rectángulo_459689" data-name="Rectángulo 459689" width="1.459" height="8.922" transform="translate(171.541 18.339)" fill="#ffcd61"/>
          <rect id="Rectángulo_459690" data-name="Rectángulo 459690" width="0.526" height="6.434" transform="translate(174.862 20.827)" fill="#ffcd61"/>
          <rect id="Rectángulo_459691" data-name="Rectángulo 459691" width="0.526" height="6.434" transform="translate(177.407 20.827)" fill="#ffcd61"/>
          <rect id="Rectángulo_459692" data-name="Rectángulo 459692" width="0.526" height="6.434" transform="translate(179.953 20.827)" fill="#ffcd61"/>
          <rect id="Rectángulo_459693" data-name="Rectángulo 459693" width="0.526" height="6.434" transform="translate(182.499 20.827)" fill="#ffcd61"/>
          <rect id="Rectángulo_459694" data-name="Rectángulo 459694" width="1.459" height="8.922" transform="translate(185.045 18.339)" fill="#ffcd61"/>
          <path id="Trazado_1032737" data-name="Trazado 1032737" d="M44.324,329.127l7.325.047-.137,47.5-7.325-.047Z" transform="translate(-25.888 -192.829)" fill="#fff" fill-rule="evenodd"/>
          <path id="Trazado_1032738" data-name="Trazado 1032738" d="M47.777,334.3l-.125,43.238,4.467.028.125-43.238Z" transform="translate(-27.918 -195.857)" fill="#87bbda" fill-rule="evenodd"/>
          <path id="Trazado_1032739" data-name="Trazado 1032739" d="M45.5,300.3a8.87,8.87,0,1,1-9.248-.04l-.023,5.016-.01,2.669,2.305,1.345,2.307,1.345,2.318-1.326,2.317-1.324.012-2.67Z" transform="translate(-18.732 -175.915)" fill="#fff" fill-rule="evenodd"/>
          <path id="Trazado_1032740" data-name="Trazado 1032740" d="M45.044,445.672a8.87,8.87,0,1,0-9.248-.04l.022-5.016.012-2.669,2.317-1.325,2.318-1.326,2.307,1.345,2.305,1.346-.01,2.67Z" transform="translate(-18.504 -251.467)" fill="#fff" fill-rule="evenodd"/>
          <path id="Trazado_1032741" data-name="Trazado 1032741" d="M48.51,444.458a7.441,7.441,0,1,0-12.108-.052l.023-5.269,6.069-3.469,6.038,3.52Z" transform="translate(-20.526 -253.488)" fill="#87bbda" fill-rule="evenodd"/>
          <path id="Trazado_1032742" data-name="Trazado 1032742" d="M36.829,307.9a7.44,7.44,0,1,0,12.107.052l-.023,5.27-6.068,3.469-6.038-3.521Z" transform="translate(-20.754 -180.393)" fill="#87bbda" fill-rule="evenodd"/>
          <path id="Trazado_1032743" data-name="Trazado 1032743" d="M506.884,308l-3.371-7.649L500.141,308v60.334a1.845,1.845,0,0,0,1.839,1.84h3.065a1.845,1.845,0,0,0,1.839-1.84Z" transform="translate(-293.022 -175.971)" fill="#ffeec9" fill-rule="evenodd"/>
          <path id="Trazado_1032744" data-name="Trazado 1032744" d="M511.655,308l-3.372-7.649,1.463,7.955v61.868h.07a1.844,1.844,0,0,0,1.839-1.839Z" transform="translate(-297.792 -175.971)" fill="#ffcd61" fill-rule="evenodd"/>
          <path id="Trazado_1032745" data-name="Trazado 1032745" d="M506.885,308l-3.371-7.649L500.142,308v57.626a19.315,19.315,0,0,0,6.743,0Z" transform="translate(-293.023 -175.971)" fill="#c0f7fc" fill-rule="evenodd"/>
          <path id="Trazado_1032746" data-name="Trazado 1032746" d="M511.655,308l-3.372-7.649,1.463,7.955v57.616a6.018,6.018,0,0,0,1.909-.3Z" transform="translate(-297.792 -175.971)" fill="#a2edf4" fill-rule="evenodd"/>
          <path id="Trazado_1032747" data-name="Trazado 1032747" d="M506.885,308l-3.371-7.649L500.142,308v55.475a18.091,18.091,0,0,0,6.743,0Z" transform="translate(-293.023 -175.971)" fill="#87bbda" fill-rule="evenodd"/>
          <path id="Trazado_1032748" data-name="Trazado 1032748" d="M511.671,308.677l-3.345-7.589,1.663,7.6v55.248c1.148,0,.6.19,1.682-.021Z" transform="translate(-297.817 -176.401)" fill="#4c8eb4" fill-rule="evenodd"/>
          <path id="Trazado_1032749" data-name="Trazado 1032749" d="M506.885,308l-3.371-7.649L500.143,308a18.745,18.745,0,0,0,6.742,0" transform="translate(-293.023 -175.971)" fill="#fff" fill-rule="evenodd"/>
          <path id="Trazado_1032750" data-name="Trazado 1032750" d="M511.654,308l-3.371-7.649,1.693,7.955c1.17,0,.608-.107,1.678-.306" transform="translate(-297.792 -175.971)" fill="#ccc" fill-rule="evenodd"/>
          <path id="Trazado_1032751" data-name="Trazado 1032751" d="M507.822,302.881l-1.114-2.527-1.114,2.527a6.19,6.19,0,0,0,2.227,0" transform="translate(-296.217 -175.971)" fill="#4d4d4d" fill-rule="evenodd"/>
          <rect id="Rectángulo_459695" data-name="Rectángulo 459695" width="39.659" height="14.059" transform="translate(16.274 30.491)" fill="#609dc1"/>
          <path id="Trazado_1032752" data-name="Trazado 1032752" d="M60.246,87.546h-2.26v2.587h-1.21v-6.18h1.21v2.516h2.26V83.952h1.21v6.18h-1.21Z" transform="translate(-33.264 -49.186)" fill="#fff"/>
          <path id="Trazado_1032753" data-name="Trazado 1032753" d="M74.431,85.029h-1.8v5.1H71.421v-5.1h-1.81V83.952h4.821Z" transform="translate(-40.783 -49.186)" fill="#fff"/>
          <path id="Trazado_1032754" data-name="Trazado 1032754" d="M87.559,86.928l.133-1.227h-.053l-.38.989-1.315,2.3h-.389L84.169,86.68l-.388-.98h-.044l.176,1.218v3.214H82.765v-6.18h1.1l1.651,2.825.292.706h.035l.265-.724,1.562-2.808h1.095v6.18h-1.21Z" transform="translate(-48.49 -49.186)" fill="#fff"/>
          <path id="Trazado_1032755" data-name="Trazado 1032755" d="M103.732,90.133H99.821v-6.18h1.21v5.1h2.7Z" transform="translate(-58.483 -49.186)" fill="#fff"/>
          <path id="Trazado_1032756" data-name="Trazado 1032756" d="M112.292,89.241a1.277,1.277,0,0,0,.892-.282,1,1,0,0,0,.309-.777.876.876,0,0,0-.362-.777,1.827,1.827,0,0,0-1.033-.247l-.7.027V83.953h3.037V85.03h-2.049v1.192l.362-.035a2.318,2.318,0,0,1,.781.159,1.747,1.747,0,0,1,.6.393,1.7,1.7,0,0,1,.379.609,2.288,2.288,0,0,1,.133.8,2.245,2.245,0,0,1-.177.919,1.83,1.83,0,0,1-.489.662,2.1,2.1,0,0,1-.738.4,3.1,3.1,0,0,1-.927.133,4.16,4.16,0,0,1-.755-.066,2.546,2.546,0,0,1-.6-.181l.309-.954a2.158,2.158,0,0,0,.446.137,3.05,3.05,0,0,0,.587.048" transform="translate(-65.003 -49.186)" fill="#fff"/>
          <rect id="Rectángulo_459696" data-name="Rectángulo 459696" width="28.494" height="14.059" transform="translate(227.566 146.912)" fill="#666"/>
          <path id="Trazado_1032757" data-name="Trazado 1032757" d="M567.169,370.832a1.845,1.845,0,0,1-.719.289,4.556,4.556,0,0,1-.9.088,3.213,3.213,0,0,1-1.055-.172,2.246,2.246,0,0,1-.878-.556,2.734,2.734,0,0,1-.6-1A4.33,4.33,0,0,1,562.79,368a4.032,4.032,0,0,1,.251-1.523,2.764,2.764,0,0,1,.653-.989,2.422,2.422,0,0,1,.9-.539,3.149,3.149,0,0,1,.989-.163,4.819,4.819,0,0,1,.9.07,3.289,3.289,0,0,1,.6.168l-.238,1.024a1.753,1.753,0,0,0-.481-.141,4.39,4.39,0,0,0-.675-.044,1.472,1.472,0,0,0-1.179.522,2.454,2.454,0,0,0-.446,1.619,3.36,3.36,0,0,0,.106.872,1.886,1.886,0,0,0,.322.672,1.493,1.493,0,0,0,.539.434,1.7,1.7,0,0,0,.746.154,2.438,2.438,0,0,0,.671-.079,1.977,1.977,0,0,0,.477-.2Z" transform="translate(-329.727 -213.718)" fill="#fff"/>
          <path id="Trazado_1032758" data-name="Trazado 1032758" d="M577.43,369.426a.574.574,0,0,0-.207-.459,2.291,2.291,0,0,0-.521-.323q-.314-.145-.68-.3a3.463,3.463,0,0,1-.68-.379,1.933,1.933,0,0,1-.521-.561,1.6,1.6,0,0,1-.208-.856,1.871,1.871,0,0,1,.15-.781,1.461,1.461,0,0,1,.428-.552,1.838,1.838,0,0,1,.658-.326,3.141,3.141,0,0,1,.847-.106,5.287,5.287,0,0,1,1.015.093,2.579,2.579,0,0,1,.786.269l-.379,1.015a2.134,2.134,0,0,0-.583-.225,3.3,3.3,0,0,0-.839-.1,1.073,1.073,0,0,0-.649.168.533.533,0,0,0-.225.45.555.555,0,0,0,.207.441,2.366,2.366,0,0,0,.521.327q.313.15.68.309a3.674,3.674,0,0,1,.68.384,1.954,1.954,0,0,1,.521.556,1.531,1.531,0,0,1,.208.825,2.033,2.033,0,0,1-.164.852,1.617,1.617,0,0,1-.459.6,1.939,1.939,0,0,1-.716.353,3.48,3.48,0,0,1-.922.115,4.916,4.916,0,0,1-1.166-.124,3.58,3.58,0,0,1-.742-.247l.389-1.033a2.206,2.206,0,0,0,.251.115,3.175,3.175,0,0,0,.349.115,4.063,4.063,0,0,0,.41.088,2.749,2.749,0,0,0,.446.036,1.552,1.552,0,0,0,.826-.181.607.607,0,0,0,.287-.552" transform="translate(-336.571 -213.718)" fill="#fff"/>
          <path id="Trazado_1032759" data-name="Trazado 1032759" d="M588.729,369.426a.574.574,0,0,0-.207-.459,2.292,2.292,0,0,0-.521-.323q-.314-.145-.68-.3a3.466,3.466,0,0,1-.68-.379,1.935,1.935,0,0,1-.521-.561,1.6,1.6,0,0,1-.208-.856,1.87,1.87,0,0,1,.15-.781,1.461,1.461,0,0,1,.428-.552,1.839,1.839,0,0,1,.658-.326,3.142,3.142,0,0,1,.847-.106,5.289,5.289,0,0,1,1.015.093,2.58,2.58,0,0,1,.786.269l-.379,1.015a2.138,2.138,0,0,0-.583-.225,3.3,3.3,0,0,0-.839-.1,1.073,1.073,0,0,0-.649.168.533.533,0,0,0-.225.45.555.555,0,0,0,.208.441,2.365,2.365,0,0,0,.521.327q.313.15.68.309a3.675,3.675,0,0,1,.68.384,1.952,1.952,0,0,1,.521.556,1.53,1.53,0,0,1,.208.825,2.034,2.034,0,0,1-.164.852,1.616,1.616,0,0,1-.459.6,1.939,1.939,0,0,1-.716.353,3.481,3.481,0,0,1-.922.115,4.915,4.915,0,0,1-1.166-.124,3.581,3.581,0,0,1-.742-.247l.389-1.033a2.2,2.2,0,0,0,.251.115,3.178,3.178,0,0,0,.349.115,4.057,4.057,0,0,0,.41.088,2.749,2.749,0,0,0,.446.036,1.552,1.552,0,0,0,.826-.181.607.607,0,0,0,.287-.552" transform="translate(-343.191 -213.718)" fill="#fff"/>
          <path id="Trazado_1032760" data-name="Trazado 1032760" d="M599.6,370.413a1.12,1.12,0,0,0,.834-.291.969.969,0,0,0,.287-.707.89.89,0,0,0-.3-.742,1.518,1.518,0,0,0-.945-.238h-.636v-.609l1.068-1.457.5-.4-.7.08h-1.483v-.972H601.6v.627l-1.245,1.668-.388.239v.044l.371-.053a1.976,1.976,0,0,1,.587.141,1.422,1.422,0,0,1,.486.331,1.613,1.613,0,0,1,.331.534,2.012,2.012,0,0,1,.123.733,2.158,2.158,0,0,1-.172.9,1.777,1.777,0,0,1-.477.636,1.983,1.983,0,0,1-.711.38,2.986,2.986,0,0,1-.874.124,4.81,4.81,0,0,1-.8-.071,2.35,2.35,0,0,1-.671-.2l.309-.954a2.461,2.461,0,0,0,1.13.256" transform="translate(-350.447 -213.893)" fill="#fff"/>
          <path id="Trazado_1032761" data-name="Trazado 1032761" d="M120.427,5.323V4.7l3.408-2.04.5.795L122.36,4.687l-.8.309.794.274,2.031,1.21-.5.795Z" transform="translate(-70.556 -1.562)" fill="#4d6e8e"/>
          <path id="Trazado_1032762" data-name="Trazado 1032762" d="M130.916,2.863h.609v-.83l1.148-.327V2.863h1.077v.971h-1.077V5.529a1.675,1.675,0,0,0,.093.658.348.348,0,0,0,.349.2,1.152,1.152,0,0,0,.3-.035,2.126,2.126,0,0,0,.287-.106l.2.882a2.919,2.919,0,0,1-.556.194,2.649,2.649,0,0,1-.645.08,1.159,1.159,0,0,1-.9-.313,1.5,1.5,0,0,1-.287-1.028V3.834h-.609Z" transform="translate(-76.701 -1)" fill="#4d6e8e"/>
          <path id="Trazado_1032763" data-name="Trazado 1032763" d="M139.295.618a.582.582,0,0,1,.19-.437A.732.732,0,0,1,140.01,0a.8.8,0,0,1,.543.181.562.562,0,0,1,.207.437.536.536,0,0,1-.207.428.823.823,0,0,1-.543.172.755.755,0,0,1-.526-.172.554.554,0,0,1-.19-.428m.168,1.245h1.148V6.278h-1.148Z" transform="translate(-81.61 0)" fill="#4d6e8e"/>
          <path id="Trazado_1032764" data-name="Trazado 1032764" d="M144.092,2.863h.609v-.83l1.148-.327V2.863h1.077v.971h-1.077V5.529a1.674,1.674,0,0,0,.093.658.348.348,0,0,0,.349.2,1.151,1.151,0,0,0,.3-.035,2.125,2.125,0,0,0,.287-.106l.2.882a2.919,2.919,0,0,1-.556.194,2.649,2.649,0,0,1-.645.08,1.159,1.159,0,0,1-.9-.313,1.5,1.5,0,0,1-.287-1.028V3.834h-.609Z" transform="translate(-84.42 -1)" fill="#4d6e8e"/>
          <path id="Trazado_1032765" data-name="Trazado 1032765" d="M153.875,4.932a.959.959,0,0,0,.079.45.272.272,0,0,0,.256.141,1.231,1.231,0,0,0,.207-.017,1.294,1.294,0,0,0,.252-.08l.123.9a2.146,2.146,0,0,1-.433.141,2.531,2.531,0,0,1-.6.071,1.126,1.126,0,0,1-.768-.234.984.984,0,0,1-.265-.772V.235h1.148Z" transform="translate(-89.48 -0.138)" fill="#4d6e8e"/>
          <path id="Trazado_1032766" data-name="Trazado 1032766" d="M162.141,8.359a2.257,2.257,0,0,1-.719.358,3.16,3.16,0,0,1-.967.145,1.876,1.876,0,0,1-1.563-.622,2.676,2.676,0,0,1-.494-1.708,2.445,2.445,0,0,1,.557-1.748,2.057,2.057,0,0,1,1.562-.582,2.431,2.431,0,0,1,.653.088,1.525,1.525,0,0,1,.565.291,1.436,1.436,0,0,1,.4.547,2.144,2.144,0,0,1,.15.856,3.9,3.9,0,0,1-.022.4q-.022.212-.066.441h-2.649a1.3,1.3,0,0,0,.287.839,1.1,1.1,0,0,0,.843.282,1.878,1.878,0,0,0,1.086-.335ZM160.5,5.119a.8.8,0,0,0-.666.269,1.329,1.329,0,0,0-.26.72h1.642a1.115,1.115,0,0,0-.146-.733.649.649,0,0,0-.569-.256" transform="translate(-92.801 -2.461)" fill="#4d6e8e"/>
          <path id="Trazado_1032767" data-name="Trazado 1032767" d="M173.31,4.617v.618L169.9,7.274l-.5-.8,1.977-1.218.8-.318-.794-.265-2.031-1.218.5-.786Z" transform="translate(-99.221 -1.562)" fill="#4d6e8e"/>
          <path id="Trazado_1032768" data-name="Trazado 1032768" d="M389.841,81.814V81.2l3.408-2.04.5.795-1.977,1.227-.8.309.794.274,2.031,1.21-.5.795Z" transform="translate(-228.4 -46.376)" fill="#4d6e8e"/>
          <path id="Trazado_1032769" data-name="Trazado 1032769" d="M402.673,81.423a.96.96,0,0,0,.079.45.273.273,0,0,0,.257.141,1.229,1.229,0,0,0,.207-.017,1.285,1.285,0,0,0,.252-.08l.123.9a2.141,2.141,0,0,1-.432.141,2.537,2.537,0,0,1-.6.071,1.127,1.127,0,0,1-.769-.234.984.984,0,0,1-.265-.772v-5.3h1.148Z" transform="translate(-235.245 -44.952)" fill="#4d6e8e"/>
          <path id="Trazado_1032770" data-name="Trazado 1032770" d="M407.256,81.121a3.772,3.772,0,0,1,.839-.251,5.372,5.372,0,0,1,1.015-.093,2.314,2.314,0,0,1,.768.11,1.106,1.106,0,0,1,.746.8,2.474,2.474,0,0,1,.075.636q0,.388-.026.781t-.031.773q0,.38.022.737a2.752,2.752,0,0,0,.132.675h-.936l-.185-.609h-.044a1.572,1.572,0,0,1-.49.473,1.486,1.486,0,0,1-.808.2,1.578,1.578,0,0,1-.556-.092,1.19,1.19,0,0,1-.7-.671,1.351,1.351,0,0,1-.1-.525,1.225,1.225,0,0,1,.181-.684,1.309,1.309,0,0,1,.521-.451,2.576,2.576,0,0,1,.812-.238,5.723,5.723,0,0,1,1.055-.04,1.143,1.143,0,0,0-.071-.711c-.088-.145-.285-.217-.591-.217a4.055,4.055,0,0,0-.728.07,2.692,2.692,0,0,0-.631.186Zm1.457,3.284a.882.882,0,0,0,.547-.154,1.088,1.088,0,0,0,.3-.331v-.574a3.165,3.165,0,0,0-.526-.009,1.943,1.943,0,0,0-.446.08.753.753,0,0,0-.309.177.4.4,0,0,0-.115.291.5.5,0,0,0,.146.384.564.564,0,0,0,.4.137" transform="translate(-238.442 -47.326)" fill="#4d6e8e"/>
          <path id="Trazado_1032771" data-name="Trazado 1032771" d="M418.282,76.726h1.148v2.119h.036a1.283,1.283,0,0,1,.477-.335,1.632,1.632,0,0,1,.644-.123,1.441,1.441,0,0,1,1.214.543,2.693,2.693,0,0,1,.419,1.655,2.533,2.533,0,0,1-.587,1.81,2.116,2.116,0,0,1-1.611.618,5.334,5.334,0,0,1-1.033-.093,3.09,3.09,0,0,1-.707-.207Zm1.969,2.631a.784.784,0,0,0-.516.164,1.024,1.024,0,0,0-.3.472v1.925a1.05,1.05,0,0,0,.3.1,2.209,2.209,0,0,0,.349.027.817.817,0,0,0,.711-.34,1.891,1.891,0,0,0,.243-1.081q0-1.263-.786-1.263" transform="translate(-245.062 -44.952)" fill="#4d6e8e"/>
          <path id="Trazado_1032772" data-name="Trazado 1032772" d="M432.941,84.85a2.257,2.257,0,0,1-.719.358,3.16,3.16,0,0,1-.967.145,1.876,1.876,0,0,1-1.563-.622,2.676,2.676,0,0,1-.494-1.708,2.445,2.445,0,0,1,.557-1.748,2.057,2.057,0,0,1,1.562-.582,2.43,2.43,0,0,1,.653.088,1.525,1.525,0,0,1,.565.291,1.436,1.436,0,0,1,.4.547,2.143,2.143,0,0,1,.15.856,3.9,3.9,0,0,1-.022.4q-.022.212-.066.441h-2.649a1.3,1.3,0,0,0,.287.839,1.1,1.1,0,0,0,.843.282,1.878,1.878,0,0,0,1.086-.335ZM431.3,81.61a.8.8,0,0,0-.666.269,1.328,1.328,0,0,0-.26.72h1.642a1.115,1.115,0,0,0-.146-.733.649.649,0,0,0-.569-.256" transform="translate(-251.457 -47.276)" fill="#4d6e8e"/>
          <path id="Trazado_1032773" data-name="Trazado 1032773" d="M441.773,81.423a.959.959,0,0,0,.079.45.272.272,0,0,0,.256.141,1.231,1.231,0,0,0,.207-.017,1.293,1.293,0,0,0,.252-.08l.123.9a2.146,2.146,0,0,1-.433.141,2.531,2.531,0,0,1-.6.071,1.126,1.126,0,0,1-.768-.234.984.984,0,0,1-.265-.772v-5.3h1.148Z" transform="translate(-258.153 -44.952)" fill="#4d6e8e"/>
          <path id="Trazado_1032774" data-name="Trazado 1032774" d="M450.378,81.108v.618l-3.408,2.039-.5-.8,1.977-1.218.8-.318-.794-.265-2.031-1.218.5-.786Z" transform="translate(-261.549 -46.376)" fill="#4d6e8e"/>
          <path id="Trazado_1032775" data-name="Trazado 1032775" d="M34.66,490.277v-.618l3.408-2.04.5.795-1.977,1.227-.8.309.794.274,2.031,1.21-.5.795Z" transform="translate(-20.306 -285.686)" fill="#4d6e8e"/>
          <path id="Trazado_1032776" data-name="Trazado 1032776" d="M49.71,489.816q0,.371.008.742a6.337,6.337,0,0,0,.08.821h-.821l-.159-.574h-.036a1.338,1.338,0,0,1-.508.5,1.547,1.547,0,0,1-.781.19,1.588,1.588,0,0,1-1.289-.548,2.634,2.634,0,0,1-.459-1.712,2.7,2.7,0,0,1,.512-1.757,1.825,1.825,0,0,1,1.5-.627,2.674,2.674,0,0,1,.45.031,1.806,1.806,0,0,1,.353.1v-1.792H49.71Zm-1.951.706a.8.8,0,0,0,.53-.164.879.879,0,0,0,.274-.472v-1.872a.876.876,0,0,0-.274-.145,1.293,1.293,0,0,0-.388-.048.849.849,0,0,0-.728.327,1.937,1.937,0,0,0-.243,1.121,1.811,1.811,0,0,0,.2.909.675.675,0,0,0,.631.344" transform="translate(-26.802 -284.262)" fill="#4d6e8e"/>
          <path id="Trazado_1032777" data-name="Trazado 1032777" d="M57.579,485.573a.581.581,0,0,1,.19-.437.73.73,0,0,1,.525-.181.8.8,0,0,1,.543.181.561.561,0,0,1,.207.437.535.535,0,0,1-.207.428.824.824,0,0,1-.543.172.753.753,0,0,1-.525-.172.553.553,0,0,1-.19-.428m.168,1.245h1.148v4.415H57.747Z" transform="translate(-33.734 -284.125)" fill="#4d6e8e"/>
          <path id="Trazado_1032778" data-name="Trazado 1032778" d="M64.124,491.766l.15.68h.044l.124-.7.75-2.3h1.236l-1.845,4.459h-.7l-1.916-4.459H63.3Z" transform="translate(-36.307 -286.76)" fill="#4d6e8e"/>
          <path id="Trazado_1032779" data-name="Trazado 1032779" d="M77.225,489.571v.618l-3.408,2.04-.5-.8,1.977-1.219.8-.317-.794-.265-2.031-1.218.5-.786Z" transform="translate(-42.927 -285.686)" fill="#4d6e8e"/>
          <path id="Trazado_1032780" data-name="Trazado 1032780" d="M530.529,415.476v-.618l3.408-2.04.5.8-1.977,1.227-.8.309.794.273,2.031,1.21-.5.794Z" transform="translate(-310.826 -241.861)" fill="#4d6e8e"/>
          <path id="Trazado_1032781" data-name="Trazado 1032781" d="M541.146,412.054h.609v-.248a1.732,1.732,0,0,1,.353-1.213,1.338,1.338,0,0,1,1.024-.376,3.521,3.521,0,0,1,1.174.168l-.221.918a1.981,1.981,0,0,0-.358-.093,2.316,2.316,0,0,0-.322-.022.6.6,0,0,0-.278.053.326.326,0,0,0-.15.164.857.857,0,0,0-.062.273c-.009.109-.013.234-.013.375h.971v.971H542.9v3.443h-1.148v-3.443h-.609Z" transform="translate(-317.046 -240.337)" fill="#4d6e8e"/>
          <path id="Trazado_1032782" data-name="Trazado 1032782" d="M548.459,416.684a2.484,2.484,0,0,1,.547-1.726,1.965,1.965,0,0,1,1.536-.605,2.313,2.313,0,0,1,.918.168,1.724,1.724,0,0,1,.644.473,2.02,2.02,0,0,1,.384.737,3.353,3.353,0,0,1,.128.954,2.5,2.5,0,0,1-.543,1.726,1.951,1.951,0,0,1-1.531.6,2.311,2.311,0,0,1-.919-.168,1.756,1.756,0,0,1-.648-.473,1.978,1.978,0,0,1-.389-.737,3.36,3.36,0,0,1-.128-.954m1.183,0a2.558,2.558,0,0,0,.053.539,1.494,1.494,0,0,0,.159.432.757.757,0,0,0,.278.287.792.792,0,0,0,.411.1.755.755,0,0,0,.671-.327,1.888,1.888,0,0,0,.22-1.033,2.065,2.065,0,0,0-.2-.984.719.719,0,0,0-.688-.375.782.782,0,0,0-.663.318,1.766,1.766,0,0,0-.238,1.042" transform="translate(-321.33 -242.761)" fill="#4d6e8e"/>
          <path id="Trazado_1032783" data-name="Trazado 1032783" d="M562.856,415.592a1.5,1.5,0,0,0-.494-.1.809.809,0,0,0-.516.163.788.788,0,0,0-.278.419v2.852h-1.148v-4.415h.892l.133.583h.035a1.2,1.2,0,0,1,.406-.5,1.035,1.035,0,0,1,.6-.176,1.67,1.67,0,0,1,.521.1Z" transform="translate(-328.338 -242.799)" fill="#4d6e8e"/>
          <path id="Trazado_1032784" data-name="Trazado 1032784" d="M570.409,418.892v-2.4a2.324,2.324,0,0,0-.114-.866.469.469,0,0,0-.477-.256.709.709,0,0,0-.486.164,1.034,1.034,0,0,0-.282.419v2.94H567.9v-4.415h.892l.133.583h.035a2.025,2.025,0,0,1,.516-.494,1.415,1.415,0,0,1,.808-.212,1.267,1.267,0,0,1,.693.172,1.111,1.111,0,0,1,.419.579,1.61,1.61,0,0,1,.521-.548,1.4,1.4,0,0,1,.768-.2,1.993,1.993,0,0,1,.631.088.874.874,0,0,1,.424.3,1.479,1.479,0,0,1,.243.579,4.4,4.4,0,0,1,.079.918v2.649h-1.148v-2.481a2.112,2.112,0,0,0-.11-.781.474.474,0,0,0-.49-.26.693.693,0,0,0-.49.168,1.011,1.011,0,0,0-.27.459v2.9Z" transform="translate(-332.722 -242.761)" fill="#4d6e8e"/>
          <path id="Trazado_1032785" data-name="Trazado 1032785" d="M588.636,414.77v.618l-3.408,2.039-.5-.8,1.977-1.219.8-.318-.794-.265L584.68,413.6l.5-.786Z" transform="translate(-342.552 -241.861)" fill="#4d6e8e"/>
          <path id="Trazado_1032786" data-name="Trazado 1032786" d="M526.45,493.805v-.618l3.408-2.04.5.795-1.978,1.227-.8.309.794.274,2.031,1.21-.5.795Z" transform="translate(-308.436 -287.753)" fill="#4d6e8e"/>
          <path id="Trazado_1032787" data-name="Trazado 1032787" d="M538.047,488.717h1.148v2.119h.036a1.279,1.279,0,0,1,.477-.336,1.632,1.632,0,0,1,.644-.124,1.442,1.442,0,0,1,1.214.543,2.694,2.694,0,0,1,.419,1.655,2.533,2.533,0,0,1-.587,1.81,2.116,2.116,0,0,1-1.611.618,5.336,5.336,0,0,1-1.033-.092,3.131,3.131,0,0,1-.706-.208Zm1.969,2.631a.786.786,0,0,0-.516.164,1.019,1.019,0,0,0-.3.472v1.925a1.049,1.049,0,0,0,.3.1,2.166,2.166,0,0,0,.349.026.818.818,0,0,0,.711-.34,1.892,1.892,0,0,0,.243-1.081q0-1.262-.786-1.263" transform="translate(-315.23 -286.329)" fill="#4d6e8e"/>
          <path id="Trazado_1032788" data-name="Trazado 1032788" d="M550.516,492.981v2.508a1.742,1.742,0,0,0,.128.777.514.514,0,0,0,.5.238.781.781,0,0,0,.543-.194,1.194,1.194,0,0,0,.323-.477v-2.852h1.148v3.073a7.028,7.028,0,0,0,.035.711,4.471,4.471,0,0,0,.106.631h-.865l-.2-.653h-.035a1.652,1.652,0,0,1-.565.556,1.62,1.62,0,0,1-.857.221,1.881,1.881,0,0,1-.6-.089.98.98,0,0,1-.441-.291,1.364,1.364,0,0,1-.27-.547,3.417,3.417,0,0,1-.092-.865v-2.746Z" transform="translate(-321.863 -288.827)" fill="#4d6e8e"/>
          <path id="Trazado_1032789" data-name="Trazado 1032789" d="M559.836,491.345h.609v-.83l1.148-.326v1.156h1.077v.972h-1.077v1.695a1.677,1.677,0,0,0,.093.658.348.348,0,0,0,.349.2,1.152,1.152,0,0,0,.3-.035,2.125,2.125,0,0,0,.287-.106l.2.883a2.948,2.948,0,0,1-.556.194,2.647,2.647,0,0,1-.645.08,1.161,1.161,0,0,1-.9-.313,1.5,1.5,0,0,1-.287-1.029v-2.225h-.609Z" transform="translate(-327.996 -287.191)" fill="#4d6e8e"/>
          <path id="Trazado_1032790" data-name="Trazado 1032790" d="M567.277,491.345h.609v-.83l1.148-.326v1.156h1.077v.972h-1.077v1.695a1.673,1.673,0,0,0,.093.658.348.348,0,0,0,.349.2,1.151,1.151,0,0,0,.3-.035,2.123,2.123,0,0,0,.287-.106l.2.883a2.944,2.944,0,0,1-.556.194,2.647,2.647,0,0,1-.645.08,1.161,1.161,0,0,1-.9-.313,1.5,1.5,0,0,1-.287-1.029v-2.225h-.609Z" transform="translate(-332.355 -287.191)" fill="#4d6e8e"/>
          <path id="Trazado_1032791" data-name="Trazado 1032791" d="M575.314,495.014a2.484,2.484,0,0,1,.547-1.726,1.967,1.967,0,0,1,1.536-.6,2.3,2.3,0,0,1,.918.168,1.719,1.719,0,0,1,.645.473,2.034,2.034,0,0,1,.384.737,3.36,3.36,0,0,1,.128.954,2.5,2.5,0,0,1-.544,1.726,1.951,1.951,0,0,1-1.531.6,2.311,2.311,0,0,1-.919-.168,1.754,1.754,0,0,1-.648-.473,1.975,1.975,0,0,1-.389-.737,3.354,3.354,0,0,1-.128-.954m1.184,0a2.577,2.577,0,0,0,.053.539,1.5,1.5,0,0,0,.159.433.764.764,0,0,0,.278.286.792.792,0,0,0,.411.1.754.754,0,0,0,.671-.327,1.887,1.887,0,0,0,.22-1.033,2.068,2.068,0,0,0-.2-.984.719.719,0,0,0-.688-.375.782.782,0,0,0-.663.318,1.767,1.767,0,0,0-.238,1.042" transform="translate(-337.064 -288.652)" fill="#4d6e8e"/>
          <path id="Trazado_1032792" data-name="Trazado 1032792" d="M589.976,497.221v-2.508a1.478,1.478,0,0,0-.155-.777.578.578,0,0,0-.526-.239.827.827,0,0,0-.552.19,1.056,1.056,0,0,0-.322.472v2.86h-1.148v-4.415h.91l.132.583h.036a1.9,1.9,0,0,1,.538-.494,1.6,1.6,0,0,1,.866-.212,1.783,1.783,0,0,1,.582.088.99.99,0,0,1,.432.292,1.327,1.327,0,0,1,.265.552,3.594,3.594,0,0,1,.088.861v2.746Z" transform="translate(-344.071 -288.652)" fill="#4d6e8e"/>
          <path id="Trazado_1032793" data-name="Trazado 1032793" d="M602.465,493.1v.618l-3.408,2.04-.5-.8,1.977-1.219.8-.317-.794-.265-2.031-1.218.5-.786Z" transform="translate(-350.654 -287.753)" fill="#4d6e8e"/>
          <path id="Trazado_1032794" data-name="Trazado 1032794" d="M24.688,140.091l1.6,1.342-3.323,3.958-1.6-1.343A11.9,11.9,0,0,1,17.618,146l.181,2.079-3.779.33v-5.827a8.072,8.072,0,0,0,0-16.145V120.61l1.368-.119.181,2.078a12.048,12.048,0,0,1,4.031,1.273l1.342-1.6,3.959,3.322-1.342,1.6a11.892,11.892,0,0,1,1.951,3.749l2.081-.182.45,5.148-2.081.181a11.9,11.9,0,0,1-1.27,4.031m-10.669,8.319-1.369.12-.182-2.079a12.025,12.025,0,0,1-4.029-1.272l-1.343,1.6-3.958-3.322,1.343-1.6a11.861,11.861,0,0,1-1.952-3.749l-2.08.182L0,133.142l2.079-.182a11.948,11.948,0,0,1,1.272-4.03l-1.6-1.343,3.32-3.958,1.6,1.342a11.9,11.9,0,0,1,3.748-1.951l-.181-2.08,3.78-.33v5.827a8.072,8.072,0,0,0,0,16.145Z" transform="translate(0 -70.593)" fill="gray"/>
          <path id="Trazado_1032795" data-name="Trazado 1032795" d="M531.194,28.408c3.284.673,5.74,3.172,5.74,6.131a6.246,6.246,0,0,1-6.017,6.182H515.659a6.475,6.475,0,0,1-6.579-6.182c0-2.958,2.456-5.458,5.74-6.131,0-.059,0-.118,0-.178,0-3.8,3.667-6.882,8.19-6.882s8.19,3.081,8.19,6.882c0,.06,0,.119,0,.178" transform="translate(-298.259 -12.507)" fill="#4d6e8e" fill-rule="evenodd"/>
          <path id="Trazado_1032796" data-name="Trazado 1032796" d="M515.621,26.808c2.963.607,5.181,2.863,5.181,5.533a5.637,5.637,0,0,1-5.431,5.58H501.6a5.844,5.844,0,0,1-5.937-5.58c0-2.67,2.216-4.925,5.18-5.533,0-.053,0-.107,0-.161,0-3.43,3.309-6.211,7.392-6.211s7.392,2.781,7.392,6.211c0,.054,0,.108,0,.161" transform="translate(-293.235 -15.121)" fill="#fff" fill-rule="evenodd"/>
          <path id="Trazado_1032797" data-name="Trazado 1032797" d="M78.434,175.711v-.618l3.408-2.04.5.795-1.977,1.227-.8.309.794.274,2.031,1.21-.5.795Z" transform="translate(-45.953 -101.388)" fill="#4d6e8e"/>
          <path id="Trazado_1032798" data-name="Trazado 1032798" d="M91.46,177.908a.33.33,0,0,0-.15-.283,1.817,1.817,0,0,0-.371-.194q-.221-.088-.485-.181a1.829,1.829,0,0,1-.486-.256,1.4,1.4,0,0,1-.371-.415,1.478,1.478,0,0,1,.238-1.647,1.64,1.64,0,0,1,1.121-.344,3.6,3.6,0,0,1,.909.106,2.627,2.627,0,0,1,.636.238l-.256.83q-.2-.08-.512-.168a2.272,2.272,0,0,0-.627-.088q-.512,0-.512.4a.293.293,0,0,0,.15.256,1.989,1.989,0,0,0,.371.181q.221.084.486.181a2.12,2.12,0,0,1,.485.251,1.32,1.32,0,0,1,.371.4,1.209,1.209,0,0,1,.15.636,1.345,1.345,0,0,1-.428,1.055,1.872,1.872,0,0,1-1.285.384,3.136,3.136,0,0,1-.878-.119,2.7,2.7,0,0,1-.667-.278l.318-.856a3.05,3.05,0,0,0,.538.225,2.185,2.185,0,0,0,.689.11.764.764,0,0,0,.41-.1.356.356,0,0,0,.154-.327" transform="translate(-52.348 -102.287)" fill="#4d6e8e"/>
          <path id="Trazado_1032799" data-name="Trazado 1032799" d="M101.855,178.852a1.915,1.915,0,0,1-.64.3,2.949,2.949,0,0,1-.772.1,2.152,2.152,0,0,1-.9-.167,1.528,1.528,0,0,1-.6-.473,1.951,1.951,0,0,1-.331-.737,4.164,4.164,0,0,1-.1-.954,2.628,2.628,0,0,1,.5-1.726,1.8,1.8,0,0,1,1.466-.605,3.111,3.111,0,0,1,.781.079,2.683,2.683,0,0,1,.534.2l-.274.936a2.313,2.313,0,0,0-.4-.15,1.758,1.758,0,0,0-.455-.053.865.865,0,0,0-.724.313,1.619,1.619,0,0,0-.247,1,2.08,2.08,0,0,0,.062.521,1.259,1.259,0,0,0,.186.415.868.868,0,0,0,.322.278,1,1,0,0,0,.463.1,1.431,1.431,0,0,0,.494-.075,1.747,1.747,0,0,0,.362-.181Z" transform="translate(-57.719 -102.287)" fill="#4d6e8e"/>
          <path id="Trazado_1032800" data-name="Trazado 1032800" d="M110.7,175.827a1.5,1.5,0,0,0-.494-.1.809.809,0,0,0-.516.164.787.787,0,0,0-.278.419v2.852H108.26V174.75h.892l.133.583h.035a1.2,1.2,0,0,1,.406-.5,1.032,1.032,0,0,1,.6-.176,1.67,1.67,0,0,1,.521.1Z" transform="translate(-63.427 -102.325)" fill="#4d6e8e"/>
          <path id="Trazado_1032801" data-name="Trazado 1032801" d="M115.573,171.006a.582.582,0,0,1,.19-.437.731.731,0,0,1,.525-.181.8.8,0,0,1,.543.181.562.562,0,0,1,.207.437.536.536,0,0,1-.207.428.824.824,0,0,1-.543.172.753.753,0,0,1-.525-.172.554.554,0,0,1-.19-.428m.168,1.245h1.148v4.415h-1.148Z" transform="translate(-67.712 -99.827)" fill="#4d6e8e"/>
          <path id="Trazado_1032802" data-name="Trazado 1032802" d="M121.478,174.712h.839l.133.53h.035a1.461,1.461,0,0,1,.543-.494,1.673,1.673,0,0,1,.764-.159,1.489,1.489,0,0,1,1.245.526,2.738,2.738,0,0,1,.415,1.69,3.664,3.664,0,0,1-.132,1.02,2.146,2.146,0,0,1-.393.772,1.714,1.714,0,0,1-.635.486,2.379,2.379,0,0,1-1.311.128,1.567,1.567,0,0,1-.353-.128v1.81h-1.148Zm1.969.847a.766.766,0,0,0-.526.168,1.1,1.1,0,0,0-.3.5v1.836a.942.942,0,0,0,.653.212.85.85,0,0,0,.742-.348,2.052,2.052,0,0,0,.247-1.153,1.736,1.736,0,0,0-.194-.9.68.68,0,0,0-.627-.318" transform="translate(-71.171 -102.287)" fill="#4d6e8e"/>
          <path id="Trazado_1032803" data-name="Trazado 1032803" d="M131.883,173.251h.609v-.83l1.148-.327v1.157h1.077v.971H133.64v1.7a1.667,1.667,0,0,0,.093.658.348.348,0,0,0,.348.2,1.149,1.149,0,0,0,.3-.035,2.13,2.13,0,0,0,.287-.106l.2.882a2.92,2.92,0,0,1-.556.194,2.654,2.654,0,0,1-.645.079,1.159,1.159,0,0,1-.9-.313,1.5,1.5,0,0,1-.287-1.028v-2.225h-.609Z" transform="translate(-77.267 -100.826)" fill="#4d6e8e"/>
          <path id="Trazado_1032804" data-name="Trazado 1032804" d="M144,175v.618l-3.408,2.039-.5-.8,1.977-1.218.8-.318-.794-.265-2.031-1.218.5-.786Z" transform="translate(-82.051 -101.388)" fill="#4d6e8e"/>
          <rect id="Rectángulo_459697" data-name="Rectángulo 459697" width="104.699" height="146.231" transform="translate(66.842 44.323)" fill="#4d4d4d"/>
          <rect id="Rectángulo_459698" data-name="Rectángulo 459698" width="50.259" height="1.909" transform="translate(74.488 52.754)" fill="#f2675d"/>
          <rect id="Rectángulo_459699" data-name="Rectángulo 459699" width="16.105" height="1.909" transform="translate(74.488 57.474)" fill="#9acae6"/>
          <rect id="Rectángulo_459700" data-name="Rectángulo 459700" width="25.971" height="1.909" transform="translate(74.488 62.182)" fill="#ccc"/>
          <rect id="Rectángulo_459701" data-name="Rectángulo 459701" width="15.156" height="1.909" transform="translate(86.572 66.902)" fill="#9acae6"/>
          <rect id="Rectángulo_459702" data-name="Rectángulo 459702" width="15.156" height="1.909" transform="translate(86.572 71.61)" fill="#9acae6"/>
          <rect id="Rectángulo_459703" data-name="Rectángulo 459703" width="14.741" height="1.909" transform="translate(97.091 76.33)" fill="#9acae6"/>
          <rect id="Rectángulo_459704" data-name="Rectángulo 459704" width="27.466" height="1.909" transform="translate(96.012 57.474)" fill="#ccc"/>
          <rect id="Rectángulo_459705" data-name="Rectángulo 459705" width="13.116" height="1.909" transform="translate(127.391 57.474)" fill="#ccc"/>
          <rect id="Rectángulo_459706" data-name="Rectángulo 459706" width="17.706" height="1.909" transform="translate(145.487 57.474)" fill="#ccc"/>
          <rect id="Rectángulo_459707" data-name="Rectángulo 459707" width="15.453" height="1.909" transform="translate(104.799 62.182)" fill="#9acae6"/>
          <rect id="Rectángulo_459708" data-name="Rectángulo 459708" width="8.846" height="1.909" transform="translate(106.353 66.902)" fill="#ccc"/>
          <rect id="Rectángulo_459709" data-name="Rectángulo 459709" width="15.156" height="1.909" transform="translate(106.353 71.61)" fill="#ccc"/>
          <rect id="Rectángulo_459710" data-name="Rectángulo 459710" width="16.84" height="1.909" transform="translate(119.41 66.902)" fill="#ccc"/>
          <rect id="Rectángulo_459711" data-name="Rectángulo 459711" width="8.835" height="1.909" transform="translate(139.618 66.902)" fill="#ccc"/>
          <rect id="Rectángulo_459712" data-name="Rectángulo 459712" width="10.946" height="1.909" transform="translate(152.248 66.902)" fill="#ccc"/>
          <rect id="Rectángulo_459713" data-name="Rectángulo 459713" width="19.141" height="1.909" transform="translate(124.877 71.61)" fill="#ccc"/>
          <rect id="Rectángulo_459714" data-name="Rectángulo 459714" width="5.716" height="1.909" transform="translate(146.875 71.61)" fill="#ccc"/>
          <rect id="Rectángulo_459715" data-name="Rectángulo 459715" width="10.958" height="1.909" transform="translate(116.041 76.33)" fill="#ccc"/>
          <rect id="Rectángulo_459716" data-name="Rectángulo 459716" width="15.156" height="1.909" transform="translate(86.572 85.758)" fill="#9acae6"/>
          <rect id="Rectángulo_459717" data-name="Rectángulo 459717" width="15.156" height="1.909" transform="translate(86.572 90.478)" fill="#9acae6"/>
          <rect id="Rectángulo_459718" data-name="Rectángulo 459718" width="8.846" height="1.909" transform="translate(106.353 85.758)" fill="#ccc"/>
          <rect id="Rectángulo_459719" data-name="Rectángulo 459719" width="13.65" height="1.909" transform="translate(106.353 90.478)" fill="#ccc"/>
          <rect id="Rectángulo_459720" data-name="Rectángulo 459720" width="12.95" height="1.909" transform="translate(119.41 85.758)" fill="#ccc"/>
          <rect id="Rectángulo_459721" data-name="Rectángulo 459721" width="6.807" height="1.909" transform="translate(134.945 85.758)" fill="#ccc"/>
          <rect id="Rectángulo_459722" data-name="Rectángulo 459722" width="8.42" height="1.909" transform="translate(144.67 85.758)" fill="#ccc"/>
          <rect id="Rectángulo_459723" data-name="Rectángulo 459723" width="15.168" height="1.909" transform="translate(133.285 90.478)" fill="#ccc"/>
          <rect id="Rectángulo_459724" data-name="Rectángulo 459724" width="15.156" height="1.909" transform="translate(86.572 95.186)" fill="#9acae6"/>
          <rect id="Rectángulo_459725" data-name="Rectángulo 459725" width="15.156" height="1.909" transform="translate(86.572 99.906)" fill="#9acae6"/>
          <rect id="Rectángulo_459726" data-name="Rectángulo 459726" width="8.846" height="1.909" transform="translate(106.353 95.186)" fill="#ccc"/>
          <rect id="Rectángulo_459727" data-name="Rectángulo 459727" width="27.786" height="1.909" transform="translate(106.353 99.906)" fill="#ccc"/>
          <rect id="Rectángulo_459728" data-name="Rectángulo 459728" width="16.84" height="1.909" transform="translate(119.41 95.186)" fill="#ccc"/>
          <rect id="Rectángulo_459729" data-name="Rectángulo 459729" width="8.835" height="1.909" transform="translate(139.618 95.186)" fill="#ccc"/>
          <rect id="Rectángulo_459730" data-name="Rectángulo 459730" width="10.946" height="1.909" transform="translate(152.248 95.186)" fill="#ccc"/>
          <rect id="Rectángulo_459731" data-name="Rectángulo 459731" width="15.583" height="1.909" transform="translate(137.506 99.906)" fill="#ccc"/>
          <rect id="Rectángulo_459732" data-name="Rectángulo 459732" width="6.451" height="1.909" transform="translate(123.038 90.478)" fill="#ccc"/>
          <rect id="Rectángulo_459733" data-name="Rectángulo 459733" width="16.105" height="1.909" transform="translate(74.488 109.333)" fill="#9acae6"/>
          <rect id="Rectángulo_459734" data-name="Rectángulo 459734" width="25.971" height="1.909" transform="translate(74.488 114.042)" fill="#ccc"/>
          <rect id="Rectángulo_459735" data-name="Rectángulo 459735" width="15.156" height="1.91" transform="translate(86.572 118.761)" fill="#9acae6"/>
          <rect id="Rectángulo_459736" data-name="Rectángulo 459736" width="15.156" height="1.922" transform="translate(86.572 123.469)" fill="#9acae6"/>
          <rect id="Rectángulo_459737" data-name="Rectángulo 459737" width="14.741" height="1.909" transform="translate(97.091 128.189)" fill="#9acae6"/>
          <rect id="Rectángulo_459738" data-name="Rectángulo 459738" width="15.239" height="1.909" transform="translate(96.012 109.333)" fill="#ccc"/>
          <rect id="Rectángulo_459739" data-name="Rectángulo 459739" width="7.696" height="1.909" transform="translate(115.152 109.333)" fill="#ccc"/>
          <rect id="Rectángulo_459740" data-name="Rectángulo 459740" width="24.477" height="1.909" transform="translate(127.83 109.333)" fill="#ccc"/>
          <rect id="Rectángulo_459741" data-name="Rectángulo 459741" width="15.453" height="1.909" transform="translate(104.799 114.042)" fill="#9acae6"/>
          <rect id="Rectángulo_459742" data-name="Rectángulo 459742" width="17.267" height="1.91" transform="translate(106.353 118.761)" fill="#ccc"/>
          <rect id="Rectángulo_459743" data-name="Rectángulo 459743" width="11.788" height="1.922" transform="translate(106.353 123.469)" fill="#ccc"/>
          <rect id="Rectángulo_459744" data-name="Rectángulo 459744" width="12.831" height="1.91" transform="translate(127.83 118.761)" fill="#ccc"/>
          <rect id="Rectángulo_459745" data-name="Rectángulo 459745" width="22.509" height="1.922" transform="translate(121.509 123.469)" fill="#ccc"/>
          <rect id="Rectángulo_459746" data-name="Rectángulo 459746" width="5.716" height="1.922" transform="translate(146.875 123.469)" fill="#ccc"/>
          <rect id="Rectángulo_459747" data-name="Rectángulo 459747" width="10.958" height="1.909" transform="translate(116.041 128.189)" fill="#ccc"/>
          <rect id="Rectángulo_459748" data-name="Rectángulo 459748" width="20.398" height="1.909" transform="translate(129.43 128.189)" fill="#ccc"/>
          <rect id="Rectángulo_459749" data-name="Rectángulo 459749" width="6.096" height="1.909" transform="translate(152.864 128.189)" fill="#ccc"/>
          <rect id="Rectángulo_459750" data-name="Rectángulo 459750" width="15.156" height="1.909" transform="translate(86.572 137.617)" fill="#9acae6"/>
          <rect id="Rectángulo_459751" data-name="Rectángulo 459751" width="15.156" height="1.91" transform="translate(86.572 142.337)" fill="#9acae6"/>
          <rect id="Rectángulo_459752" data-name="Rectángulo 459752" width="24.952" height="1.909" transform="translate(106.353 137.617)" fill="#ccc"/>
          <rect id="Rectángulo_459753" data-name="Rectángulo 459753" width="13.65" height="1.91" transform="translate(106.353 142.337)" fill="#ccc"/>
          <rect id="Rectángulo_459754" data-name="Rectángulo 459754" width="6.807" height="1.909" transform="translate(134.945 137.617)" fill="#ccc"/>
          <rect id="Rectángulo_459755" data-name="Rectángulo 459755" width="8.42" height="1.909" transform="translate(144.67 137.617)" fill="#ccc"/>
          <rect id="Rectángulo_459756" data-name="Rectángulo 459756" width="15.168" height="1.91" transform="translate(133.285 142.337)" fill="#ccc"/>
          <rect id="Rectángulo_459757" data-name="Rectángulo 459757" width="6.451" height="1.91" transform="translate(123.038 142.337)" fill="#ccc"/>
          <rect id="Rectángulo_459758" data-name="Rectángulo 459758" width="16.105" height="1.909" transform="translate(74.488 150.069)" fill="#9acae6"/>
          <rect id="Rectángulo_459759" data-name="Rectángulo 459759" width="25.971" height="1.909" transform="translate(74.488 154.777)" fill="#ccc"/>
          <rect id="Rectángulo_459760" data-name="Rectángulo 459760" width="15.156" height="1.909" transform="translate(86.572 159.497)" fill="#9acae6"/>
          <rect id="Rectángulo_459761" data-name="Rectángulo 459761" width="15.156" height="1.909" transform="translate(86.572 164.205)" fill="#9acae6"/>
          <rect id="Rectángulo_459762" data-name="Rectángulo 459762" width="14.741" height="1.909" transform="translate(97.091 168.925)" fill="#9acae6"/>
          <rect id="Rectángulo_459763" data-name="Rectángulo 459763" width="15.239" height="1.909" transform="translate(96.012 150.069)" fill="#ccc"/>
          <rect id="Rectángulo_459764" data-name="Rectángulo 459764" width="7.696" height="1.909" transform="translate(115.152 150.069)" fill="#ccc"/>
          <rect id="Rectángulo_459765" data-name="Rectángulo 459765" width="35.364" height="1.909" transform="translate(127.83 150.069)" fill="#ccc"/>
          <rect id="Rectángulo_459766" data-name="Rectángulo 459766" width="15.453" height="1.909" transform="translate(104.799 154.777)" fill="#9acae6"/>
          <rect id="Rectángulo_459767" data-name="Rectángulo 459767" width="17.267" height="1.909" transform="translate(106.353 159.497)" fill="#ccc"/>
          <rect id="Rectángulo_459768" data-name="Rectángulo 459768" width="11.788" height="1.909" transform="translate(106.353 164.205)" fill="#ccc"/>
          <rect id="Rectángulo_459769" data-name="Rectángulo 459769" width="12.831" height="1.909" transform="translate(127.83 159.497)" fill="#ccc"/>
          <rect id="Rectángulo_459770" data-name="Rectángulo 459770" width="7.803" height="1.909" transform="translate(144.029 159.497)" fill="#ccc"/>
          <rect id="Rectángulo_459771" data-name="Rectángulo 459771" width="7.566" height="1.909" transform="translate(155.627 159.497)" fill="#ccc"/>
          <rect id="Rectángulo_459772" data-name="Rectángulo 459772" width="22.509" height="1.909" transform="translate(121.509 164.205)" fill="#ccc"/>
          <rect id="Rectángulo_459773" data-name="Rectángulo 459773" width="5.716" height="1.909" transform="translate(146.875 164.205)" fill="#ccc"/>
          <rect id="Rectángulo_459774" data-name="Rectángulo 459774" width="10.958" height="1.909" transform="translate(116.041 168.925)" fill="#ccc"/>
          <rect id="Rectángulo_459775" data-name="Rectángulo 459775" width="15.156" height="1.909" transform="translate(86.572 178.353)" fill="#9acae6"/>
          <rect id="Rectángulo_459776" data-name="Rectángulo 459776" width="15.156" height="1.909" transform="translate(86.572 183.073)" fill="#9acae6"/>
          <rect id="Rectángulo_459777" data-name="Rectángulo 459777" width="24.952" height="1.909" transform="translate(106.353 178.353)" fill="#ccc"/>
          <rect id="Rectángulo_459778" data-name="Rectángulo 459778" width="13.65" height="1.909" transform="translate(106.353 183.073)" fill="#ccc"/>
          <rect id="Rectángulo_459779" data-name="Rectángulo 459779" width="6.807" height="1.909" transform="translate(134.945 178.353)" fill="#ccc"/>
          <rect id="Rectángulo_459780" data-name="Rectángulo 459780" width="8.42" height="1.909" transform="translate(144.67 178.353)" fill="#ccc"/>
          <rect id="Rectángulo_459781" data-name="Rectángulo 459781" width="15.168" height="1.909" transform="translate(133.285 183.073)" fill="#ccc"/>
          <rect id="Rectángulo_459782" data-name="Rectángulo 459782" width="6.451" height="1.909" transform="translate(123.038 183.073)" fill="#ccc"/>
          <path id="Trazado_1032814" data-name="Trazado 1032814" d="M0,0H55.951V14.059H0Z" transform="translate(20.93 86.039)" fill="#ffb758"/>
          <path id="Trazado_1032805" data-name="Trazado 1032805" d="M64.236,218.087h1.21v4.521a2.778,2.778,0,0,1-.08.671,1.56,1.56,0,0,1-.26.56,1.324,1.324,0,0,1-.464.389,1.49,1.49,0,0,1-.689.145,3.181,3.181,0,0,1-.556-.053,2.277,2.277,0,0,1-.521-.15l.265-.989a1.15,1.15,0,0,0,.521.115.445.445,0,0,0,.473-.274,2.13,2.13,0,0,0,.1-.724Z" transform="translate(-36.838 -127.773)" fill="#fff"/>
          <path id="Trazado_1032806" data-name="Trazado 1032806" d="M74.063,222.836h-1.9L71.7,224.2h-1.21l2.225-6.224H73.6l2.225,6.224H74.557Zm-1.589-.971H73.8l-.459-1.377-.185-.971h-.044l-.186.98Z" transform="translate(-41.297 -127.71)" fill="#fff"/>
          <path id="Trazado_1032807" data-name="Trazado 1032807" d="M85.833,221.716l.159,1.051h.044l.177-1.059,1.183-3.62h1.272l-2.3,6.224h-.865l-2.313-6.224h1.4Z" transform="translate(-48.741 -127.773)" fill="#fff"/>
          <path id="Trazado_1032808" data-name="Trazado 1032808" d="M99.795,222.836H97.9l-.468,1.368h-1.21l2.225-6.224h.892l2.225,6.224h-1.272Zm-1.589-.971H99.53l-.459-1.377-.185-.971h-.044l-.186.98Z" transform="translate(-56.373 -127.71)" fill="#fff"/>
          <path id="Trazado_1032809" data-name="Trazado 1032809" d="M112.65,222.432a.575.575,0,0,0-.207-.459,2.306,2.306,0,0,0-.521-.322q-.314-.146-.68-.3a3.442,3.442,0,0,1-.68-.38,1.931,1.931,0,0,1-.521-.56,1.605,1.605,0,0,1-.207-.856,1.87,1.87,0,0,1,.15-.781,1.457,1.457,0,0,1,.428-.552,1.826,1.826,0,0,1,.658-.327,3.142,3.142,0,0,1,.847-.106,5.289,5.289,0,0,1,1.015.093,2.569,2.569,0,0,1,.786.269l-.379,1.015a2.12,2.12,0,0,0-.583-.225,3.321,3.321,0,0,0-.839-.1,1.073,1.073,0,0,0-.649.168.533.533,0,0,0-.225.45.554.554,0,0,0,.207.441,2.382,2.382,0,0,0,.521.327q.313.15.68.309a3.7,3.7,0,0,1,.68.384,1.965,1.965,0,0,1,.521.557,1.53,1.53,0,0,1,.207.825,2.035,2.035,0,0,1-.164.852,1.615,1.615,0,0,1-.459.6,1.938,1.938,0,0,1-.716.353,3.48,3.48,0,0,1-.922.115,4.918,4.918,0,0,1-1.166-.123,3.576,3.576,0,0,1-.742-.247l.389-1.033a2.441,2.441,0,0,0,.251.115,3.26,3.26,0,0,0,.349.115,4.059,4.059,0,0,0,.41.088,2.749,2.749,0,0,0,.446.035,1.552,1.552,0,0,0,.826-.181.607.607,0,0,0,.287-.552" transform="translate(-64.266 -127.597)" fill="#fff"/>
          <path id="Trazado_1032810" data-name="Trazado 1032810" d="M125.606,223.839a1.858,1.858,0,0,1-.719.289,4.556,4.556,0,0,1-.9.087,3.212,3.212,0,0,1-1.055-.172,2.251,2.251,0,0,1-.878-.557,2.726,2.726,0,0,1-.605-1,4.329,4.329,0,0,1-.225-1.488,4.029,4.029,0,0,1,.251-1.523,2.77,2.77,0,0,1,.653-.989,2.421,2.421,0,0,1,.9-.538,3.148,3.148,0,0,1,.989-.163,4.816,4.816,0,0,1,.9.071,3.258,3.258,0,0,1,.6.167l-.238,1.024a1.753,1.753,0,0,0-.481-.141,4.4,4.4,0,0,0-.675-.044,1.473,1.473,0,0,0-1.179.522,2.456,2.456,0,0,0-.446,1.619,3.36,3.36,0,0,0,.106.871,1.885,1.885,0,0,0,.322.673,1.492,1.492,0,0,0,.539.434,1.7,1.7,0,0,0,.746.154,2.44,2.44,0,0,0,.671-.079,1.977,1.977,0,0,0,.477-.2Z" transform="translate(-71.024 -127.597)" fill="#fff"/>
          <path id="Trazado_1032811" data-name="Trazado 1032811" d="M133.612,218.024c.135-.023.281-.046.437-.066s.312-.037.468-.049.307-.02.455-.027.282-.009.406-.009a4.572,4.572,0,0,1,.852.079,2.328,2.328,0,0,1,.75.273,1.468,1.468,0,0,1,.53.535,1.665,1.665,0,0,1,.2.852,2.022,2.022,0,0,1-.353,1.236,1.819,1.819,0,0,1-.945.663l.433.273,1.413,2.358h-1.395l-1.4-2.419-.636-.115v2.534h-1.21Zm1.854.927q-.185,0-.367.009a1.422,1.422,0,0,0-.278.035v1.792h.512a1.288,1.288,0,0,0,.8-.229.9.9,0,0,0,.3-.759.8.8,0,0,0-.247-.622,1.042,1.042,0,0,0-.724-.225" transform="translate(-78.28 -127.648)" fill="#fff"/>
          <rect id="Rectángulo_459784" data-name="Rectángulo 459784" width="1.21" height="6.18" transform="translate(60.771 90.314)" fill="#fff"/>
          <path id="Trazado_1032812" data-name="Trazado 1032812" d="M152.524,218.023q.371-.071.817-.111t.887-.04a5.756,5.756,0,0,1,.923.075,2.3,2.3,0,0,1,.834.3,1.743,1.743,0,0,1,.6.627,2.062,2.062,0,0,1,.234,1.046,2.165,2.165,0,0,1-.2.984,1.873,1.873,0,0,1-.538.658,2.165,2.165,0,0,1-.764.371,3.405,3.405,0,0,1-.887.115h-.141c-.065,0-.132,0-.2,0s-.14-.007-.207-.013a1.351,1.351,0,0,1-.146-.018v2.128h-1.21Zm1.8.892q-.176,0-.335.013t-.256.031v2a.959.959,0,0,0,.106.018c.047.006.1.01.15.013s.1,0,.154,0h.111a2.545,2.545,0,0,0,.473-.044,1.165,1.165,0,0,0,.419-.164.851.851,0,0,0,.3-.331,1.2,1.2,0,0,0,.111-.556.977.977,0,0,0-.106-.481.87.87,0,0,0-.278-.3,1.1,1.1,0,0,0-.393-.159,2.328,2.328,0,0,0-.451-.044" transform="translate(-89.361 -127.647)" fill="#fff"/>
          <path id="Trazado_1032813" data-name="Trazado 1032813" d="M168.494,219.164h-1.8v5.1h-1.209v-5.1h-1.81v-1.077h4.821Z" transform="translate(-95.893 -127.772)" fill="#fff"/>
        </g>
      </g>
    </g>
  </g>
</svg>
