<svg xmlns="http://www.w3.org/2000/svg" width="188" height="159" viewBox="0 0 188 159">
  <g id="Grupo_1190833" data-name="Grupo 1190833" transform="translate(-1225.711 -2864)">
    <rect id="Rectángulo_459786" data-name="Rectángulo 459786" width="188" height="159" transform="translate(1225.711 2864)" fill="#5af6ea"/>
    <g id="ordenador_4_" data-name="ordenador (4)" transform="translate(1261.386 2884.675)">
      <path id="Trazado_1032853" data-name="Trazado 1032853" d="M32,448h7.564v3.782H32Zm0,0" transform="translate(-24.436 -342.106)"/>
      <path id="Trazado_1032854" data-name="Trazado 1032854" d="M80,448h3.782v3.782H80Zm0,0" transform="translate(-61.09 -342.106)"/>
      <path id="Trazado_1032855" data-name="Trazado 1032855" d="M80,352h3.782v3.782H80Zm0,0" transform="translate(-61.09 -268.797)"/>
      <path id="Trazado_1032856" data-name="Trazado 1032856" d="M80,384h3.782v3.782H80Zm0,0" transform="translate(-61.09 -293.234)"/>
      <path id="Trazado_1032857" data-name="Trazado 1032857" d="M112,352h3.782v3.782H112Zm0,0" transform="translate(-85.526 -268.797)"/>
      <path id="Trazado_1032858" data-name="Trazado 1032858" d="M144,352h3.782v3.782H144Zm0,0" transform="translate(-109.963 -268.797)"/>
      <path id="Trazado_1032859" data-name="Trazado 1032859" d="M176,352h3.782v3.782H176Zm0,0" transform="translate(-134.399 -268.797)"/>
      <path id="Trazado_1032860" data-name="Trazado 1032860" d="M208,352h3.782v3.782H208Zm0,0" transform="translate(-158.835 -268.797)"/>
      <path id="Trazado_1032861" data-name="Trazado 1032861" d="M240,352h3.782v3.782H240Zm0,0" transform="translate(-183.271 -268.797)"/>
      <path id="Trazado_1032862" data-name="Trazado 1032862" d="M272,352h3.782v3.782H272Zm0,0" transform="translate(-207.707 -268.797)"/>
      <path id="Trazado_1032863" data-name="Trazado 1032863" d="M304,352h3.782v3.782H304Zm0,0" transform="translate(-232.143 -268.797)"/>
      <path id="Trazado_1032864" data-name="Trazado 1032864" d="M336,352h3.782v3.782H336Zm0,0" transform="translate(-256.579 -268.797)"/>
      <path id="Trazado_1032865" data-name="Trazado 1032865" d="M112,384h3.782v3.782H112Zm0,0" transform="translate(-85.526 -293.234)"/>
      <path id="Trazado_1032866" data-name="Trazado 1032866" d="M336,384h3.782v3.782H336Zm0,0" transform="translate(-256.579 -293.234)"/>
      <path id="Trazado_1032867" data-name="Trazado 1032867" d="M144,384h41.6v3.782H144Zm0,0" transform="translate(-109.963 -293.234)"/>
      <path id="Trazado_1032868" data-name="Trazado 1032868" d="M117.24,64.293V7.564H60.511V30.255H34.037V17.019a1.891,1.891,0,1,1,3.782,0v9.455H41.6V17.019a5.68,5.68,0,0,0-5.673-5.673,5.594,5.594,0,0,0-1.891.348V7.564a7.564,7.564,0,0,0-15.128,0V30.255H13.237A9.466,9.466,0,0,0,3.782,39.71V98.33H0v9.455a9.466,9.466,0,0,0,9.455,9.455h83.2a9.466,9.466,0,0,0,9.455-9.455V98.33H98.33V64.293ZM64.293,11.346h49.165V60.511H64.293ZM25.424,56.411l1.05.7,1.05-.7c4.23-2.82,6.514-9.351,6.514-14.063V41.6H60.511V64.293H86.985v3.782H15.128V41.6H18.91v.747c0,4.713,2.284,11.243,6.514,14.063ZM60.511,34.037v3.782H34.037V34.037ZM30.255,42.348c0,3.246-1.481,7.681-3.782,10.037-2.3-2.354-3.782-6.791-3.782-10.037V15.128h7.564ZM26.474,3.782a3.786,3.786,0,0,1,3.782,3.782v3.782H22.692V7.564A3.786,3.786,0,0,1,26.474,3.782Zm71.857,104a5.68,5.68,0,0,1-5.673,5.673H9.455a5.68,5.68,0,0,1-5.673-5.673v-5.673H34.853a8.678,8.678,0,0,0,7.195,3.782H60.065a8.678,8.678,0,0,0,7.195-3.782H98.33ZM86.985,98.33H65.015l-.522,1.046a4.928,4.928,0,0,1-4.428,2.736H42.047a4.923,4.923,0,0,1-4.426-2.736L37.1,98.33H15.128V79.421H86.985Zm7.564,0H90.766V75.639H11.346V98.33H7.564V39.71a5.68,5.68,0,0,1,5.673-5.673H18.91v3.782H15.128A3.786,3.786,0,0,0,11.346,41.6V68.075a3.786,3.786,0,0,0,3.782,3.782H86.985a3.786,3.786,0,0,0,3.782-3.782V64.293h3.782Zm0,0"/>
      <path id="Trazado_1032870" data-name="Trazado 1032870" d="M288,64h3.782v3.782H288Zm0,0" transform="translate(-219.925 -48.872)"/>
      <path id="Trazado_1032871" data-name="Trazado 1032871" d="M320,64h34.037v3.782H320Zm0,0" transform="translate(-244.361 -48.872)"/>
      <path id="Trazado_1032872" data-name="Trazado 1032872" d="M288,96h41.6v3.782H288Zm0,0" transform="translate(-219.925 -73.308)"/>
      <path id="Trazado_1032873" data-name="Trazado 1032873" d="M288,128h41.6v3.782H288Zm0,0" transform="translate(-219.925 -97.745)"/>
      <path id="Trazado_1032874" data-name="Trazado 1032874" d="M288,160h17.019v3.782H288Zm0,0" transform="translate(-219.925 -122.181)"/>
      <path id="Trazado_1032875" data-name="Trazado 1032875" d="M288,192h17.019v3.782H288Zm0,0" transform="translate(-219.925 -146.617)"/>
      <path id="Trazado_1032876" data-name="Trazado 1032876" d="M288,224h17.019v3.782H288Zm0,0" transform="translate(-219.925 -171.053)"/>
      <path id="Trazado_1032877" data-name="Trazado 1032877" d="M160,192h18.91v3.782H160Zm0,0" transform="translate(-122.181 -146.617)"/>
      <path id="Trazado_1032878" data-name="Trazado 1032878" d="M160,224h18.91v3.782H160Zm0,0" transform="translate(-122.181 -171.053)"/>
      <path id="Trazado_1032879" data-name="Trazado 1032879" d="M80,256h37.819v3.782H80Zm0,0" transform="translate(-61.09 -195.489)"/>
    </g>
  </g>
</svg>
