<svg xmlns="http://www.w3.org/2000/svg" xmlns:xlink="http://www.w3.org/1999/xlink" width="130.059" height="130.059" viewBox="0 0 130.059 130.059">
  <defs>
    <clipPath id="clip-path">
      <rect id="Rectángulo_456267" data-name="Rectángulo 456267" width="130.059" height="130.059" fill="none"/>
    </clipPath>
  </defs>
  <g id="Grupo_1189180" data-name="Grupo 1189180" transform="translate(-186 -9276.941)">
    <g id="Grupo_1188419" data-name="Grupo 1188419" transform="translate(186 9276.941)">
      <g id="Grupo_1188418" data-name="Grupo 1188418" transform="translate(130.059 130.059) rotate(180)">
        <path id="Trazado_999622" data-name="Trazado 999622" d="M60.755,0A60.755,60.755,0,1,1,0,60.755,60.755,60.755,0,0,1,60.755,0" transform="translate(4.274 4.275)" fill="#e1f5ff"/>
        <g id="Grupo_1179902" data-name="Grupo 1179902" transform="translate(0 0)">
          <g id="Grupo_1179905" data-name="Grupo 1179905" clip-path="url(#clip-path)">
            <path id="Trazado_999618" data-name="Trazado 999618" d="M65.029,0A65.029,65.029,0,1,1,0,65.029,65.03,65.03,0,0,1,65.029,0" fill="none"/>
            <path id="Trazado_999619" data-name="Trazado 999619" d="M5.08,0A5.08,5.08,0,1,1,0,5.08,5.081,5.081,0,0,1,5.08,0" transform="translate(0 59.949)" fill="#19538d"/>
            <path id="Trazado_999620" data-name="Trazado 999620" d="M5.08,0A5.08,5.08,0,1,1,0,5.08,5.081,5.081,0,0,1,5.08,0" transform="translate(16.257 19.306)" fill="#19538d"/>
            <path id="Trazado_999621" data-name="Trazado 999621" d="M60.965,121.93A61.034,61.034,0,0,1,0,60.965H3.048A57.916,57.916,0,1,0,18.7,21.362l-2.223-2.085A60.965,60.965,0,1,1,60.965,121.93" transform="translate(4.064 4.064)" fill="#19538d"/>
            <rect id="Rectángulo_456268" data-name="Rectángulo 456268" width="130.059" height="130.059" fill="none"/>
            <rect id="Rectángulo_456269" data-name="Rectángulo 456269" width="130.059" height="130.059" fill="none"/>
          </g>
        </g>
        <g id="escribiendo" transform="translate(122.85 100.224) rotate(180)">
          <path id="Trazado_1032974" data-name="Trazado 1032974" d="M326.628,31.292h.659a1.027,1.027,0,0,0,0-2.055h-.659a1.027,1.027,0,0,0,0,2.055Z" transform="translate(-254.179 -25.232)" fill="#19538d"/>
          <path id="Trazado_1032975" data-name="Trazado 1032975" d="M364.451,31.292h.659a1.027,1.027,0,0,0,0-2.055h-.659a1.027,1.027,0,0,0,0,2.055Z" transform="translate(-286.821 -25.232)" fill="#19538d"/>
          <path id="Trazado_1032976" data-name="Trazado 1032976" d="M91.467,21.817a4.224,4.224,0,0,0-5.966,0l-1.309,1.309V1.027A1.027,1.027,0,0,0,83.164,0H50.109a1.027,1.027,0,0,0,0,2.055H61.288l-2.039,2.2H33.129v-2.2h12.5a1.027,1.027,0,1,0,0-2.055H32.1a1.027,1.027,0,0,0-1.027,1.027V69.112A1.027,1.027,0,0,0,32.1,70.14H83.164a1.027,1.027,0,0,0,1.027-1.027V35.059l7.275-7.275A4.224,4.224,0,0,0,91.467,21.817ZM64.448,51.9l-3.06-3.06L83.97,26.254l3.06,3.06Zm-4.2-1.3,2.442,2.442-4.592,2.15ZM82.136,68.085H33.129V6.31H59.7a1.028,1.028,0,0,0,.754-.329l3.638-3.926H82.136V25.181l-2.2,2.2V9.521a1.027,1.027,0,0,0-1.027-1.027H36.356a1.027,1.027,0,0,0-1.027,1.027V64.858a1.027,1.027,0,0,0,1.027,1.027H55.394a1.027,1.027,0,0,0,0-2.055H37.384V10.548h40.5V29.436l-2.2,2.2v-7.05a1.027,1.027,0,0,0-2.055,0v9.105L59.208,48.109a1.028,1.028,0,0,0-.214.313L56.153,54.49a1.987,1.987,0,0,0,2.641,2.641l6.07-2.843a1.027,1.027,0,0,0,.31-.213l8.451-8.451v13.95H41.639v-44.8H73.626v5.339a1.027,1.027,0,1,0,2.055,0V13.742a1.027,1.027,0,0,0-1.027-1.027H40.611a1.027,1.027,0,0,0-1.027,1.027V60.6a1.027,1.027,0,0,0,1.027,1.027H74.654A1.027,1.027,0,0,0,75.681,60.6V43.569l2.2-2.2V63.83H59.871a1.027,1.027,0,1,0,0,2.055H78.909a1.027,1.027,0,0,0,1.027-1.027V39.314l2.2-2.2Zm7.877-41.754-1.53,1.53-3.06-3.06,1.53-1.53a2.164,2.164,0,0,1,3.06,3.06Z" fill="#19538d"/>
          <path id="Trazado_1032980" data-name="Trazado 1032980" d="M173.368,248.5H156.347a1.027,1.027,0,0,0,0,2.055h17.021a1.027,1.027,0,0,0,0-2.055Z" transform="translate(-107.225 -214.457)" fill="#19538d"/>
          <path id="Trazado_1032986" data-name="Trazado 1032986" d="M173.368,248.5H156.347a1.027,1.027,0,0,0,0,2.055h17.021a1.027,1.027,0,0,0,0-2.055Z" transform="translate(-107.225 -219.457)" fill="#19538d"/>
          <path id="Trazado_1032987" data-name="Trazado 1032987" d="M173.368,248.5H156.347a1.027,1.027,0,0,0,0,2.055h17.021a1.027,1.027,0,0,0,0-2.055Z" transform="translate(-107.225 -224.457)" fill="#19538d"/>
          <path id="Trazado_1032988" data-name="Trazado 1032988" d="M173.368,248.5H156.347a1.027,1.027,0,0,0,0,2.055h17.021a1.027,1.027,0,0,0,0-2.055Z" transform="translate(-107.225 -229.457)" fill="#19538d"/>
          <path id="Trazado_1032981" data-name="Trazado 1032981" d="M169.013,279.562H156.347a1.027,1.027,0,1,0,0,2.055h12.666a1.027,1.027,0,1,0,0-2.055Z" transform="translate(-107.225 -241.264)" fill="#19538d"/>
          <path id="Trazado_1032982" data-name="Trazado 1032982" d="M164.858,310.624h-8.51a1.027,1.027,0,1,0,0,2.055h8.51a1.027,1.027,0,1,0,0-2.055Z" transform="translate(-107.225 -268.071)" fill="#19538d"/>
        </g>
      </g>
    </g>
  </g>
</svg>
