<svg xmlns="http://www.w3.org/2000/svg" xmlns:xlink="http://www.w3.org/1999/xlink" width="160" height="160" viewBox="0 0 160 160">
  <defs>
    <clipPath id="clip-path">
      <rect id="Rectángulo_456296" data-name="Rectángulo 456296" width="160" height="160" fill="none"/>
    </clipPath>
  </defs>
  <g id="Grupo_1189182" data-name="Grupo 1189182" transform="translate(-1030.059 -9435)">
    <g id="Grupo_1179952" data-name="Grupo 1179952" transform="translate(1030.059 9435)" clip-path="url(#clip-path)">
      <path id="Trazado_999645" data-name="Trazado 999645" d="M1.5,5.146H131.567a19.711,19.711,0,0,1,19.757,19.663V154.256H21.257A19.711,19.711,0,0,1,1.5,134.593Z" transform="translate(0.97 3.287)" fill="#fff"/>
    </g>
    <g id="Grupo_1179957" data-name="Grupo 1179957" transform="translate(1030.059 9435)">
      <g id="Grupo_1179956" data-name="Grupo 1179956" clip-path="url(#clip-path)">
        <path id="Trazado_999651" data-name="Trazado 999651" d="M95.413,30a8.193,8.193,0,1,1-8.232,8.193A8.213,8.213,0,0,1,95.413,30" transform="translate(56.355 19.158)" fill="#19538d"/>
        <path id="Trazado_999652" data-name="Trazado 999652" d="M66.413,0a8.193,8.193,0,1,1-8.232,8.193A8.213,8.213,0,0,1,66.413,0" transform="translate(37.609 0)" fill="#19538d"/>
        <path id="Trazado_999653" data-name="Trazado 999653" d="M151.324,54.064V154.256H21.257A19.711,19.711,0,0,1,1.5,134.593V5.146H104.167" transform="translate(0.97 3.287)" fill="none" stroke="#19538d" stroke-miterlimit="10" stroke-width="4"/>
      </g>
    </g>
    <g id="Grupo_1179958" data-name="Grupo 1179958">
      <rect id="Rectángulo_456311" data-name="Rectángulo 456311" width="109.239" height="110.028" transform="translate(1050.059 9463)" fill="#fff"/>
      <g id="feed-de-actividades_2_" data-name="feed-de-actividades (2)" transform="translate(1056.271 9467.335)">
        <path id="Línea_3326" data-name="Línea 3326" d="M-6.076,6.24a1.421,1.421,0,0,1-.637-.151,1.427,1.427,0,0,1-.638-1.914L-1.906-6.713A1.427,1.427,0,0,1,.008-7.351,1.427,1.427,0,0,1,.646-5.436L-4.8,5.451A1.427,1.427,0,0,1-6.076,6.24Z" transform="translate(33.38 87.032)" fill="#19538d"/>
        <path id="Línea_3327" data-name="Línea 3327" d="M-.629,6.24a1.427,1.427,0,0,1-1.277-.789L-7.351-5.436a1.427,1.427,0,0,1,.638-1.914A1.427,1.427,0,0,1-4.8-6.713L.646,4.175A1.427,1.427,0,0,1,.008,6.089,1.421,1.421,0,0,1-.629,6.24Z" transform="translate(70.717 87.032)" fill="#19538d"/>
        <path id="Trazado_1032989" data-name="Trazado 1032989" d="M87.4,82H9.988A10,10,0,0,1,0,72.016v-54.5A10,10,0,0,1,9.988,7.53H87.4a10,10,0,0,1,9.988,9.988v54.5A10,10,0,0,1,87.4,82ZM9.988,10.384a7.142,7.142,0,0,0-7.134,7.134v54.5A7.142,7.142,0,0,0,9.988,79.15H87.4a7.142,7.142,0,0,0,7.134-7.134v-54.5A7.142,7.142,0,0,0,87.4,10.384Z" transform="translate(0 0)" fill="#19538d"/>
        <path id="Línea_3328" data-name="Línea 3328" d="M88.465-4.646H-6.073A1.427,1.427,0,0,1-7.5-6.073,1.427,1.427,0,0,1-6.073-7.5H88.465a1.427,1.427,0,0,1,1.427,1.427A1.427,1.427,0,0,1,88.465-4.646Z" transform="translate(7.5 75.191)" fill="#19538d"/>
        <path id="Trazado_1032990" data-name="Trazado 1032990" d="M147.642,455.68H96.075a5.724,5.724,0,1,1,0-11.449h35.071a1.427,1.427,0,1,1,0,2.854H96.075a2.871,2.871,0,0,0,0,5.742h51.567a2.871,2.871,0,0,0,0-5.742H137.8a1.427,1.427,0,1,1,0-2.854h9.837a5.724,5.724,0,1,1,0,11.449Z" transform="translate(-73.163 -353.623)" fill="#19538d"/>
        <path id="Trazado_1032991" data-name="Trazado 1032991" d="M127.572,117.923H67.365a7.142,7.142,0,0,1-7.134-7.134v-5.774a7.142,7.142,0,0,1,7.134-7.134H111.29a1.427,1.427,0,1,1,0,2.854H67.365a4.285,4.285,0,0,0-4.28,4.28v5.774a4.285,4.285,0,0,0,4.28,4.28h60.207a4.285,4.285,0,0,0,4.28-4.28v-5.774a4.285,4.285,0,0,0-4.28-4.28h-9.624a1.427,1.427,0,1,1,0-2.854h9.624a7.142,7.142,0,0,1,7.134,7.134v5.774A7.142,7.142,0,0,1,127.572,117.923Z" transform="translate(-48.773 -73.163)" fill="#19538d"/>
        <path id="Trazado_1032992" data-name="Trazado 1032992" d="M133.28,241.068a1.427,1.427,0,0,1-1.427-1.427V225.485a4.285,4.285,0,0,0-4.28-4.28H67.365a4.285,4.285,0,0,0-4.28,4.28v2.235a1.427,1.427,0,0,1-2.854,0v-2.235a7.142,7.142,0,0,1,7.134-7.134h60.207a7.142,7.142,0,0,1,7.134,7.134v14.156A1.427,1.427,0,0,1,133.28,241.068Z" transform="translate(-48.773 -170.714)" fill="#19538d"/>
        <path id="Línea_3329" data-name="Línea 3329" d="M-6.073.616A1.427,1.427,0,0,1-7.5-.811V-6.073A1.427,1.427,0,0,1-6.073-7.5,1.427,1.427,0,0,1-4.646-6.073V-.811A1.427,1.427,0,0,1-6.073.616Z" transform="translate(18.958 69.738)" fill="#19538d"/>
        <path id="Trazado_1032993" data-name="Trazado 1032993" d="M73.121,46.23H64.527a4.292,4.292,0,1,1,0-8.583h8.594a4.292,4.292,0,0,1,0,8.583ZM64.527,40.5a1.438,1.438,0,0,0,0,2.876h8.595a1.438,1.438,0,0,0,0-2.876Z" transform="translate(-48.776 -24.388)" fill="#19538d"/>
        <path id="Línea_3330" data-name="Línea 3330" d="M48.358-4.646H-6.073A1.427,1.427,0,0,1-7.5-6.073,1.427,1.427,0,0,1-6.073-7.5H48.358a1.427,1.427,0,0,1,1.427,1.427A1.427,1.427,0,0,1,48.358-4.646Z" transform="translate(27.554 37.949)" fill="#19538d"/>
        <path id="Línea_3330-2" data-name="Línea 3330" d="M46.013-4.646H-6.133A1.4,1.4,0,0,1-7.5-6.073,1.4,1.4,0,0,1-6.133-7.5H46.013A1.4,1.4,0,0,1,47.38-6.073,1.4,1.4,0,0,1,46.013-4.646Z" transform="translate(38.554 23.949)" fill="#19538d"/>
        <path id="Línea_3331" data-name="Línea 3331" d="M48.358-4.646H-6.073A1.427,1.427,0,0,1-7.5-6.073,1.427,1.427,0,0,1-6.073-7.5H48.358a1.427,1.427,0,0,1,1.427,1.427A1.427,1.427,0,0,1,48.358-4.646Z" transform="translate(27.554 43.678)" fill="#19538d"/>
        <path id="Elipse_13722" data-name="Elipse 13722" d="M-1.776-7.5A5.73,5.73,0,0,1,3.948-1.776,5.73,5.73,0,0,1-1.776,3.948,5.73,5.73,0,0,1-7.5-1.776,5.73,5.73,0,0,1-1.776-7.5Zm0,8.594a2.874,2.874,0,0,0,2.87-2.87,2.874,2.874,0,0,0-2.87-2.87,2.874,2.874,0,0,0-2.87,2.87A2.874,2.874,0,0,0-1.776,1.094Z" transform="translate(24.689 60.867)" fill="#19538d"/>
        <path id="Trazado_1032994" data-name="Trazado 1032994" d="M225.109,265.458a1.427,1.427,0,0,1-1.427-1.427V252.751a1.428,1.428,0,0,0-1.427-1.427H184.991a1.428,1.428,0,0,0-1.427,1.427v11.279a1.427,1.427,0,1,1-2.854,0V252.751a4.285,4.285,0,0,1,4.28-4.28h37.264a4.285,4.285,0,0,1,4.28,4.28v11.279A1.427,1.427,0,0,1,225.109,265.458Z" transform="translate(-146.332 -195.104)" fill="#19538d"/>
      </g>
    </g>
  </g>
</svg>
