<svg xmlns="http://www.w3.org/2000/svg" width="23.359" height="18.168" viewBox="0 0 23.359 18.168">
  <path id="computer-solid-full" d="M46.145,96a3.9,3.9,0,0,0-.519,1.947V98.6H34.6v9.084H45.626v2.6H34.6a2.6,2.6,0,0,1-2.6-2.6V98.6A2.6,2.6,0,0,1,34.6,96Zm-.519,16.222a3.9,3.9,0,0,0,.519,1.947H36.867a.973.973,0,1,1,0-1.947ZM49.52,96h3.893a1.947,1.947,0,0,1,1.947,1.947v14.275a1.947,1.947,0,0,1-1.947,1.947H49.52a1.947,1.947,0,0,1-1.947-1.947V97.947A1.947,1.947,0,0,1,49.52,96Zm.973,2.6a.973.973,0,1,0,0,1.947h1.947a.973.973,0,1,0,0-1.947Zm0,3.893a.973.973,0,0,0,0,1.947h1.947a.973.973,0,0,0,0-1.947Zm2.271,5.84a1.3,1.3,0,1,0-1.3,1.3A1.3,1.3,0,0,0,52.764,108.329Z" transform="translate(-32 -96)" fill="#df932f"/>
</svg>
