<svg xmlns="http://www.w3.org/2000/svg" width="84" height="84" viewBox="0 0 84 84">
  <g id="Grupo_1189280" data-name="Grupo 1189280" transform="translate(-393.711 -8671)">
    <rect id="Rectángulo_459804" data-name="Rectángulo 459804" width="84" height="84" transform="translate(393.711 8671)" fill="#68eae0"/>
    <g id="columnas_1_" data-name="columnas (1)" transform="translate(408.711 8686)">
      <path id="Trazado_1032989" data-name="Trazado 1032989" d="M52.9,0H.9A.9.9,0,0,0,0,.9v52a.9.9,0,0,0,.9.9h52a.9.9,0,0,0,.9-.9V.9A.9.9,0,0,0,52.9,0ZM52,1.793v8.966H1.793V1.793ZM46.622,12.552V52H7.173V12.552ZM1.793,52V12.552H5.379V52ZM52,52H48.415V12.552H52Zm0,0"/>
      <path id="Trazado_1032990" data-name="Trazado 1032990" d="M56,48h1.793v1.793H56Zm0,0" transform="translate(-49.724 -42.621)"/>
      <path id="Trazado_1032991" data-name="Trazado 1032991" d="M88,48h1.793v1.793H88Zm0,0" transform="translate(-78.138 -42.621)"/>
      <path id="Trazado_1032992" data-name="Trazado 1032992" d="M120,48h1.793v1.793H120Zm0,0" transform="translate(-106.551 -42.621)"/>
      <path id="Trazado_1032993" data-name="Trazado 1032993" d="M416,48h1.793v1.793H416Zm0,0" transform="translate(-369.378 -42.621)"/>
      <path id="Trazado_1032994" data-name="Trazado 1032994" d="M24.9,31.173H71.518a.9.9,0,0,0,.9-.9V24.9a.9.9,0,0,0-.9-.9H24.9a.9.9,0,0,0-.9.9v5.379A.9.9,0,0,0,24.9,31.173Zm45.725-1.793H40.138V25.793H70.622ZM25.793,25.793H38.345v3.586H25.793Zm0,0" transform="translate(-21.31 -21.31)"/>
      <path id="Trazado_1032995" data-name="Trazado 1032995" d="M80.9,141.379H95.242a.9.9,0,0,0,.9-.9V136.9a.9.9,0,0,0-.9-.9H80.9a.9.9,0,0,0-.9.9v3.586A.9.9,0,0,0,80.9,141.379Zm.9-3.586H94.345v1.793H81.793Zm0,0" transform="translate(-71.034 -120.758)"/>
      <path id="Trazado_1032996" data-name="Trazado 1032996" d="M256.9,141.379h14.345a.9.9,0,0,0,.9-.9V136.9a.9.9,0,0,0-.9-.9H256.9a.9.9,0,0,0-.9.9v3.586A.9.9,0,0,0,256.9,141.379Zm.9-3.586h12.552v1.793H257.793Zm0,0" transform="translate(-227.31 -120.758)"/>
      <path id="Trazado_1032997" data-name="Trazado 1032997" d="M80.9,205.379H95.242a.9.9,0,0,0,.9-.9V200.9a.9.9,0,0,0-.9-.9H80.9a.9.9,0,0,0-.9.9v3.586A.9.9,0,0,0,80.9,205.379Zm.9-3.586H94.345v1.793H81.793Zm0,0" transform="translate(-71.034 -177.586)"/>
      <path id="Trazado_1032998" data-name="Trazado 1032998" d="M256.9,205.379h14.345a.9.9,0,0,0,.9-.9V200.9a.9.9,0,0,0-.9-.9H256.9a.9.9,0,0,0-.9.9v3.586A.9.9,0,0,0,256.9,205.379Zm.9-3.586h12.552v1.793H257.793Zm0,0" transform="translate(-227.31 -177.586)"/>
      <path id="Trazado_1032999" data-name="Trazado 1032999" d="M80.9,269.379H95.242a.9.9,0,0,0,.9-.9V264.9a.9.9,0,0,0-.9-.9H80.9a.9.9,0,0,0-.9.9v3.586A.9.9,0,0,0,80.9,269.379Zm.9-3.586H94.345v1.793H81.793Zm0,0" transform="translate(-71.034 -234.413)"/>
      <path id="Trazado_1033000" data-name="Trazado 1033000" d="M256.9,269.379h14.345a.9.9,0,0,0,.9-.9V264.9a.9.9,0,0,0-.9-.9H256.9a.9.9,0,0,0-.9.9v3.586A.9.9,0,0,0,256.9,269.379Zm.9-3.586h12.552v1.793H257.793Zm0,0" transform="translate(-227.31 -234.413)"/>
      <path id="Trazado_1033001" data-name="Trazado 1033001" d="M80.9,333.379H95.242a.9.9,0,0,0,.9-.9V328.9a.9.9,0,0,0-.9-.9H80.9a.9.9,0,0,0-.9.9v3.586A.9.9,0,0,0,80.9,333.379Zm.9-3.586H94.345v1.793H81.793Zm0,0" transform="translate(-71.034 -291.24)"/>
      <path id="Trazado_1033002" data-name="Trazado 1033002" d="M256.9,333.379h14.345a.9.9,0,0,0,.9-.9V328.9a.9.9,0,0,0-.9-.9H256.9a.9.9,0,0,0-.9.9v3.586A.9.9,0,0,0,256.9,333.379Zm.9-3.586h12.552v1.793H257.793Zm0,0" transform="translate(-227.31 -291.24)"/>
      <path id="Trazado_1033003" data-name="Trazado 1033003" d="M80.9,397.379H95.242a.9.9,0,0,0,.9-.9V392.9a.9.9,0,0,0-.9-.9H80.9a.9.9,0,0,0-.9.9v3.586A.9.9,0,0,0,80.9,397.379Zm.9-3.586H94.345v1.793H81.793Zm0,0" transform="translate(-71.034 -348.068)"/>
      <path id="Trazado_1033004" data-name="Trazado 1033004" d="M256.9,397.379h14.345a.9.9,0,0,0,.9-.9V392.9a.9.9,0,0,0-.9-.9H256.9a.9.9,0,0,0-.9.9v3.586A.9.9,0,0,0,256.9,397.379Zm.9-3.586h12.552v1.793H257.793Zm0,0" transform="translate(-227.31 -348.068)"/>
    </g>
  </g>
</svg>
