<svg xmlns="http://www.w3.org/2000/svg" width="84" height="84" viewBox="0 0 84 84">
  <g id="Grupo_1189279" data-name="Grupo 1189279" transform="translate(-393.711 -8777)">
    <rect id="Rectángulo_459803" data-name="Rectángulo 459803" width="84" height="84" transform="translate(393.711 8777)" fill="#68eae0"/>
    <g id="imagenes" transform="translate(408.711 8792)">
      <path id="Trazado_1033005" data-name="Trazado 1033005" d="M52.9,0H.9A.9.9,0,0,0,0,.9v52a.9.9,0,0,0,.9.9h52a.9.9,0,0,0,.9-.9V.9A.9.9,0,0,0,52.9,0ZM52,1.793v8.966H1.793V1.793ZM1.793,52V12.552H52V52Zm0,0"/>
      <path id="Trazado_1033006" data-name="Trazado 1033006" d="M56,48h1.793v1.793H56Zm0,0" transform="translate(-49.724 -42.621)"/>
      <path id="Trazado_1033007" data-name="Trazado 1033007" d="M88,48h1.793v1.793H88Zm0,0" transform="translate(-78.138 -42.621)"/>
      <path id="Trazado_1033008" data-name="Trazado 1033008" d="M120,48h1.793v1.793H120Zm0,0" transform="translate(-106.551 -42.621)"/>
      <path id="Trazado_1033009" data-name="Trazado 1033009" d="M416,48h1.793v1.793H416Zm0,0" transform="translate(-369.378 -42.621)"/>
      <path id="Trazado_1033010" data-name="Trazado 1033010" d="M24.9,31.173H71.518a.9.9,0,0,0,.9-.9V24.9a.9.9,0,0,0-.9-.9H24.9a.9.9,0,0,0-.9.9v5.379A.9.9,0,0,0,24.9,31.173Zm45.725-1.793H40.138V25.793H70.622ZM25.793,25.793H38.345v3.586H25.793Zm0,0" transform="translate(-21.31 -21.31)"/>
      <path id="Trazado_1033011" data-name="Trazado 1033011" d="M123.655,128H112.9a.9.9,0,0,0-.9.9v10.759a.9.9,0,0,0,.9.9h10.759a.9.9,0,0,0,.9-.9V128.9A.9.9,0,0,0,123.655,128Zm-.9,10.759h-8.966v-8.966h8.966Zm0,0" transform="translate(-99.448 -113.655)"/>
      <path id="Trazado_1033012" data-name="Trazado 1033012" d="M123.655,288H112.9a.9.9,0,0,0-.9.9v10.759a.9.9,0,0,0,.9.9h10.759a.9.9,0,0,0,.9-.9V288.9A.9.9,0,0,0,123.655,288Zm-.9,10.759h-8.966v-8.966h8.966Zm0,0" transform="translate(-99.448 -255.723)"/>
      <path id="Trazado_1033013" data-name="Trazado 1033013" d="M32,160h1.793v1.793H32Zm0,0" transform="translate(-28.414 -142.069)"/>
      <path id="Trazado_1033014" data-name="Trazado 1033014" d="M64,160h3.586v1.793H64Zm0,0" transform="translate(-56.827 -142.069)"/>
      <path id="Trazado_1033015" data-name="Trazado 1033015" d="M32,192h7.173v1.793H32Zm0,0" transform="translate(-28.414 -170.482)"/>
      <path id="Trazado_1033016" data-name="Trazado 1033016" d="M267.655,128H256.9a.9.9,0,0,0-.9.9v10.759a.9.9,0,0,0,.9.9h10.759a.9.9,0,0,0,.9-.9V128.9A.9.9,0,0,0,267.655,128Zm-.9,10.759h-8.966v-8.966h8.966Zm0,0" transform="translate(-227.31 -113.655)"/>
      <path id="Trazado_1033017" data-name="Trazado 1033017" d="M432,160h1.793v1.793H432Zm0,0" transform="translate(-383.585 -142.069)"/>
      <path id="Trazado_1033018" data-name="Trazado 1033018" d="M384,160h3.586v1.793H384Zm0,0" transform="translate(-340.964 -142.069)"/>
      <path id="Trazado_1033019" data-name="Trazado 1033019" d="M384,192h7.173v1.793H384Zm0,0" transform="translate(-340.964 -170.482)"/>
      <path id="Trazado_1033020" data-name="Trazado 1033020" d="M80,320h1.793v1.793H80Zm0,0" transform="translate(-71.034 -284.137)"/>
      <path id="Trazado_1033021" data-name="Trazado 1033021" d="M32,320h3.586v1.793H32Zm0,0" transform="translate(-28.414 -284.137)"/>
      <path id="Trazado_1033022" data-name="Trazado 1033022" d="M32,352h7.173v1.793H32Zm0,0" transform="translate(-28.414 -312.551)"/>
      <path id="Trazado_1033023" data-name="Trazado 1033023" d="M136,408h7.173v1.793H136Zm0,0" transform="translate(-120.758 -362.275)"/>
      <path id="Trazado_1033024" data-name="Trazado 1033024" d="M136,432h7.173v1.793H136Zm0,0" transform="translate(-120.758 -383.585)"/>
      <path id="Trazado_1033025" data-name="Trazado 1033025" d="M267.655,288H256.9a.9.9,0,0,0-.9.9v10.759a.9.9,0,0,0,.9.9h10.759a.9.9,0,0,0,.9-.9V288.9A.9.9,0,0,0,267.655,288Zm-.9,10.759h-8.966v-8.966h8.966Zm0,0" transform="translate(-227.31 -255.723)"/>
      <path id="Trazado_1033026" data-name="Trazado 1033026" d="M384,320h1.793v1.793H384Zm0,0" transform="translate(-340.964 -284.137)"/>
      <path id="Trazado_1033027" data-name="Trazado 1033027" d="M416,320h3.586v1.793H416Zm0,0" transform="translate(-369.378 -284.137)"/>
      <path id="Trazado_1033028" data-name="Trazado 1033028" d="M384,352h7.173v1.793H384Zm0,0" transform="translate(-340.964 -312.551)"/>
      <path id="Trazado_1033029" data-name="Trazado 1033029" d="M280,408h7.173v1.793H280Zm0,0" transform="translate(-248.62 -362.275)"/>
      <path id="Trazado_1033030" data-name="Trazado 1033030" d="M280,432h7.173v1.793H280Zm0,0" transform="translate(-248.62 -383.585)"/>
    </g>
  </g>
</svg>
