<svg xmlns="http://www.w3.org/2000/svg" xmlns:xlink="http://www.w3.org/1999/xlink" width="96" height="96" viewBox="0 0 96 96">
  <defs>
    <clipPath id="clip-path">
      <rect id="Rectángulo_456267" data-name="Rectángulo 456267" width="96" height="96" fill="none"/>
    </clipPath>
  </defs>
  <g id="Grupo_1189245" data-name="Grupo 1189245" transform="translate(479.746 8495) rotate(180)">
    <path id="Trazado_999622" data-name="Trazado 999622" d="M43.07,0A43.07,43.07,0,1,1,0,43.07,43.071,43.071,0,0,1,43.07,0" transform="translate(388.676 8403.93)" fill="#e3fbf9"/>
    <g id="Grupo_1179902" data-name="Grupo 1179902" transform="translate(383.746 8399)">
      <g id="Grupo_1179905" data-name="Grupo 1179905" clip-path="url(#clip-path)">
        <path id="Trazado_999618" data-name="Trazado 999618" d="M48,0A48,48,0,1,1,0,48,48,48,0,0,1,48,0" fill="none"/>
        <path id="Trazado_999619" data-name="Trazado 999619" d="M3.75,59A3.75,3.75,0,1,1,0,62.75,3.75,3.75,0,0,1,3.75,59" transform="translate(0 -14.75)" fill="#0f654d"/>
        <path id="Trazado_999620" data-name="Trazado 999620" d="M19.75,19A3.75,3.75,0,1,1,16,22.75,3.75,3.75,0,0,1,19.75,19" transform="translate(-4 -4.75)" fill="#0f654d"/>
        <path id="Trazado_999621" data-name="Trazado 999621" d="M49,94A45.051,45.051,0,0,1,4,49H6.25A42.75,42.75,0,1,0,17.806,19.768l-1.641-1.539A45,45,0,1,1,49,94" transform="translate(-1 -1)" fill="#0f654d"/>
        <rect id="Rectángulo_456268" data-name="Rectángulo 456268" width="96" height="96" fill="none"/>
        <rect id="Rectángulo_456269" data-name="Rectángulo 456269" width="96" height="96" fill="none"/>
      </g>
    </g>
    <g id="Grupo_1179903" data-name="Grupo 1179903" transform="translate(458.745 8474.508) rotate(180)">
      <g id="Grupo_1099618" data-name="Grupo 1099618" transform="translate(-0.036 -0.492)">
        <rect id="Rectángulo_401104" data-name="Rectángulo 401104" width="54.153" height="54.806" transform="translate(0)" fill="none"/>
      </g>
      <g id="compartir" transform="translate(0.964 1.508)">
        <path id="Trazado_1033405" data-name="Trazado 1033405" d="M43.992,35.2a6.488,6.488,0,1,0-8.366-.161h-7.9c-.053-.126-.1-.252-.156-.378l1.21-2-.866-.866h1.448A2.434,2.434,0,0,0,31.8,29.365V27.744a2.434,2.434,0,0,0-2.431-2.431H27.744a.811.811,0,0,1-.81-.81v-.81h8.1V19.64a8.922,8.922,0,0,0-5.693-8.3,5.673,5.673,0,1,0-6.443,0,8.954,8.954,0,0,0-4.883,4.611,8.951,8.951,0,0,0-4.883-4.611,5.673,5.673,0,1,0-6.443,0A8.922,8.922,0,0,0,1,19.64v4.052H9.1v.81a.811.811,0,0,1-.81.81H6.673a2.434,2.434,0,0,0-2.431,2.431v1.621A2.434,2.434,0,0,0,6.673,31.8H8.121l-.866.866,1.209,2q-.187.4-.337.806l-2.264.557v6.133l2.264.557q.15.4.337.806l-1.209,2,4.337,4.337,2-1.209c.267.125.537.237.806.337l.556,2.264h6.133l.557-2.264q.4-.15.806-.337l2,1.209,4.337-4.337-1.209-2c.125-.267.237-.537.337-.806l2.264-.556V40.711h1.216a1.217,1.217,0,0,1,1.216,1.216v9.32h18.64V43.953A8.925,8.925,0,0,0,43.992,35.2Zm-8.954-5.024A4.863,4.863,0,1,1,39.9,35.038,4.867,4.867,0,0,1,35.038,30.175ZM22.071,6.673a4.052,4.052,0,1,1,4.052,4.052A4.057,4.057,0,0,1,22.071,6.673Zm4.052,5.673a7.3,7.3,0,0,1,7.294,7.294v2.431H30.986V15.588H29.365v6.483H22.882V15.588H21.261v6.483H18.829V19.64A7.3,7.3,0,0,1,26.123,12.346ZM5.863,6.673a4.052,4.052,0,1,1,4.052,4.052A4.057,4.057,0,0,1,5.863,6.673ZM2.621,19.64a7.294,7.294,0,1,1,14.588,0v2.431H14.777V15.588H13.156v6.483H6.673V15.588H5.052v6.483H2.621ZM6.673,30.175a.811.811,0,0,1-.81-.81V27.744a.811.811,0,0,1,.81-.81H8.294A2.434,2.434,0,0,0,10.725,24.5v-.81H25.313v.81a2.434,2.434,0,0,0,2.431,2.431h1.621a.811.811,0,0,1,.81.81v1.621a.811.811,0,0,1-.81.81H26.3l-1.849-1.849-2,1.209q-.4-.187-.806-.337l-.557-2.264H14.952L14.4,29.2q-.4.15-.806.337l-2-1.209L9.742,30.175ZM28.555,40.886l-1.9.468-.138.433a8.863,8.863,0,0,1-.586,1.4l-.21.4,1.017,1.681L24.2,47.81l-1.681-1.017-.4.21a8.829,8.829,0,0,1-1.4.585l-.434.137-.467,1.9H16.223l-.468-1.9-.433-.138a8.863,8.863,0,0,1-1.4-.586l-.4-.21-1.681,1.017L9.3,45.27l1.017-1.681-.21-.4a8.829,8.829,0,0,1-.585-1.4l-.137-.434-1.9-.467V37.294l1.9-.468.137-.434a8.892,8.892,0,0,1,.585-1.4l.21-.4L9.3,32.91l2.539-2.539,1.681,1.017.4-.21a8.829,8.829,0,0,1,1.4-.585l.434-.137.467-1.9h3.592l.468,1.9.434.137a8.893,8.893,0,0,1,1.4.585l.4.21L24.2,30.372l2.539,2.539-1.017,1.681.21.4.021.044H24.065a7.276,7.276,0,1,0,1.066,5.672h3.424Zm-8.6-.336a2.429,2.429,0,1,1-1.936-3.892,2.273,2.273,0,0,1,.266.035,2.8,2.8,0,0,0-.266,1.181,2.83,2.83,0,0,0,1.936,2.676Zm-.372-5.2a4.052,4.052,0,1,0,2.148,5.358h1.722a5.678,5.678,0,1,1-1.471-5.673H20.856a2.806,2.806,0,0,0-1.272.315ZM49.626,49.626H47.194V40.711H45.574v8.915H34.228v-7.7a2.84,2.84,0,0,0-2.837-2.837H20.856a1.216,1.216,0,1,1,0-2.431H42.332a7.3,7.3,0,0,1,7.294,7.294Z" transform="translate(0 0)" fill="#0f654d"/>
        <path id="Trazado_1033406" data-name="Trazado 1033406" d="M59.588,18.673A5.68,5.68,0,0,0,53.915,13H50.673A5.68,5.68,0,0,0,45,18.673v5.673h8.915A5.68,5.68,0,0,0,59.588,18.673Zm-12.967,0a4.057,4.057,0,0,1,4.052-4.052h3.242a4.052,4.052,0,1,1,0,8.1H46.621Z" transform="translate(-8.341 -2.275)" fill="#0f654d"/>
        <path id="Trazado_1033407" data-name="Trazado 1033407" d="M49,21h1.621v1.621H49Z" transform="translate(-9.099 -3.791)" fill="#0f654d"/>
        <path id="Trazado_1033408" data-name="Trazado 1033408" d="M53,21h1.621v1.621H53Z" transform="translate(-9.858 -3.791)" fill="#0f654d"/>
        <path id="Trazado_1033409" data-name="Trazado 1033409" d="M57,21h1.621v1.621H57Z" transform="translate(-10.616 -3.791)" fill="#0f654d"/>
        <path id="Trazado_1033410" data-name="Trazado 1033410" d="M49,17h8.1v1.621H49Z" transform="translate(-9.099 -3.033)" fill="#0f654d"/>
      </g>
    </g>
  </g>
</svg>
