<svg xmlns="http://www.w3.org/2000/svg" xmlns:xlink="http://www.w3.org/1999/xlink" width="96" height="96" viewBox="0 0 96 96">
  <defs>
    <clipPath id="clip-path">
      <rect id="Rectángulo_456267" data-name="Rectángulo 456267" width="96" height="96" fill="none"/>
    </clipPath>
  </defs>
  <g id="Grupo_1189245" data-name="Grupo 1189245" transform="translate(479.746 8495) rotate(180)">
    <path id="Trazado_999622" data-name="Trazado 999622" d="M43.07,0A43.07,43.07,0,1,1,0,43.07,43.071,43.071,0,0,1,43.07,0" transform="translate(388.676 8403.93)" fill="#e3fbf9"/>
    <g id="Grupo_1179902" data-name="Grupo 1179902" transform="translate(383.746 8399)">
      <g id="Grupo_1179905" data-name="Grupo 1179905" clip-path="url(#clip-path)">
        <path id="Trazado_999618" data-name="Trazado 999618" d="M48,0A48,48,0,1,1,0,48,48,48,0,0,1,48,0" fill="none"/>
        <path id="Trazado_999619" data-name="Trazado 999619" d="M3.75,59A3.75,3.75,0,1,1,0,62.75,3.75,3.75,0,0,1,3.75,59" transform="translate(0 -14.75)" fill="#0f654d"/>
        <path id="Trazado_999620" data-name="Trazado 999620" d="M19.75,19A3.75,3.75,0,1,1,16,22.75,3.75,3.75,0,0,1,19.75,19" transform="translate(-4 -4.75)" fill="#0f654d"/>
        <path id="Trazado_999621" data-name="Trazado 999621" d="M49,94A45.051,45.051,0,0,1,4,49H6.25A42.75,42.75,0,1,0,17.806,19.768l-1.641-1.539A45,45,0,1,1,49,94" transform="translate(-1 -1)" fill="#0f654d"/>
        <rect id="Rectángulo_456268" data-name="Rectángulo 456268" width="96" height="96" fill="none"/>
        <rect id="Rectángulo_456269" data-name="Rectángulo 456269" width="96" height="96" fill="none"/>
      </g>
    </g>
    <g id="Grupo_1179903" data-name="Grupo 1179903" transform="translate(458.745 8474.508) rotate(180)">
      <g id="Grupo_1099618" data-name="Grupo 1099618" transform="translate(0 0)">
        <rect id="Rectángulo_401104" data-name="Rectángulo 401104" width="54.153" height="54.806" transform="translate(0)" fill="none"/>
      </g>
      <g id="inteligencia" transform="translate(2.011 3.339)">
        <g id="Grupo_1189565" data-name="Grupo 1189565" transform="translate(0 0)">
          <path id="Trazado_1033447" data-name="Trazado 1033447" d="M182.264,93.458l3.089,3.089,1.029-.482.388,1.069h4.367l.388-1.068,1.029.482,3.089-3.089-.481-1.029,1.069-.389V87.673l-1.068-.387.481-1.029-3.089-3.089-1.029.482-.388-1.07h-4.367l-.388,1.068-1.029-.482-3.089,3.089.481,1.029-1.069.389V92.04l1.068.387Zm1.03-4.651.665-.243.361-.171.342-.824-.454-.971,1.485-1.486.97.453.873-.36L187.9,84.2H190l.242.665.164.357.834.344.97-.453L193.7,86.6l-.454.971.361.871,1.007.367v2.1l-.665.243-.361.171-.342.824.454.971L192.214,94.6l-.969-.453-.874.36L190,95.516h-2.1l-.242-.665-.165-.358-.834-.344-.969.453-1.485-1.486.454-.971-.361-.871-1.007-.367Z" transform="translate(-163.89 -74.495)" fill="#0f654d"/>
          <path id="Trazado_1033448" data-name="Trazado 1033448" d="M40.384,16.17h3.39a3.234,3.234,0,1,0,0-1.617h-3.39a15.252,15.252,0,0,0-1.891-6.632l3.756-2.347a3.225,3.225,0,1,0-1.015-2.34A3.19,3.19,0,0,0,41.4,4.2L37.63,6.554a15.324,15.324,0,0,0-25.133,0L8.729,4.2a3.19,3.19,0,0,0,.164-.966A3.255,3.255,0,1,0,7.879,5.575l3.756,2.347a15.239,15.239,0,0,0-1.891,6.632H6.353a3.234,3.234,0,1,0,0,1.617h3.39a15.31,15.31,0,0,0,5.221,10.737L9.6,33.741a4.9,4.9,0,1,0,1.268,1l5.369-6.834A15.342,15.342,0,0,0,19.4,29.629V43.083l3.737,5.98a2.268,2.268,0,0,0,3.845,0l3.737-5.98V29.629A15.335,15.335,0,0,0,33.9,27.91l5.369,6.834a4.814,4.814,0,1,0,1.268-1l-5.369-6.833A15.313,15.313,0,0,0,40.384,16.17Zm6.509-2.426a1.617,1.617,0,1,1-1.617,1.617A1.619,1.619,0,0,1,46.893,13.745ZM44.468,1.617a1.617,1.617,0,1,1-1.617,1.617,1.619,1.619,0,0,1,1.617-1.617ZM5.659,4.851A1.617,1.617,0,1,1,7.276,3.234,1.619,1.619,0,0,1,5.659,4.851ZM3.234,16.979a1.617,1.617,0,1,1,1.617-1.617A1.619,1.619,0,0,1,3.234,16.979ZM7.277,41.234A3.234,3.234,0,1,1,10.511,38,3.237,3.237,0,0,1,7.277,41.234ZM46.085,38a3.234,3.234,0,1,1-3.234-3.234A3.237,3.237,0,0,1,46.085,38ZM11.319,15.362A13.745,13.745,0,1,1,25.064,29.106,13.76,13.76,0,0,1,11.319,15.362ZM24.255,42.042V30.682c.269.015.535.041.809.041s.539-.027.809-.041v11.36Zm-1.617-11.53v11.53H21.021V30.165A15.049,15.049,0,0,0,22.638,30.512ZM25.615,48.2a.673.673,0,0,1-1.1,0l-2.842-4.545h6.784Zm3.491-6.162H27.489V30.512a15.276,15.276,0,0,0,1.617-.347Z" transform="translate(0 0)" fill="#0f654d"/>
          <path id="Trazado_1033449" data-name="Trazado 1033449" d="M144.257,57.287A12.128,12.128,0,1,0,132.129,45.16,12.141,12.141,0,0,0,144.257,57.287Zm0-22.638A10.511,10.511,0,1,1,133.746,45.16,10.523,10.523,0,0,1,144.257,34.649Z" transform="translate(-119.193 -29.798)" fill="#0f654d"/>
          <path id="Trazado_1033450" data-name="Trazado 1033450" d="M218.752,123.7a4.043,4.043,0,1,0-4.042-4.043A4.047,4.047,0,0,0,218.752,123.7Zm0-6.468a2.425,2.425,0,1,1-2.426,2.425A2.428,2.428,0,0,1,218.752,117.231Z" transform="translate(-193.689 -104.295)" fill="#0f654d"/>
        </g>
      </g>
    </g>
  </g>
</svg>
