<svg xmlns="http://www.w3.org/2000/svg" xmlns:xlink="http://www.w3.org/1999/xlink" width="96" height="96" viewBox="0 0 96 96">
  <defs>
    <clipPath id="clip-path">
      <rect id="Rectángulo_456267" data-name="Rectángulo 456267" width="96" height="96" fill="none"/>
    </clipPath>
  </defs>
  <g id="Grupo_1189566" data-name="Grupo 1189566" transform="translate(479.746 8495) rotate(180)">
    <path id="Trazado_999622" data-name="Trazado 999622" d="M43.07,0A43.07,43.07,0,1,1,0,43.07,43.071,43.071,0,0,1,43.07,0" transform="translate(388.676 8403.93)" fill="#e3fbf9"/>
    <g id="Grupo_1179902" data-name="Grupo 1179902" transform="translate(383.746 8399)">
      <g id="Grupo_1179905" data-name="Grupo 1179905" clip-path="url(#clip-path)">
        <path id="Trazado_999618" data-name="Trazado 999618" d="M48,0A48,48,0,1,1,0,48,48,48,0,0,1,48,0" fill="none"/>
        <path id="Trazado_999619" data-name="Trazado 999619" d="M3.75,59A3.75,3.75,0,1,1,0,62.75,3.75,3.75,0,0,1,3.75,59" transform="translate(0 -14.75)" fill="#0f654d"/>
        <path id="Trazado_999620" data-name="Trazado 999620" d="M19.75,19A3.75,3.75,0,1,1,16,22.75,3.75,3.75,0,0,1,19.75,19" transform="translate(-4 -4.75)" fill="#0f654d"/>
        <path id="Trazado_999621" data-name="Trazado 999621" d="M49,94A45.051,45.051,0,0,1,4,49H6.25A42.75,42.75,0,1,0,17.806,19.768l-1.641-1.539A45,45,0,1,1,49,94" transform="translate(-1 -1)" fill="#0f654d"/>
        <rect id="Rectángulo_456268" data-name="Rectángulo 456268" width="96" height="96" fill="none"/>
        <rect id="Rectángulo_456269" data-name="Rectángulo 456269" width="96" height="96" fill="none"/>
      </g>
    </g>
    <g id="Grupo_1179903" data-name="Grupo 1179903" transform="translate(458.745 8474.508) rotate(180)">
      <g id="Grupo_1099618" data-name="Grupo 1099618" transform="translate(0 0)">
        <rect id="Rectángulo_401104" data-name="Rectángulo 401104" width="54.153" height="54.806" transform="translate(0)" fill="none"/>
      </g>
      <g id="desarrollar" transform="translate(-0.581 0.962)">
        <path id="Trazado_1033451" data-name="Trazado 1033451" d="M4,58H5.684v1.684H4Z" transform="translate(-0.632 -9.163)" fill="#0f654d"/>
        <path id="Trazado_1033452" data-name="Trazado 1033452" d="M8,58H9.684v1.684H8Z" transform="translate(-1.264 -9.163)" fill="#0f654d"/>
        <path id="Trazado_1033453" data-name="Trazado 1033453" d="M12,58h1.684v1.684H12Z" transform="translate(-1.896 -9.163)" fill="#0f654d"/>
        <path id="Trazado_1033454" data-name="Trazado 1033454" d="M16,58h1.684v1.684H16Z" transform="translate(-2.528 -9.163)" fill="#0f654d"/>
        <path id="Trazado_1033455" data-name="Trazado 1033455" d="M4.21,30.313A4.215,4.215,0,0,0,8.42,26.1a4.164,4.164,0,0,0-.45-1.857l7.315-5.69a5.872,5.872,0,0,0,8.723-.621l3.166,1.81a4.141,4.141,0,0,0-.228,1.305,4.21,4.21,0,1,0,7.719-2.318L39.9,13.493A7.6,7.6,0,1,0,38.712,12.3l-5.239,5.239a4.165,4.165,0,0,0-5.465.741l-3.163-1.808a5.894,5.894,0,1,0-10.6.753L6.933,22.919A4.173,4.173,0,0,0,4.21,21.893a4.21,4.21,0,0,0,0,8.42ZM50.522,7.578Zm-11.788,0ZM31.155,18.525a2.526,2.526,0,1,1-2.526,2.526A2.529,2.529,0,0,1,31.155,18.525ZM19.367,10.1a4.21,4.21,0,1,1-4.21,4.21A4.215,4.215,0,0,1,19.367,10.1ZM4.21,23.577A2.526,2.526,0,1,1,1.684,26.1,2.529,2.529,0,0,1,4.21,23.577Z" fill="#0f654d"/>
        <ellipse id="Elipse_13724" data-name="Elipse 13724" cx="1" cy="0.5" rx="1" ry="0.5" transform="translate(3.545 25.546)" fill="#0f654d"/>
        <ellipse id="Elipse_13725" data-name="Elipse 13725" cx="1" cy="1.5" rx="1" ry="1.5" transform="translate(29.545 19.546)" fill="#0f654d"/>
        <path id="Trazado_1033456" data-name="Trazado 1033456" d="M22.526,19.052A2.526,2.526,0,1,0,20,16.526,2.529,2.529,0,0,0,22.526,19.052Zm0-3.368a.842.842,0,1,1-.842.842A.842.842,0,0,1,22.526,15.684Z" transform="translate(-3.159 -2.212)" fill="#0f654d"/>
        <path id="Trazado_1033457" data-name="Trazado 1033457" d="M2,4H5.368V5.684H2Z" transform="translate(-0.316 -0.632)" fill="#0f654d"/>
        <path id="Trazado_1033458" data-name="Trazado 1033458" d="M8,4h8.42V5.684H8Z" transform="translate(-1.264 -0.632)" fill="#0f654d"/>
        <path id="Trazado_1033459" data-name="Trazado 1033459" d="M2,8H15.472V9.684H2Z" transform="translate(-0.316 -1.264)" fill="#0f654d"/>
        <path id="Trazado_1033460" data-name="Trazado 1033460" d="M2,12H12.1v1.684H2Z" transform="translate(-0.316 -1.896)" fill="#0f654d"/>
        <path id="Trazado_1033461" data-name="Trazado 1033461" d="M2,16H3.684v1.684H2Z" transform="translate(-0.316 -2.528)" fill="#0f654d"/>
        <path id="Trazado_1033462" data-name="Trazado 1033462" d="M6,16H7.684v1.684H6Z" transform="translate(-0.948 -2.528)" fill="#0f654d"/>
        <path id="Trazado_1033463" data-name="Trazado 1033463" d="M45.578,38a7.578,7.578,0,1,0,7.578,7.578A7.586,7.586,0,0,0,45.578,38Zm0,13.472a5.894,5.894,0,1,1,5.894-5.894A5.9,5.9,0,0,1,45.578,51.472Z" transform="translate(-6.003 -6.003)" fill="#0f654d"/>
        <path id="Trazado_1033464" data-name="Trazado 1033464" d="M46.21,42a4.21,4.21,0,1,0,4.21,4.21A4.215,4.215,0,0,0,46.21,42Zm0,6.736a2.526,2.526,0,1,1,2.526-2.526A2.529,2.529,0,0,1,46.21,48.736Z" transform="translate(-6.635 -6.635)" fill="#0f654d"/>
        <path id="Trazado_1033465" data-name="Trazado 1033465" d="M48.96,39.795a.826.826,0,0,1,.184-.918l1.743-1.744-4.762-4.762-1.744,1.743a.841.841,0,0,1-1.437-.6V31.052H36.207v2.466a.841.841,0,0,1-1.437.6l-1.744-1.743-4.762,4.762,1.743,1.744a.814.814,0,0,1,.235.741.882.882,0,0,1-.139.328l-.949-.712a7.279,7.279,0,0,0-3.893-1.428V27.684A1.686,1.686,0,0,0,23.577,26H20.209a1.686,1.686,0,0,0-1.684,1.684V41.478a7.243,7.243,0,0,0-.571,1.255l-.036.107H15.156V34.42a1.686,1.686,0,0,0-1.684-1.684H10.1A1.686,1.686,0,0,0,8.42,34.42v8.42H2.526A2.529,2.529,0,0,0,0,45.367v1.684a2.529,2.529,0,0,0,2.526,2.526H17.917l.035.107a7.233,7.233,0,0,0,11.2,3.5l1.176-.882,2.7,2.7,1.744-1.743a.841.841,0,0,1,1.437.594v2.466h6.736V53.847a.841.841,0,0,1,1.437-.6l1.744,1.743,4.762-4.763-1.743-1.744a.841.841,0,0,1,.6-1.437h2.466V40.314H49.739A.829.829,0,0,1,48.96,39.795ZM23.577,27.684V37.9a7.191,7.191,0,0,0-3.368,1.569V27.684ZM10.1,34.42h3.368v8.42H10.1ZM29.47,50.84l-1.326,1a5.549,5.549,0,0,1-8.593-2.685l-.419-1.258H2.526a.842.842,0,0,1-.842-.842V45.367a.842.842,0,0,1,.842-.842H19.132l.42-1.258a5.548,5.548,0,0,1,8.591-2.685l1.328,1v1.263H26.1a1.686,1.686,0,0,0-1.684,1.684v3.368A1.686,1.686,0,0,0,26.1,49.577h3.368Zm21.051-5.473h-.782a2.526,2.526,0,0,0-1.786,4.313l.552.553-2.381,2.381-.553-.552a2.526,2.526,0,0,0-4.312,1.785v.782H37.891v-.782a2.526,2.526,0,0,0-4.313-1.786l-.553.552-1.87-1.87V49.577a1.686,1.686,0,0,0-1.684-1.684H26.1V44.525h3.368a1.686,1.686,0,0,0,1.684-1.684V41.577a1.663,1.663,0,0,0-.031-.266,2.542,2.542,0,0,0,.773-1.383,2.483,2.483,0,0,0-.7-2.242l-.552-.553,2.381-2.381.553.552a2.526,2.526,0,0,0,4.312-1.786v-.782h3.368v.782A2.526,2.526,0,0,0,45.572,35.3l.553-.552,2.381,2.381-.552.553A2.526,2.526,0,0,0,49.739,42h.782Z" transform="translate(0 -4.107)" fill="#0f654d"/>
        <circle id="Elipse_13726" data-name="Elipse 13726" cx="6" cy="6" r="6" transform="translate(38.545 1.546)" fill="#e3fbf9"/>
      </g>
    </g>
  </g>
</svg>
