<svg xmlns="http://www.w3.org/2000/svg" xmlns:xlink="http://www.w3.org/1999/xlink" width="96" height="96" viewBox="0 0 96 96">
  <defs>
    <clipPath id="clip-path">
      <rect id="Rectángulo_456267" data-name="Rectángulo 456267" width="96" height="96" fill="none"/>
    </clipPath>
  </defs>
  <g id="Grupo_1189245" data-name="Grupo 1189245" transform="translate(479.746 8495) rotate(180)">
    <path id="Trazado_999622" data-name="Trazado 999622" d="M43.07,0A43.07,43.07,0,1,1,0,43.07,43.071,43.071,0,0,1,43.07,0" transform="translate(388.676 8403.93)" fill="#e3fbf9"/>
    <g id="Grupo_1179902" data-name="Grupo 1179902" transform="translate(383.746 8399)">
      <g id="Grupo_1179905" data-name="Grupo 1179905" clip-path="url(#clip-path)">
        <path id="Trazado_999618" data-name="Trazado 999618" d="M48,0A48,48,0,1,1,0,48,48,48,0,0,1,48,0" fill="none"/>
        <path id="Trazado_999619" data-name="Trazado 999619" d="M3.75,59A3.75,3.75,0,1,1,0,62.75,3.75,3.75,0,0,1,3.75,59" transform="translate(0 -14.75)" fill="#0f654d"/>
        <path id="Trazado_999620" data-name="Trazado 999620" d="M19.75,19A3.75,3.75,0,1,1,16,22.75,3.75,3.75,0,0,1,19.75,19" transform="translate(-4 -4.75)" fill="#0f654d"/>
        <path id="Trazado_999621" data-name="Trazado 999621" d="M49,94A45.051,45.051,0,0,1,4,49H6.25A42.75,42.75,0,1,0,17.806,19.768l-1.641-1.539A45,45,0,1,1,49,94" transform="translate(-1 -1)" fill="#0f654d"/>
        <rect id="Rectángulo_456268" data-name="Rectángulo 456268" width="96" height="96" fill="none"/>
        <rect id="Rectángulo_456269" data-name="Rectángulo 456269" width="96" height="96" fill="none"/>
      </g>
    </g>
    <g id="Grupo_1179903" data-name="Grupo 1179903" transform="translate(458.745 8474.508) rotate(180)">
      <g id="Grupo_1099618" data-name="Grupo 1099618" transform="translate(0 0)">
        <rect id="Rectángulo_401104" data-name="Rectángulo 401104" width="54.153" height="54.806" transform="translate(0)" fill="none"/>
      </g>
      <g id="panel" transform="translate(-0.036 -0.492)">
        <g id="Grupo_1189567" data-name="Grupo 1189567" transform="translate(0 0)">
          <path id="Trazado_1033466" data-name="Trazado 1033466" d="M412.9,462.452h1.759v1.759H412.9Z" transform="translate(-368.935 -413.208)" fill="#0f654d"/>
          <path id="Trazado_1033467" data-name="Trazado 1033467" d="M346.839,462.452H348.6v1.759h-1.759Z" transform="translate(-309.906 -413.208)" fill="#0f654d"/>
          <path id="Trazado_1033468" data-name="Trazado 1033468" d="M379.871,462.452h1.759v1.759h-1.759Z" transform="translate(-339.42 -413.208)" fill="#0f654d"/>
          <path id="Trazado_1033469" data-name="Trazado 1033469" d="M52.762,8.794H33.416a1.761,1.761,0,0,0-1.759,1.759v7.035H22.864V1.759A1.761,1.761,0,0,0,21.1,0H1.759A1.761,1.761,0,0,0,0,1.759V21.1a1.761,1.761,0,0,0,1.759,1.759H7.035V45.727H3.517v.879a7.923,7.923,0,0,0,7.914,7.914H43.089A7.923,7.923,0,0,0,51,46.606v-.879H47.486V31.657h5.276A1.761,1.761,0,0,0,54.521,29.9V10.552a1.761,1.761,0,0,0-1.759-1.759ZM35.175,19.346V38.692H15.829V22.863H21.1A1.761,1.761,0,0,0,22.863,21.1V19.346H35.175Zm1.759,19.346V31.657h5.276V42.209h-29.9V22.863H14.07V38.692a1.761,1.761,0,0,0,1.759,1.759H35.174a1.761,1.761,0,0,0,1.759-1.759ZM1.759,1.759H21.1V21.1H1.759Zm41.33,51H11.432a6.165,6.165,0,0,1-6.093-5.276H49.182A6.165,6.165,0,0,1,43.089,52.762Zm2.638-7.035H8.794V22.863h1.759V42.209a1.761,1.761,0,0,0,1.759,1.759h29.9a1.761,1.761,0,0,0,1.759-1.759V31.657h1.759ZM52.762,29.9H36.933V19.346a1.761,1.761,0,0,0-1.759-1.759H33.416V10.552H52.762Z" transform="translate(0 0)" fill="#0f654d"/>
          <path id="Trazado_1033470" data-name="Trazado 1033470" d="M40.946,33.032a7.914,7.914,0,1,0,7.914,7.914,7.923,7.923,0,0,0-7.914-7.914Zm-.879,1.823v5.728l-4.049,4.049a6.152,6.152,0,0,1,4.049-9.776Zm-2.805,11.02,3.684-3.684,3.684,3.684a6.143,6.143,0,0,1-7.369,0Zm8.612-1.244-4.049-4.049V34.855a6.152,6.152,0,0,1,4.049,9.776Z" transform="translate(-29.515 -29.515)" fill="#0f654d"/>
          <path id="Trazado_1033471" data-name="Trazado 1033471" d="M330.323,115.613h15.829v1.759H330.323Z" transform="translate(-295.148 -103.302)" fill="#0f654d"/>
          <path id="Trazado_1033472" data-name="Trazado 1033472" d="M363.355,148.645h12.311V150.4H363.355Z" transform="translate(-324.663 -132.816)" fill="#0f654d"/>
          <path id="Trazado_1033473" data-name="Trazado 1033473" d="M363.355,181.677h12.311v1.759H363.355Z" transform="translate(-324.663 -162.331)" fill="#0f654d"/>
          <path id="Trazado_1033474" data-name="Trazado 1033474" d="M363.355,219.986h12.311V214.71H363.355Zm1.759-3.517h8.794v1.759h-8.794Z" transform="translate(-324.663 -191.847)" fill="#0f654d"/>
          <path id="Trazado_1033475" data-name="Trazado 1033475" d="M170.437,212.264v-7.035h-1.759v7.035h-3.518v1.759H180.99V198.194h-1.759v14.07h-1.759V201.711h-1.759v10.552h-1.759V199.953H172.2v12.311Z" transform="translate(-147.574 -177.089)" fill="#0f654d"/>
        </g>
      </g>
    </g>
  </g>
</svg>
