<svg xmlns="http://www.w3.org/2000/svg" xmlns:xlink="http://www.w3.org/1999/xlink" width="130.059" height="130.059" viewBox="0 0 130.059 130.059">
  <defs>
    <clipPath id="clip-path">
      <rect id="Rectángulo_456267" data-name="Rectángulo 456267" width="130.059" height="130.059" fill="none"/>
    </clipPath>
  </defs>
  <g id="Grupo_1189179" data-name="Grupo 1189179" transform="translate(-186 -9276.941)">
    <g id="Grupo_1188419" data-name="Grupo 1188419" transform="translate(186 9276.941)">
      <g id="Grupo_1188418" data-name="Grupo 1188418" transform="translate(130.059 130.059) rotate(180)">
        <path id="Trazado_999622" data-name="Trazado 999622" d="M60.755,0A60.755,60.755,0,1,1,0,60.755,60.755,60.755,0,0,1,60.755,0" transform="translate(4.274 4.275)" fill="#e1f5ff"/>
        <g id="Grupo_1179902" data-name="Grupo 1179902" transform="translate(0 0)">
          <g id="Grupo_1179905" data-name="Grupo 1179905" clip-path="url(#clip-path)">
            <path id="Trazado_999618" data-name="Trazado 999618" d="M65.029,0A65.029,65.029,0,1,1,0,65.029,65.03,65.03,0,0,1,65.029,0" fill="none"/>
            <path id="Trazado_999619" data-name="Trazado 999619" d="M5.08,0A5.08,5.08,0,1,1,0,5.08,5.081,5.081,0,0,1,5.08,0" transform="translate(0 59.949)" fill="#19538d"/>
            <path id="Trazado_999620" data-name="Trazado 999620" d="M5.08,0A5.08,5.08,0,1,1,0,5.08,5.081,5.081,0,0,1,5.08,0" transform="translate(16.257 19.306)" fill="#19538d"/>
            <path id="Trazado_999621" data-name="Trazado 999621" d="M60.965,121.93A61.034,61.034,0,0,1,0,60.965H3.048A57.916,57.916,0,1,0,18.7,21.362l-2.223-2.085A60.965,60.965,0,1,1,60.965,121.93" transform="translate(4.064 4.064)" fill="#19538d"/>
            <rect id="Rectángulo_456268" data-name="Rectángulo 456268" width="130.059" height="130.059" fill="none"/>
            <rect id="Rectángulo_456269" data-name="Rectángulo 456269" width="130.059" height="130.059" fill="none"/>
          </g>
        </g>
        <g id="Grupo_1179903" data-name="Grupo 1179903" transform="translate(99.949 100.841) rotate(180)">
          <g id="Grupo_1099618" data-name="Grupo 1099618" transform="translate(-0.399 -0.217)">
            <rect id="Rectángulo_401104" data-name="Rectángulo 401104" width="70.232" height="71.079" transform="translate(0)" fill="none"/>
          </g>
          <g id="sitio-web_2_" data-name="sitio-web (2)" transform="translate(-53.529 0.784)">
            <path id="Trazado_1032958" data-name="Trazado 1032958" d="M176.827,109.96a1.022,1.022,0,0,0-1.445-.015l-4.231,4.147a1.022,1.022,0,0,0,0,1.46l4.231,4.141a1.022,1.022,0,1,0,1.429-1.46l-3.486-3.411,3.486-3.417A1.022,1.022,0,0,0,176.827,109.96Z" transform="translate(-93.905 -94.716)" fill="#19538d"/>
            <path id="Trazado_1032959" data-name="Trazado 1032959" d="M234.9,118.885l4.231-8.373a1.022,1.022,0,0,0-1.824-.922l-4.231,8.373a1.018,1.018,0,0,0,.451,1.373A1.082,1.082,0,0,0,234.9,118.885Z" transform="translate(-147.562 -94.177)" fill="#19538d"/>
            <path id="Trazado_1032960" data-name="Trazado 1032960" d="M295.389,119.146a1.022,1.022,0,0,0,1.445.008l4.231-4.186a1.022,1.022,0,0,0,0-1.453l-4.231-4.186a1.022,1.022,0,0,0-1.437,1.453l3.5,3.46-3.5,3.46A1.022,1.022,0,0,0,295.389,119.146Z" transform="translate(-201.228 -94.18)" fill="#19538d"/>
            <path id="Trazado_1032961" data-name="Trazado 1032961" d="M124.251,218.287v27.5a1.022,1.022,0,0,0,1.022,1.022H146.43a1.022,1.022,0,0,0,1.022-1.022v-27.5a1.022,1.022,0,0,0-1.022-1.022H125.273A1.022,1.022,0,0,0,124.251,218.287Zm2.043,1.022h19.114v25.461H126.294Z" transform="translate(-53.659 -187.668)" fill="#19538d"/>
            <path id="Trazado_1032962" data-name="Trazado 1032962" d="M310.625,218.46v27.457a1.022,1.022,0,0,0,1.022,1.022h8.463a1.022,1.022,0,0,0,1.022-1.022V218.46a1.022,1.022,0,0,0-1.022-1.022h-8.463A1.022,1.022,0,0,0,310.625,218.46Zm2.043,1.022h6.42V244.9h-6.42Z" transform="translate(-214.644 -187.818)" fill="#19538d"/>
            <path id="Trazado_1032963" data-name="Trazado 1032963" d="M169.029,256.092H156.335a1.022,1.022,0,1,0,0,2.043h12.694a1.022,1.022,0,1,0,0-2.043Z" transform="translate(-80.489 -221.206)" fill="#19538d"/>
            <path id="Trazado_1032964" data-name="Trazado 1032964" d="M169.029,287.154H156.335a1.022,1.022,0,0,0,0,2.043h12.694a1.022,1.022,0,0,0,0-2.043Z" transform="translate(-80.489 -248.037)" fill="#19538d"/>
            <path id="Trazado_1032965" data-name="Trazado 1032965" d="M169.029,318.217H156.335a1.022,1.022,0,0,0,0,2.043h12.694a1.022,1.022,0,0,0,0-2.043Z" transform="translate(-80.489 -274.868)" fill="#19538d"/>
            <path id="Trazado_1032966" data-name="Trazado 1032966" d="M169.029,349.279H156.335a1.022,1.022,0,1,0,0,2.043h12.694a1.022,1.022,0,1,0,0-2.043Z" transform="translate(-80.489 -301.699)" fill="#19538d"/>
            <path id="Trazado_1032967" data-name="Trazado 1032967" d="M169.029,380.341H156.335a1.022,1.022,0,1,0,0,2.043h12.694a1.022,1.022,0,1,0,0-2.043Z" transform="translate(-80.489 -328.529)" fill="#19538d"/>
            <path id="Trazado_1032968" data-name="Trazado 1032968" d="M113.928,29.414a1.022,1.022,0,0,0,1.022-1.022V1.022A1.022,1.022,0,0,0,113.928,0H63.152A1.022,1.022,0,0,0,62.13,1.022v67.7a1.022,1.022,0,0,0,1.022,1.022h50.776a1.022,1.022,0,0,0,1.022-1.022V32.845a1.022,1.022,0,0,0-2.043,0V67.7H64.173V6.275H75.735a1.022,1.022,0,1,0,0-2.043H64.173V2.043h28L90.147,4.231H80.188a1.022,1.022,0,1,0,0,2.043h10.4a1.022,1.022,0,0,0,.749-.327l3.617-3.9h17.947V28.392A1.022,1.022,0,0,0,113.928,29.414Z" fill="#19538d"/>
            <path id="Trazado_1032969" data-name="Trazado 1032969" d="M121.827,119.07h14.7a1.022,1.022,0,0,0,1.022-1.022V63.022A1.022,1.022,0,0,0,136.526,62H94.212a1.022,1.022,0,0,0-1.022,1.022v55.027a1.022,1.022,0,0,0,1.022,1.022h23.162a1.022,1.022,0,0,0,0-2.043H95.233V64.043H135.5v52.983H121.827a1.022,1.022,0,1,0,0,2.043Z" transform="translate(-26.829 -53.554)" fill="#19538d"/>
            <path id="Trazado_1032970" data-name="Trazado 1032970" d="M320.511,31.28a1.022,1.022,0,1,0,0-2.043h-.656a1.022,1.022,0,1,0,0,2.043Z" transform="translate(-221.735 -25.254)" fill="#19538d"/>
            <path id="Trazado_1032971" data-name="Trazado 1032971" d="M358.334,31.28a1.022,1.022,0,0,0,0-2.043h-.656a1.022,1.022,0,1,0,0,2.043Z" transform="translate(-254.405 -25.254)" fill="#19538d"/>
            <path id="Trazado_1032972" data-name="Trazado 1032972" d="M396.158,31.28a1.022,1.022,0,0,0,0-2.043H395.5a1.022,1.022,0,1,0,0,2.043Z" transform="translate(-287.077 -25.254)" fill="#19538d"/>
          </g>
        </g>
      </g>
    </g>
  </g>
</svg>
