<svg xmlns="http://www.w3.org/2000/svg" width="188" height="188" viewBox="0 0 188 188">
  <g id="Grupo_1189282" data-name="Grupo 1189282" transform="translate(-1121.422 -1320)">
    <rect id="Rectángulo_459917" data-name="Rectángulo 459917" width="188" height="188" transform="translate(1121.422 1320)" fill="#7dd3ff"/>
    <g id="surface1" transform="translate(1149.614 1347.903)">
      <path id="Trazado_1033046" data-name="Trazado 1033046" d="M218.349,198.451A1.951,1.951,0,0,0,220.3,200.4h3.251v23.149H200.4V200.4h11.575a1.951,1.951,0,0,0,0-3.9H199.491a3,3,0,0,0-2.991,2.991v24.97a3,3,0,0,0,2.991,2.991h24.97a3,3,0,0,0,2.991-2.991v-24.97a3,3,0,0,0-2.991-2.991H220.3A1.951,1.951,0,0,0,218.349,198.451Zm0,0" transform="translate(-145.39 -145.39)"/>
      <path id="Trazado_1033047" data-name="Trazado 1033047" d="M32.991,30A3,3,0,0,0,30,32.991V46.517a3,3,0,0,0,2.991,2.991H46.517a3,3,0,0,0,2.991-2.991V32.991A3,3,0,0,0,46.517,30ZM45.606,45.606H33.9V33.9h11.7Zm0,0" transform="translate(-22.197 -22.197)"/>
      <path id="Trazado_1033048" data-name="Trazado 1033048" d="M46.517,407H32.991A3,3,0,0,0,30,409.991v13.525a3,3,0,0,0,2.991,2.991H46.517a3,3,0,0,0,2.991-2.991V409.991A3,3,0,0,0,46.517,407Zm-.91,15.606H33.9V410.9h11.7Zm0,0" transform="translate(-22.197 -301.138)"/>
      <path id="Trazado_1033049" data-name="Trazado 1033049" d="M103.131,35.114H128.1a5.077,5.077,0,0,0,5.072-5.072V5.072A5.077,5.077,0,0,0,128.1,0h-24.97a5.077,5.077,0,0,0-5.072,5.072V15.606H74.65A1.951,1.951,0,0,0,72.7,17.557v25.75H62.035V35.689a5.852,5.852,0,1,0-3.9,0v7.618H49.418a6.117,6.117,0,0,0-6.11,6.11V60.734h-23.8V35.114H30.042a5.077,5.077,0,0,0,5.072-5.072V24.97a1.951,1.951,0,1,0-3.9,0v5.072a1.172,1.172,0,0,1-1.17,1.17H5.072a1.172,1.172,0,0,1-1.17-1.17V5.072A1.172,1.172,0,0,1,5.072,3.9h24.97a1.172,1.172,0,0,1,1.17,1.17V16.647a1.951,1.951,0,1,0,3.9,0V5.072A5.077,5.077,0,0,0,30.042,0H5.072A5.077,5.077,0,0,0,0,5.072v24.97a5.077,5.077,0,0,0,5.072,5.072H15.606V62.685a1.951,1.951,0,0,0,1.951,1.951h25.75v8.323H40.631a5.852,5.852,0,1,0,0,3.9h2.676v6.895a6.117,6.117,0,0,0,6.11,6.11h8.716v23.172H35.114v-9.906a5.077,5.077,0,0,0-5.072-5.072H5.072A5.077,5.077,0,0,0,0,103.131V128.1a5.077,5.077,0,0,0,5.072,5.072h24.97a5.077,5.077,0,0,0,5.072-5.072V116.939h24.97a1.951,1.951,0,0,0,1.951-1.951V89.866H72.7v8.659a5.852,5.852,0,1,0,3.9,0V89.866h7.155a6.117,6.117,0,0,0,6.11-6.11V70.475h23.8V98.059H103.131a5.077,5.077,0,0,0-5.072,5.072V108.2a1.951,1.951,0,1,0,3.9,0v-5.072a1.172,1.172,0,0,1,1.17-1.17H128.1a1.172,1.172,0,0,1,1.17,1.17V128.1a1.172,1.172,0,0,1-1.17,1.17h-24.97a1.172,1.172,0,0,1-1.17-1.17V116.494a1.951,1.951,0,0,0-3.9,0V128.1a5.077,5.077,0,0,0,5.072,5.072H128.1a5.077,5.077,0,0,0,5.072-5.072v-24.97a5.077,5.077,0,0,0-5.072-5.072H117.57V68.524a1.951,1.951,0,0,0-1.951-1.951H89.866V59.954h9.3a5.852,5.852,0,1,0,0-3.9h-9.3V49.418a6.117,6.117,0,0,0-6.11-6.11H76.6v-23.8H98.059V30.042A5.077,5.077,0,0,0,103.131,35.114ZM60.084,28.221a1.951,1.951,0,1,1-1.951,1.951A1.952,1.952,0,0,1,60.084,28.221ZM35.114,76.861a1.951,1.951,0,1,1,1.951-1.951A1.952,1.952,0,0,1,35.114,76.861Zm-3.9,51.241a1.172,1.172,0,0,1-1.17,1.17H5.072A1.172,1.172,0,0,1,3.9,128.1v-24.97a1.172,1.172,0,0,1,1.17-1.17h24.97a1.172,1.172,0,0,1,1.17,1.17ZM74.65,105.992a1.951,1.951,0,1,1,1.951-1.951A1.952,1.952,0,0,1,74.65,105.992Zm30.029-49.94A1.951,1.951,0,1,1,102.728,58,1.952,1.952,0,0,1,104.679,56.052ZM85.964,49.418V83.756a2.211,2.211,0,0,1-2.209,2.209H49.418a2.211,2.211,0,0,1-2.209-2.209V49.418a2.211,2.211,0,0,1,2.209-2.209H83.756A2.211,2.211,0,0,1,85.964,49.418ZM103.131,3.9H128.1a1.172,1.172,0,0,1,1.17,1.17v24.97a1.172,1.172,0,0,1-1.17,1.17h-24.97a1.172,1.172,0,0,1-1.17-1.17V17.608c0-.017,0-.034,0-.051s0-.034,0-.051V5.072A1.172,1.172,0,0,1,103.131,3.9Zm0,0"/>
      <path id="Trazado_1033050" data-name="Trazado 1033050" d="M409.991,49.508h13.525a3,3,0,0,0,2.991-2.991V32.991A3,3,0,0,0,423.517,30H409.991A3,3,0,0,0,407,32.991V46.517A3,3,0,0,0,409.991,49.508ZM410.9,33.9h11.7v11.7H410.9Zm0,0" transform="translate(-301.138 -22.197)"/>
      <path id="Trazado_1033051" data-name="Trazado 1033051" d="M423.517,426.508a3,3,0,0,0,2.991-2.991V409.991A3,3,0,0,0,423.517,407H409.991A3,3,0,0,0,407,409.991v13.525a3,3,0,0,0,2.991,2.991ZM410.9,410.9h11.7v11.7H410.9Zm0,0" transform="translate(-301.138 -301.138)"/>
    </g>
  </g>
</svg>
