<svg xmlns="http://www.w3.org/2000/svg" xmlns:xlink="http://www.w3.org/1999/xlink" width="160" height="160" viewBox="0 0 160 160">
  <defs>
    <clipPath id="clip-path">
      <rect id="Rectángulo_456296" data-name="Rectángulo 456296" width="160" height="160" fill="none"/>
    </clipPath>
  </defs>
  <g id="Grupo_1189049" data-name="Grupo 1189049" transform="translate(-1030.059 -9435)">
    <g id="Grupo_1179952" data-name="Grupo 1179952" transform="translate(1030.059 9435)" clip-path="url(#clip-path)">
      <path id="Trazado_999645" data-name="Trazado 999645" d="M1.5,5.146H131.567a19.711,19.711,0,0,1,19.757,19.663V154.256H21.257A19.711,19.711,0,0,1,1.5,134.593Z" transform="translate(0.97 3.287)" fill="#fff"/>
    </g>
    <g id="Grupo_1179957" data-name="Grupo 1179957" transform="translate(1030.059 9435)">
      <g id="Grupo_1179956" data-name="Grupo 1179956" clip-path="url(#clip-path)">
        <path id="Trazado_999651" data-name="Trazado 999651" d="M95.413,30a8.193,8.193,0,1,1-8.232,8.193A8.213,8.213,0,0,1,95.413,30" transform="translate(56.355 19.158)" fill="#19538d"/>
        <path id="Trazado_999652" data-name="Trazado 999652" d="M66.413,0a8.193,8.193,0,1,1-8.232,8.193A8.213,8.213,0,0,1,66.413,0" transform="translate(37.609 0)" fill="#19538d"/>
        <path id="Trazado_999653" data-name="Trazado 999653" d="M151.324,54.064V154.256H21.257A19.711,19.711,0,0,1,1.5,134.593V5.146H104.167" transform="translate(0.97 3.287)" fill="none" stroke="#19538d" stroke-miterlimit="10" stroke-width="4"/>
      </g>
    </g>
    <g id="Grupo_1179958" data-name="Grupo 1179958">
      <rect id="Rectángulo_456311" data-name="Rectángulo 456311" width="109.239" height="110.028" transform="translate(1050.059 9463)" fill="#fff"/>
      <g id="tipo-de-archivo_1_" data-name="tipo-de-archivo (1)" transform="translate(1052.688 9466.353)">
        <path id="Trazado_1032591" data-name="Trazado 1032591" d="M81.755,1H10.805v9.805H9.171A8.181,8.181,0,0,0,1,18.977V51.662a8.181,8.181,0,0,0,8.171,8.171h1.634v42.49h91.518V21.569Zm.958,5.579L96.744,20.611H82.712Zm-62.1,17.3V4.268h3.268V23.879ZM17.342,4.268V23.879H14.074V4.268ZM9.171,14.074h1.634v9.805H9.171a4.9,4.9,0,1,1,0-9.805Zm-4.9,37.588V25.51a8.138,8.138,0,0,0,4.9,1.638h52.3a4.909,4.909,0,0,1,4.9,4.9V51.662a4.909,4.909,0,0,1-4.9,4.9H9.171A4.909,4.909,0,0,1,4.268,51.662Zm19.611,8.171V99.055H20.611V59.833Zm-9.805,0h3.268V99.055H14.074ZM27.148,99.055V59.833H61.467a8.181,8.181,0,0,0,8.171-8.171V32.051a8.181,8.181,0,0,0-8.171-8.171H27.148V4.268h52.3V23.879H99.055V99.055Z" fill="#19538d"/>
        <path id="Trazado_1032592" data-name="Trazado 1032592" d="M16.268,22.268h3.268V36.977a1.634,1.634,0,1,1-3.268,0V35.342H13v1.634a4.9,4.9,0,1,0,9.805,0V22.268h3.268V19H16.268Z" transform="translate(7.611 11.416)" fill="#19538d"/>
        <path id="Trazado_1032593" data-name="Trazado 1032593" d="M36.074,25.383A6.39,6.39,0,0,0,29.692,19h-.309a6.383,6.383,0,0,0-2.018,12.438l3.309,1.1a3.114,3.114,0,0,1-.982,6.068h-.309A3.117,3.117,0,0,1,26.268,35.5V33.708H23V35.5a6.39,6.39,0,0,0,6.382,6.383h.309a6.383,6.383,0,0,0,2.018-12.438l-3.309-1.1a3.114,3.114,0,0,1,.982-6.068h.309a3.117,3.117,0,0,1,3.115,3.115v.154Z" transform="translate(13.953 11.416)" fill="#19538d"/>
        <path id="Trazado_1032594" data-name="Trazado 1032594" d="M58.805,50.44v-4.9A6.544,6.544,0,0,0,52.268,39H49v3.268h3.268a3.272,3.272,0,0,1,3.268,3.268v4.9a6.5,6.5,0,0,0,2.259,4.9,6.5,6.5,0,0,0-2.259,4.9v4.9a3.272,3.272,0,0,1-3.268,3.268H49v3.268h3.268a6.544,6.544,0,0,0,6.537-6.537v-4.9a3.272,3.272,0,0,1,3.268-3.268V53.708A3.272,3.272,0,0,1,58.805,50.44Z" transform="translate(30.444 24.101)" fill="#19538d"/>
        <path id="Trazado_1032595" data-name="Trazado 1032595" d="M30.268,45.537v4.9A3.272,3.272,0,0,1,27,53.708v3.268a3.272,3.272,0,0,1,3.268,3.268v4.9a6.544,6.544,0,0,0,6.537,6.537h3.268V68.416H36.805a3.272,3.272,0,0,1-3.268-3.268v-4.9a6.5,6.5,0,0,0-2.259-4.9,6.5,6.5,0,0,0,2.259-4.9v-4.9a3.272,3.272,0,0,1,3.268-3.268h3.268V39H36.805A6.544,6.544,0,0,0,30.268,45.537Z" transform="translate(16.49 24.101)" fill="#19538d"/>
        <path id="Trazado_1032596" data-name="Trazado 1032596" d="M43.9,39a4.9,4.9,0,1,0,4.9,4.9A4.909,4.909,0,0,0,43.9,39Zm0,6.537A1.634,1.634,0,1,1,45.537,43.9,1.636,1.636,0,0,1,43.9,45.537Z" transform="translate(24.101 24.101)" fill="#19538d"/>
        <path id="Trazado_1032597" data-name="Trazado 1032597" d="M43.9,47a4.9,4.9,0,1,0,0,9.805,4.848,4.848,0,0,0,1.634-.3v5.2a1.634,1.634,0,1,1-3.268,0H39a4.9,4.9,0,1,0,9.805,0V51.9A4.909,4.909,0,0,0,43.9,47Zm0,6.537A1.634,1.634,0,1,1,45.537,51.9,1.636,1.636,0,0,1,43.9,53.537Z" transform="translate(24.101 29.175)" fill="#19538d"/>
        <path id="Trazado_1032598" data-name="Trazado 1032598" d="M19,14.805h9.805V5H19Zm3.268-6.537h3.268v3.268H22.268Z" transform="translate(11.416 2.537)" fill="#19538d"/>
        <path id="Trazado_1032599" data-name="Trazado 1032599" d="M27,14.805h9.805V5H27Zm3.268-6.537h3.268v3.268H30.268Z" transform="translate(16.49 2.537)" fill="#19538d"/>
        <path id="Trazado_1032600" data-name="Trazado 1032600" d="M35,14.805h9.805V5H35Zm3.268-6.537h3.268v3.268H38.268Z" transform="translate(21.564 2.537)" fill="#19538d"/>
        <path id="Trazado_1032601" data-name="Trazado 1032601" d="M45,17h3.268v3.268H45Z" transform="translate(27.907 10.148)" fill="#19538d"/>
        <path id="Trazado_1032602" data-name="Trazado 1032602" d="M49,17H65.342v3.268H49Z" transform="translate(30.444 10.148)" fill="#19538d"/>
        <path id="Trazado_1032603" data-name="Trazado 1032603" d="M45,21H67.879v3.268H45Z" transform="translate(27.907 12.685)" fill="#19538d"/>
        <path id="Trazado_1032604" data-name="Trazado 1032604" d="M45,25H61.342v3.268H45Z" transform="translate(27.907 15.222)" fill="#19538d"/>
        <path id="Trazado_1032605" data-name="Trazado 1032605" d="M57,25h3.268v3.268H57Z" transform="translate(35.518 15.222)" fill="#19538d"/>
        <path id="Trazado_1032606" data-name="Trazado 1032606" d="M45,29H67.879v3.268H45Z" transform="translate(27.907 17.759)" fill="#19538d"/>
        <path id="Trazado_1032607" data-name="Trazado 1032607" d="M45,33H67.879v3.268H45Z" transform="translate(27.907 20.296)" fill="#19538d"/>
      </g>
    </g>
  </g>
</svg>
