<svg xmlns="http://www.w3.org/2000/svg" xmlns:xlink="http://www.w3.org/1999/xlink" width="128" height="128" viewBox="0 0 128 128">
  <defs>
    <clipPath id="clip-path">
      <rect id="Rectángulo_456267" data-name="Rectángulo 456267" width="128" height="128" fill="none"/>
    </clipPath>
  </defs>
  <g id="Grupo_1189051" data-name="Grupo 1189051" transform="translate(511.746 8527) rotate(180)">
    <path id="Trazado_999622" data-name="Trazado 999622" d="M59.07,0A59.07,59.07,0,1,1,0,59.07,59.071,59.071,0,0,1,59.07,0" transform="translate(388.676 8403.93)" fill="#fff"/>
    <g id="Grupo_1179902" data-name="Grupo 1179902" transform="translate(383.746 8399)">
      <g id="Grupo_1179905" data-name="Grupo 1179905" clip-path="url(#clip-path)">
        <path id="Trazado_999618" data-name="Trazado 999618" d="M64,0A64,64,0,1,1,0,64,64,64,0,0,1,64,0" fill="none"/>
        <path id="Trazado_999619" data-name="Trazado 999619" d="M5,59a5,5,0,1,1-5,5,5,5,0,0,1,5-5" transform="translate(0 0)" fill="#ae0000"/>
        <path id="Trazado_999620" data-name="Trazado 999620" d="M21,19a5,5,0,1,1-5,5,5,5,0,0,1,5-5" fill="#ae0000"/>
        <path id="Trazado_999621" data-name="Trazado 999621" d="M64,124A60.068,60.068,0,0,1,4,64H7A57,57,0,1,0,22.408,25.024L20.22,22.972A60,60,0,1,1,64,124" fill="#ae0000"/>
        <rect id="Rectángulo_456268" data-name="Rectángulo 456268" width="128" height="128" fill="none"/>
        <rect id="Rectángulo_456269" data-name="Rectángulo 456269" width="128" height="128" fill="none"/>
      </g>
    </g>
    <g id="Grupo_1179903" data-name="Grupo 1179903" transform="translate(481.536 8497.566) rotate(180)">
      <g id="Grupo_1099618" data-name="Grupo 1099618" transform="translate(0 0)">
        <rect id="Rectángulo_401104" data-name="Rectángulo 401104" width="67.89" height="68.708" transform="translate(0)" fill="none"/>
      </g>
      <g id="iniciar-sesion_2_" data-name="iniciar-sesion (2)" transform="translate(0.348 -18.524)">
        <path id="Trazado_1034078" data-name="Trazado 1034078" d="M61.828,88.9h-11.2a.987.987,0,0,0,0,1.975h11.2A3.577,3.577,0,0,1,65.4,94.445v3.084H50.7a.987.987,0,0,0,0,1.975H65.4v36.723a3.577,3.577,0,0,1-3.573,3.573H5.548a3.577,3.577,0,0,1-3.573-3.573V99.5H17.082a.987.987,0,0,0,0-1.975H1.975V94.445a3.577,3.577,0,0,1,3.573-3.573H17.156a.987.987,0,0,0,0-1.975H5.548A5.554,5.554,0,0,0,0,94.445v41.782a5.554,5.554,0,0,0,5.548,5.548h56.28a5.554,5.554,0,0,0,5.548-5.548V94.445A5.554,5.554,0,0,0,61.828,88.9Z" transform="translate(0 -58.76)" fill="#12263f"/>
        <path id="Trazado_1034079" data-name="Trazado 1034079" d="M49.637,123.434a.987.987,0,1,0,0,1.975H50.3a.987.987,0,1,0,0-1.975Z" transform="translate(-42.245 -88.751)" fill="#12263f"/>
        <path id="Trazado_1034080" data-name="Trazado 1034080" d="M97.98,123.434a.987.987,0,1,0,0,1.975h.666a.987.987,0,1,0,0-1.975Z" transform="translate(-84.224 -88.751)" fill="#12263f"/>
        <path id="Trazado_1034081" data-name="Trazado 1034081" d="M162.742,49.941a14.357,14.357,0,1,0-14.357-14.357A14.373,14.373,0,0,0,162.742,49.941Zm0-1.975a12.348,12.348,0,0,1-8.974-3.859,8.975,8.975,0,0,1,2.753-5.837,9.655,9.655,0,0,0,12.432-.009,8.975,8.975,0,0,1,2.763,5.847A12.349,12.349,0,0,1,162.742,47.967Zm12.382-12.382a12.306,12.306,0,0,1-1.774,6.379,10.948,10.948,0,0,0-3.024-5.124,9.62,9.62,0,0,0,1.183-9.991A12.342,12.342,0,0,1,175.123,35.585ZM153.97,26.854a9.577,9.577,0,0,0-.7,2.141.987.987,0,1,0,1.937.384,7.676,7.676,0,1,1,.214,3.833.987.987,0,0,0-1.882.6,9.68,9.68,0,0,0,1.6,3.036,10.951,10.951,0,0,0-3.014,5.116,12.36,12.36,0,0,1,1.837-15.11Z" transform="translate(-128.85 0)" fill="#12263f"/>
        <path id="Trazado_1034082" data-name="Trazado 1034082" d="M56.061,261.28a.987.987,0,1,0,0,1.975H85.889a.443.443,0,0,1,.443.443v5.685a.443.443,0,0,1-.443.443H47.052a.443.443,0,0,1-.443-.443V263.7a.443.443,0,0,1,.443-.443h4.787a.987.987,0,1,0,0-1.975H47.052a2.42,2.42,0,0,0-2.417,2.417v5.685a2.42,2.42,0,0,0,2.417,2.417H85.889a2.42,2.42,0,0,0,2.417-2.417V263.7a2.42,2.42,0,0,0-2.417-2.417Z" transform="translate(-38.759 -208.449)" fill="#12263f"/>
        <path id="Trazado_1034083" data-name="Trazado 1034083" d="M78.629,363.139H47.052a2.42,2.42,0,0,0-2.417,2.418v5.685a2.42,2.42,0,0,0,2.417,2.417H85.889a2.42,2.42,0,0,0,2.417-2.417v-5.685a2.42,2.42,0,0,0-2.417-2.418H82.85a.987.987,0,0,0,0,1.975h3.04a.443.443,0,0,1,.443.443v5.685a.443.443,0,0,1-.443.443H47.052a.443.443,0,0,1-.443-.443v-5.685a.443.443,0,0,1,.443-.443H78.629a.987.987,0,0,0,0-1.975Z" transform="translate(-38.759 -296.898)" fill="#12263f"/>
        <path id="Trazado_1034084" data-name="Trazado 1034084" d="M99.557,395.595a.987.987,0,0,0,0,1.975h.664a.987.987,0,1,0,0-1.975Z" transform="translate(-85.593 -325.082)" fill="#12263f"/>
        <path id="Trazado_1034085" data-name="Trazado 1034085" d="M150.489,395.595a.987.987,0,1,0,0,1.975h.664a.987.987,0,0,0,0-1.975Z" transform="translate(-129.82 -325.082)" fill="#12263f"/>
        <path id="Trazado_1034086" data-name="Trazado 1034086" d="M201.42,395.595a.987.987,0,0,0,0,1.975h.664a.987.987,0,0,0,0-1.975Z" transform="translate(-174.046 -325.082)" fill="#12263f"/>
        <path id="Trazado_1034087" data-name="Trazado 1034087" d="M252.352,395.595a.987.987,0,0,0,0,1.975h.664a.987.987,0,1,0,0-1.975Z" transform="translate(-218.273 -325.082)" fill="#12263f"/>
        <path id="Trazado_1034088" data-name="Trazado 1034088" d="M302.3,396.582a.987.987,0,0,0,.987.987h.664a.987.987,0,1,0,0-1.975h-.664A.987.987,0,0,0,302.3,396.582Z" transform="translate(-262.499 -325.082)" fill="#12263f"/>
        <path id="Trazado_1034089" data-name="Trazado 1034089" d="M399.277,364.089v2.4a2.539,2.539,0,0,0,2.536,2.536h5.474a2.539,2.539,0,0,0,2.536-2.536v-2.4a2.54,2.54,0,0,0-1.549-2.336v-.22a3.725,3.725,0,0,0-7.449,0v.22A2.54,2.54,0,0,0,399.277,364.089Zm8.572,2.4a.562.562,0,0,1-.562.562h-5.474a.562.562,0,0,1-.562-.562v-2.4a.562.562,0,0,1,.562-.562h5.474a.562.562,0,0,1,.562.562Zm-3.3-6.711a1.752,1.752,0,0,1,1.75,1.75v.02h-3.5v-.02A1.752,1.752,0,0,1,404.55,359.783Z" transform="translate(-346.712 -292.269)" fill="#12263f"/>
        <path id="Trazado_1034090" data-name="Trazado 1034090" d="M413.45,279.276a3.924,3.924,0,1,0-3.924-3.924A3.929,3.929,0,0,0,413.45,279.276Zm0-5.874a1.949,1.949,0,1,1-1.949,1.949A1.952,1.952,0,0,1,413.45,273.4Z" transform="translate(-355.612 -217.261)" fill="#12263f"/>
        <circle id="Elipse_13728" data-name="Elipse 13728" cx="12.5" cy="12.5" r="12.5" transform="translate(21.183 23.147)" fill="#fff"/>
        <path id="Trazado_1034099" data-name="Trazado 1034099" d="M399.277,364.356v2.507a2.647,2.647,0,0,0,2.644,2.644h5.707a2.647,2.647,0,0,0,2.644-2.644v-2.507a2.648,2.648,0,0,0-1.615-2.435v-.23a3.883,3.883,0,0,0-7.766,0v.23A2.648,2.648,0,0,0,399.277,364.356Zm8.937,2.507a.586.586,0,0,1-.585.585h-5.707a.586.586,0,0,1-.585-.585v-2.507a.586.586,0,0,1,.585-.585h5.707a.586.586,0,0,1,.585.585Zm-3.439-7a1.826,1.826,0,0,1,1.824,1.824v.021H402.95v-.021A1.826,1.826,0,0,1,404.775,359.867Z" transform="translate(-370.475 -328.975)" fill="#12263f"/>
      </g>
    </g>
  </g>
</svg>
