<svg xmlns="http://www.w3.org/2000/svg" xmlns:xlink="http://www.w3.org/1999/xlink" width="160" height="160" viewBox="0 0 160 160">
  <defs>
    <clipPath id="clip-path">
      <rect id="Rectángulo_456312" data-name="Rectángulo 456312" width="160" height="160" fill="none"/>
    </clipPath>
  </defs>
  <g id="Grupo_1189183" data-name="Grupo 1189183" transform="translate(-422.059 -9435)">
    <g id="Grupo_1179959" data-name="Grupo 1179959" transform="translate(422.059 9435)" clip-path="url(#clip-path)">
      <path id="Trazado_999654" data-name="Trazado 999654" d="M1.5,5.146H131.567a19.711,19.711,0,0,1,19.757,19.663V154.256H21.257A19.711,19.711,0,0,1,1.5,134.593Z" transform="translate(0.97 3.287)" fill="#fff"/>
    </g>
    <g id="Grupo_1179960" data-name="Grupo 1179960" transform="translate(422.059 9435)">
      <g id="Grupo_1179956" data-name="Grupo 1179956" clip-path="url(#clip-path)">
        <path id="Trazado_999651" data-name="Trazado 999651" d="M95.413,30a8.193,8.193,0,1,1-8.232,8.193A8.213,8.213,0,0,1,95.413,30" transform="translate(56.355 19.158)" fill="#19538d"/>
        <path id="Trazado_999652" data-name="Trazado 999652" d="M66.413,0a8.193,8.193,0,1,1-8.232,8.193A8.213,8.213,0,0,1,66.413,0" transform="translate(37.609 0)" fill="#19538d"/>
        <path id="Trazado_999653" data-name="Trazado 999653" d="M151.324,54.064V154.256H21.257A19.711,19.711,0,0,1,1.5,134.593V5.146H104.167" transform="translate(0.97 3.287)" fill="none" stroke="#19538d" stroke-miterlimit="10" stroke-width="4"/>
      </g>
    </g>
    <g id="Grupo_1179961" data-name="Grupo 1179961" transform="translate(-608)">
      <rect id="Rectángulo_456311" data-name="Rectángulo 456311" width="109.239" height="110.028" transform="translate(1050.059 9463)" fill="#fff"/>
      <g id="actividad-de-la-cuenta" transform="translate(1055.27 9471.039)">
        <path id="Trazado_1032989" data-name="Trazado 1032989" d="M88.669,98.8H10.132A10.144,10.144,0,0,1,0,88.669V10.132A10.144,10.144,0,0,1,10.132,0H88.669A10.144,10.144,0,0,1,98.8,10.132V88.669A10.144,10.144,0,0,1,88.669,98.8ZM10.132,2.895a7.245,7.245,0,0,0-7.237,7.237V88.669a7.245,7.245,0,0,0,7.237,7.237H88.669a7.245,7.245,0,0,0,7.237-7.237V10.132a7.245,7.245,0,0,0-7.237-7.237Z" fill="#19538d"/>
        <path id="Trazado_1032990" data-name="Trazado 1032990" d="M47.518,117.706a17.362,17.362,0,0,1-14.336-7.6,1.447,1.447,0,0,1,2.387-1.638,14.521,14.521,0,1,0-2.327-5.683,1.447,1.447,0,0,1-2.852.5,17.384,17.384,0,1,1,17.128,14.42Z" transform="translate(-24.313 -66.837)" fill="#19538d"/>
        <path id="Trazado_1032991" data-name="Trazado 1032991" d="M84.278,209.6a1.447,1.447,0,0,1-1.447-1.447v-4.528a7.229,7.229,0,0,1,1.846-4.834,1.447,1.447,0,0,1,2.155,1.933,4.338,4.338,0,0,0-1.107,2.9v4.528A1.447,1.447,0,0,1,84.278,209.6Z" transform="translate(-66.845 -160.038)" fill="#19538d"/>
        <path id="Trazado_1032992" data-name="Trazado 1032992" d="M138.345,209.6a1.447,1.447,0,0,1-1.447-1.447v-4.528a4.338,4.338,0,0,0-1.107-2.9,1.447,1.447,0,1,1,2.155-1.933,7.229,7.229,0,0,1,1.846,4.834v4.528A1.447,1.447,0,0,1,138.345,209.6Z" transform="translate(-109.286 -160.038)" fill="#19538d"/>
        <path id="Elipse_13722" data-name="Elipse 13722" d="M2.665-7.5A10.165,10.165,0,1,1-7.5,2.665,10.176,10.176,0,0,1,2.665-7.5Zm0,17.435a7.27,7.27,0,1,0-7.27-7.27A7.278,7.278,0,0,0,2.665,9.935Z" transform="translate(20.581 29.298)" fill="#19538d"/>
        <path id="Trazado_1032993" data-name="Trazado 1032993" d="M98.388,44.9h-56.6a7.19,7.19,0,0,1-5.117-2.12l-.968-.968a4.314,4.314,0,0,0-3.07-1.272H17.085a4.314,4.314,0,0,0-3.07,1.272l-.968.968A7.19,7.19,0,0,1,7.929,44.9H3.447a1.447,1.447,0,0,1,0-2.895H7.929A4.314,4.314,0,0,0,11,40.734l.968-.968a7.19,7.19,0,0,1,5.117-2.12H32.632a7.19,7.19,0,0,1,5.117,2.12l.968.968a4.314,4.314,0,0,0,3.07,1.272h56.6a1.447,1.447,0,0,1,0,2.895Z" transform="translate(-1.614 -30.381)" fill="#19538d"/>
        <path id="Línea_3326" data-name="Línea 3326" d="M14.291-4.605H-6.053A1.447,1.447,0,0,1-7.5-6.053,1.447,1.447,0,0,1-6.053-7.5H14.291a1.447,1.447,0,0,1,1.447,1.447A1.447,1.447,0,0,1,14.291-4.605Z" transform="translate(62.719 13.313)" fill="#19538d"/>
        <path id="Línea_3327" data-name="Línea 3327" transform="translate(88.635 7.26)" fill="#19538d"/>
        <path id="Línea_3328" data-name="Línea 3328" transform="translate(82.822 7.26)" fill="#19538d"/>
        <path id="Trazado_1032994" data-name="Trazado 1032994" d="M283.087,159.391h-37.8a4.342,4.342,0,1,1,0-8.685h37.8a4.342,4.342,0,1,1,0,8.685Zm-37.8-5.79a1.447,1.447,0,0,0,0,2.895h37.8a1.447,1.447,0,0,0,0-2.895Z" transform="translate(-194.441 -121.621)" fill="#19538d"/>
        <path id="Trazado_1032995" data-name="Trazado 1032995" d="M283.087,219.509h-37.8a4.342,4.342,0,0,1,0-8.685h37.8a4.342,4.342,0,0,1,0,8.685Zm-37.8-5.79a1.447,1.447,0,0,0,0,2.895h37.8a1.447,1.447,0,0,0,0-2.895Z" transform="translate(-194.441 -170.137)" fill="#19538d"/>
        <path id="Trazado_1032996" data-name="Trazado 1032996" d="M283.087,99.156h-6.344a1.447,1.447,0,1,1,0-2.895h6.344a1.447,1.447,0,1,0,0-2.895h-37.8a1.447,1.447,0,1,0,0,2.895h24.705a1.447,1.447,0,1,1,0,2.895H245.283a4.342,4.342,0,0,1,0-8.685h37.8a4.342,4.342,0,1,1,0,8.685Z" transform="translate(-194.441 -73.011)" fill="#19538d"/>
        <path id="Trazado_1032997" data-name="Trazado 1032997" d="M59.45,312.262H41.989a4.347,4.347,0,0,1-4.342-4.342v-17.46a4.347,4.347,0,0,1,4.342-4.342H59.45a4.347,4.347,0,0,1,4.342,4.342v17.46A4.347,4.347,0,0,1,59.45,312.262Zm-17.46-23.25a1.449,1.449,0,0,0-1.447,1.447v17.46a1.449,1.449,0,0,0,1.447,1.447H59.45A1.449,1.449,0,0,0,60.9,307.92v-17.46a1.449,1.449,0,0,0-1.447-1.447Z" transform="translate(-30.381 -230.899)" fill="#19538d"/>
        <path id="Trazado_1032998" data-name="Trazado 1032998" d="M210.038,312.262h-17.46a4.347,4.347,0,0,1-4.342-4.342v-17.46a4.347,4.347,0,0,1,4.342-4.342h17.46a4.347,4.347,0,0,1,4.342,4.342v17.46A4.347,4.347,0,0,1,210.038,312.262Zm-17.46-23.25a1.449,1.449,0,0,0-1.447,1.447v17.46a1.449,1.449,0,0,0,1.447,1.447h17.46a1.449,1.449,0,0,0,1.447-1.447v-17.46a1.449,1.449,0,0,0-1.447-1.447Z" transform="translate(-151.907 -230.899)" fill="#19538d"/>
        <path id="Trazado_1032999" data-name="Trazado 1032999" d="M360.623,312.266h-17.46a4.347,4.347,0,0,1-4.342-4.342v-17.46a4.347,4.347,0,0,1,4.342-4.342h17.46a4.347,4.347,0,0,1,4.342,4.342v4.9a1.447,1.447,0,1,1-2.895,0v-4.9a1.449,1.449,0,0,0-1.447-1.447h-17.46a1.449,1.449,0,0,0-1.447,1.447v17.46a1.449,1.449,0,0,0,1.447,1.447h17.46a1.449,1.449,0,0,0,1.447-1.447v-5.807a1.447,1.447,0,1,1,2.895,0v5.807A4.347,4.347,0,0,1,360.623,312.266Z" transform="translate(-273.431 -230.902)" fill="#19538d"/>
        <path id="Línea_3329" data-name="Línea 3329" d="M14.291-4.605H-6.053A1.447,1.447,0,0,1-7.5-6.053,1.447,1.447,0,0,1-6.053-7.5H14.291a1.447,1.447,0,0,1,1.447,1.447A1.447,1.447,0,0,1,14.291-4.605Z" transform="translate(45.281 91.781)" fill="#19538d"/>
        <path id="Línea_3330" data-name="Línea 3330" d="M14.291-4.605H-6.053A1.447,1.447,0,0,1-7.5-6.053,1.447,1.447,0,0,1-6.053-7.5H14.291a1.447,1.447,0,0,1,1.447,1.447A1.447,1.447,0,0,1,14.291-4.605Z" transform="translate(45.281 97.594)" fill="#19538d"/>
        <path id="Línea_3331" data-name="Línea 3331" d="M14.291-4.605H-6.053A1.447,1.447,0,0,1-7.5-6.053,1.447,1.447,0,0,1-6.053-7.5H14.291a1.447,1.447,0,0,1,1.447,1.447A1.447,1.447,0,0,1,14.291-4.605Z" transform="translate(16.219 91.781)" fill="#19538d"/>
        <path id="Línea_3332" data-name="Línea 3332" d="M14.291-4.605H-6.053A1.447,1.447,0,0,1-7.5-6.053,1.447,1.447,0,0,1-6.053-7.5H14.291a1.447,1.447,0,0,1,1.447,1.447A1.447,1.447,0,0,1,14.291-4.605Z" transform="translate(16.219 97.594)" fill="#19538d"/>
        <path id="Línea_3333" data-name="Línea 3333" d="M14.291-4.605H-6.053A1.447,1.447,0,0,1-7.5-6.053,1.447,1.447,0,0,1-6.053-7.5H14.291a1.447,1.447,0,0,1,1.447,1.447A1.447,1.447,0,0,1,14.291-4.605Z" transform="translate(74.344 91.781)" fill="#19538d"/>
        <path id="Línea_3334" data-name="Línea 3334" d="M14.291-4.605H-6.053A1.447,1.447,0,0,1-7.5-6.053,1.447,1.447,0,0,1-6.053-7.5H14.291a1.447,1.447,0,0,1,1.447,1.447A1.447,1.447,0,0,1,14.291-4.605Z" transform="translate(74.344 97.594)" fill="#19538d"/>
        <path id="Trazado_1033000" data-name="Trazado 1033000" d="M70.015,354.971a1.448,1.448,0,0,1-1.2-2.25l4.239-6.359a4.349,4.349,0,0,1,5.555-1.475l1.434.717a1.455,1.455,0,0,0,1.778-.39l4.272-5.341a1.447,1.447,0,0,1,2.261,1.808l-4.272,5.341a4.365,4.365,0,0,1-5.333,1.171l-1.434-.717a1.45,1.45,0,0,0-1.852.492l-4.239,6.359A1.446,1.446,0,0,1,70.015,354.971Z" transform="translate(-55.336 -273.841)" fill="#19538d"/>
        <path id="Trazado_1033001" data-name="Trazado 1033001" d="M357.847,354.951a1.446,1.446,0,0,1-1.206-.645l-4.326-6.488a1.45,1.45,0,0,0-1.852-.492l-1.434.717a4.365,4.365,0,0,1-5.333-1.171l-4.3-5.376a1.447,1.447,0,1,1,2.26-1.808l4.3,5.376a1.455,1.455,0,0,0,1.777.39l1.434-.717a4.349,4.349,0,0,1,5.555,1.475l4.326,6.488a1.448,1.448,0,0,1-1.2,2.25Z" transform="translate(-273.64 -273.691)" fill="#19538d"/>
        <path id="Trazado_1033002" data-name="Trazado 1033002" d="M213.409,350.913a1.443,1.443,0,0,1-1.023-.424l-4.032-4.032a1.451,1.451,0,0,0-1.826-.181l-3.454,2.3a6.287,6.287,0,0,1-7.912-.783l-5.785-5.785a1.447,1.447,0,1,1,2.047-2.047l5.785,5.785a3.384,3.384,0,0,0,4.259.422l3.454-2.3a4.354,4.354,0,0,1,5.479.543l4.032,4.032a1.447,1.447,0,0,1-1.023,2.471Z" transform="translate(-152.486 -274.012)" fill="#19538d"/>
        <path id="Elipse_13723" data-name="Elipse 13723" d="M-3.146-7.5A4.359,4.359,0,0,1,1.207-3.146,4.359,4.359,0,0,1-3.146,1.207,4.359,4.359,0,0,1-7.5-3.146,4.359,4.359,0,0,1-3.146-7.5Zm0,5.813A1.46,1.46,0,0,0-1.687-3.146,1.46,1.46,0,0,0-3.146-4.605,1.46,1.46,0,0,0-4.605-3.146,1.46,1.46,0,0,0-3.146-1.687Z" transform="translate(51.094 68.531)" fill="#19538d"/>
      </g>
    </g>
  </g>
</svg>
