<svg xmlns="http://www.w3.org/2000/svg" xmlns:xlink="http://www.w3.org/1999/xlink" width="128" height="128" viewBox="0 0 128 128">
  <defs>
    <clipPath id="clip-path">
      <rect id="Rectángulo_456267" data-name="Rectángulo 456267" width="128" height="128" fill="none"/>
    </clipPath>
  </defs>
  <g id="Grupo_1189052" data-name="Grupo 1189052" transform="translate(511.746 8527) rotate(180)">
    <path id="Trazado_999622" data-name="Trazado 999622" d="M59.07,0A59.07,59.07,0,1,1,0,59.07,59.071,59.071,0,0,1,59.07,0" transform="translate(388.676 8403.93)" fill="#fff"/>
    <g id="Grupo_1179902" data-name="Grupo 1179902" transform="translate(383.746 8399)">
      <g id="Grupo_1179905" data-name="Grupo 1179905" clip-path="url(#clip-path)">
        <path id="Trazado_999618" data-name="Trazado 999618" d="M64,0A64,64,0,1,1,0,64,64,64,0,0,1,64,0" fill="none"/>
        <path id="Trazado_999619" data-name="Trazado 999619" d="M5,59a5,5,0,1,1-5,5,5,5,0,0,1,5-5" transform="translate(0 0)" fill="#ae0000"/>
        <path id="Trazado_999620" data-name="Trazado 999620" d="M21,19a5,5,0,1,1-5,5,5,5,0,0,1,5-5" fill="#ae0000"/>
        <path id="Trazado_999621" data-name="Trazado 999621" d="M64,124A60.068,60.068,0,0,1,4,64H7A57,57,0,1,0,22.408,25.024L20.22,22.972A60,60,0,1,1,64,124" fill="#ae0000"/>
        <rect id="Rectángulo_456268" data-name="Rectángulo 456268" width="128" height="128" fill="none"/>
        <rect id="Rectángulo_456269" data-name="Rectángulo 456269" width="128" height="128" fill="none"/>
      </g>
    </g>
    <g id="Grupo_1179903" data-name="Grupo 1179903" transform="translate(481.536 8497.566) rotate(180)">
      <g id="Grupo_1099618" data-name="Grupo 1099618" transform="translate(0 0)">
        <rect id="Rectángulo_401104" data-name="Rectángulo 401104" width="67.89" height="68.708" transform="translate(0)" fill="none"/>
      </g>
      <g id="guardar-el-archivo_2_" data-name="guardar-el-archivo (2)" transform="translate(0.813 1.708)">
        <path id="Trazado_1034100" data-name="Trazado 1034100" d="M60.163,4.375H57.975V3.282a3.282,3.282,0,1,0-6.563,0V4.375H47.036V3.282a3.282,3.282,0,1,0-6.563,0V4.375H36.1V3.282a3.282,3.282,0,0,0-6.563,0V4.375H25.159V3.282a3.282,3.282,0,1,0-6.563,0V4.375H14.22V3.282a3.282,3.282,0,1,0-6.563,0V4.375H5.469A5.476,5.476,0,0,0,0,9.845V51.412a5.476,5.476,0,0,0,5.469,5.469h5.469v4.375a4.375,4.375,0,0,0,4.375,4.375h35a4.375,4.375,0,0,0,4.375-4.375V56.881h5.469a5.476,5.476,0,0,0,5.469-5.469V9.845a5.476,5.476,0,0,0-5.469-5.469ZM53.6,3.282a1.094,1.094,0,1,1,2.188,0V7.657a1.094,1.094,0,1,1-2.188,0Zm-10.939,0a1.094,1.094,0,0,1,2.188,0V7.657a1.094,1.094,0,0,1-2.188,0Zm-10.939,0a1.094,1.094,0,1,1,2.188,0V7.657a1.094,1.094,0,1,1-2.188,0Zm-10.939,0a1.094,1.094,0,0,1,2.188,0V7.657a1.094,1.094,0,0,1-2.188,0Zm-10.939,0a1.094,1.094,0,0,1,2.188,0V7.657a1.094,1.094,0,1,1-2.188,0ZM5.469,6.563H7.657V7.657a3.282,3.282,0,1,0,6.563,0V6.563H18.6V7.657a3.282,3.282,0,1,0,6.563,0V6.563h4.375V7.657a3.282,3.282,0,0,0,6.563,0V6.563h4.375V7.657a3.282,3.282,0,1,0,6.563,0V6.563h4.375V7.657a3.282,3.282,0,1,0,6.563,0V6.563h2.188a3.282,3.282,0,0,1,3.282,3.282v3.282H2.188V9.845A3.282,3.282,0,0,1,5.469,6.563ZM19.69,63.444V43.755H45.942v19.69Zm32.816-2.188a2.188,2.188,0,0,1-2.188,2.188H48.13V43.755a2.188,2.188,0,0,0-2.188-2.188H19.69A2.188,2.188,0,0,0,17.5,43.755v19.69H15.314a2.188,2.188,0,0,1-2.188-2.188V24.065a2.188,2.188,0,0,1,2.188-2.188h5.469V32.816A2.188,2.188,0,0,0,22.971,35h19.69a2.188,2.188,0,0,0,2.188-2.188V22.237l7.283,6.372a1.094,1.094,0,0,1,.374.824ZM22.971,21.877h19.69V32.816H22.971ZM60.163,54.693H54.693V29.433a3.282,3.282,0,0,0-1.121-2.47L46.188,20.5a3.282,3.282,0,0,0-2.163-.813H15.314a4.375,4.375,0,0,0-4.375,4.375V54.693H5.469a3.282,3.282,0,0,1-3.282-3.282v-36.1H63.444v36.1a3.282,3.282,0,0,1-3.282,3.282Z" fill="#12263f"/>
        <path id="Trazado_1034101" data-name="Trazado 1034101" d="M36.094,22A1.094,1.094,0,0,0,35,23.094v4.375a1.094,1.094,0,1,0,2.188,0V23.094A1.094,1.094,0,0,0,36.094,22Z" transform="translate(3.285 2.065)" fill="#12263f"/>
        <path id="Trazado_1034102" data-name="Trazado 1034102" d="M40.783,43H21.094a1.094,1.094,0,0,0,0,2.188h19.69a1.094,1.094,0,0,0,0-2.188Z" transform="translate(1.877 4.036)" fill="#12263f"/>
        <path id="Trazado_1034103" data-name="Trazado 1034103" d="M40.783,48H21.094a1.094,1.094,0,0,0,0,2.188h19.69a1.094,1.094,0,0,0,0-2.188Z" transform="translate(1.877 4.505)" fill="#12263f"/>
        <path id="Trazado_1034104" data-name="Trazado 1034104" d="M40.783,53H21.094a1.094,1.094,0,0,0,0,2.188h19.69a1.094,1.094,0,0,0,0-2.188Z" transform="translate(1.877 4.975)" fill="#12263f"/>
      </g>
    </g>
  </g>
</svg>
