<svg xmlns="http://www.w3.org/2000/svg" width="188" height="157" viewBox="0 0 188 157">
  <g id="Grupo_1189563" data-name="Grupo 1189563" transform="translate(-1225.711 -3309)">
    <rect id="Rectángulo_460082" data-name="Rectángulo 460082" width="188" height="157" transform="translate(1225.711 3309)" fill="#5af6ea"/>
    <g id="monitor_1_" data-name="monitor (1)" transform="translate(1254.461 3321.813)">
      <path id="Trazado_1033396" data-name="Trazado 1033396" d="M115.405,35.729H113a16.666,16.666,0,1,0-24.819,0H65.406V17.211a1.852,1.852,0,0,0-1.852-1.852H56.147A1.852,1.852,0,0,0,54.3,17.211V35.729H52.444V9.8a1.852,1.852,0,0,0-1.852-1.852H43.184A1.852,1.852,0,0,0,41.333,9.8V35.729H39.481V22.767a1.852,1.852,0,0,0-1.852-1.852H30.222a1.852,1.852,0,0,0-1.852,1.852V35.729H15.407A7.416,7.416,0,0,0,8,43.137V98.691a7.416,7.416,0,0,0,7.407,7.407H53.578l-2.47,7.407H45.036a1.852,1.852,0,0,0-1.852,1.852v3.7H24.666a1.852,1.852,0,0,0,0,3.7h81.48a1.852,1.852,0,0,0,0-3.7H87.628v-3.7a1.852,1.852,0,0,0-1.852-1.852H79.7l-2.47-7.407h38.171a7.416,7.416,0,0,0,7.407-7.407V43.137A7.416,7.416,0,0,0,115.405,35.729ZM102.443,11.79a12.988,12.988,0,0,1,10.977,10.977H102.443Zm-1.086,14.68h12.062A12.954,12.954,0,0,1,92.832,35ZM87.628,24.619A12.983,12.983,0,0,1,98.739,11.79V23.852l-8.525,8.525a12.9,12.9,0,0,1-2.586-7.759ZM58,19.063h3.7V54.248H58Zm-5.555,20.37H54.3V54.248H52.444ZM45.036,11.656h3.7V54.248h-3.7ZM39.481,39.433h1.852V54.248H39.481ZM32.074,24.619h3.7V54.248h-3.7Zm51.851,92.591v1.852H46.888v-1.852Zm-28.911-3.7,2.47-7.407H73.33l2.47,7.407Zm64.1-14.815a3.708,3.708,0,0,1-3.7,3.7h-100a3.708,3.708,0,0,1-3.7-3.7v-3.7H119.109Zm0-7.407H11.7V43.137a3.708,3.708,0,0,1,3.7-3.7H28.37V54.248H26.518V43.137a1.852,1.852,0,0,0-1.852-1.852H17.259a1.852,1.852,0,0,0-1.852,1.852V56.1a1.852,1.852,0,0,0,1.852,1.852H76.517A1.852,1.852,0,0,0,78.369,56.1V43.137a1.852,1.852,0,0,0-1.852-1.852H69.11a1.852,1.852,0,0,0-1.852,1.852V54.248H65.406V39.433H92.971a16.6,16.6,0,0,0,15.24,0h7.194a3.708,3.708,0,0,1,3.7,3.7Zm-96.294-46.3v9.259h-3.7V44.989Zm48.147,9.259V44.989h3.7v9.259Z" transform="translate(0 0)"/>
      <path id="Trazado_1033397" data-name="Trazado 1033397" d="M52.963,392H41.852a1.852,1.852,0,0,0,0,3.7H52.963a1.852,1.852,0,0,0,0-3.7Z" transform="translate(-24.593 -295.161)"/>
      <path id="Trazado_1033398" data-name="Trazado 1033398" d="M115.7,392h-1.852a1.852,1.852,0,1,0,0,3.7H115.7a1.852,1.852,0,0,0,0-3.7Z" transform="translate(-79.926 -295.161)"/>
      <path id="Trazado_1033399" data-name="Trazado 1033399" d="M337.851,171.111a1.846,1.846,0,0,0,1.309-.542l6.865-6.865h15.9a1.852,1.852,0,1,0,0-3.7H345.259a1.852,1.852,0,0,0-1.31.542l-7.407,7.407a1.852,1.852,0,0,0,1.31,3.161Z" transform="translate(-252.075 -116.863)"/>
      <path id="Trazado_1033400" data-name="Trazado 1033400" d="M134.42,252.963a5.555,5.555,0,0,0-4.8,2.771l-19.386-11.31a5.555,5.555,0,0,0-10.9.139L79.817,259.194a5.551,5.551,0,0,0-9.6.5l-19.282-8.035a5.558,5.558,0,1,0-.454,3.822l19.282,8.035a5.554,5.554,0,0,0,10.866-.306l19.509-14.632a5.549,5.549,0,0,0,9.458-.243l19.386,11.31a5.555,5.555,0,1,0,5.44-6.687Zm-87.035.009a1.856,1.856,0,1,1,0-.009Zm27.777,11.1a1.854,1.854,0,0,1-1.852-1.852v-.009a1.852,1.852,0,1,1,1.852,1.861Zm29.629-16.666a1.852,1.852,0,1,1,1.852-1.852,1.852,1.852,0,0,1-1.852,1.852ZM134.42,260.37a1.852,1.852,0,1,1,1.852-1.852A1.852,1.852,0,0,1,134.42,260.37Z" transform="translate(-24.57 -178.345)"/>
      <path id="Trazado_1033401" data-name="Trazado 1033401" d="M334.815,344H321.852a1.852,1.852,0,0,0,0,3.7h12.963a1.852,1.852,0,0,0,0-3.7Z" transform="translate(-239.779 -258.272)"/>
      <path id="Trazado_1033402" data-name="Trazado 1033402" d="M359.407,320h-5.555a1.852,1.852,0,1,0,0,3.7h5.555a1.852,1.852,0,0,0,0-3.7Z" transform="translate(-264.372 -239.827)"/>
      <path id="Trazado_1033403" data-name="Trazado 1033403" d="M41.852,235.7h20.37a1.852,1.852,0,0,0,0-3.7H41.852a1.852,1.852,0,1,0,0,3.7Z" transform="translate(-24.593 -172.197)"/>
      <path id="Trazado_1033404" data-name="Trazado 1033404" d="M153.852,235.7H155.7a1.852,1.852,0,0,0,0-3.7h-1.852a1.852,1.852,0,0,0,0,3.7Z" transform="translate(-110.667 -172.197)"/>
    </g>
  </g>
</svg>
