<svg xmlns="http://www.w3.org/2000/svg" width="84" height="84" viewBox="0 0 84 84">
  <g id="Grupo_1189287" data-name="Grupo 1189287" transform="translate(-393.711 -4087)">
    <rect id="Rectángulo_459827" data-name="Rectángulo 459827" width="84" height="84" transform="translate(393.711 4087)" fill="#68eae0"/>
    <g id="Layer_44" transform="translate(403.711 4097)">
      <path id="Trazado_1033063" data-name="Trazado 1033063" d="M45.5,27H39.949a11,11,0,1,0,0,2H45.5a.5.5,0,0,0,.5-.5v-1A.5.5,0,0,0,45.5,27ZM29,37a9,9,0,1,1,8.941-10H27.414l3.939-3.939a.5.5,0,0,0,0-.707l-.707-.707a.5.5,0,0,0-.707,0l-5.646,5.646a1,1,0,0,0,0,1.414l5.646,5.646a.5.5,0,0,0,.707,0l.707-.707a.5.5,0,0,0,0-.707L27.414,29H37.941A9.011,9.011,0,0,1,29,37Z"/>
      <path id="Trazado_1033064" data-name="Trazado 1033064" d="M53,46H11a1,1,0,0,1-1-1V11a1,1,0,0,1,1-1H53a1,1,0,0,1,1,1V45A1,1,0,0,1,53,46ZM12,44H52V12H12Z"/>
      <path id="Trazado_1033065" data-name="Trazado 1033065" d="M61,49H58V9a3.009,3.009,0,0,0-3-3H9A3.009,3.009,0,0,0,6,9V49H3a1,1,0,0,0-1,1v3a5,5,0,0,0,5,5H57a5,5,0,0,0,5-5V50A1,1,0,0,0,61,49ZM8,9A1,1,0,0,1,9,8H55a1,1,0,0,1,1,1V49H41a1,1,0,0,0-.83.45L39.13,51l-.67,1H25.54l-.67-1-1.04-1.55A1,1,0,0,0,23,49H8ZM60,53a3.009,3.009,0,0,1-3,3H7a3.009,3.009,0,0,1-3-3V51H22.46l1.71,2.55A1,1,0,0,0,25,54H39a1,1,0,0,0,.83-.45L41.54,51H60Z"/>
    </g>
  </g>
</svg>
