<svg xmlns="http://www.w3.org/2000/svg" width="84" height="84" viewBox="0 0 84 84">
  <g id="Grupo_1189281" data-name="Grupo 1189281" transform="translate(-185.711 -6813)">
    <rect id="Rectángulo_459916" data-name="Rectángulo 459916" width="84" height="84" transform="translate(185.711 6813)" fill="#68eae0"/>
    <g id="user-woman-girl-working-laptop" transform="translate(195.711 6823)">
      <path id="Trazado_1033031" data-name="Trazado 1033031" d="M16,21a3,3,0,0,0-3,3h2a1,1,0,0,1,2,0h2A3,3,0,0,0,16,21Z"/>
      <path id="Trazado_1033032" data-name="Trazado 1033032" d="M28,21a3,3,0,0,0-3,3h2a1,1,0,0,1,2,0h2a3,3,0,0,0-3-3Z"/>
      <path id="Trazado_1033033" data-name="Trazado 1033033" d="M22,31a1,1,0,0,1-1-1H19a3,3,0,0,0,6,0H23A1,1,0,0,1,22,31Z"/>
      <path id="Trazado_1033034" data-name="Trazado 1033034" d="M59,38H39V19A17,17,0,0,0,5,19V43.43l-.79.21A3.018,3.018,0,0,0,2,46.54V61a1,1,0,0,0,1,1H61a1,1,0,0,0,1-1V41a3.009,3.009,0,0,0-3-3ZM11.39,8.39a14.994,14.994,0,0,1,25.56,9.59A5.134,5.134,0,0,0,35,17.1V17a1,1,0,0,0-1-1H31.62l-1.73-3.45a1.039,1.039,0,0,0-1.78,0L26.38,16H17.62l-1.73-3.45a1.039,1.039,0,0,0-1.78,0L12.38,16H10a1,1,0,0,0-1,1v.1a5.006,5.006,0,0,0-1.95.89,14.879,14.879,0,0,1,4.34-9.6ZM37,22a2.994,2.994,0,0,1-2,2.81V19.18a3.179,3.179,0,0,1,1.12.69A3.03,3.03,0,0,1,37,22ZM22,36A11.007,11.007,0,0,1,11,25V18h2a.988.988,0,0,0,.89-.55L15,15.24l1.11,2.21A.988.988,0,0,0,17,18H27a.988.988,0,0,0,.89-.55L29,15.24l1.11,2.21A.988.988,0,0,0,31,18h2v7A11.007,11.007,0,0,1,22,36Zm3,1.64V46H19V37.64A12.68,12.68,0,0,0,25,37.64ZM7.87,19.88A3.1,3.1,0,0,1,9,19.18v5.64a3,3,0,0,1-1.13-4.94ZM7,25.97a4.958,4.958,0,0,0,2.16.94A13.017,13.017,0,0,0,17,37V54H14a7.008,7.008,0,0,1-7-7ZM4,60V56.47L8.24,60Zm14-3v2a3,3,0,0,0,.18,1H11.36L4,53.86V46.54a1.011,1.011,0,0,1,.73-.97L5,45.5V47a9.014,9.014,0,0,0,9,9h4a1,1,0,0,0,1-1V48h6v7a1,1,0,0,0,1,1H19A1,1,0,0,0,18,57Zm12,3H21a1,1,0,0,1-1-1V58H30Zm0-19V54H27V37a13.017,13.017,0,0,0,7.84-10.09A4.736,4.736,0,0,0,37,25.97V38H33a3.009,3.009,0,0,0-3,3ZM60,60H32V41a1,1,0,0,1,1-1H59a1,1,0,0,1,1,1Z"/>
      <circle id="Elipse_13722" data-name="Elipse 13722" cx="2" cy="2" r="2" transform="translate(44 48)"/>
      <path id="Trazado_1033035" data-name="Trazado 1033035" d="M35,56h2v2H35Z"/>
      <path id="Trazado_1033036" data-name="Trazado 1033036" d="M39,56h2v2H39Z"/>
      <path id="Trazado_1033037" data-name="Trazado 1033037" d="M43,56h2v2H43Z"/>
      <path id="Trazado_1033038" data-name="Trazado 1033038" d="M47,56h2v2H47Z"/>
      <path id="Trazado_1033039" data-name="Trazado 1033039" d="M51,56h2v2H51Z"/>
      <path id="Trazado_1033040" data-name="Trazado 1033040" d="M55,56h2v2H55Z"/>
    </g>
  </g>
</svg>
