<svg xmlns="http://www.w3.org/2000/svg" xmlns:xlink="http://www.w3.org/1999/xlink" width="74" height="74" viewBox="0 0 74 74">
  <defs>
    <clipPath id="clip-path">
      <path id="path195" d="M0-682.665H63.578v63.578H0Z" transform="translate(0 682.665)"/>
    </clipPath>
  </defs>
  <g id="Grupo_1189291" data-name="Grupo 1189291" transform="translate(-304.711 -5864)">
    <rect id="Rectángulo_459921" data-name="Rectángulo 459921" width="74" height="74" transform="translate(304.711 5864)" fill="none"/>
    <g id="g189" transform="translate(309.711 6551.665)">
      <g id="g191" transform="translate(0 -682.665)">
        <g id="g193" transform="translate(0 0)" clip-path="url(#clip-path)">
          <g id="g199" transform="translate(0 12.914)">
            <path id="path201" d="M-429.424,14.979a1.242,1.242,0,0,1-1.242-1.242V-9.608a3.73,3.73,0,0,1,3.725-3.725h36.384a1.242,1.242,0,0,1,1.242,1.242,1.242,1.242,0,0,1-1.242,1.242H-426.94a1.243,1.243,0,0,0-1.242,1.242V13.737A1.242,1.242,0,0,1-429.424,14.979Z" transform="translate(430.666 13.333)"/>
          </g>
          <g id="g203" transform="translate(50.043 12.914)">
            <path id="path205" d="M-119.706-262.354a1.242,1.242,0,0,1-1.242-1.242v-23.345a1.243,1.243,0,0,0-1.242-1.242h-8.568A1.242,1.242,0,0,1-132-289.424a1.242,1.242,0,0,1,1.242-1.242h8.568a3.73,3.73,0,0,1,3.725,3.725V-263.6A1.242,1.242,0,0,1-119.706-262.354Z" transform="translate(132 290.666)"/>
          </g>
          <g id="g207" transform="translate(20.344 41.226)">
            <path id="path209" d="M8.315-10.85H-12.092a1.242,1.242,0,0,1-1.242-1.242,1.242,1.242,0,0,1,1.242-1.242H8.315a1.242,1.242,0,0,1,1.242,1.242A1.242,1.242,0,0,1,8.315-10.85Z" transform="translate(13.333 13.333)"/>
          </g>
          <path id="path211" d="M303.2-472.052h-5.96A1.242,1.242,0,0,1,296-473.293v-5.464A1.242,1.242,0,0,1,297.241-480h5.96a1.242,1.242,0,0,1,1.242,1.242v5.464A1.242,1.242,0,0,1,303.2-472.052Zm-4.719-2.484h3.477v-2.98h-3.477Z" transform="translate(-268.432 498.874)"/>
          <path id="path213" d="M420.535-472.052h-5.96a1.242,1.242,0,0,1-1.242-1.242v-5.464A1.242,1.242,0,0,1,414.574-480h5.96a1.242,1.242,0,0,1,1.242,1.242v5.464A1.242,1.242,0,0,1,420.535-472.052Zm-4.719-2.484h3.477v-2.98h-3.477Z" transform="translate(-374.838 498.874)"/>
          <path id="path215" d="M537.868-472.052h-5.96a1.242,1.242,0,0,1-1.242-1.242v-5.464A1.242,1.242,0,0,1,531.907-480h5.96a1.242,1.242,0,0,1,1.242,1.242v5.464A1.242,1.242,0,0,1,537.868-472.052Zm-4.719-2.484h3.477v-2.98h-3.477Z" transform="translate(-481.243 498.874)"/>
          <path id="path217" d="M222.715-354.719h-7.654a1.242,1.242,0,0,1-1.242-1.242v-5.464a1.242,1.242,0,0,1,1.242-1.242h7.654a1.242,1.242,0,0,1,1.242,1.242v5.464A1.242,1.242,0,0,1,222.715-354.719ZM216.3-357.2h5.17v-2.98H216.3Z" transform="translate(-193.906 392.468)"/>
          <path id="path219" d="M368.894-354.719h-7.654A1.242,1.242,0,0,1,360-355.96v-5.464a1.242,1.242,0,0,1,1.242-1.242h7.654a1.242,1.242,0,0,1,1.242,1.242v5.464A1.242,1.242,0,0,1,368.894-354.719Zm-6.412-2.484h5.17v-2.98h-5.17Z" transform="translate(-326.472 392.468)"/>
          <path id="path221" d="M185.868-472.052h-5.96a1.242,1.242,0,0,1-1.242-1.242v-5.464A1.242,1.242,0,0,1,179.908-480h5.96a1.242,1.242,0,0,1,1.242,1.242v5.464A1.242,1.242,0,0,1,185.868-472.052Zm-4.719-2.484h3.477v-2.98H181.15Z" transform="translate(-162.027 498.874)"/>
          <path id="path223" d="M68.535-472.052h-5.96a1.242,1.242,0,0,1-1.242-1.242v-5.464A1.242,1.242,0,0,1,62.575-480h5.96a1.242,1.242,0,0,1,1.242,1.242v5.464A1.242,1.242,0,0,1,68.535-472.052Zm-4.719-2.484h3.477v-2.98H63.817Z" transform="translate(-55.621 498.874)"/>
          <g id="g225" transform="translate(55.771 52.004)">
            <path id="path227" d="M-69.258-1.76a1.238,1.238,0,0,1-.876-.361,1.242,1.242,0,0,1,0-1.756l2.69-2.7a7.765,7.765,0,0,0,2.273-5.51,1.242,1.242,0,0,1,1.242-1.242,1.242,1.242,0,0,1,1.242,1.242,10.233,10.233,0,0,1-3,7.261l-2.69,2.7A1.238,1.238,0,0,1-69.258-1.76Z" transform="translate(70.5 13.333)"/>
          </g>
          <g id="g229" transform="translate(56.116 34.251)">
            <path id="path231" d="M-60.568-183.727a1.242,1.242,0,0,1-1.242-1.242v-15.265a1.249,1.249,0,0,0-1.247-1.247,1.249,1.249,0,0,0-1.247,1.247v4.067a1.242,1.242,0,0,1-1.242,1.242,1.242,1.242,0,0,1-1.242-1.242v-4.067a3.735,3.735,0,0,1,3.731-3.731,3.735,3.735,0,0,1,3.731,3.731v15.265A1.242,1.242,0,0,1-60.568-183.727Z" transform="translate(66.788 203.965)"/>
          </g>
          <g id="g233" transform="translate(51.138 28.6)">
            <path id="path235" d="M-60.568-164.73a1.242,1.242,0,0,1-1.242-1.242v-13.314a1.249,1.249,0,0,0-1.247-1.247,1.249,1.249,0,0,0-1.247,1.247v9.717a1.242,1.242,0,0,1-1.242,1.242,1.242,1.242,0,0,1-1.242-1.242v-9.717a3.735,3.735,0,0,1,3.731-3.731,3.735,3.735,0,0,1,3.731,3.731v13.314A1.242,1.242,0,0,1-60.568-164.73Z" transform="translate(66.788 183.017)"/>
          </g>
          <g id="g237" transform="translate(46.16 24.339)">
            <path id="path239" d="M-60.568-206.227a1.242,1.242,0,0,1-1.242-1.242v-17.576a1.249,1.249,0,0,0-1.247-1.247,1.249,1.249,0,0,0-1.247,1.247v13.979a1.242,1.242,0,0,1-1.242,1.242,1.242,1.242,0,0,1-1.242-1.242v-13.979a3.735,3.735,0,0,1,3.731-3.731,3.735,3.735,0,0,1,3.731,3.731v17.576A1.242,1.242,0,0,1-60.568-206.227Z" transform="translate(66.788 228.775)"/>
          </g>
          <g id="g241" transform="translate(34.768 40.847)">
            <path id="path243" d="M-73.549,9.4a1.238,1.238,0,0,1-.881-.366L-77.822,5.62a10.265,10.265,0,0,1-2.8-5.269l-1.493-7.57a3.757,3.757,0,0,1,.591-2.872,3.757,3.757,0,0,1,2.465-1.588,3.789,3.789,0,0,1,3.283,1v-1.416a1.242,1.242,0,0,1,1.242-1.242,1.242,1.242,0,0,1,1.242,1.242v9.23a1.242,1.242,0,0,1-1.093,1.233,1.242,1.242,0,0,1-1.355-.937l-1.4-5.7a1.305,1.305,0,0,0-1.491-.972,1.293,1.293,0,0,0-.848.546,1.292,1.292,0,0,0-.2.988l1.493,7.57a7.789,7.789,0,0,0,2.126,4l3.392,3.411a1.242,1.242,0,0,1,0,1.756A1.238,1.238,0,0,1-73.549,9.4Z" transform="translate(82.189 13.333)"/>
          </g>
          <g id="g245" transform="translate(41.181 28.6)">
            <path id="path247" d="M-7.113-149.526a1.242,1.242,0,0,1-1.242-1.242v-13.314A1.249,1.249,0,0,0-9.6-165.329a1.249,1.249,0,0,0-1.247,1.247v11.9a1.242,1.242,0,0,1-1.242,1.242,1.242,1.242,0,0,1-1.242-1.242v-11.9A3.735,3.735,0,0,1-9.6-167.813a3.735,3.735,0,0,1,3.731,3.731v13.314A1.242,1.242,0,0,1-7.113-149.526Z" transform="translate(13.333 167.813)"/>
          </g>
          <g id="g249" transform="translate(0 52.004)">
            <path id="path251" d="M-6.767-1.76a1.238,1.238,0,0,1-.881-.366l-2.69-2.7a10.233,10.233,0,0,1-3-7.261,1.242,1.242,0,0,1,1.242-1.242,1.242,1.242,0,0,1,1.242,1.242,7.765,7.765,0,0,0,2.273,5.51l2.69,2.7a1.242,1.242,0,0,1,0,1.756A1.238,1.238,0,0,1-6.767-1.76Z" transform="translate(13.333 13.333)"/>
          </g>
          <g id="g253" transform="translate(0 34.251)">
            <path id="path255" d="M-12.092-183.727a1.242,1.242,0,0,1-1.242-1.242v-15.265A3.735,3.735,0,0,1-9.6-203.965a3.735,3.735,0,0,1,3.731,3.731v4.067a1.242,1.242,0,0,1-1.242,1.242,1.242,1.242,0,0,1-1.242-1.242v-4.067A1.249,1.249,0,0,0-9.6-201.481a1.249,1.249,0,0,0-1.247,1.247v15.265A1.242,1.242,0,0,1-12.092-183.727Z" transform="translate(13.333 203.965)"/>
          </g>
          <g id="g257" transform="translate(4.978 28.6)">
            <path id="path259" d="M-12.092-164.73a1.242,1.242,0,0,1-1.242-1.242v-13.314A3.735,3.735,0,0,1-9.6-183.017a3.735,3.735,0,0,1,3.731,3.731v9.717a1.242,1.242,0,0,1-1.242,1.242,1.242,1.242,0,0,1-1.242-1.242v-9.717A1.249,1.249,0,0,0-9.6-180.533a1.249,1.249,0,0,0-1.247,1.247v13.314A1.242,1.242,0,0,1-12.092-164.73Z" transform="translate(13.333 183.017)"/>
          </g>
          <g id="g261" transform="translate(9.957 24.339)">
            <path id="path263" d="M-12.092-206.227a1.242,1.242,0,0,1-1.242-1.242v-17.576A3.735,3.735,0,0,1-9.6-228.775a3.735,3.735,0,0,1,3.731,3.731v13.979a1.242,1.242,0,0,1-1.242,1.242,1.242,1.242,0,0,1-1.242-1.242v-13.979A1.249,1.249,0,0,0-9.6-226.292a1.249,1.249,0,0,0-1.247,1.247v17.576A1.242,1.242,0,0,1-12.092-206.227Z" transform="translate(13.333 228.775)"/>
          </g>
          <g id="g265" transform="translate(18.928 40.847)">
            <path id="path267" d="M-22.673,9.4a1.238,1.238,0,0,1-.876-.361,1.242,1.242,0,0,1,0-1.756l3.392-3.411a7.79,7.79,0,0,0,2.126-4l1.493-7.57a1.292,1.292,0,0,0-.2-.988,1.293,1.293,0,0,0-.848-.546,1.305,1.305,0,0,0-1.491.972l-1.4,5.7a1.242,1.242,0,0,1-1.355.937,1.242,1.242,0,0,1-1.093-1.233v-9.23a1.242,1.242,0,0,1,1.242-1.242,1.242,1.242,0,0,1,1.242,1.242v1.416a3.789,3.789,0,0,1,3.283-1A3.757,3.757,0,0,1-14.7-10.091a3.757,3.757,0,0,1,.591,2.872L-15.6.351A10.265,10.265,0,0,1-18.4,5.62l-3.392,3.411A1.238,1.238,0,0,1-22.673,9.4Z" transform="translate(23.915 13.333)"/>
          </g>
          <g id="g269" transform="translate(14.935 28.6)">
            <path id="path271" d="M-65.546-149.526a1.242,1.242,0,0,1-1.242-1.242v-13.314a3.735,3.735,0,0,1,3.731-3.731,3.735,3.735,0,0,1,3.731,3.731v11.9a1.242,1.242,0,0,1-1.242,1.242,1.242,1.242,0,0,1-1.242-1.242v-11.9a1.249,1.249,0,0,0-1.247-1.247,1.249,1.249,0,0,0-1.247,1.247v13.314A1.242,1.242,0,0,1-65.546-149.526Z" transform="translate(66.788 167.813)"/>
          </g>
          <g id="g273" transform="translate(18.378 0)">
            <path id="path275" d="M-130.589,2.065A1.242,1.242,0,0,1-131.83.823V-1.661A2.238,2.238,0,0,0-134.066-3.9h-5.215A4.724,4.724,0,0,1-144-8.615a4.724,4.724,0,0,1,4.719-4.719h8.692a1.242,1.242,0,0,1,1.242,1.242,1.242,1.242,0,0,1-1.242,1.242h-8.692a2.238,2.238,0,0,0-2.235,2.235,2.238,2.238,0,0,0,2.235,2.235h5.215a4.724,4.724,0,0,1,4.719,4.719V.823A1.242,1.242,0,0,1-130.589,2.065Z" transform="translate(144 13.333)"/>
          </g>
          <g id="g277" transform="translate(45.697 14.156)">
            <path id="path279"/>
          </g>
        </g>
      </g>
    </g>
  </g>
</svg>
